<svg width="24" height="24" viewBox="0 0 24 24" fill="none" xmlns="http://www.w3.org/2000/svg">
<path fill-rule="evenodd" clip-rule="evenodd" d="M12 3.99999C12.979 3.99999 13.9169 4.17589 14.7839 4.49767C17.9258 2.36217 20.5513 1.49254 21.5502 2.49144C22.4393 3.3804 21.8481 5.55811 20.2018 8.2415L20.2018 8.24147C18.9557 10.2724 17.1051 12.593 14.8345 14.864L14.8036 14.8949C12.9366 16.7585 11.0369 18.3378 9.29313 19.5304C9.05342 19.6943 8.81665 19.8509 8.58332 20C5.72889 21.8233 3.38843 22.5133 2.45835 21.5832C1.45487 20.5798 2.33714 17.9348 4.494 14.7738C4.17454 13.9097 4.00004 12.9752 4.00004 12C4.00004 7.58165 7.58177 3.99999 12 3.99999ZM12.0274 19.9999C16.4272 19.9852 19.9906 16.4187 20 12.0175C18.9181 13.4226 17.6461 14.8777 16.247 16.2799C14.8589 17.6648 13.4192 18.9252 12.0274 19.9999ZM19.9062 4.13548C19.3144 4.25353 18.6438 4.53331 17.7085 5.04503C17.4054 5.20848 17.0948 5.3878 16.7774 5.58251C17.4167 6.05919 17.9824 6.62914 18.4543 7.2722C18.6509 6.95201 18.8317 6.63866 18.9966 6.33312C19.5083 5.39781 19.7881 4.72728 19.9062 4.13548ZM6.30009 19.0296C6.61918 18.8575 6.94676 18.6678 7.28172 18.4612C6.63163 17.9856 6.05595 17.4143 5.57554 16.7681C5.37077 17.1002 5.18278 17.425 5.012 17.7416C4.50022 18.6769 4.2205 19.3475 4.1024 19.9392C4.69419 19.8212 5.36473 19.5414 6.30009 19.0296Z" fill="#516CF7"/>
</svg>
