<?xml version="1.0" encoding="UTF-8" standalone="no"?>
<svg
   version="1.1"
   style=""
   xml:space="preserve"
   width="350"
   height="75"
   id="svg1250"
   sodipodi:docname="allround-pc.svg"
   inkscape:version="1.2 (dc2aedaf03, 2022-05-15)"
   xmlns:inkscape="http://www.inkscape.org/namespaces/inkscape"
   xmlns:sodipodi="http://sodipodi.sourceforge.net/DTD/sodipodi-0.dtd"
   xmlns="http://www.w3.org/2000/svg"
   xmlns:svg="http://www.w3.org/2000/svg"><defs
   id="defs1254" /><sodipodi:namedview
   id="namedview1252"
   pagecolor="#ffffff"
   bordercolor="#000000"
   borderopacity="0.25"
   inkscape:showpageshadow="2"
   inkscape:pageopacity="0.0"
   inkscape:pagecheckerboard="0"
   inkscape:deskcolor="#d1d1d1"
   showgrid="false"
   inkscape:zoom="3.9428571"
   inkscape:cx="119.32971"
   inkscape:cy="37.663043"
   inkscape:window-width="2560"
   inkscape:window-height="1351"
   inkscape:window-x="1431"
   inkscape:window-y="517"
   inkscape:window-maximized="1"
   inkscape:current-layer="svg_1" /><rect
   id="backgroundrect"
   width="100%"
   height="100%"
   x="0"
   y="0"
   fill="none"
   stroke="none"
   class=""
   style="" />
<style
   type="text/css"
   id="style1226">
	.st0{fill:#1961AC;}
	.st1{fill:#282727;}
</style>

<g
   class="currentLayer"
   style=""
   id="g1248"><title
     id="title1228">Layer 1</title><g
     id="svg_1"
     class="">
	<g
   id="svg_2"
   style="fill:#ffffff;fill-opacity:1">
		<g
   id="svg_3"
   style="fill:#ffffff;fill-opacity:1">
			<path
   class="st0"
   d="M346.3554916381836,11.290469455718995 c0,0 -36.8,-3.9 -40.3,30.8 c0,0 -2.3,24.4 28.7,22.1 l10.9,-10.7 c0,0 -23.8,7.2 -23.8,-13.7 s21.2,-22.9 27.9,-22.2 L346.3554916381836,11.290469455718995 z"
   id="svg_4"
   style="fill:#ffffff;fill-opacity:1" />
		</g>
		<g
   id="svg_5"
   style="fill:#ffffff;fill-opacity:1">
			<path
   class="st0"
   d="M296.3554916381836,11.990469455718994 l-28.1,-0.8 l-9.2,53.1 h14.6 l3.5,-18.7 c0,0 26.5,0.6000000000000002 29.9,-16.4 S296.3554916381836,11.990469455718994 296.3554916381836,11.990469455718994 zM293.5554916381836,28.590469455718996 c-1.4,11.5 -15.6,12.7 -15.6,12.7 l5.1,-26 C287.75549163818357,16.29046945571899 294.9554916381836,17.090469455718996 293.5554916381836,28.590469455718996 z"
   id="svg_6"
   style="fill:#ffffff;fill-opacity:1" />
		</g>
	</g>
	<g
   id="svg_7"
   style="fill:#ffffff;fill-opacity:1">
		<path
   class="st1"
   d="M87.3554916381836,18.090469455718996 l12.7,31.1 l-7,0 l-2.8,-7.4 l-13.1,-0.1 L74.3554916381836,48.990469455718994 l-6.6,0 l12.9,-31 L87.3554916381836,18.090469455718996 zM79.2554916381836,36.190469455719 l9,0.1 l-4.5,-12.1 L79.2554916381836,36.190469455719 z"
   id="svg_8"
   style="fill:#ffffff;fill-opacity:1" />
		<path
   class="st1"
   d="M107.8554916381836,18.190469455718997 l-0.2,31 l-6.1,0 l0.2,-31 L107.8554916381836,18.190469455718997 z"
   id="svg_9"
   style="fill:#ffffff;fill-opacity:1" />
		<path
   class="st1"
   d="M118.95549163818359,18.190469455718997 l-0.2,31 l-6.1,0 l0.2,-31 L118.95549163818359,18.190469455718997 z"
   id="svg_10"
   style="fill:#ffffff;fill-opacity:1" />
		<path
   class="st1"
   d="M134.3554916381836,36.090469455718996 l0,-3.4 c0,-0.5 -0.1,-0.9 -0.5,-1.3 c-0.3000000000000001,-0.3000000000000001 -0.7000000000000002,-0.5 -1.3,-0.5 l-3.1,0 l-0.1,18.4 l-5.5,0 l0.1,-22.8 l10.1,0.1 c2.1,0 3.6,0.5 4.5,1.3 c0.9,0.9 1.4,2 1.3,3.4 l0,4.8 L134.3554916381836,36.090469455718996 z"
   id="svg_11"
   style="fill:#ffffff;fill-opacity:1" />
		<path
   class="st1"
   d="M154.05549163818358,26.29046945571899 c4.3,0.2 7.3,1.5 9,4 c1.7000000000000002,2.5 2.6,5.1 2.5,7.8 c0,3.2 -0.9,5.9 -2.8,8.2 s-4.9,3.4 -9.1,3.5 c-4,-0.2 -7,-1.4 -8.8,-3.7 c-1.8,-2.3 -2.7,-5 -2.7,-8 c0,-3.1 0.9,-5.9 2.9,-8.2 C146.9554916381836,27.590469455718996 149.9554916381836,26.390469455718993 154.05549163818358,26.29046945571899 zM159.4554916381836,38.190469455719 c0,-2.5 -0.6000000000000002,-4.3 -1.6,-5.4 c-1.1,-1.1 -2.4,-1.6 -4,-1.6 c-1.9,0 -3.3,0.6000000000000002 -4.2,1.9 c-1,1.2 -1.5,2.9 -1.5,4.9 c0,2 0.4,3.6 1.3,4.9 c0.9,1.3 2.4,2 4.4,2.1 c1.7000000000000002,0 3,-0.5 4,-1.7000000000000002 C158.9554916381836,42.190469455719 159.4554916381836,40.490469455718994 159.4554916381836,38.190469455719 z"
   id="svg_12"
   style="fill:#ffffff;fill-opacity:1" />
		<path
   class="st1"
   d="M174.8554916381836,26.79046945571899 l-0.1,14.7 c0,0.9 0.2,1.7000000000000002 0.7000000000000002,2.3 c0.5,0.6000000000000002 1.3,0.9 2.4,0.9 l5.5,0 l0.1,-17.9 l5.8,0 l-0.1,22.8 l-11.6,-0.1 c-1.5,0 -2.8,-0.2 -3.9,-0.5 c-1.1,-0.3000000000000001 -1.9,-0.8 -2.5,-1.5 c-0.6000000000000002,-0.6000000000000002 -1,-1.4 -1.5,-2.4 c-0.4,-1 -0.6000000000000002,-2 -0.6000000000000002,-2.9 l0.1,-15.5 L174.8554916381836,26.79046945571899 z"
   id="svg_13"
   style="fill:#ffffff;fill-opacity:1" />
		<path
   class="st1"
   d="M206.6554916381836,26.990469455718994 c1.1,0 2.2,0.2 3.4,0.6000000000000002 c1.1,0.4 2.1,0.9 2.8,1.7000000000000002 c0.8,0.9 1.2,1.8 1.5,2.8 c0.2,1 0.4,1.8 0.3000000000000001,2.4 l-0.1,15.3 l-5.8,0 l0.1,-14.7 c0,-1.1 -0.3000000000000001,-1.9 -0.8,-2.4 c-0.5,-0.5 -1.3,-0.7000000000000002 -2.2,-0.7000000000000002 l-5.6,0 l-0.1,17.8 l-5.8,0 l0.1,-22.8 L206.6554916381836,26.990469455718994 z"
   id="svg_14"
   style="fill:#ffffff;fill-opacity:1" />
		<path
   class="st1"
   d="M234.55549163818358,27.190469455718997 l0,-8.3 l5.8,0 l-0.2,31 l-12,-0.1 c-2.6,0 -4.9,-0.9 -6.8,-2.8 c-2,-1.9 -3,-4.9 -3.1,-9.1 c0,-2.8 0.8,-5.3 2.5,-7.5 c1.7000000000000002,-2.2 4.2,-3.3 7.6,-3.4 L234.55549163818358,27.190469455718997 zM230.2554916381836,31.990469455718994 c-1.2,0 -2.2,0.2 -2.8,0.5 c-0.6000000000000002,0.3000000000000001 -1.1,0.7000000000000002 -1.5,1.1 c-0.3000000000000001,0.3000000000000001 -0.7000000000000002,0.8 -1,1.5 c-0.4,0.8 -0.6000000000000002,2 -0.6000000000000002,3.7 c0,1.9 0.4,3.4 1.1,4.5 c0.8,1.1 2.1,1.7000000000000002 3.9,1.8 l5,0 l0.1,-13.1 L230.2554916381836,31.990469455718994 z"
   id="svg_15"
   style="fill:#ffffff;fill-opacity:1" />
		<path
   class="st1"
   d="M243.95549163818362,40.990469455718994 l0,-5.4 l14.1,0.1 l0,5.4 L243.95549163818362,40.990469455718994 z"
   id="svg_16"
   style="fill:#ffffff;fill-opacity:1" />
	</g>
	<g
   id="svg_17">
		<path
   class="st0"
   d="M114.95549163818359,6.0904694557189964 c0,0 -40.4,-15.3 -87,2.6 S-7.3445083618164055,69.09046945571899 64.5554916381836,75.490469455719 c0,0 -37.1,-8.9 -41.6,-29.1 s24,-31.9 32.3,-35.7 c0,0 -23.6,12.7 -16.9,29.3 S64.15549163818359,62.79046945571899 80.8554916381836,64.990469455719 c0,0 -26.6,-7.9 -28.2,-26.4 C51.0554916381836,20.190469455718997 79.45549163818359,2.0904694557189956 114.95549163818359,6.0904694557189964 z"
   id="svg_18"
   style="fill:#ffffff;fill-opacity:1" />
	</g>
</g></g></svg>
