<svg width="76" height="17" xmlns="http://www.w3.org/2000/svg" xmlns:xlink="http://www.w3.org/1999/xlink" xml:space="preserve" overflow="hidden"><defs><clipPath id="clip0"><rect x="0" y="0" width="76" height="17"/></clipPath></defs><g clip-path="url(#clip0)"><path d="M41.0934 20.4603C41.0934 20.4603 42.6141 19.9419 42.6141 18.2138 42.6141 16.192 41.1798 15.1897 39.2098 15.1897L34.0429 15.1897 34.0429 26.1802 39.6591 26.1802C41.3871 26.1802 43.0806 24.9705 43.0806 23.1215 43.0806 20.9269 41.0934 20.4776 41.0934 20.4603ZM36.7386 17.4707 38.7432 17.4707C39.3653 17.4707 39.78 17.8855 39.78 18.5076 39.78 18.9914 39.3999 19.5098 38.6914 19.5098L36.7214 19.5098 36.7214 17.4707ZM38.7605 23.8818 36.7559 23.8818 36.7559 21.7218 38.7086 21.7218C39.6936 21.7218 40.1602 22.1538 40.1602 22.7932 40.1602 23.5881 39.5727 23.8818 38.7605 23.8818Z" fill="#E20015" transform="matrix(1.01136 0 0 1 -8.99656 -12.2105)"/><path d="M49.0252 14.9132C45.8455 14.9132 43.9792 17.4534 43.9792 20.6676 43.9792 23.8991 45.8455 26.4221 49.0252 26.4221 52.2221 26.4221 54.0711 23.8991 54.0711 20.6676 54.0711 17.4534 52.2221 14.9132 49.0252 14.9132ZM49.0252 23.7954C47.4699 23.7954 46.6923 22.3957 46.6923 20.6676 46.6923 18.9396 47.4699 17.5571 49.0252 17.5571 50.5804 17.5571 51.3753 18.9569 51.3753 20.6676 51.3753 22.3957 50.5804 23.7954 49.0252 23.7954Z" fill="#E20015" transform="matrix(1.01136 0 0 1 -8.99656 -12.2105)"/><path d="M59.9293 19.4926 59.5491 19.4062C58.6159 19.2161 57.8729 18.9741 57.8729 18.3002 57.8729 17.5744 58.5814 17.2806 59.2035 17.2806 60.1193 17.2806 60.9315 17.7299 61.45 18.3002L63.1607 16.6067C62.3831 15.7254 61.1216 14.8786 59.1516 14.8786 56.836 14.8786 55.0907 16.1747 55.0907 18.3348 55.0907 20.3048 56.5077 21.2725 58.2358 21.6354L58.6159 21.7218C60.0502 22.0155 60.5859 22.2402 60.5859 22.9314 60.5859 23.5881 59.9984 24.0201 59.0998 24.0201 58.0284 24.0201 57.0607 23.5535 56.3176 22.6031L54.5723 24.3311C55.54 25.4889 56.7669 26.3875 59.1343 26.3875 61.1907 26.3875 63.3854 25.2125 63.3854 22.8104 63.4027 20.3048 61.5018 19.8209 59.9293 19.4926Z" fill="#E20015" transform="matrix(1.01136 0 0 1 -8.99656 -12.2105)"/><path d="M69.52 23.7954C68.3104 23.7954 67.0489 22.7932 67.0489 20.5985 67.0489 18.6458 68.224 17.5571 69.4509 17.5571 70.4186 17.5571 70.9889 18.0064 71.4382 18.7841L73.6501 17.3152C72.5441 15.639 71.2308 14.9305 69.4163 14.9305 66.0984 14.9305 64.3013 17.5053 64.3013 20.6158 64.3013 23.8818 66.2885 26.4394 69.3818 26.4394 71.5591 26.4394 72.596 25.679 73.7192 24.0546L71.49 22.5512C71.0407 23.277 70.5568 23.7954 69.52 23.7954Z" fill="#E20015" transform="matrix(1.01136 0 0 1 -8.99656 -12.2105)"/><path d="M81.0289 15.1724 81.0289 19.2161 77.6938 19.2161 77.6938 15.1724 74.8079 15.1724 74.8079 26.1629 77.6938 26.1629 77.6938 21.8254 81.0289 21.8254 81.0289 26.1629 83.9148 26.1629 83.9148 15.1724Z" fill="#E20015" transform="matrix(1.01136 0 0 1 -8.99656 -12.2105)"/><path d="M17.4189 12.3557C12.8222 12.3557 9.08962 16.0883 9.08962 20.6849 9.08962 25.2816 12.8222 29.0142 17.4189 29.0142 22.0155 29.0142 25.7482 25.2816 25.7482 20.6849 25.7482 16.0883 22.0155 12.3557 17.4189 12.3557ZM17.4189 28.2366C13.2543 28.2366 9.86724 24.8496 9.86724 20.6849 9.86724 16.5203 13.2543 13.1333 17.4189 13.1333 21.5835 13.1333 24.9705 16.5203 24.9705 20.6849 24.9705 24.8496 21.5835 28.2366 17.4189 28.2366Z" fill="#575757" transform="matrix(1.01136 0 0 1 -8.99656 -12.2105)"/><path d="M20.8577 15.4835 20.2875 15.4835 20.2875 18.3348 14.5676 18.3348 14.5676 15.4835 13.98 15.4835C12.3038 16.6067 11.1806 18.5076 11.1806 20.6849 11.1806 22.8623 12.3038 24.7632 13.98 25.8864L14.5676 25.8864 14.5676 23.0351 20.2875 23.0351 20.2875 25.8864 20.8577 25.8864C22.5512 24.7632 23.6572 22.8623 23.6572 20.6849 23.6572 18.5076 22.5512 16.6067 20.8577 15.4835ZM13.7727 24.7632C12.6149 23.7436 11.9409 22.2747 11.9409 20.6849 11.9409 19.0951 12.6149 17.6263 13.7727 16.6067L13.7727 24.7632ZM20.2875 22.2402 14.5676 22.2402 14.5676 19.1124 20.2875 19.1124C20.2875 19.1297 20.2875 22.2402 20.2875 22.2402ZM21.0651 24.7459 21.0651 23.0178 21.0651 23.0178 21.0651 18.3348 21.0651 18.3348 21.0651 16.6067C22.2056 17.6263 22.8796 19.0951 22.8796 20.6676 22.8796 22.2575 22.2056 23.7263 21.0651 24.7459Z" fill="#575757" transform="matrix(1.01136 0 0 1 -8.99656 -12.2105)"/></g></svg>