<svg width="76" height="53" xmlns="http://www.w3.org/2000/svg" xmlns:xlink="http://www.w3.org/1999/xlink" xml:space="preserve" overflow="hidden"><defs><clipPath id="clip0"><rect x="0" y="0" width="76" height="53"/></clipPath></defs><g clip-path="url(#clip0)"><path d="M4.91026 69.1906 4.91026 70.1861C4.6424 70.2385 4.37369 70.2908 3.96725 70.2908 3.06986 70.2908 2.63807 69.63 2.63807 68.562 2.63807 67.4947 3.06986 66.8332 3.96725 66.8332 4.52409 66.8332 4.91702 67.036 4.91702 67.6384L5.99777 67.6384C5.991 66.512 5.14601 66.0997 3.77712 66.0997 2.84087 66.0997 1.55732 66.6827 1.55732 68.562 1.55732 70.4421 2.84087 71.0252 3.77712 71.0252 4.39989 71.0252 4.63563 70.9989 4.86463 70.9787 5.23136 70.9457 5.57865 70.8806 5.92594 70.7691L5.92594 68.4048 3.98668 68.4048 3.98668 69.1906 4.91026 69.1906" fill="#231F20" transform="matrix(1.00732 0 0 1 0.411705 0.410206)"/><path d="M9.84672 69.5447C9.84672 69.3284 9.84672 69.1189 9.82052 68.916 9.79433 68.7065 9.7487 68.5096 9.65659 68.3262 9.38197 67.75 8.87075 67.5404 8.25559 67.5404 7.25343 67.5404 6.67715 68.3001 6.67715 69.2896 6.67715 70.3897 7.12922 71.0252 8.25559 71.0252 9.022 71.0252 9.65659 70.7564 9.74193 69.9444L8.85807 69.9444C8.76597 70.2452 8.59613 70.3703 8.25559 70.3703 7.75113 70.3703 7.69198 69.9706 7.69198 69.5447L9.84672 69.5447ZM7.69198 68.8899C7.7055 68.5291 7.80352 68.1953 8.25559 68.1953 8.73386 68.1953 8.83187 68.5291 8.83187 68.8899L7.69198 68.8899" fill="#231F20" fill-rule="evenodd" transform="matrix(1.00732 0 0 1 0.411705 0.410206)"/><path d="M13.2047 68.5163C13.1591 67.7897 12.5693 67.5404 11.8756 67.5404 11.2984 67.5404 10.4669 67.842 10.4669 68.5291 10.4669 69.2954 11.05 69.4332 11.6787 69.5836 11.8756 69.63 12.3471 69.7407 12.3471 70.0027 12.3471 70.2587 12.1434 70.3703 11.8756 70.3703 11.5865 70.3703 11.3576 70.2258 11.3381 69.9706L10.4281 69.9706C10.4407 70.7235 11.1091 71.0252 11.8756 71.0252 12.4839 71.0252 13.3619 70.6644 13.3619 69.9444 13.3619 68.7124 11.4818 69.0073 11.4818 68.4902 11.4818 68.2738 11.6069 68.1953 11.8756 68.1953 12.0978 68.1953 12.3074 68.2933 12.3209 68.5163L13.2047 68.5163" fill="#231F20" transform="matrix(1.00732 0 0 1 0.411705 0.410206)"/><path d="M17.0232 69.5447C17.0232 69.3284 17.0232 69.1189 16.997 68.916 16.9709 68.7065 16.9253 68.5096 16.8331 68.3262 16.5585 67.75 16.0473 67.5404 15.4313 67.5404 14.4299 67.5404 13.8537 68.3001 13.8537 69.2896 13.8537 70.3897 14.3049 71.0252 15.4313 71.0252 16.1977 71.0252 16.8331 70.7564 16.9184 69.9444L16.0346 69.9444C15.9425 70.2452 15.7726 70.3703 15.4313 70.3703 14.9277 70.3703 14.8685 69.9706 14.8685 69.5447L17.0232 69.5447ZM14.8685 68.8899C14.8812 68.5291 14.98 68.1953 15.4313 68.1953 15.9096 68.1953 16.0084 68.5291 16.0084 68.8899L14.8685 68.8899" fill="#231F20" fill-rule="evenodd" transform="matrix(1.00732 0 0 1 0.411705 0.410206)"/><path d="M17.6367 70.9263 18.6195 70.9263 18.6195 66.1977 17.6367 66.1977 17.6367 70.9263Z" fill="#231F20" transform="matrix(1.00732 0 0 1 0.411705 0.410206)"/><path d="M19.4551 70.9263 20.4379 70.9263 20.4379 66.1977 19.4551 66.1977 19.4551 70.9263Z" fill="#231F20" transform="matrix(1.00732 0 0 1 0.411705 0.410206)"/><path d="M23.8221 68.5163C23.7764 67.7897 23.1866 67.5404 22.4921 67.5404 21.9158 67.5404 21.0843 67.842 21.0843 68.5291 21.0843 69.2954 21.6674 69.4332 22.2961 69.5836 22.4921 69.63 22.9644 69.7407 22.9644 70.0027 22.9644 70.2587 22.7607 70.3703 22.4921 70.3703 22.2039 70.3703 21.9749 70.2258 21.9555 69.9706L21.0446 69.9706C21.0581 70.7235 21.7265 71.0252 22.4921 71.0252 23.1013 71.0252 23.9792 70.6644 23.9792 69.9444 23.9792 68.7124 22.0992 69.0073 22.0992 68.4902 22.0992 68.2738 22.2242 68.1953 22.4921 68.1953 22.7151 68.1953 22.9246 68.2933 22.9382 68.5163L23.8221 68.5163" fill="#231F20" transform="matrix(1.00732 0 0 1 0.411705 0.410206)"/><path d="M27.2671 68.7918C27.2739 68.0187 26.652 67.5404 25.8129 67.5404 24.8378 67.5404 24.3459 68.4116 24.3459 69.2828 24.3459 70.154 24.8378 71.0252 25.8129 71.0252 26.7171 71.0252 27.2342 70.5663 27.2671 69.7281L26.3106 69.7281C26.3047 69.9968 26.1931 70.3703 25.8129 70.3703 25.3938 70.3703 25.3879 69.5379 25.3608 69.2363 25.3744 68.9811 25.3811 68.1953 25.8002 68.1953 26.1805 68.1953 26.2912 68.5231 26.2979 68.7918L27.2671 68.7918" fill="#231F20" transform="matrix(1.00732 0 0 1 0.411705 0.410206)"/><path d="M28.8194 70.9263 28.8194 68.9481C28.8329 68.4707 29.1016 68.1953 29.4092 68.1953 29.8934 68.1953 29.9922 68.5949 29.999 68.9481L29.999 70.9263 30.9809 70.9263 30.9809 68.7851C30.9809 68.6735 30.9682 68.464 30.9158 68.2612 30.7975 67.7829 30.1621 67.5404 29.835 67.5404 29.3374 67.5404 29.0289 67.7365 28.8261 68.0381L28.8134 68.0254 28.8134 66.1977 27.8375 66.1977 27.8375 70.9263 28.8194 70.9263" fill="#231F20" transform="matrix(1.00732 0 0 1 0.411705 0.410206)"/><path d="M33.5919 69.3808C33.5919 69.767 33.5724 70.3703 33.0292 70.3703 32.7537 70.3703 32.5509 70.1734 32.5509 69.8979 32.5509 69.3681 33.2513 69.374 33.5919 69.3808ZM32.7012 68.5688C32.6886 68.4184 32.8002 68.0973 33.1406 68.0973 33.4871 68.0973 33.5919 68.3659 33.5919 68.5028L33.5919 68.8113C33.199 68.7977 32.7012 68.8172 32.3083 68.9878 31.7126 69.2431 31.6079 69.7999 31.6079 70.0289 31.6079 70.6711 32.0658 71.0252 32.6819 71.0252 33.1271 71.0252 33.4677 70.868 33.6907 70.4877L33.7035 70.4877C33.7035 70.6255 33.717 70.7758 33.7364 70.9263L34.6203 70.9263C34.6076 70.8283 34.5814 70.7302 34.5746 70.5663L34.5746 68.7716C34.5746 67.7829 33.8344 67.5404 33.1736 67.5404 32.8195 67.5404 32.4723 67.5928 32.2036 67.75 31.9416 67.9004 31.7651 68.1564 31.7583 68.5688L32.7012 68.5688" fill="#231F20" fill-rule="evenodd" transform="matrix(1.00732 0 0 1 0.411705 0.410206)"/><path d="M37.1012 66.1453C36.9237 66.1192 36.7403 66.0997 36.5638 66.0997 35.4965 66.0997 35.4111 66.7021 35.4374 67.6384L34.9456 67.6384 34.9456 68.2933 35.4374 68.2933 35.4374 70.9263 36.4201 70.9263 36.4201 68.2933 37.0158 68.2933 37.0158 67.6384 36.4201 67.6384C36.3939 66.9903 36.4066 66.676 37.1012 66.7546L37.1012 66.1453" fill="#231F20" transform="matrix(1.00732 0 0 1 0.411705 0.410206)"/><path d="M37.1967 67.6384 37.1967 68.2933 37.8583 68.2933 37.8583 69.9115C37.8583 70.6255 38.0222 71.0252 38.7886 71.0252 38.9264 71.0252 39.4503 70.9787 39.5618 70.9263L39.5618 70.35C39.457 70.3568 39.3522 70.3703 39.2475 70.3703 38.9061 70.3703 38.841 70.252 38.841 69.8193L38.841 68.2933 39.5812 68.2933 39.5812 67.6384 38.841 67.6384 38.841 66.6363 37.8583 66.9903 37.8583 67.6384 37.1967 67.6384" fill="#231F20" transform="matrix(1.00732 0 0 1 0.411705 0.410206)"/><path d="M45.0002 69.5447C45.0002 69.3284 45.0002 69.1189 44.9739 68.916 44.9478 68.7065 44.9022 68.5096 44.81 68.3262 44.5345 67.75 44.0242 67.5404 43.4082 67.5404 42.406 67.5404 41.8298 68.3001 41.8298 69.2896 41.8298 70.3897 42.2818 71.0252 43.4082 71.0252 44.1746 71.0252 44.81 70.7564 44.8953 69.9444L44.0107 69.9444C43.9194 70.2452 43.7487 70.3703 43.4082 70.3703 42.9037 70.3703 42.8455 69.9706 42.8455 69.5447L45.0002 69.5447ZM42.8455 68.8899C42.8581 68.5291 42.9561 68.1953 43.4082 68.1953 43.8865 68.1953 43.9844 68.5291 43.9844 68.8899L42.8455 68.8899" fill="#231F20" fill-rule="evenodd" transform="matrix(1.00732 0 0 1 0.411705 0.410206)"/><path d="M45.6263 70.9263 46.4577 70.9263 46.4577 70.0551 45.6263 70.0551 45.6263 70.9263Z" fill="#231F20" transform="matrix(1.00732 0 0 1 0.411705 0.410206)"/><path d="M48.7621 70.9263 49.869 70.9263 51.6105 66.1977 50.6093 66.1977 49.3705 69.9241 49.3578 69.9241 48.1267 66.1977 47.0197 66.1977 48.7621 70.9263" fill="#231F20" transform="matrix(1.00732 0 0 1 0.411705 0.410206)"/><path d="M51.2549 70.9263 52.0863 70.9263 52.0863 70.0551 51.2549 70.0551 51.2549 70.9263Z" fill="#231F20" transform="matrix(1.00732 0 0 1 0.411705 0.410206)"/><path d="M2.74876 59.2772 3.27351 59.2772C4.47847 59.2645 4.65508 60.1028 4.65508 60.8557 4.65508 61.6094 4.47847 62.4476 3.27351 62.4341L2.74876 62.4341 2.74876 59.2772ZM1.73393 63.22 3.34533 63.22C4.819 63.2335 5.73582 62.5 5.73582 60.8557 5.73582 59.2121 4.819 58.4787 3.34533 58.4914L1.73393 58.4914 1.73393 63.22" fill="#231F20" fill-rule="evenodd" transform="matrix(1.00732 0 0 1 0.411705 0.410206)"/><path d="M9.47999 61.8384C9.47999 61.622 9.47999 61.4125 9.45379 61.2097 9.4276 61.0001 9.38197 60.8033 9.28986 60.6199 9.01524 60.0436 8.50402 59.8341 7.88886 59.8341 6.8867 59.8341 6.31041 60.5937 6.31041 61.5832 6.31041 62.6834 6.76164 63.3188 7.88886 63.3188 8.65527 63.3188 9.28986 63.0501 9.37521 62.2381L8.49135 62.2381C8.39924 62.5389 8.2294 62.664 7.88886 62.664 7.38441 62.664 7.32525 62.2642 7.32525 61.8384L9.47999 61.8384ZM7.32525 61.1835C7.33877 60.8235 7.43679 60.489 7.88886 60.489 8.36713 60.489 8.46515 60.8235 8.46515 61.1835L7.32525 61.1835" fill="#231F20" fill-rule="evenodd" transform="matrix(1.00732 0 0 1 0.411705 0.410206)"/><path d="M12.2811 63.22 13.2639 63.22C13.2444 63.0239 13.2309 62.827 13.2242 62.631L13.2242 59.932 12.2423 59.932 12.2423 61.9043C12.2288 62.3818 11.9601 62.664 11.6525 62.664 11.1675 62.664 11.0694 62.2575 11.0635 61.9043L11.0635 59.932 10.0808 59.932 10.0808 62.0674C10.0808 62.1789 10.0935 62.3885 10.1459 62.5913 10.2642 63.0695 10.8996 63.3188 11.2266 63.3188 11.7243 63.3188 12.0328 63.1151 12.2423 62.8143L12.2811 63.22" fill="#231F20" transform="matrix(1.00732 0 0 1 0.411705 0.410206)"/><path d="M13.7463 59.932 13.7463 60.5878 14.408 60.5878 14.408 62.2051C14.408 62.9191 14.5719 63.3188 15.3384 63.3188 15.4752 63.3188 15.9991 63.2732 16.1106 63.22L16.1106 62.6436C16.0059 62.6504 15.9011 62.664 15.7963 62.664 15.4558 62.664 15.3907 62.5457 15.3907 62.113L15.3907 60.5878 16.1301 60.5878 16.1301 59.932 15.3907 59.932 15.3907 58.9307 14.408 59.284 14.408 59.932 13.7463 59.932" fill="#231F20" transform="matrix(1.00732 0 0 1 0.411705 0.410206)"/><path d="M19.4492 60.81C19.4036 60.0833 18.8138 59.8341 18.1192 59.8341 17.5429 59.8341 16.7115 60.1358 16.7115 60.8235 16.7115 61.5891 17.2945 61.7268 17.9231 61.8773 18.1192 61.9237 18.5907 62.0353 18.5907 62.2972 18.5907 62.5524 18.3879 62.664 18.1192 62.664 17.8311 62.664 17.602 62.5194 17.5827 62.2642L16.6718 62.2642C16.6852 63.0172 17.3528 63.3188 18.1192 63.3188 18.7285 63.3188 19.6064 62.958 19.6064 62.2381 19.6064 61.0069 17.7263 61.3009 17.7263 60.7838 17.7263 60.5675 17.8514 60.489 18.1192 60.489 18.3423 60.489 18.5518 60.5878 18.5645 60.81L19.4492 60.81" fill="#231F20" transform="matrix(1.00732 0 0 1 0.411705 0.410206)"/><path d="M23.0903 61.0855C23.0971 60.3123 22.4752 59.8341 21.6369 59.8341 20.661 59.8341 20.17 60.7052 20.17 61.5764 20.17 62.4476 20.661 63.3188 21.6369 63.3188 22.5402 63.3188 23.0582 62.86 23.0903 62.0217L22.1346 62.0217C22.1279 62.2904 22.0163 62.664 21.6369 62.664 21.2178 62.664 21.2111 61.8317 21.1848 61.5308 21.1975 61.2747 21.2043 60.489 21.6234 60.489 22.0037 60.489 22.1152 60.8168 22.1211 61.0855L23.0903 61.0855" fill="#231F20" transform="matrix(1.00732 0 0 1 0.411705 0.410206)"/><path d="M24.6435 63.22 24.6435 61.2427C24.6561 60.7644 24.9248 60.489 25.2324 60.489 25.7174 60.489 25.8154 60.8886 25.8221 61.2427L25.8221 63.22 26.8049 63.22 26.8049 61.0787C26.8049 60.9672 26.7914 60.7576 26.739 60.5548 26.6216 60.0766 25.9861 59.8341 25.6582 59.8341 25.1606 59.8341 24.853 60.0309 24.6493 60.3318L24.6366 60.319 24.6366 58.4914 23.6607 58.4914 23.6607 63.22 24.6435 63.22" fill="#231F20" transform="matrix(1.00732 0 0 1 0.411705 0.410206)"/><path d="M30.5423 61.8384C30.5423 61.622 30.5423 61.4125 30.5162 61.2097 30.4899 61.0001 30.4443 60.8033 30.3522 60.6199 30.0776 60.0436 29.5664 59.8341 28.9512 59.8341 27.9491 59.8341 27.3727 60.5937 27.3727 61.5832 27.3727 62.6834 27.824 63.3188 28.9512 63.3188 29.7167 63.3188 30.3522 63.0501 30.4376 62.2381L29.5536 62.2381C29.4616 62.5389 29.2918 62.664 28.9512 62.664 28.4467 62.664 28.3876 62.2642 28.3876 61.8384L30.5423 61.8384ZM28.3876 61.1835C28.4011 60.8235 28.4992 60.489 28.9512 60.489 29.4286 60.489 29.5275 60.8235 29.5275 61.1835L28.3876 61.1835" fill="#231F20" fill-rule="evenodd" transform="matrix(1.00732 0 0 1 0.411705 0.410206)"/><path d="M36.0728 63.22 36.0728 62.4341 34.0228 62.4341 34.0228 58.4914 33.0071 58.4914 33.0071 63.22 36.0728 63.22" fill="#231F20" transform="matrix(1.00732 0 0 1 0.411705 0.410206)"/><path d="M39.5745 61.8384C39.5745 61.622 39.5745 61.4125 39.5482 61.2097 39.5221 61.0001 39.4765 60.8033 39.3843 60.6199 39.1097 60.0436 38.5985 59.8341 37.9834 59.8341 36.9811 59.8341 36.4049 60.5937 36.4049 61.5832 36.4049 62.6834 36.8561 63.3188 37.9834 63.3188 38.7489 63.3188 39.3843 63.0501 39.4696 62.2381L38.5858 62.2381C38.4937 62.5389 38.3238 62.664 37.9834 62.664 37.4789 62.664 37.4198 62.2642 37.4198 61.8384L39.5745 61.8384ZM37.4198 61.1835C37.4324 60.8235 37.5312 60.489 37.9834 60.489 38.4608 60.489 38.5596 60.8235 38.5596 61.1835L37.4198 61.1835" fill="#231F20" fill-rule="evenodd" transform="matrix(1.00732 0 0 1 0.411705 0.410206)"/><path d="M41.2095 61.5764C41.2095 61.1244 41.3869 60.489 41.9168 60.489 42.5463 60.489 42.6241 61.0719 42.6241 61.5764 42.6241 62.0809 42.5463 62.664 41.9168 62.664 41.3869 62.664 41.2095 62.0285 41.2095 61.5764ZM40.2277 62.5651C40.2277 62.7814 40.2073 63.0044 40.1947 63.22L41.1766 63.22C41.1901 63.0628 41.2028 62.9124 41.2028 62.7552L41.2163 62.7552C41.4326 63.1414 41.7994 63.3188 42.2253 63.3188 43.1877 63.3188 43.6397 62.4214 43.6397 61.5764 43.6397 60.6926 43.1226 59.8341 42.1001 59.8341 41.7596 59.8341 41.4064 60.0368 41.223 60.3123L41.2095 60.3123 41.2095 58.4914 40.2277 58.4914 40.2277 62.5651" fill="#231F20" fill-rule="evenodd" transform="matrix(1.00732 0 0 1 0.411705 0.410206)"/><path d="M47.345 61.8384C47.345 61.622 47.345 61.4125 47.3189 61.2097 47.2926 61.0001 47.2462 60.8033 47.1549 60.6199 46.8795 60.0436 46.3691 59.8341 45.753 59.8341 44.7509 59.8341 44.1746 60.5937 44.1746 61.5832 44.1746 62.6834 44.6267 63.3188 45.753 63.3188 46.5195 63.3188 47.1549 63.0501 47.2403 62.2381L46.3555 62.2381C46.2643 62.5389 46.0936 62.664 45.753 62.664 45.2486 62.664 45.1903 62.2642 45.1903 61.8384L47.345 61.8384ZM45.1903 61.1835C45.2029 60.8235 45.301 60.489 45.753 60.489 46.2313 60.489 46.3294 60.8235 46.3294 61.1835L45.1903 61.1835" fill="#231F20" fill-rule="evenodd" transform="matrix(1.00732 0 0 1 0.411705 0.410206)"/><path d="M48.9471 59.932 47.9712 59.932 47.9712 63.22 48.9539 63.22 48.9539 61.2427C48.9666 60.7644 49.2353 60.489 49.5429 60.489 50.0279 60.489 50.1259 60.8886 50.1326 61.2427L50.1326 63.22 51.1154 63.22 51.1154 61.0787C51.1154 60.9672 51.1019 60.7576 51.0495 60.5548 50.9321 60.0766 50.2966 59.8341 49.9687 59.8341 49.4711 59.8341 49.1635 60.0309 48.9607 60.3318L48.9471 60.3123 48.9471 59.932" fill="#231F20" transform="matrix(1.00732 0 0 1 0.411705 0.410206)"/><path d="M54.5056 60.81C54.4598 60.0833 53.8709 59.8341 53.1764 59.8341 52.6 59.8341 51.7677 60.1358 51.7677 60.8235 51.7677 61.5891 52.3508 61.7268 52.9795 61.8773 53.1764 61.9237 53.6479 62.0353 53.6479 62.2972 53.6479 62.5524 53.4451 62.664 53.1764 62.664 52.8882 62.664 52.6592 62.5194 52.6389 62.2642L51.7288 62.2642C51.7416 63.0172 52.4099 63.3188 53.1764 63.3188 53.7856 63.3188 54.6627 62.958 54.6627 62.2381 54.6627 61.0069 52.7834 61.3009 52.7834 60.7838 52.7834 60.5675 52.9076 60.489 53.1764 60.489 53.3986 60.489 53.6081 60.5878 53.6216 60.81L54.5056 60.81" fill="#231F20" transform="matrix(1.00732 0 0 1 0.411705 0.410206)"/><path d="M55.2263 61.8578 56.8504 61.8578 56.8504 61.1244 55.2263 61.1244 55.2263 61.8578Z" fill="#231F20" transform="matrix(1.00732 0 0 1 0.411705 0.410206)"/><path d="M58.5319 59.2772 59.3836 59.2772C59.829 59.284 60.0909 59.4605 60.0909 59.8797 60.0909 60.2997 59.829 60.5218 59.3836 60.5286L58.5319 60.5286 58.5319 59.2772ZM58.5319 61.3144 59.6059 61.3144C59.9397 61.3272 60.0056 61.688 60.0318 61.9499 60.0774 62.3758 60.1239 62.8008 60.2083 63.22L61.3289 63.22C61.1387 62.958 61.099 62.4011 61.0534 62.1003 60.9681 61.4455 60.9681 60.9672 60.189 60.8819L60.189 60.8691C60.7719 60.745 61.1717 60.3385 61.1717 59.7225 61.1717 58.7601 60.3394 58.4981 59.5273 58.4914L57.5171 58.4914 57.5171 63.22 58.5319 63.22 58.5319 61.3144" fill="#231F20" fill-rule="evenodd" transform="matrix(1.00732 0 0 1 0.411705 0.410206)"/><path d="M64.9378 61.8384C64.9378 61.622 64.9378 61.4125 64.9116 61.2097 64.8855 61.0001 64.839 60.8033 64.7477 60.6199 64.4722 60.0436 63.9618 59.8341 63.3459 59.8341 62.3436 59.8341 61.7674 60.5937 61.7674 61.5832 61.7674 62.6834 62.2194 63.3188 63.3459 63.3188 64.1122 63.3188 64.7477 63.0501 64.833 62.2381L63.9483 62.2381C63.8571 62.5389 63.6863 62.664 63.3459 62.664 62.8414 62.664 62.783 62.2642 62.783 61.8384L64.9378 61.8384ZM62.783 61.1835C62.7958 60.8235 62.8937 60.489 63.3459 60.489 63.8241 60.489 63.9221 60.8235 63.9221 61.1835L62.783 61.1835" fill="#231F20" fill-rule="evenodd" transform="matrix(1.00732 0 0 1 0.411705 0.410206)"/><path d="M65.138 59.932 65.138 60.5878 65.7997 60.5878 65.7997 62.2051C65.7997 62.9191 65.9636 63.3188 66.7301 63.3188 66.8678 63.3188 67.3916 63.2732 67.5032 63.22L67.5032 62.6436C67.3985 62.6504 67.2937 62.664 67.188 62.664 66.8475 62.664 66.7824 62.5457 66.7824 62.113L66.7824 60.5878 67.5227 60.5878 67.5227 59.932 66.7824 59.932 66.7824 58.9307 65.7997 59.284 65.7997 59.932 65.138 59.932" fill="#231F20" transform="matrix(1.00732 0 0 1 0.411705 0.410206)"/><path d="M67.75 59.932 67.75 60.5878 68.4108 60.5878 68.4108 62.2051C68.4108 62.9191 68.5747 63.3188 69.3411 63.3188 69.4788 63.3188 70.0027 63.2732 70.1143 63.22L70.1143 62.6436C70.0095 62.6504 69.9046 62.664 69.7999 62.664 69.4594 62.664 69.3934 62.5457 69.3934 62.113L69.3934 60.5878 70.1336 60.5878 70.1336 59.932 69.3934 59.932 69.3934 58.9307 68.4108 59.284 68.4108 59.932 67.75 59.932" fill="#231F20" transform="matrix(1.00732 0 0 1 0.411705 0.410206)"/><path d="M72.896 63.22 73.8778 63.22C73.8584 63.0239 73.8449 62.827 73.8389 62.631L73.8389 59.932 72.8563 59.932 72.8563 61.9043C72.8436 62.3818 72.5748 62.664 72.2665 62.664 71.7822 62.664 71.6843 62.2575 71.6775 61.9043L71.6775 59.932 70.6948 59.932 70.6948 62.0674C70.6948 62.1789 70.7083 62.3885 70.7606 62.5913 70.8781 63.0695 71.5135 63.3188 71.8414 63.3188 72.3391 63.3188 72.6467 63.1151 72.8563 62.8143L72.896 63.22" fill="#231F20" transform="matrix(1.00732 0 0 1 0.411705 0.410206)"/><path d="M75.6971 59.932 74.7211 59.932 74.7211 63.22 75.703 63.22 75.703 61.2427C75.7165 60.7644 75.9853 60.489 76.2929 60.489 76.777 60.489 76.8759 60.8886 76.8818 61.2427L76.8818 63.22 77.8646 63.22 77.8646 61.0787C77.8646 60.9672 77.8518 60.7576 77.7995 60.5548 77.6812 60.0766 77.0457 59.8341 76.7188 59.8341 76.221 59.8341 75.9126 60.0309 75.7098 60.3318L75.6971 60.3123 75.6971 59.932" fill="#231F20" transform="matrix(1.00732 0 0 1 0.411705 0.410206)"/><path d="M79.5655 61.5241C79.5655 61.0391 79.6636 60.489 80.2009 60.489 80.7375 60.489 80.8364 61.0391 80.8364 61.5241 80.8364 61.9499 80.7375 62.5 80.2009 62.5 79.6636 62.5 79.5655 61.9499 79.5655 61.5241ZM81.8182 59.932 80.8364 59.932 80.8364 60.3123 80.8229 60.3123C80.6657 59.9786 80.3843 59.8341 79.9458 59.8341 79.0281 59.8341 78.5506 60.679 78.5506 61.5173 78.5506 62.3167 79.0086 63.1549 79.8993 63.1549 80.2728 63.1549 80.6201 63.0239 80.8229 62.7028L80.8364 62.7028C80.8752 63.1811 80.9014 63.8621 80.1553 63.8621 79.8866 63.8621 79.6247 63.7506 79.6111 63.4557L78.6817 63.4557C78.7011 64.3404 79.4802 64.517 80.2077 64.517 81.6484 64.5305 81.8182 63.6915 81.8182 62.9259L81.8182 59.932" fill="#231F20" fill-rule="evenodd" transform="matrix(1.00732 0 0 1 0.411705 0.410206)"/><path d="M85.2549 60.81C85.2092 60.0833 84.6194 59.8341 83.9257 59.8341 83.3494 59.8341 82.517 60.1358 82.517 60.8235 82.517 61.5891 83.1001 61.7268 83.7288 61.8773 83.9257 61.9237 84.3972 62.0353 84.3972 62.2972 84.3972 62.5524 84.1944 62.664 83.9257 62.664 83.6376 62.664 83.4086 62.5194 83.3882 62.2642L82.4782 62.2642C82.4909 63.0172 83.1592 63.3188 83.9257 63.3188 84.5349 63.3188 85.412 62.958 85.412 62.2381 85.412 61.0069 83.5328 61.3009 83.5328 60.7838 83.5328 60.5675 83.657 60.489 83.9257 60.489 84.1479 60.489 84.3583 60.5878 84.371 60.81L85.2549 60.81" fill="#231F20" transform="matrix(1.00732 0 0 1 0.411705 0.410206)"/><path d="M85.8446 61.8578 87.4688 61.8578 87.4688 61.1244 85.8446 61.1244 85.8446 61.8578Z" fill="#231F20" transform="matrix(1.00732 0 0 1 0.411705 0.410206)"/><path d="M0.370951 25.9473C0.370951 11.7606 16.7528 0.411512 37.1713 0.411512 57.5889 0.411512 73.9648 11.7606 73.9648 25.9473 73.9648 40.1339 57.5889 51.5278 37.1713 51.5278 16.7528 51.5278 0.370951 40.1339 0.370951 25.9473" fill="#FFFFFF" transform="matrix(1.00732 0 0 1 0.411705 0.410206)"/><path d="M2.22788 33.5293C4.82307 39.2169 9.82967 43.4464 15.302 46.2855 19.7905 48.6045 24.6944 50.0628 29.6907 50.7937 30.4536 49.4482 31.7489 48.5186 32.7394 47.3624 33.3875 46.1408 34.075 44.821 35.3575 44.1676 35.9639 43.8007 36.6246 43.5302 37.2692 43.2399 37.5216 42.1708 38.7996 41.805 39.7655 41.7557 40.5556 41.6577 41.4107 42.0205 42.163 41.7218 42.8071 41.1191 42.8751 40.1383 43.1334 39.3331 43.1748 38.8405 43.5167 38.2889 43.3325 37.8184 42.2483 36.7124 40.9581 35.349 41.1049 33.6694 41.4183 32.9086 40.2814 33.3826 39.8549 33.2515 27.2704 33.2515 14.6859 33.2515 2.10137 33.2515 2.14353 33.3442 2.1857 33.4367 2.22788 33.5293Z" fill="#176FC1" transform="matrix(1.00732 0 0 1 0.411705 0.410206)"/><path d="M60.8901 33.3163C60.5863 33.6834 60.0714 33.5678 59.7762 33.2515 58.1326 33.2515 56.4889 33.2515 54.8453 33.2515 56.6628 34.9113 58.5777 36.4756 60.5199 37.9912 61.4968 38.7905 62.735 39.5404 63.1767 40.7806 63.3861 41.5393 62.3865 41.9168 61.8067 41.6632 61.262 41.487 60.7416 41.2564 60.2299 40.9998 60.2262 41.7096 59.2919 41.8698 58.8166 41.4904 58.449 41.3026 58.0967 41.0723 57.786 40.7899 57.3757 41.5887 56.2154 41.2815 55.7154 40.7406 55.5408 40.2919 55.2676 40.5619 54.9409 40.6758 54.4357 40.7187 54.0682 40.2785 53.8054 39.9043 53.4944 40.5373 52.6833 40.1811 52.3212 39.7902 51.226 38.7004 50.6514 37.1991 49.7113 35.9965 49.4242 35.858 49.2302 36.6009 48.9578 36.8248 48.6139 37.3154 47.9185 37.5883 47.9919 38.2658 47.8931 39.3963 47.5098 40.573 47.7944 41.7002 48.278 42.2952 49.1767 42.2225 49.8619 42.3976 50.4624 42.4788 51.3442 42.6632 51.3337 43.4313 51.1393 44.0577 51.9664 43.7163 52.3212 43.8232 53.8671 43.8756 55.5154 43.7889 56.8433 44.7099 57.5904 45.1616 58.2496 45.747 58.8382 46.3873 64.3121 43.584 69.3207 39.4186 71.9987 33.7761 72.5759 33.0679 71.7436 33.2661 71.2396 33.2515 70.8285 33.3281 69.6675 33.005 70.3324 33.6527 70.7771 34.0201 70.3858 34.7447 69.8387 34.6617 69.476 34.7213 69.0639 34.4117 68.7908 34.522 68.519 35.173 67.6858 35.3191 67.1295 34.9487 66.8216 34.7594 66.4357 34.5341 66.1544 34.8931 65.524 35.4639 64.5251 35.2019 64.0672 34.5542 63.8206 34.2504 63.5606 34.0446 63.2878 34.4364 62.6746 34.838 61.9827 34.157 61.5783 33.7268 61.3827 33.6121 61.0928 33.0266 60.8901 33.3163Z" fill="#176FC1" transform="matrix(1.00732 0 0 1 0.411705 0.410206)"/><path d="M45.6221 37.8493C45.2913 38.0061 44.9312 38.0929 44.9276 38.5302 44.6595 39.5909 44.2801 40.6872 44.3786 41.7928 44.5438 42.226 45.1941 41.9401 45.5296 41.8144 46.0527 41.6497 46.1874 41.0769 46.0788 40.5832 45.9776 39.6339 46.3268 38.5784 45.8104 37.7135 45.7476 37.7587 45.6849 37.804 45.6221 37.8493Z" fill="#176FC1" transform="matrix(1.00732 0 0 1 0.411705 0.410206)"/><path d="M54.89 32.9285 59.2019 32.9285C59.0456 32.7807 58.7034 32.5197 58.5986 32.4055 58.4406 32.5661 58.1914 32.6345 58.0064 32.6235 57.1765 32.5746 57.049 32.294 56.5089 31.6535 56.2901 31.7887 55.9986 31.8994 55.8913 31.8893 54.7337 31.7768 54.4489 30.8778 53.8465 30.4291 53.6157 30.6801 53.4729 30.6944 53.2845 30.7316 52.9254 30.8043 52.4311 30.5525 52.0035 30.3615 52.6482 31.0257 53.3073 31.454 53.9715 32.1174 54.2748 32.4207 54.5824 32.6354 54.89 32.9285ZM44.0918 38.1836C43.2452 38.1836 43.8915 42.0688 41.1579 42.1526 41.0507 42.1559 40.0367 42.0664 39.9285 42.0664 39.0819 42.0664 37.8692 42.4737 37.5101 43.4167 37.9141 43.2595 38.2014 43.0381 38.5207 42.9452 38.8418 42.8522 39.2171 42.7432 39.4427 42.7432 40.4313 42.7432 41.2037 42.4906 41.2399 42.5184 41.1833 42.826 39.015 43.0575 38.7658 44.1248 39.1756 44.0943 39.5204 44.0081 39.866 43.9752 40.5133 43.916 41.1943 43.9862 41.7824 43.6136 42.3595 43.251 42.875 42.4483 43.6887 42.0013 44.1391 41.7545 44.1611 40.6078 44.4585 38.5283 44.483 38.3577 44.4425 38.1836 44.0918 38.1836ZM46.495 38.0585C46.5296 38.6813 46.5778 38.9382 46.5727 40.5783 46.566 43.1023 43.0896 41.6658 42.4103 44.1763 42.4103 44.1763 42.7982 43.916 43.1158 43.8493 44.2397 43.6136 45.4311 43.3068 45.6119 43.2215 45.6534 43.2113 45.9686 43.0153 46.0767 43.0153 46.184 43.0153 46.1477 43.0524 46.1848 43.0829 46.0581 43.2849 45.9381 43.3963 45.8832 43.6355 45.8368 43.8366 45.8629 43.96 45.8824 44.1653 45.9458 44.8371 46.2803 45.3618 46.566 45.7539 46.7553 45.5756 47.1152 44.9511 47.2403 44.3606 47.3247 43.9575 47.285 43.3051 47.285 43.3051 47.285 43.2452 47.3121 43.0127 47.5546 43.0127 47.6196 43.0127 48.1664 43.3101 48.588 43.3947 48.8982 43.4573 49.9257 43.3136 50.3414 43.731 50.5509 43.9431 50.6084 44.4121 50.6557 44.4281 51.0825 43.9786 51.0672 43.7462 51.0825 43.4167 51.1281 42.4508 47.9636 42.6013 47.4405 42.0731 47.2192 41.8517 47.3061 41.3118 47.3061 41.2037 47.3061 41.0954 47.4135 39.3463 47.4354 39.2407 47.6669 38.1363 47.1135 38.2495 46.495 38.0585ZM42.3291 32.7047C41.8567 33.0486 41.8703 33.5995 41.8703 33.9341 41.8703 34.7969 42.4204 37.364 44.178 37.364 44.3504 37.364 44.5879 37.277 44.5879 37.0614 44.5879 36.884 42.8607 34.0609 42.3291 32.7047ZM62.5778 40.7988C62.5794 40.3679 60.1289 38.3069 59.4919 37.7678 55.8034 34.6456 52.0077 31.2022 48.3861 27.9567 48.1284 27.9888 47.4541 27.6339 47.1947 27.5747 46.9251 27.5206 46.7907 27.8215 46.7907 27.8215 46.746 28.0014 49.6704 29.9643 50.981 31.0865 51.6604 31.6637 55.1587 34.4242 55.1587 35.0123 55.1587 35.1306 55.1638 35.2498 54.8992 35.2498 54.6627 35.2498 52.8401 33.3139 52.5739 33.5285 52.4192 33.6536 53.5185 34.7158 53.5185 35.0123 53.5185 35.1205 53.3893 35.2498 53.2819 35.2498 52.7209 35.2498 51.5953 33.3714 51.368 33.5268 51.129 33.6907 52.3542 35.0555 52.3542 35.3571 52.3542 35.4703 52.3381 35.5945 52.1387 35.5945 51.772 35.5945 50.5991 33.4778 50.4031 33.7491 50.262 33.9425 51.276 35.1847 51.276 35.4652 51.276 35.4973 51.3292 35.7238 51.0816 35.7238 50.725 35.7238 49.7364 33.9012 49.5158 34.0465 49.1398 34.2941 51.9156 39.6404 52.993 39.8888 53.5769 40.024 53.352 39.6192 53.352 39.6192 53.2169 39.2939 52.1741 37.6656 52.1741 37.5575 52.1741 37.4502 52.2173 37.4713 52.2046 37.4485 52.4691 37.7045 53.2178 38.8867 53.8693 39.6641 54.1945 40.0536 54.6424 40.3924 54.8799 40.3612 55.217 40.3164 54.9255 39.9007 54.9255 39.9007 54.9255 39.9007 53.9318 38.3069 53.6436 37.811 53.6225 37.7746 53.6876 37.7307 53.674 37.707 54.1523 38.225 55.9589 40.8774 56.8124 40.8774 56.9205 40.8774 57.0743 40.9137 57.1723 40.8099 57.2577 40.7194 57.2695 40.5783 57.239 40.4964 56.9509 39.7097 56.0037 38.732 55.5026 38.1557 55.4756 38.1253 55.4975 38.0906 55.5263 38.0543 56.1533 38.5774 58.4998 41.1791 59.2848 41.2146 59.3921 41.2197 59.4859 41.1892 59.5788 41.1495 60.3436 40.8234 59.0169 39.9344 58.2979 39.1891 58.2226 39.1114 57.5534 38.4937 57.7081 38.4794 57.779 38.4734 58.5953 39.2128 58.6781 39.2821 59.262 39.7764 60.7289 41.2678 62.1612 41.2374 62.5854 41.2281 62.5778 40.7988 62.5778 40.7988ZM62.206 21.1485C62.1341 21.3014 61.9617 21.5237 61.7158 21.6285 61.399 21.7636 61.1083 21.6944 60.8353 21.5524 60.674 21.8532 60.5042 22.0121 60.1831 22.1363 59.9033 22.2453 59.5451 22.2783 59.1893 22.1228 59.0288 22.4067 58.8463 22.5503 58.5429 22.6534 58.2632 22.749 57.7689 22.7244 57.4309 22.4405 57.3202 22.6619 57.2086 22.7794 56.9923 22.901 56.6822 23.0742 56.307 23.0193 56.0823 22.9669 56.0823 22.9669 55.8913 23.8897 54.6779 23.6201 54.6331 24.4735 53.6318 24.4127 53.6318 24.4127 53.6411 24.7659 53.6335 25.0371 53.3698 25.3076 53.1417 25.5433 52.7429 25.6152 52.3043 25.5231 52.3111 25.8695 52.1091 26.3596 51.6249 26.4779 51.3029 26.5556 51.1154 26.543 50.7758 26.4382 50.6768 26.6444 50.4614 27.0829 50.1022 27.2223 49.7668 27.3533 49.1947 27.148 49.1947 27.148 49.0874 27.148 49.1854 27.3854 49.0435 27.5561 49.0105 27.595 48.8804 27.7327 48.8804 27.7327 49.231 28.0099 51.2303 29.8959 52.7885 30.255 53.1282 30.3336 53.4154 30.4384 53.6327 30.0243 53.5321 29.8554 53.2026 29.4658 53.2026 29.3576 53.2026 29.2503 53.2997 29.2849 53.4645 29.3948 54.1515 29.8519 55.195 31.4845 55.8246 31.3949 56.1735 31.3459 56.1389 31.3273 56.3409 31.1811 56.0374 30.7992 55.7443 30.3961 55.7789 30.2939 55.8144 30.1899 55.9124 30.2424 56.0172 30.3141 56.591 30.7079 57.1858 32.2306 57.9413 32.1884 58.0731 32.1808 58.3215 32.2103 58.3993 31.9703 58.0292 31.5546 57.8238 31.2783 57.8238 31.1701 57.8238 31.1431 57.79 31.0468 58.0824 31.1929 58.5091 31.4059 59.9008 33.2589 60.4289 33.1686 60.527 33.1525 60.6427 33.1347 60.7441 32.9886 60.5303 32.7418 60.0335 32.0938 60.0233 31.9805 60.0098 31.8368 60.0757 31.8039 60.2845 31.994 61.1184 32.7494 62.3818 34.3397 62.8921 34.2612 62.9935 34.246 63.2453 34.1437 63.307 33.957 62.8574 33.3275 62.5651 32.9573 62.5651 32.8779 62.5651 32.7646 62.6056 32.6142 62.8811 32.8838 63.4414 33.4313 64.4934 35.0647 65.3299 34.9541 65.7211 34.9025 66.2366 34.6313 66.147 34.4513 65.6755 33.9341 65.1829 33.3612 65.2166 33.1922 65.2318 33.1195 65.3722 33.1669 65.4414 33.215 66.2729 33.7998 67.1103 34.9363 67.7559 34.9227 67.9071 34.9194 68.453 34.8104 68.5206 34.4961 67.8006 33.8437 66.7562 32.5636 67.3071 32.5855 67.4052 32.5898 68.104 33.6004 68.2054 33.6197 69.0597 34.4733 69.4408 34.4902 69.859 34.4513 70.1319 34.4251 70.3982 34.1318 70.1472 33.7845 68.3795 31.7093 67.5336 30.3978 66.1631 28.0834 64.4385 25.1706 64.114 23.9141 63.0806 21.1054 63.0806 21.1054 62.9326 21.2187 62.7678 21.2381 62.5473 21.2634 62.206 21.1485 62.206 21.1485ZM52.273 10.2718C51.4424 10.4517 51.4855 11.524 51.1889 12.4104 50.611 14.1368 49.6383 16.2619 49.3637 16.796 48.3337 18.791 45.933 20.0196 44.3081 19.8903 44.3081 19.8903 43.6 19.8219 43.0829 19.8903 42.8522 19.9199 42.6545 20.1979 42.6334 20.4285 42.5987 20.8114 42.6224 20.9381 42.6553 21.2609 42.8353 22.9906 43.3718 25.1901 44.4932 26.314 44.4416 26.123 44.5608 25.8433 44.739 25.8442 44.903 25.8442 45.3525 27.5519 46.4425 27.2038 46.8617 27.0703 46.3716 26.4323 46.6674 26.3385 46.9462 26.2506 47.1726 27.2824 48.2061 27.3838 48.2973 27.393 48.4985 27.3237 48.4985 27.1032 48.4985 26.995 48.0937 26.2041 48.2289 26.0689 48.436 25.8619 49.0376 27.0804 49.787 26.8793 50.0685 26.804 50.2509 26.543 50.2509 26.3166 50.2509 26.2083 49.7972 25.8492 49.9586 25.687 50.1707 25.4758 50.7072 26.2134 51.2202 26.1247 51.39 26.096 51.4746 26.0706 51.6385 25.981 51.8573 25.8602 51.8928 25.5188 51.8345 25.3794 51.6824 25.0186 51.1095 24.8792 51.2734 24.6088 51.4644 24.2944 52.4142 25.4453 52.9473 24.9459 53.4611 24.4642 52.6102 23.8897 52.7454 23.6868 52.8425 23.5415 53.4036 24.2885 54.0484 23.9117 54.5182 23.6379 53.5465 23.021 53.7788 22.7887 54.0036 22.5638 54.5951 23.5754 55.3294 23.103 55.8499 22.7683 55.0303 22.084 55.179 21.9056 55.397 21.642 55.898 22.9078 56.7228 22.4287 57.4191 22.0248 56.5436 21.4738 56.7338 21.3166 56.9923 21.1028 57.7165 22.3864 58.3291 22.1819 59.4843 21.7966 58.0461 21.0869 58.3629 20.9686 58.7228 20.8334 59.3769 21.9225 59.9591 21.7096 60.8802 21.3724 59.485 20.5071 59.9363 20.3838 60.1831 20.3162 60.8083 21.5862 61.5089 21.1705 62.1155 20.8114 61.1429 20.0145 61.3517 19.8675 61.5426 19.7323 62.004 21.0353 62.8802 20.7437 62.9706 20.7133 63.3746 20.5182 63.2621 20.2266 63.1058 19.8228 59.2172 14.8111 58.0038 12.6986 56.9011 12.2846 52.6795 10.1839 52.273 10.2718ZM43.6448 6.7439C42.7238 6.34844 41.1166 6.17184 39.4824 6.19127 37.7281 6.21155 36.2967 6.71855 36.2967 7.59819 36.2967 8.94089 42.8134 8.6764 42.8623 14.3674 42.8674 14.9446 42.4737 15.7211 42.4737 16.2011 42.4737 16.4605 42.5835 16.7799 42.7761 17.0537 43.1818 17.6308 45.7116 16.2272 45.9812 15.6206 46.004 14.8339 43.8696 14.0244 43.8696 14.0244 45.3078 14.294 45.5993 14.5643 46.2288 14.8339 46.7688 15.0654 47.2403 14.3734 47.2403 13.71 47.2403 12.1409 43.0719 10.9022 42.9485 10.8497 42.9485 10.8497 43.5848 10.8564 43.8239 10.9013 45.3745 11.1936 46.4958 11.8003 46.9698 11.8003 47.1161 11.8003 47.3298 11.568 47.3298 11.2604 47.3298 10.8506 46.92 10.2667 46.5432 9.9802 44.2735 8.24968 41.5838 7.82634 39.3666 7.30836 40.4532 7.21625 43.0186 7.50778 43.0347 7.50778 43.082 7.50778 43.2984 7.57284 43.4649 7.62015 43.4649 7.62015 43.3296 7.46299 43.3972 7.08105 43.4868 6.85628 43.6448 6.7439 43.6448 6.7439ZM46.3311 6.17859C45.4159 6.15241 44.1138 6.62306 44.1138 7.48581 44.1138 8.39248 48.5576 8.35953 48.5576 12.3403 48.5576 15.7051 44.5193 18.2214 42.6452 18.1252 41.698 18.0761 41.5661 16.7039 41.3075 16.5636 40.4474 16.0963 38.7658 15.2361 37.5998 14.2491 35.5548 12.5195 34.5121 12.1366 34.2966 12.1366 34.1885 12.1366 33.651 12.2964 33.5429 12.2964 33.5268 12.2964 33.3748 12.271 33.2843 12.1865 33.4964 11.8553 33.7955 11.5139 34.06 11.2325 33.7406 11.1751 33.5378 11.0948 33.1271 11.0889 32.1394 11.0737 30.8946 11.0889 30.8946 11.0889 30.3936 11.0889 29.3146 11.7927 29.061 12.2946 28.7213 12.9681 26.1618 12.1823 26.2083 13.7202 26.2117 13.8283 26.2109 14.1123 26.2649 14.2086 26.7458 13.9796 26.6646 13.8993 27.1285 13.8993 27.6888 13.8993 29.2056 14.3328 29.5452 14.452 30.8659 14.926 32.4909 15.5403 33.6451 16.9911 34.8206 18.4741 35.2329 20.1193 35.8151 21.5591 36.1227 22.3146 36.4616 23.0946 36.677 23.844 36.9905 24.9062 37.9758 26.3909 39.119 27.1192 40.2031 27.8037 41.872 28.3664 42.5894 29.8013 43.6896 32.0176 43.7521 34.7427 45.9322 36.8502 46.3572 37.2618 46.7231 37.4442 47.089 37.4831 48.3227 37.6158 48.8162 35.2067 48.8162 34.6025 48.8162 34.4944 48.8432 34.3567 48.7731 33.8876 48.5897 32.6953 47.1769 30.9031 47.1769 30.7198 47.1769 30.5466 47.4625 30.5034 47.6078 30.5034 47.8241 30.5034 48.1833 30.7316 48.2847 30.9006 48.2509 30.62 47.8267 30.0286 47.4541 29.7421 44.8658 27.7412 43.3254 26.0453 42.3756 22.8419 42.1847 22.198 42.0427 21.6412 41.9996 21.1612 41.9565 20.6864 41.9565 20.5375 41.9565 20.4294 41.9565 20.0847 41.9346 19.0706 42.7331 19.0706 42.8403 19.0706 43.0431 19.3394 43.2739 19.3166 43.4877 19.2955 43.3879 19.0648 43.7343 19.0133 43.8409 18.9972 44.0478 19.2295 44.2651 19.1991 44.4898 19.1687 44.4121 18.9228 44.734 18.8561 45.0044 18.7994 45.1168 19.1704 45.4472 19.0656 45.6914 18.9879 45.5064 18.5924 45.7345 18.4741 46.0378 18.3169 46.2288 18.7884 46.4823 18.6364 46.7045 18.5037 46.375 18.0246 46.6335 17.8556 47.0223 17.602 47.2014 18.0297 47.4777 17.8505 47.7118 17.6984 47.2064 17.2497 47.5208 17.0022 47.9213 16.687 48.0633 17.308 48.375 16.9573 48.6446 16.654 48.0599 16.0811 48.1951 15.8445 48.4452 15.4068 49.0409 15.9113 49.2049 15.5327 49.3612 15.1727 48.7232 14.8897 48.8162 14.6049 48.9877 14.0802 49.5192 14.5593 49.678 14.2289 49.9476 13.6653 49.0739 13.2926 49.1279 13.0247 49.2175 12.5752 49.9248 13.0019 50.022 12.7205 50.2112 12.1663 49.1187 11.7733 49.1187 11.5198 49.1187 11.1801 49.6738 11.366 49.8471 11.083 50.2121 10.4872 48.4756 10.2379 48.5576 9.83743 48.6557 9.35916 49.7008 9.83743 49.8082 9.83743 49.9485 9.83743 50.5053 9.85432 50.54 9.54928 50.6329 8.744 46.9175 8.11702 46.9175 7.8314 46.9175 7.5027 47.3932 7.53989 47.4785 7.55087 51.2853 8.0604 58.4221 13.0408 58.88 11.9127 58.9173 11.8215 58.8091 11.6601 58.7228 11.5975 55.217 9.08115 50.0735 6.28507 46.3311 6.17859ZM45.7361 38.0112C45.639 38.0856 45.2173 38.2487 45.2173 38.2487 44.8126 39.5297 44.5447 40.9087 44.5447 41.4842 44.5447 41.5923 44.5473 41.7089 44.5971 41.8061L44.8633 41.8061C45.0466 41.8078 45.8824 41.5653 45.8824 41.1766L45.8824 38.5554C45.8824 38.4473 45.8368 38.1955 45.7361 38.0112ZM58.8775 46.1435C64.9699 43.0034 69.6064 38.5791 71.9293 33.4499L70.4345 33.4499C70.5249 33.5776 70.5993 33.695 70.6568 33.8107 70.9145 34.327 70.405 34.736 70.225 34.8037 70.0458 34.8712 69.5988 34.9227 68.9245 34.676 68.7065 35.0334 68.4842 35.2574 68.0711 35.3275 67.4179 35.4374 66.97 35.0579 66.5425 34.878 66.4783 34.851 65.8724 35.4771 65.2454 35.412 64.3556 35.3191 64.19 34.9144 63.6306 34.4047 63.4506 34.5688 63.2309 34.7648 62.9842 34.7648 62.1011 34.7648 61.5662 33.9341 61.0263 33.4626 60.8472 33.6164 60.9249 33.5969 60.4897 33.7457 60.2937 33.8125 60.0039 33.6679 59.7107 33.4499L55.3522 33.4499C55.6116 33.6899 55.8711 33.9223 56.1271 34.1437 57.3024 35.1577 58.5488 36.1336 59.7242 37.1367 60.5278 37.8219 63.3991 39.6125 63.3991 40.9881 63.3991 41.7647 62.5414 41.937 62.1697 41.937 61.7598 41.937 60.6343 41.4174 60.3664 41.2881 60.2599 41.7156 59.7859 41.894 59.4081 41.894 59.0364 41.894 58.1863 41.398 57.8238 41.0802 57.6379 41.3659 57.2982 41.4698 56.9974 41.4698 56.4744 41.4698 55.7704 41.2391 55.4189 40.6755 55.1612 40.8107 55.0793 40.8774 54.8799 40.8774 54.4971 40.8774 54.1346 40.6603 53.8016 40.2259 53.7534 40.3037 53.4966 40.4693 53.2955 40.4617 52.0094 40.4178 51.1373 38.5038 50.0676 36.8806 49.9029 36.6305 49.858 36.4395 49.6333 36.2037 49.6333 36.2037 49.2649 36.764 49.1094 36.9507 48.784 37.3428 48.2509 37.8219 48.2509 37.8219 48.1165 38.923 47.6391 41.4386 48.0565 41.7182 48.9327 42.3063 50.9718 42.0191 51.3984 42.9198 51.5143 43.1649 51.5472 43.3347 51.5269 43.6008 52.5772 43.6355 53.6985 43.6465 54.77 43.7462 56.1144 43.8754 57.6328 44.8008 58.8775 46.1435ZM30.1908 50.6616C31.569 50.8475 32.9742 50.9802 34.4014 51.0545 34.7403 50.5611 35.0486 49.4431 35.0486 49.3232 35.0486 47.8918 35.4551 45.9339 37.3158 45.9339 37.402 45.9339 37.7577 46.0978 37.6808 46.2769 37.62 46.4181 37.4248 46.408 37.3107 46.408 36.8468 46.408 35.9993 46.8135 35.8726 47.4608 35.8125 47.7684 35.7407 47.9526 36.1446 48.0522 36.2393 48.0759 36.3415 47.9315 36.4835 47.9078 36.5815 47.8918 36.6398 47.8918 36.7369 47.9078 36.7682 47.9821 36.7894 47.9949 36.7894 48.1089 36.7894 48.2239 36.6973 48.43 36.6973 48.5441 36.6973 48.8821 36.726 49.1398 37.1324 49.1398 37.5279 49.1398 37.5101 48.9015 37.876 48.4612 38.2884 47.9627 38.6957 47.3738 39.2745 47.0476 40.1786 46.5372 43.6084 46.0708 43.9118 46.0708 44.0259 46.0708 44.4255 46.0049 44.6664 46.1789 45.1971 46.56 43.4935 46.8431 42.8226 46.9522 41.5999 47.1515 41.1512 47.2444 40.5563 47.4101 39.0912 47.8165 37.8143 49.6146 37.4586 51.1264 44.0378 51.09 50.2172 49.8369 55.5424 47.6738 54.552 46.822 53.5828 46.8719 52.5671 46.8042 51.1991 46.7062 50.9658 46.8499 50.785 46.8499 50.785 46.8499 49.3797 47.3442 48.3329 47.4448 48.0303 47.4735 47.8004 47.5081 47.5503 47.3662 47.4701 47.3213 47.4845 47.252 47.4845 47.1372 47.4845 46.7307 49.4668 46.2119 49.8901 46.2085 50.1056 46.206 50.3304 46.4375 50.3929 46.4375 50.5079 46.4375 52.2485 46.2541 52.3626 46.2541 54.3737 46.2541 55.6522 47.2005 56.1863 47.4059 56.8918 47.1059 57.5813 46.789 58.2539 46.4577 57.3877 44.5041 54.3204 44.0554 52.6609 44.0554 52.5536 44.0554 51.8066 44.096 51.3832 44.134 51.2015 44.5024 50.8678 44.767 50.4664 44.8252 50.0685 43.5671 48.9776 44.0715 48.1444 43.8333L48.0294 43.8333C48.0337 43.8409 47.1549 46.6826 46.4214 46.6826 46.1679 46.6826 45.1421 44.8819 45.2461 43.9929 44.5017 44.0842 44.1924 44.1772 43.5341 44.3588 42.8801 44.5397 41.8873 44.9207 41.8873 44.9207 41.8873 44.9207 41.8576 44.6664 41.8602 44.5024 41.8627 44.3749 41.8873 44.1763 41.8873 44.1763 41.8239 44.1763 41.4605 44.4247 40.9458 44.5024 40.2927 44.6013 39.3472 44.6317 38.7109 44.712 38.3112 44.7991 38.0746 45.1202 37.9141 45.1708 37.8599 45.0746 37.8481 44.9241 37.8481 44.816 37.8481 44.385 38.0383 44.0732 38.2461 43.6879 38.209 43.6566 38.2461 43.6625 38.138 43.6625 37.9166 43.6625 37.5752 43.9532 37.2794 44.2236 37.1763 44.1865 37.0851 43.96 37.0581 43.6744 36.6238 43.8637 36.1286 44.0775 35.7196 44.2507 34.8484 44.6207 33.4762 46.299 33.537 46.827 33.5496 46.9403 33.9037 47.1929 33.9037 47.3078 33.9037 47.8089 31.5901 48.1562 30.1908 50.6616ZM2.40739 33.4499C6.3045 42.0562 16.7182 48.6793 29.5875 50.5763 29.5993 50.5585 29.6103 50.5416 29.6196 50.5255 30.2956 49.3485 32.468 47.4988 32.5593 47.2757 32.6971 46.9555 33.5175 45.6297 33.586 45.5148 34.3651 44.2836 35.9004 43.6262 36.9618 43.1614 37.0115 43.1395 37.0564 43.1193 37.0953 43.1006 37.1299 42.9569 37.1856 42.8184 37.2668 42.6992 37.5879 42.2303 38.0965 41.9405 38.4312 41.8213 38.9593 41.6329 39.4917 41.5484 40.0798 41.5484 40.1871 41.5484 41.4386 41.6354 41.5467 41.6354 41.9886 41.6354 42.1467 41.67 42.4593 40.9146 42.837 40.0037 43.207 38.0974 43.207 37.9893 43.207 37.854 40.8774 36.0374 40.8774 33.8902 40.8774 33.8555 40.9045 33.6789 40.9408 33.4499L2.40739 33.4499ZM0.755425 25.9473C0.755425 28.4011 1.2658 30.686 2.21642 32.9285L41.0109 32.9285C41.0743 32.5373 41.1368 32.239 41.1368 32.1867 41.1368 30.6597 38.4675 28.7552 37.4433 27.7201 36.753 27.0187 36.1345 25.9506 35.7728 25.2281 34.3811 22.4726 34.5349 19.7095 32.4098 17.0773 31.9086 16.4521 31.1761 15.94 30.5338 15.5833 30.2162 15.4059 27.8586 14.4536 27.4758 14.4536L26.8826 14.4536C26.7745 14.4536 26.2083 14.9285 26.101 14.9285 25.6422 14.9285 25.6473 13.8233 25.6473 13.6771 25.6473 11.644 27.3364 12.391 28.636 11.7217 28.9757 11.5494 29.1236 11.1412 29.4531 10.8877 30.0243 10.4517 30.6716 10.3714 31.2775 10.3123 31.2775 10.3123 32.7021 10.3588 33.613 10.3866 34.3262 10.4086 35.4416 10.3334 35.4416 10.4416 35.4416 10.679 35.0158 11.5865 34.9033 11.688 35.3714 11.9694 37.0589 13.3974 39.1275 14.7434 40.5437 15.6654 41.5095 15.7329 41.5095 15.7329 41.6895 15.3502 41.7402 14.4714 41.7402 14.3463 41.7402 9.28733 35.5329 10.0182 35.5329 7.71057 35.5329 6.0603 37.3589 5.75272 39.0827 5.62006 41.0109 5.47218 42.384 5.7992 44.0436 6.19127 44.7898 5.84905 45.2765 5.68174 46.0936 5.60908 46.5237 5.57105 47.1997 5.60908 47.1997 5.60908 50.3718 5.95468 53.6479 7.99026 56.727 9.59153 56.776 9.61857 59.6025 11.2021 59.6025 11.9516 59.6025 12.2592 59.262 12.6318 58.7829 12.6682 58.1339 12.7171 61.3508 16.6996 62.6775 18.6084 62.7806 18.7547 63.6889 19.9106 63.6889 20.4066 63.6889 20.5147 63.6044 20.6795 63.5089 20.8334 64.4029 23.4773 65.1102 25.0651 66.3633 27.3947 68.1378 30.697 69.3875 32.043 70.1007 32.9285L72.1194 32.9285C73.0709 30.686 73.5812 28.4011 73.5812 25.9473 73.5812 12.0404 57.1825 0.767255 37.168 0.767255 17.1533 0.767255 0.755425 12.0404 0.755425 25.9473ZM1.74103e-07 25.9473C1.74103e-07 11.617 16.5441 1.39345e-07 37.168 1.39345e-07 57.7925 1.39345e-07 74.3367 11.617 74.3367 25.9473 74.3367 40.2775 57.7925 51.8936 37.168 51.8936 16.5441 51.8936 1.74103e-07 40.2775 1.74103e-07 25.9473ZM30.3835 12.4704C30.1426 12.4704 30.2127 12.6233 30.097 12.8194L30.1975 12.9208C30.3759 12.7941 30.5727 12.756 30.7519 12.7011 30.6345 12.5634 30.4654 12.4704 30.3835 12.4704ZM30.6091 12.0192C31.1879 12.0192 31.8986 12.1628 32.5525 12.2727L32.5525 12.4577C32.2948 12.7501 31.9002 12.6724 31.6036 12.8465 31.4084 12.9589 31.1676 13.4945 30.8499 13.4929L30.2939 13.4929C30.2601 13.6432 30.2609 13.8004 30.3006 14.2187L30.1975 14.3142C29.7751 13.9035 29.4818 13.3357 29.4818 12.8591 29.4818 12.3166 30.2246 12.0192 30.6091 12.0192" fill="#231F20" transform="matrix(1.00732 0 0 1 0.411705 0.410206)"/><path d="M30.2711 27.709 33.7144 27.709 33.7144 29.5224C33.7144 29.8731 33.4719 30.3404 32.9691 30.473 32.4639 30.6057 31.972 30.5753 31.4211 30.5753L29.121 30.5753C28.3588 30.5863 27.7073 30.6404 27.3128 30.3775 27.0161 30.1798 26.8235 29.8697 26.8277 29.5224L26.8277 26.8869C26.8226 26.5209 27.0382 26.2548 27.3187 26.0342 27.66 25.7656 28.369 25.8332 29.121 25.8332L31.4211 25.8332C32.3287 25.8332 32.9269 25.8357 33.2615 26.0639 33.7719 26.4137 33.728 27.099 33.728 27.099L31.4169 27.099C31.3442 26.7567 31.1397 26.6672 30.6733 26.6672 30.3809 26.6672 30.3649 26.6672 29.9322 26.6672 29.4261 26.6621 29.236 26.8277 29.2393 27.1142L29.2393 29.2148C29.2393 29.4683 29.2773 29.5799 29.4835 29.6754 29.645 29.7531 29.9204 29.7396 30.2339 29.7396 30.3336 29.7396 30.5846 29.7404 30.8203 29.7404 31.373 29.7404 31.4211 29.4505 31.4211 29.1346L31.4211 28.5735 30.2711 28.5735 30.2711 27.709" fill="#176FC1" transform="matrix(1.00732 0 0 1 0.411705 0.410206)"/><path d="M12.1383 30.5753 12.1383 25.8332 14.55 25.8332 14.55 29.3103 17.6958 29.3103 17.6958 30.5753 12.1383 30.5753" fill="#176FC1" transform="matrix(1.00732 0 0 1 0.411705 0.410206)"/><path d="M8.36713 27.7733 8.36713 28.6301C8.36628 28.7721 8.38825 29.1286 8.15419 29.2232 7.85506 29.345 7.63706 29.3061 7.3337 29.3103L6.30027 29.3103 6.30027 27.0931 7.33455 27.0931C7.6379 27.0981 7.85506 27.0584 8.15503 27.1801 8.3891 27.2755 8.36628 27.6313 8.36713 27.7733ZM8.4829 30.5753C9.11072 30.5753 9.79518 30.6251 10.2438 30.4172 10.696 30.2094 10.7754 29.6593 10.7754 29.3737L10.7762 27.0423C10.7762 26.7567 10.6968 26.2066 10.2447 25.9988 9.79601 25.7909 9.11072 25.8332 8.48374 25.8332L3.88951 25.8332 3.88951 30.5753 8.4829 30.5753" fill="#176FC1" fill-rule="evenodd" transform="matrix(1.00732 0 0 1 0.411705 0.410206)"/><path d="M21.195 26.6714 22.2377 26.6714C22.5681 26.6714 22.8208 26.6469 23.0464 26.7466 23.321 26.8691 23.2838 27.0795 23.2838 27.1902 23.2838 27.2967 23.3108 27.5249 23.0464 27.6363 22.8072 27.737 22.6324 27.709 22.2377 27.709L21.195 27.709 21.195 26.6714ZM18.7825 30.5753 18.7825 25.8332 23.3396 25.8332C23.8661 25.8399 24.4618 25.7926 24.8876 25.9836 25.3727 26.2007 25.6363 26.4501 25.6363 26.9697L25.6329 27.0973C25.6329 27.5028 25.4554 27.7142 25.1014 27.9322 24.7516 28.1501 24.3198 28.1814 23.4951 28.1814L24.482 28.1814C24.7963 28.1814 25.0651 28.2338 25.2898 28.3386 25.518 28.4417 25.6329 28.7213 25.6329 28.865L25.6329 30.5753 23.2222 30.5753 23.2222 29.0745C23.2222 28.9301 23.2331 28.696 23.021 28.631 22.7878 28.56 22.6408 28.5802 22.2673 28.5735L21.195 28.5735 21.195 30.5753 18.7825 30.5753" fill="#176FC1" fill-rule="evenodd" transform="matrix(1.00732 0 0 1 0.411705 0.410206)"/></g></svg>