<?xml version="1.0" encoding="UTF-8" standalone="no"?>
<svg
   width="74.880844"
   height="51.8936"
   xml:space="preserve"
   overflow="hidden"
   version="1.1"
   id="svg8376"
   sodipodi:docname="dlrg.svg"
   inkscape:version="1.2 (dc2aedaf03, 2022-05-15)"
   xmlns:inkscape="http://www.inkscape.org/namespaces/inkscape"
   xmlns:sodipodi="http://sodipodi.sourceforge.net/DTD/sodipodi-0.dtd"
   xmlns="http://www.w3.org/2000/svg"
   xmlns:svg="http://www.w3.org/2000/svg"><sodipodi:namedview
     id="namedview8378"
     pagecolor="#ffffff"
     bordercolor="#000000"
     borderopacity="0.25"
     inkscape:showpageshadow="2"
     inkscape:pageopacity="0.0"
     inkscape:pagecheckerboard="0"
     inkscape:deskcolor="#d1d1d1"
     showgrid="false"
     inkscape:zoom="9.0789474"
     inkscape:cx="76.165217"
     inkscape:cy="16.466667"
     inkscape:window-width="2560"
     inkscape:window-height="1351"
     inkscape:window-x="1431"
     inkscape:window-y="517"
     inkscape:window-maximized="1"
     inkscape:current-layer="g8374" /><defs
     id="defs8274"><clipPath
       id="clip0"><rect
         x="0"
         y="0"
         width="76"
         height="53"
         id="rect8271" /></clipPath></defs><g
     clip-path="url(#clip0)"
     id="g8374"
     transform="translate(-0.41170518,-0.41020614)"><path
       d="m 4.91026,69.1906 v 0.9955 c -0.26786,0.0524 -0.53657,0.1047 -0.94301,0.1047 -0.89739,0 -1.32918,-0.6608 -1.32918,-1.7288 0,-1.0673 0.43179,-1.7288 1.32918,-1.7288 0.55684,0 0.94977,0.2028 0.94977,0.8052 H 5.99777 C 5.991,66.512 5.14601,66.0997 3.77712,66.0997 c -0.93625,0 -2.2198,0.583 -2.2198,2.4623 0,1.8801 1.28355,2.4632 2.2198,2.4632 0.62277,0 0.85851,-0.0263 1.08751,-0.0465 0.36673,-0.033 0.71402,-0.0981 1.06131,-0.2096 V 68.4048 H 3.98668 v 0.7858 h 0.92358"
       fill="#231f20"
       transform="matrix(1.00732,0,0,1,0.411705,0.410206)"
       id="path8276" /><path
       d="m 9.84672,69.5447 c 0,-0.2163 0,-0.4258 -0.0262,-0.6287 C 9.79433,68.7065 9.7487,68.5096 9.65659,68.3262 9.38197,67.75 8.87075,67.5404 8.25559,67.5404 c -1.00216,0 -1.57844,0.7597 -1.57844,1.7492 0,1.1001 0.45207,1.7356 1.57844,1.7356 0.76641,0 1.401,-0.2688 1.48634,-1.0808 H 8.85807 c -0.0921,0.3008 -0.26194,0.4259 -0.60248,0.4259 -0.50446,0 -0.56361,-0.3997 -0.56361,-0.8256 z M 7.69198,68.8899 c 0.01352,-0.3608 0.11154,-0.6946 0.56361,-0.6946 0.47827,0 0.57628,0.3338 0.57628,0.6946 H 7.69198"
       fill="#231f20"
       fill-rule="evenodd"
       transform="matrix(1.00732,0,0,1,0.411705,0.410206)"
       id="path8278" /><path
       d="m 13.2047,68.5163 c -0.0456,-0.7266 -0.6354,-0.9759 -1.3291,-0.9759 -0.5772,0 -1.4087,0.3016 -1.4087,0.9887 0,0.7663 0.5831,0.9041 1.2118,1.0545 0.1969,0.0464 0.6684,0.1571 0.6684,0.4191 0,0.256 -0.2037,0.3676 -0.4715,0.3676 -0.2891,0 -0.518,-0.1445 -0.5375,-0.3997 h -0.91 c 0.0126,0.7529 0.681,1.0546 1.4475,1.0546 0.6083,0 1.4863,-0.3608 1.4863,-1.0808 0,-1.232 -1.8801,-0.9371 -1.8801,-1.4542 0,-0.2164 0.1251,-0.2949 0.3938,-0.2949 0.2222,0 0.4318,0.098 0.4453,0.321 h 0.8838"
       fill="#231f20"
       transform="matrix(1.00732,0,0,1,0.411705,0.410206)"
       id="path8280" /><path
       d="m 17.0232,69.5447 c 0,-0.2163 0,-0.4258 -0.0262,-0.6287 -0.0261,-0.2095 -0.0717,-0.4064 -0.1639,-0.5898 -0.2746,-0.5762 -0.7858,-0.7858 -1.4018,-0.7858 -1.0014,0 -1.5776,0.7597 -1.5776,1.7492 0,1.1001 0.4512,1.7356 1.5776,1.7356 0.7664,0 1.4018,-0.2688 1.4871,-1.0808 h -0.8838 c -0.0921,0.3008 -0.262,0.4259 -0.6033,0.4259 -0.5036,0 -0.5628,-0.3997 -0.5628,-0.8256 z m -2.1547,-0.6548 c 0.0127,-0.3608 0.1115,-0.6946 0.5628,-0.6946 0.4783,0 0.5771,0.3338 0.5771,0.6946 h -1.1399"
       fill="#231f20"
       fill-rule="evenodd"
       transform="matrix(1.00732,0,0,1,0.411705,0.410206)"
       id="path8282" /><path
       d="m 17.6367,70.9263 h 0.9828 v -4.7286 h -0.9828 z"
       fill="#231f20"
       transform="matrix(1.00732,0,0,1,0.411705,0.410206)"
       id="path8284" /><path
       d="m 19.4551,70.9263 h 0.9828 v -4.7286 h -0.9828 z"
       fill="#231f20"
       transform="matrix(1.00732,0,0,1,0.411705,0.410206)"
       id="path8286" /><path
       d="m 23.8221,68.5163 c -0.0457,-0.7266 -0.6355,-0.9759 -1.33,-0.9759 -0.5763,0 -1.4078,0.3016 -1.4078,0.9887 0,0.7663 0.5831,0.9041 1.2118,1.0545 0.196,0.0464 0.6683,0.1571 0.6683,0.4191 0,0.256 -0.2037,0.3676 -0.4723,0.3676 -0.2882,0 -0.5172,-0.1445 -0.5366,-0.3997 h -0.9109 c 0.0135,0.7529 0.6819,1.0546 1.4475,1.0546 0.6092,0 1.4871,-0.3608 1.4871,-1.0808 0,-1.232 -1.88,-0.9371 -1.88,-1.4542 0,-0.2164 0.125,-0.2949 0.3929,-0.2949 0.223,0 0.4325,0.098 0.4461,0.321 h 0.8839"
       fill="#231f20"
       transform="matrix(1.00732,0,0,1,0.411705,0.410206)"
       id="path8288" /><path
       d="m 27.2671,68.7918 c 0.0068,-0.7731 -0.6151,-1.2514 -1.4542,-1.2514 -0.9751,0 -1.467,0.8712 -1.467,1.7424 0,0.8712 0.4919,1.7424 1.467,1.7424 0.9042,0 1.4213,-0.4589 1.4542,-1.2971 h -0.9565 c -0.0059,0.2687 -0.1175,0.6422 -0.4977,0.6422 -0.4191,0 -0.425,-0.8324 -0.4521,-1.134 0.0136,-0.2552 0.0203,-1.041 0.4394,-1.041 0.3803,0 0.491,0.3278 0.4977,0.5965 h 0.9692"
       fill="#231f20"
       transform="matrix(1.00732,0,0,1,0.411705,0.410206)"
       id="path8290" /><path
       d="m 28.8194,70.9263 v -1.9782 c 0.0135,-0.4774 0.2822,-0.7528 0.5898,-0.7528 0.4842,0 0.583,0.3996 0.5898,0.7528 v 1.9782 h 0.9819 v -2.1412 c 0,-0.1116 -0.0127,-0.3211 -0.0651,-0.5239 -0.1183,-0.4783 -0.7537,-0.7208 -1.0808,-0.7208 -0.4976,0 -0.8061,0.1961 -1.0089,0.4977 l -0.0127,-0.0127 v -1.8277 h -0.9759 v 4.7286 h 0.9819"
       fill="#231f20"
       transform="matrix(1.00732,0,0,1,0.411705,0.410206)"
       id="path8292" /><path
       d="m 33.5919,69.3808 c 0,0.3862 -0.0195,0.9895 -0.5627,0.9895 -0.2755,0 -0.4783,-0.1969 -0.4783,-0.4724 0,-0.5298 0.7004,-0.5239 1.041,-0.5171 z m -0.8907,-0.812 c -0.0126,-0.1504 0.099,-0.4715 0.4394,-0.4715 0.3465,0 0.4513,0.2686 0.4513,0.4055 v 0.3085 c -0.3929,-0.0136 -0.8907,0.0059 -1.2836,0.1765 -0.5957,0.2553 -0.7004,0.8121 -0.7004,1.0411 0,0.6422 0.4579,0.9963 1.074,0.9963 0.4452,0 0.7858,-0.1572 1.0088,-0.5375 h 0.0128 c 0,0.1378 0.0135,0.2881 0.0329,0.4386 h 0.8839 c -0.0127,-0.098 -0.0389,-0.1961 -0.0457,-0.36 v -1.7947 c 0,-0.9887 -0.7402,-1.2312 -1.401,-1.2312 -0.3541,0 -0.7013,0.0524 -0.97,0.2096 -0.262,0.1504 -0.4385,0.4064 -0.4453,0.8188 h 0.9429"
       fill="#231f20"
       fill-rule="evenodd"
       transform="matrix(1.00732,0,0,1,0.411705,0.410206)"
       id="path8294" /><path
       d="m 37.1012,66.1453 c -0.1775,-0.0261 -0.3609,-0.0456 -0.5374,-0.0456 -1.0673,0 -1.1527,0.6024 -1.1264,1.5387 h -0.4918 v 0.6549 h 0.4918 v 2.633 h 0.9827 v -2.633 h 0.5957 v -0.6549 h -0.5957 c -0.0262,-0.6481 -0.0135,-0.9624 0.6811,-0.8838 v -0.6093"
       fill="#231f20"
       transform="matrix(1.00732,0,0,1,0.411705,0.410206)"
       id="path8296" /><path
       d="m 37.1967,67.6384 v 0.6549 h 0.6616 v 1.6182 c 0,0.714 0.1639,1.1137 0.9303,1.1137 0.1378,0 0.6617,-0.0465 0.7732,-0.0989 V 70.35 c -0.1048,0.0068 -0.2096,0.0203 -0.3143,0.0203 -0.3414,0 -0.4065,-0.1183 -0.4065,-0.551 v -1.526 h 0.7402 V 67.6384 H 38.841 v -1.0021 l -0.9827,0.354 v 0.6481 h -0.6616"
       fill="#231f20"
       transform="matrix(1.00732,0,0,1,0.411705,0.410206)"
       id="path8298" /><path
       d="m 45.0002,69.5447 c 0,-0.2163 0,-0.4258 -0.0263,-0.6287 -0.0261,-0.2095 -0.0717,-0.4064 -0.1639,-0.5898 -0.2755,-0.5762 -0.7858,-0.7858 -1.4018,-0.7858 -1.0022,0 -1.5784,0.7597 -1.5784,1.7492 0,1.1001 0.452,1.7356 1.5784,1.7356 0.7664,0 1.4018,-0.2688 1.4871,-1.0808 h -0.8846 c -0.0913,0.3008 -0.262,0.4259 -0.6025,0.4259 -0.5045,0 -0.5627,-0.3997 -0.5627,-0.8256 z m -2.1547,-0.6548 c 0.0126,-0.3608 0.1106,-0.6946 0.5627,-0.6946 0.4783,0 0.5762,0.3338 0.5762,0.6946 h -1.1389"
       fill="#231f20"
       fill-rule="evenodd"
       transform="matrix(1.00732,0,0,1,0.411705,0.410206)"
       id="path8300" /><path
       d="m 45.6263,70.9263 h 0.8314 v -0.8712 h -0.8314 z"
       fill="#231f20"
       transform="matrix(1.00732,0,0,1,0.411705,0.410206)"
       id="path8302" /><path
       d="m 48.7621,70.9263 h 1.1069 l 1.7415,-4.7286 h -1.0012 l -1.2388,3.7264 h -0.0127 l -1.2311,-3.7264 h -1.107 l 1.7424,4.7286"
       fill="#231f20"
       transform="matrix(1.00732,0,0,1,0.411705,0.410206)"
       id="path8304" /><path
       d="m 51.2549,70.9263 h 0.8314 v -0.8712 h -0.8314 z"
       fill="#231f20"
       transform="matrix(1.00732,0,0,1,0.411705,0.410206)"
       id="path8306" /><path
       d="m 2.74876,59.2772 h 0.52475 c 1.20496,-0.0127 1.38157,0.8256 1.38157,1.5785 0,0.7537 -0.17661,1.5919 -1.38157,1.5784 H 2.74876 Z M 1.73393,63.22 h 1.6114 c 1.47367,0.0135 2.39049,-0.72 2.39049,-2.3643 0,-1.6436 -0.91682,-2.377 -2.39049,-2.3643 H 1.73393 V 63.22"
       fill="#231f20"
       fill-rule="evenodd"
       transform="matrix(1.00732,0,0,1,0.411705,0.410206)"
       id="path8308" /><path
       d="m 9.47999,61.8384 c 0,-0.2164 0,-0.4259 -0.0262,-0.6287 C 9.4276,61.0001 9.38197,60.8033 9.28986,60.6199 9.01524,60.0436 8.50402,59.8341 7.88886,59.8341 c -1.00216,0 -1.57845,0.7596 -1.57845,1.7491 0,1.1002 0.45123,1.7356 1.57845,1.7356 0.76641,0 1.401,-0.2687 1.48635,-1.0807 H 8.49135 C 8.39924,62.5389 8.2294,62.664 7.88886,62.664 7.38441,62.664 7.32525,62.2642 7.32525,61.8384 Z M 7.32525,61.1835 c 0.01352,-0.36 0.11154,-0.6945 0.56361,-0.6945 0.47827,0 0.57629,0.3345 0.57629,0.6945 h -1.1399"
       fill="#231f20"
       fill-rule="evenodd"
       transform="matrix(1.00732,0,0,1,0.411705,0.410206)"
       id="path8310" /><path
       d="m 12.2811,63.22 h 0.9828 c -0.0195,-0.1961 -0.033,-0.393 -0.0397,-0.589 v -2.699 h -0.9819 v 1.9723 c -0.0135,0.4775 -0.2822,0.7597 -0.5898,0.7597 -0.485,0 -0.5831,-0.4065 -0.589,-0.7597 V 59.932 h -0.9827 v 2.1354 c 0,0.1115 0.0127,0.3211 0.0651,0.5239 0.1183,0.4782 0.7537,0.7275 1.0807,0.7275 0.4977,0 0.8062,-0.2037 1.0157,-0.5045 l 0.0388,0.4057"
       fill="#231f20"
       transform="matrix(1.00732,0,0,1,0.411705,0.410206)"
       id="path8312" /><path
       d="m 13.7463,59.932 v 0.6558 h 0.6617 v 1.6173 c 0,0.714 0.1639,1.1137 0.9304,1.1137 0.1368,0 0.6607,-0.0456 0.7722,-0.0988 v -0.5764 c -0.1047,0.0068 -0.2095,0.0204 -0.3143,0.0204 -0.3405,0 -0.4056,-0.1183 -0.4056,-0.551 v -1.5252 h 0.7394 V 59.932 H 15.3907 V 58.9307 L 14.408,59.284 v 0.648 h -0.6617"
       fill="#231f20"
       transform="matrix(1.00732,0,0,1,0.411705,0.410206)"
       id="path8314" /><path
       d="m 19.4492,60.81 c -0.0456,-0.7267 -0.6354,-0.9759 -1.33,-0.9759 -0.5763,0 -1.4077,0.3017 -1.4077,0.9894 0,0.7656 0.583,0.9033 1.2116,1.0538 0.1961,0.0464 0.6676,0.158 0.6676,0.4199 0,0.2552 -0.2028,0.3668 -0.4715,0.3668 -0.2881,0 -0.5172,-0.1446 -0.5365,-0.3998 h -0.9109 c 0.0134,0.753 0.681,1.0546 1.4474,1.0546 0.6093,0 1.4872,-0.3608 1.4872,-1.0807 0,-1.2312 -1.8801,-0.9372 -1.8801,-1.4543 0,-0.2163 0.1251,-0.2948 0.3929,-0.2948 0.2231,0 0.4326,0.0988 0.4453,0.321 h 0.8847"
       fill="#231f20"
       transform="matrix(1.00732,0,0,1,0.411705,0.410206)"
       id="path8316" /><path
       d="m 23.0903,61.0855 c 0.0068,-0.7732 -0.6151,-1.2514 -1.4534,-1.2514 -0.9759,0 -1.4669,0.8711 -1.4669,1.7423 0,0.8712 0.491,1.7424 1.4669,1.7424 0.9033,0 1.4213,-0.4588 1.4534,-1.2971 h -0.9557 c -0.0067,0.2687 -0.1183,0.6423 -0.4977,0.6423 -0.4191,0 -0.4258,-0.8323 -0.4521,-1.1332 0.0127,-0.2561 0.0195,-1.0418 0.4386,-1.0418 0.3803,0 0.4918,0.3278 0.4977,0.5965 h 0.9692"
       fill="#231f20"
       transform="matrix(1.00732,0,0,1,0.411705,0.410206)"
       id="path8318" /><path
       d="m 24.6435,63.22 v -1.9773 c 0.0126,-0.4783 0.2813,-0.7537 0.5889,-0.7537 0.485,0 0.583,0.3996 0.5897,0.7537 V 63.22 h 0.9828 v -2.1413 c 0,-0.1115 -0.0135,-0.3211 -0.0659,-0.5239 -0.1174,-0.4782 -0.7529,-0.7207 -1.0808,-0.7207 -0.4976,0 -0.8052,0.1968 -1.0089,0.4977 L 24.6366,60.319 V 58.4914 H 23.6607 V 63.22 h 0.9828"
       fill="#231f20"
       transform="matrix(1.00732,0,0,1,0.411705,0.410206)"
       id="path8320" /><path
       d="m 30.5423,61.8384 c 0,-0.2164 0,-0.4259 -0.0261,-0.6287 -0.0263,-0.2096 -0.0719,-0.4064 -0.164,-0.5898 -0.2746,-0.5763 -0.7858,-0.7858 -1.401,-0.7858 -1.0021,0 -1.5785,0.7596 -1.5785,1.7491 0,1.1002 0.4513,1.7356 1.5785,1.7356 0.7655,0 1.401,-0.2687 1.4864,-1.0807 h -0.884 c -0.092,0.3008 -0.2618,0.4259 -0.6024,0.4259 -0.5045,0 -0.5636,-0.3998 -0.5636,-0.8256 z m -2.1547,-0.6549 c 0.0135,-0.36 0.1116,-0.6945 0.5636,-0.6945 0.4774,0 0.5763,0.3345 0.5763,0.6945 h -1.1399"
       fill="#231f20"
       fill-rule="evenodd"
       transform="matrix(1.00732,0,0,1,0.411705,0.410206)"
       id="path8322" /><path
       d="m 36.0728,63.22 v -0.7859 h -2.05 V 58.4914 H 33.0071 V 63.22 h 3.0657"
       fill="#231f20"
       transform="matrix(1.00732,0,0,1,0.411705,0.410206)"
       id="path8324" /><path
       d="m 39.5745,61.8384 c 0,-0.2164 0,-0.4259 -0.0263,-0.6287 -0.0261,-0.2096 -0.0717,-0.4064 -0.1639,-0.5898 -0.2746,-0.5763 -0.7858,-0.7858 -1.4009,-0.7858 -1.0023,0 -1.5785,0.7596 -1.5785,1.7491 0,1.1002 0.4512,1.7356 1.5785,1.7356 0.7655,0 1.4009,-0.2687 1.4862,-1.0807 h -0.8838 c -0.0921,0.3008 -0.262,0.4259 -0.6024,0.4259 -0.5045,0 -0.5636,-0.3998 -0.5636,-0.8256 z m -2.1547,-0.6549 c 0.0126,-0.36 0.1114,-0.6945 0.5636,-0.6945 0.4774,0 0.5762,0.3345 0.5762,0.6945 h -1.1398"
       fill="#231f20"
       fill-rule="evenodd"
       transform="matrix(1.00732,0,0,1,0.411705,0.410206)"
       id="path8326" /><path
       d="m 41.2095,61.5764 c 0,-0.452 0.1774,-1.0874 0.7073,-1.0874 0.6295,0 0.7073,0.5829 0.7073,1.0874 0,0.5045 -0.0778,1.0876 -0.7073,1.0876 -0.5299,0 -0.7073,-0.6355 -0.7073,-1.0876 z m -0.9818,0.9887 c 0,0.2163 -0.0204,0.4393 -0.033,0.6549 h 0.9819 c 0.0135,-0.1572 0.0262,-0.3076 0.0262,-0.4648 h 0.0135 c 0.2163,0.3862 0.5831,0.5636 1.009,0.5636 0.9624,0 1.4144,-0.8974 1.4144,-1.7424 0,-0.8838 -0.5171,-1.7423 -1.5396,-1.7423 -0.3405,0 -0.6937,0.2027 -0.8771,0.4782 h -0.0135 v -1.8209 h -0.9818 v 4.0737"
       fill="#231f20"
       fill-rule="evenodd"
       transform="matrix(1.00732,0,0,1,0.411705,0.410206)"
       id="path8328" /><path
       d="m 47.345,61.8384 c 0,-0.2164 0,-0.4259 -0.0261,-0.6287 -0.0263,-0.2096 -0.0727,-0.4064 -0.164,-0.5898 -0.2754,-0.5763 -0.7858,-0.7858 -1.4019,-0.7858 -1.0021,0 -1.5784,0.7596 -1.5784,1.7491 0,1.1002 0.4521,1.7356 1.5784,1.7356 0.7665,0 1.4019,-0.2687 1.4873,-1.0807 h -0.8848 c -0.0912,0.3008 -0.2619,0.4259 -0.6025,0.4259 -0.5044,0 -0.5627,-0.3998 -0.5627,-0.8256 z m -2.1547,-0.6549 c 0.0126,-0.36 0.1107,-0.6945 0.5627,-0.6945 0.4783,0 0.5764,0.3345 0.5764,0.6945 h -1.1391"
       fill="#231f20"
       fill-rule="evenodd"
       transform="matrix(1.00732,0,0,1,0.411705,0.410206)"
       id="path8330" /><path
       d="m 48.9471,59.932 h -0.9759 v 3.288 h 0.9827 v -1.9773 c 0.0127,-0.4783 0.2814,-0.7537 0.589,-0.7537 0.485,0 0.583,0.3996 0.5897,0.7537 V 63.22 h 0.9828 v -2.1413 c 0,-0.1115 -0.0135,-0.3211 -0.0659,-0.5239 -0.1174,-0.4782 -0.7529,-0.7207 -1.0808,-0.7207 -0.4976,0 -0.8052,0.1968 -1.008,0.4977 L 48.9471,60.3123 V 59.932"
       fill="#231f20"
       transform="matrix(1.00732,0,0,1,0.411705,0.410206)"
       id="path8332" /><path
       d="m 54.5056,60.81 c -0.0458,-0.7267 -0.6347,-0.9759 -1.3292,-0.9759 -0.5764,0 -1.4087,0.3017 -1.4087,0.9894 0,0.7656 0.5831,0.9033 1.2118,1.0538 0.1969,0.0464 0.6684,0.158 0.6684,0.4199 0,0.2552 -0.2028,0.3668 -0.4715,0.3668 -0.2882,0 -0.5172,-0.1446 -0.5375,-0.3998 h -0.9101 c 0.0128,0.753 0.6811,1.0546 1.4476,1.0546 0.6092,0 1.4863,-0.3608 1.4863,-1.0807 0,-1.2312 -1.8793,-0.9372 -1.8793,-1.4543 0,-0.2163 0.1242,-0.2948 0.393,-0.2948 0.2222,0 0.4317,0.0988 0.4452,0.321 h 0.884"
       fill="#231f20"
       transform="matrix(1.00732,0,0,1,0.411705,0.410206)"
       id="path8334" /><path
       d="m 55.2263,61.8578 h 1.6241 v -0.7334 h -1.6241 z"
       fill="#231f20"
       transform="matrix(1.00732,0,0,1,0.411705,0.410206)"
       id="path8336" /><path
       d="m 58.5319,59.2772 h 0.8517 c 0.4454,0.0068 0.7073,0.1833 0.7073,0.6025 0,0.42 -0.2619,0.6421 -0.7073,0.6489 h -0.8517 z m 0,2.0372 h 1.074 c 0.3338,0.0128 0.3997,0.3736 0.4259,0.6355 0.0456,0.4259 0.0921,0.8509 0.1765,1.2701 h 1.1206 C 61.1387,62.958 61.099,62.4011 61.0534,62.1003 60.9681,61.4455 60.9681,60.9672 60.189,60.8819 v -0.0128 c 0.5829,-0.1241 0.9827,-0.5306 0.9827,-1.1466 0,-0.9624 -0.8323,-1.2244 -1.6444,-1.2311 H 57.5171 V 63.22 h 1.0148 v -1.9056"
       fill="#231f20"
       fill-rule="evenodd"
       transform="matrix(1.00732,0,0,1,0.411705,0.410206)"
       id="path8338" /><path
       d="m 64.9378,61.8384 c 0,-0.2164 0,-0.4259 -0.0262,-0.6287 -0.0261,-0.2096 -0.0726,-0.4064 -0.1639,-0.5898 -0.2755,-0.5763 -0.7859,-0.7858 -1.4018,-0.7858 -1.0023,0 -1.5785,0.7596 -1.5785,1.7491 0,1.1002 0.452,1.7356 1.5785,1.7356 0.7663,0 1.4018,-0.2687 1.4871,-1.0807 h -0.8847 c -0.0912,0.3008 -0.262,0.4259 -0.6024,0.4259 -0.5045,0 -0.5629,-0.3998 -0.5629,-0.8256 z M 62.783,61.1835 c 0.0128,-0.36 0.1107,-0.6945 0.5629,-0.6945 0.4782,0 0.5762,0.3345 0.5762,0.6945 H 62.783"
       fill="#231f20"
       fill-rule="evenodd"
       transform="matrix(1.00732,0,0,1,0.411705,0.410206)"
       id="path8340" /><path
       d="m 65.138,59.932 v 0.6558 h 0.6617 v 1.6173 c 0,0.714 0.1639,1.1137 0.9304,1.1137 0.1377,0 0.6615,-0.0456 0.7731,-0.0988 v -0.5764 c -0.1047,0.0068 -0.2095,0.0204 -0.3152,0.0204 -0.3405,0 -0.4056,-0.1183 -0.4056,-0.551 v -1.5252 h 0.7403 V 59.932 h -0.7403 v -1.0013 l -0.9827,0.3533 v 0.648 H 65.138"
       fill="#231f20"
       transform="matrix(1.00732,0,0,1,0.411705,0.410206)"
       id="path8342" /><path
       d="m 67.75,59.932 v 0.6558 h 0.6608 v 1.6173 c 0,0.714 0.1639,1.1137 0.9303,1.1137 0.1377,0 0.6616,-0.0456 0.7732,-0.0988 v -0.5764 c -0.1048,0.0068 -0.2097,0.0204 -0.3144,0.0204 -0.3405,0 -0.4065,-0.1183 -0.4065,-0.551 v -1.5252 h 0.7402 V 59.932 h -0.7402 v -1.0013 l -0.9826,0.3533 v 0.648 H 67.75"
       fill="#231f20"
       transform="matrix(1.00732,0,0,1,0.411705,0.410206)"
       id="path8344" /><path
       d="m 72.896,63.22 h 0.9818 c -0.0194,-0.1961 -0.0329,-0.393 -0.0389,-0.589 v -2.699 h -0.9826 v 1.9723 c -0.0127,0.4775 -0.2815,0.7597 -0.5898,0.7597 -0.4843,0 -0.5822,-0.4065 -0.589,-0.7597 V 59.932 h -0.9827 v 2.1354 c 0,0.1115 0.0135,0.3211 0.0658,0.5239 0.1175,0.4782 0.7529,0.7275 1.0808,0.7275 0.4977,0 0.8053,-0.2037 1.0149,-0.5045 L 72.896,63.22"
       fill="#231f20"
       transform="matrix(1.00732,0,0,1,0.411705,0.410206)"
       id="path8346" /><path
       d="m 75.6971,59.932 h -0.976 v 3.288 h 0.9819 v -1.9773 c 0.0135,-0.4783 0.2823,-0.7537 0.5899,-0.7537 0.4841,0 0.583,0.3996 0.5889,0.7537 V 63.22 h 0.9828 v -2.1413 c 0,-0.1115 -0.0128,-0.3211 -0.0651,-0.5239 -0.1183,-0.4782 -0.7538,-0.7207 -1.0807,-0.7207 -0.4978,0 -0.8062,0.1968 -1.009,0.4977 L 75.6971,60.3123 V 59.932"
       fill="#231f20"
       transform="matrix(1.00732,0,0,1,0.411705,0.410206)"
       id="path8348" /><path
       d="m 79.5655,61.5241 c 0,-0.485 0.0981,-1.0351 0.6354,-1.0351 0.5366,0 0.6355,0.5501 0.6355,1.0351 0,0.4258 -0.0989,0.9759 -0.6355,0.9759 -0.5373,0 -0.6354,-0.5501 -0.6354,-0.9759 z m 2.2527,-1.5921 h -0.9818 v 0.3803 h -0.0135 c -0.1572,-0.3337 -0.4386,-0.4782 -0.8771,-0.4782 -0.9177,0 -1.3952,0.8449 -1.3952,1.6832 0,0.7994 0.458,1.6376 1.3487,1.6376 0.3735,0 0.7208,-0.131 0.9236,-0.4521 h 0.0135 c 0.0388,0.4783 0.065,1.1593 -0.6811,1.1593 -0.2687,0 -0.5306,-0.1115 -0.5442,-0.4064 h -0.9294 c 0.0194,0.8847 0.7985,1.0613 1.526,1.0613 1.4407,0.0135 1.6105,-0.8255 1.6105,-1.5911 V 59.932"
       fill="#231f20"
       fill-rule="evenodd"
       transform="matrix(1.00732,0,0,1,0.411705,0.410206)"
       id="path8350" /><path
       d="m 85.2549,60.81 c -0.0457,-0.7267 -0.6355,-0.9759 -1.3292,-0.9759 -0.5763,0 -1.4087,0.3017 -1.4087,0.9894 0,0.7656 0.5831,0.9033 1.2118,1.0538 0.1969,0.0464 0.6684,0.158 0.6684,0.4199 0,0.2552 -0.2028,0.3668 -0.4715,0.3668 -0.2881,0 -0.5171,-0.1446 -0.5375,-0.3998 h -0.91 c 0.0127,0.753 0.681,1.0546 1.4475,1.0546 0.6092,0 1.4863,-0.3608 1.4863,-1.0807 0,-1.2312 -1.8792,-0.9372 -1.8792,-1.4543 0,-0.2163 0.1242,-0.2948 0.3929,-0.2948 0.2222,0 0.4326,0.0988 0.4453,0.321 h 0.8839"
       fill="#231f20"
       transform="matrix(1.00732,0,0,1,0.411705,0.410206)"
       id="path8352" /><path
       d="m 85.8446,61.8578 h 1.6242 v -0.7334 h -1.6242 z"
       fill="#231f20"
       transform="matrix(1.00732,0,0,1,0.411705,0.410206)"
       id="path8354" /><path
       d="m 54.89,32.9285 h 4.3119 c -0.1563,-0.1478 -0.4985,-0.4088 -0.6033,-0.523 -0.158,0.1606 -0.4072,0.229 -0.5922,0.218 -0.8299,-0.0489 -0.9574,-0.3295 -1.4975,-0.97 -0.2188,0.1352 -0.5103,0.2459 -0.6176,0.2358 -1.1576,-0.1125 -1.4424,-1.0115 -2.0448,-1.4602 -0.2308,0.251 -0.3736,0.2653 -0.562,0.3025 -0.3591,0.0727 -0.8534,-0.1791 -1.281,-0.3701 0.6447,0.6642 1.3038,1.0925 1.968,1.7559 0.3033,0.3033 0.6109,0.518 0.9185,0.8111 z m -10.7982,5.2551 c -0.8466,0 -0.2003,3.8852 -2.9339,3.969 -0.1072,0.0033 -1.1212,-0.0862 -1.2294,-0.0862 -0.8466,0 -2.0593,0.4073 -2.4184,1.3503 0.404,-0.1572 0.6913,-0.3786 1.0106,-0.4715 0.3211,-0.093 0.6964,-0.202 0.922,-0.202 0.9886,0 1.761,-0.2526 1.7972,-0.2248 -0.0566,0.3076 -2.2249,0.5391 -2.4741,1.6064 0.4098,-0.0305 0.7546,-0.1167 1.1002,-0.1496 0.6473,-0.0592 1.3283,0.011 1.9164,-0.3616 0.5771,-0.3626 1.0926,-1.1653 1.9063,-1.6123 0.4504,-0.2468 0.4724,-1.3935 0.7698,-3.473 0.0245,-0.1706 -0.016,-0.3447 -0.3667,-0.3447 z m 2.4032,-0.1251 c 0.0346,0.6228 0.0828,0.8797 0.0777,2.5198 -0.0067,2.524 -3.4831,1.0875 -4.1624,3.598 0,0 0.3879,-0.2603 0.7055,-0.327 1.1239,-0.2357 2.3153,-0.5425 2.4961,-0.6278 0.0415,-0.0102 0.3567,-0.2062 0.4648,-0.2062 0.1073,0 0.071,0.0371 0.1081,0.0676 -0.1267,0.202 -0.2467,0.3134 -0.3016,0.5526 -0.0464,0.2011 -0.0203,0.3245 -8e-4,0.5298 0.0634,0.6718 0.3979,1.1965 0.6836,1.5886 0.1893,-0.1783 0.5492,-0.8028 0.6743,-1.3933 0.0844,-0.4031 0.0447,-1.0555 0.0447,-1.0555 0,-0.0599 0.0271,-0.2924 0.2696,-0.2924 0.065,0 0.6118,0.2974 1.0334,0.382 0.3102,0.0626 1.3377,-0.0811 1.7534,0.3363 0.2095,0.2121 0.267,0.6811 0.3143,0.6971 0.4268,-0.4495 0.4115,-0.6819 0.4268,-1.0114 0.0456,-0.9659 -3.1189,-0.8154 -3.642,-1.3436 -0.2213,-0.2214 -0.1344,-0.7613 -0.1344,-0.8694 0,-0.1083 0.1074,-1.8574 0.1293,-1.963 0.2315,-1.1044 -0.3219,-0.9912 -0.9404,-1.1822 z m -4.1659,-5.3538 c -0.4724,0.3439 -0.4588,0.8948 -0.4588,1.2294 0,0.8628 0.5501,3.4299 2.3077,3.4299 0.1724,0 0.4099,-0.087 0.4099,-0.3026 0,-0.1774 -1.7272,-3.0005 -2.2588,-4.3567 z m 20.2487,8.0941 c 0.0016,-0.4309 -2.4489,-2.4919 -3.0859,-3.031 -3.6885,-3.1222 -7.4842,-6.5656 -11.1058,-9.8111 -0.2577,0.0321 -0.932,-0.3228 -1.1914,-0.382 -0.2696,-0.0541 -0.404,0.2468 -0.404,0.2468 -0.0447,0.1799 2.8797,2.1428 4.1903,3.265 0.6794,0.5772 4.1777,3.3377 4.1777,3.9258 0,0.1183 0.0051,0.2375 -0.2595,0.2375 -0.2365,0 -2.0591,-1.9359 -2.3253,-1.7213 -0.1547,0.1251 0.9446,1.1873 0.9446,1.4838 0,0.1082 -0.1292,0.2375 -0.2366,0.2375 -0.561,0 -1.6866,-1.8784 -1.9139,-1.723 -0.239,0.1639 0.9862,1.5287 0.9862,1.8303 0,0.1132 -0.0161,0.2374 -0.2155,0.2374 -0.3667,0 -1.5396,-2.1167 -1.7356,-1.8454 -0.1411,0.1934 0.8729,1.4356 0.8729,1.7161 0,0.0321 0.0532,0.2586 -0.1944,0.2586 -0.3566,0 -1.3452,-1.8226 -1.5658,-1.6773 -0.376,0.2476 2.3998,5.5939 3.4772,5.8423 0.5839,0.1352 0.359,-0.2696 0.359,-0.2696 -0.1351,-0.3253 -1.1779,-1.9536 -1.1779,-2.0617 0,-0.1073 0.0432,-0.0862 0.0305,-0.109 0.2645,0.256 1.0132,1.4382 1.6647,2.2156 0.3252,0.3895 0.7731,0.7283 1.0106,0.6971 0.3371,-0.0448 0.0456,-0.4605 0.0456,-0.4605 0,0 -0.9937,-1.5938 -1.2819,-2.0897 -0.0211,-0.0364 0.044,-0.0803 0.0304,-0.104 0.4783,0.518 2.2849,3.1704 3.1384,3.1704 0.1081,0 0.2619,0.0363 0.3599,-0.0675 0.0854,-0.0905 0.0972,-0.2316 0.0667,-0.3135 -0.2881,-0.7867 -1.2353,-1.7644 -1.7364,-2.3407 -0.027,-0.0304 -0.0051,-0.0651 0.0237,-0.1014 0.627,0.5231 2.9735,3.1248 3.7585,3.1603 0.1073,0.0051 0.2011,-0.0254 0.294,-0.0651 0.7648,-0.3261 -0.5619,-1.2151 -1.2809,-1.9604 -0.0753,-0.0777 -0.7445,-0.6954 -0.5898,-0.7097 0.0709,-0.006 0.8872,0.7334 0.97,0.8027 0.5839,0.4943 2.0508,1.9857 3.4831,1.9553 0.4242,-0.0093 0.4166,-0.4386 0.4166,-0.4386 z M 62.206,21.1485 c -0.0719,0.1529 -0.2443,0.3752 -0.4902,0.48 -0.3168,0.1351 -0.6075,0.0659 -0.8805,-0.0761 -0.1613,0.3008 -0.3311,0.4597 -0.6522,0.5839 -0.2798,0.109 -0.638,0.142 -0.9938,-0.0135 -0.1605,0.2839 -0.343,0.4275 -0.6464,0.5306 -0.2797,0.0956 -0.774,0.071 -1.112,-0.2129 -0.1107,0.2214 -0.2223,0.3389 -0.4386,0.4605 -0.3101,0.1732 -0.6853,0.1183 -0.91,0.0659 0,0 -0.191,0.9228 -1.4044,0.6532 -0.0448,0.8534 -1.0461,0.7926 -1.0461,0.7926 0.0093,0.3532 0.0017,0.6244 -0.262,0.8949 -0.2281,0.2357 -0.6269,0.3076 -1.0655,0.2155 0.0068,0.3464 -0.1952,0.8365 -0.6794,0.9548 -0.322,0.0777 -0.5095,0.0651 -0.8491,-0.0397 -0.099,0.2062 -0.3144,0.6447 -0.6736,0.7841 -0.3354,0.131 -0.9075,-0.0743 -0.9075,-0.0743 -0.1073,0 -0.0093,0.2374 -0.1512,0.4081 -0.033,0.0389 -0.1631,0.1766 -0.1631,0.1766 0.3506,0.2772 2.3499,2.1632 3.9081,2.5223 0.3397,0.0786 0.6269,0.1834 0.8442,-0.2307 -0.1006,-0.1689 -0.4301,-0.5585 -0.4301,-0.6667 0,-0.1073 0.0971,-0.0727 0.2619,0.0372 0.687,0.4571 1.7305,2.0897 2.3601,2.0001 0.3489,-0.049 0.3143,-0.0676 0.5163,-0.2138 -0.3035,-0.3819 -0.5966,-0.785 -0.562,-0.8872 0.0355,-0.104 0.1335,-0.0515 0.2383,0.0202 0.5738,0.3938 1.1686,1.9165 1.9241,1.8743 0.1318,-0.0076 0.3802,0.0219 0.458,-0.2181 -0.3701,-0.4157 -0.5755,-0.692 -0.5755,-0.8002 0,-0.027 -0.0338,-0.1233 0.2586,0.0228 0.4267,0.213 1.8184,2.066 2.3465,1.9757 0.0981,-0.0161 0.2138,-0.0339 0.3152,-0.18 -0.2138,-0.2468 -0.7106,-0.8948 -0.7208,-1.0081 -0.0135,-0.1437 0.0524,-0.1766 0.2612,0.0135 0.8339,0.7554 2.0973,2.3457 2.6076,2.2672 0.1014,-0.0152 0.3532,-0.1175 0.4149,-0.3042 -0.4496,-0.6295 -0.7419,-0.9997 -0.7419,-1.0791 0,-0.1133 0.0405,-0.2637 0.316,0.0059 0.5603,0.5475 1.6123,2.1809 2.4488,2.0703 0.3912,-0.0516 0.9067,-0.3228 0.8171,-0.5028 -0.4715,-0.5172 -0.9641,-1.0901 -0.9304,-1.2591 0.0152,-0.0727 0.1556,-0.0253 0.2248,0.0228 0.8315,0.5848 1.6689,1.7213 2.3145,1.7077 0.1512,-0.0033 0.6971,-0.1123 0.7647,-0.4266 -0.72,-0.6524 -1.7644,-1.9325 -1.2135,-1.9106 0.0981,0.0043 0.7969,1.0149 0.8983,1.0342 0.8543,0.8536 1.2354,0.8705 1.6536,0.8316 0.2729,-0.0262 0.5392,-0.3195 0.2882,-0.6668 -1.7677,-2.0752 -2.6136,-3.3867 -3.9841,-5.7011 -1.7246,-2.9128 -2.0491,-4.1693 -3.0825,-6.978 0,0 -0.148,0.1133 -0.3128,0.1327 -0.2205,0.0253 -0.5618,-0.0896 -0.5618,-0.0896 z M 52.273,10.2718 c -0.8306,0.1799 -0.7875,1.2522 -1.0841,2.1386 -0.5779,1.7264 -1.5506,3.8515 -1.8252,4.3856 -1.03,1.995 -3.4307,3.2236 -5.0556,3.0943 0,0 -0.7081,-0.0684 -1.2252,0 -0.2307,0.0296 -0.4284,0.3076 -0.4495,0.5382 -0.0347,0.3829 -0.011,0.5096 0.0219,0.8324 0.18,1.7297 0.7165,3.9292 1.8379,5.0531 -0.0516,-0.191 0.0676,-0.4707 0.2458,-0.4698 0.164,0 0.6135,1.7077 1.7035,1.3596 0.4192,-0.1335 -0.0709,-0.7715 0.2249,-0.8653 0.2788,-0.0879 0.5052,0.9439 1.5387,1.0453 0.0912,0.0092 0.2924,-0.0601 0.2924,-0.2806 0,-0.1082 -0.4048,-0.8991 -0.2696,-1.0343 0.2071,-0.207 0.8087,1.0115 1.5581,0.8104 0.2815,-0.0753 0.4639,-0.3363 0.4639,-0.5627 0,-0.1083 -0.4537,-0.4674 -0.2923,-0.6296 0.2121,-0.2112 0.7486,0.5264 1.2616,0.4377 0.1698,-0.0287 0.2544,-0.0541 0.4183,-0.1437 0.2188,-0.1208 0.2543,-0.4622 0.196,-0.6016 -0.1521,-0.3608 -0.725,-0.5002 -0.5611,-0.7706 0.191,-0.3144 1.1408,0.8365 1.6739,0.3371 0.5138,-0.4817 -0.3371,-1.0562 -0.2019,-1.2591 0.0971,-0.1453 0.6582,0.6017 1.303,0.2249 0.4698,-0.2738 -0.5019,-0.8907 -0.2696,-1.123 0.2248,-0.2249 0.8163,0.7867 1.5506,0.3143 0.5205,-0.3347 -0.2991,-1.019 -0.1504,-1.1974 0.218,-0.2636 0.719,1.0022 1.5438,0.5231 0.6963,-0.4039 -0.1792,-0.9549 0.011,-1.1121 0.2585,-0.2138 0.9827,1.0698 1.5953,0.8653 1.1552,-0.3853 -0.283,-1.095 0.0338,-1.2133 0.3599,-0.1352 1.014,0.9539 1.5962,0.741 0.9211,-0.3372 -0.4741,-1.2025 -0.0228,-1.3258 0.2468,-0.0676 0.872,1.2024 1.5726,0.7867 0.6066,-0.3591 -0.366,-1.156 -0.1572,-1.303 0.1909,-0.1352 0.6523,1.1678 1.5285,0.8762 0.0904,-0.0304 0.4944,-0.2255 0.3819,-0.5171 -0.1563,-0.4038 -4.0449,-5.4155 -5.2583,-7.528 -1.1027,-0.414 -5.3243,-2.5147 -5.7308,-2.4268 z M 43.6448,6.7439 c -0.921,-0.39546 -2.5282,-0.57206 -4.1624,-0.55263 -1.7543,0.02028 -3.1857,0.52728 -3.1857,1.40692 0,1.3427 6.5167,1.07821 6.5656,6.76921 0.0051,0.5772 -0.3886,1.3537 -0.3886,1.8337 0,0.2594 0.1098,0.5788 0.3024,0.8526 0.4057,0.5771 2.9355,-0.8265 3.2051,-1.4331 0.0228,-0.7867 -2.1116,-1.5962 -2.1116,-1.5962 1.4382,0.2696 1.7297,0.5399 2.3592,0.8095 0.54,0.2315 1.0115,-0.4605 1.0115,-1.1239 0,-1.5691 -4.1684,-2.8078 -4.2918,-2.8603 0,0 0.6363,0.0067 0.8754,0.0516 1.5506,0.2923 2.6719,0.899 3.1459,0.899 0.1463,0 0.36,-0.2323 0.36,-0.5399 0,-0.4098 -0.4098,-0.9937 -0.7866,-1.2802 -2.2697,-1.73052 -4.9594,-2.15386 -7.1766,-2.67184 1.0866,-0.09211 3.652,0.19942 3.6681,0.19942 0.0473,0 0.2637,0.06506 0.4302,0.11237 0,0 -0.1353,-0.15716 -0.0677,-0.5391 0.0896,-0.22477 0.2476,-0.33715 0.2476,-0.33715 z m 2.6863,-0.56531 c -0.9152,-0.02618 -2.2173,0.44447 -2.2173,1.30722 0,0.90667 4.4438,0.87372 4.4438,4.85449 0,3.3648 -4.0383,5.8811 -5.9124,5.7849 -0.9472,-0.0491 -1.0791,-1.4213 -1.3377,-1.5616 -0.8601,-0.4673 -2.5417,-1.3275 -3.7077,-2.3145 -2.045,-1.7296 -3.0877,-2.1125 -3.3032,-2.1125 -0.1081,0 -0.6456,0.1598 -0.7537,0.1598 -0.0161,0 -0.1681,-0.0254 -0.2586,-0.1099 0.2121,-0.3312 0.5112,-0.6726 0.7757,-0.954 -0.3194,-0.0574 -0.5222,-0.1377 -0.9329,-0.1436 -0.9877,-0.0152 -2.2325,0 -2.2325,0 -0.501,0 -1.58,0.7038 -1.8336,1.2057 -0.3397,0.6735 -2.8992,-0.1123 -2.8527,1.4256 0.0034,0.1081 0.0026,0.3921 0.0566,0.4884 0.4809,-0.229 0.3997,-0.3093 0.8636,-0.3093 0.5603,0 2.0771,0.4335 2.4167,0.5527 1.3207,0.474 2.9457,1.0883 4.0999,2.5391 1.1755,1.483 1.5878,3.1282 2.17,4.568 0.3076,0.7555 0.6465,1.5355 0.8619,2.2849 0.3135,1.0622 1.2988,2.5469 2.442,3.2752 1.0841,0.6845 2.753,1.2472 3.4704,2.6821 1.1002,2.2163 1.1627,4.9414 3.3428,7.0489 0.425,0.4116 0.7909,0.594 1.1568,0.6329 1.2337,0.1327 1.7272,-2.2764 1.7272,-2.8806 0,-0.1081 0.027,-0.2458 -0.0431,-0.7149 -0.1834,-1.1923 -1.5962,-2.9845 -1.5962,-3.1678 0,-0.1732 0.2856,-0.2164 0.4309,-0.2164 0.2163,0 0.5755,0.2282 0.6769,0.3972 -0.0338,-0.2806 -0.458,-0.872 -0.8306,-1.1585 -2.5883,-2.0009 -4.1287,-3.6968 -5.0785,-6.9002 -0.1909,-0.6439 -0.3329,-1.2007 -0.376,-1.6807 -0.0431,-0.4748 -0.0431,-0.6237 -0.0431,-0.7318 0,-0.3447 -0.0219,-1.3588 0.7766,-1.3588 0.1072,0 0.31,0.2688 0.5408,0.246 0.2138,-0.0211 0.114,-0.2518 0.4604,-0.3033 0.1066,-0.0161 0.3135,0.2162 0.5308,0.1858 0.2247,-0.0304 0.147,-0.2763 0.4689,-0.343 0.2704,-0.0567 0.3828,0.3143 0.7132,0.2095 0.2442,-0.0777 0.0592,-0.4732 0.2873,-0.5915 0.3033,-0.1572 0.4943,0.3143 0.7478,0.1623 0.2222,-0.1327 -0.1073,-0.6118 0.1512,-0.7808 0.3888,-0.2536 0.5679,0.1741 0.8442,-0.0051 0.2341,-0.1521 -0.2713,-0.6008 0.0431,-0.8483 0.4005,-0.3152 0.5425,0.3058 0.8542,-0.0449 0.2696,-0.3033 -0.3151,-0.8762 -0.1799,-1.1128 0.2501,-0.4377 0.8458,0.0668 1.0098,-0.3118 0.1563,-0.36 -0.4817,-0.643 -0.3887,-0.9278 0.1715,-0.5247 0.703,-0.0456 0.8618,-0.376 0.2696,-0.5636 -0.6041,-0.9363 -0.5501,-1.2042 0.0896,-0.4495 0.7969,-0.0228 0.8941,-0.3042 0.1892,-0.5542 -0.9033,-0.9472 -0.9033,-1.2007 0,-0.3397 0.5551,-0.1538 0.7284,-0.4368 0.365,-0.5958 -1.3715,-0.8451 -1.2895,-1.24557 0.0981,-0.47827 1.1432,0 1.2506,0 0.1403,0 0.6971,0.01689 0.7318,-0.28815 C 50.6329,8.744 46.9175,8.11702 46.9175,7.8314 c 0,-0.3287 0.4757,-0.29151 0.561,-0.28053 C 51.2853,8.0604 58.4221,13.0408 58.88,11.9127 58.9173,11.8215 58.8091,11.6601 58.7228,11.5975 55.217,9.08115 50.0735,6.28507 46.3311,6.17859 Z m -0.595,31.83261 c -0.0971,0.0744 -0.5188,0.2375 -0.5188,0.2375 -0.4047,1.281 -0.6726,2.66 -0.6726,3.2355 0,0.1081 0.0026,0.2247 0.0524,0.3219 h 0.2662 c 0.1833,0.0017 1.0191,-0.2408 1.0191,-0.6295 v -2.6212 c 0,-0.1081 -0.0456,-0.3599 -0.1463,-0.5442 z m 13.1414,8.1323 c 6.0924,-3.1401 10.7289,-7.5644 13.0518,-12.6936 h -1.4948 c 0.0904,0.1277 0.1648,0.2451 0.2223,0.3608 0.2577,0.5163 -0.2518,0.9253 -0.4318,0.993 -0.1792,0.0675 -0.6262,0.119 -1.3005,-0.1277 -0.218,0.3574 -0.4403,0.5814 -0.8534,0.6515 -0.6532,0.1099 -1.1011,-0.2696 -1.5286,-0.4495 -0.0642,-0.027 -0.6701,0.5991 -1.2971,0.534 -0.8898,-0.0929 -1.0554,-0.4976 -1.6148,-1.0073 -0.18,0.1641 -0.3997,0.3601 -0.6464,0.3601 -0.8831,0 -1.418,-0.8307 -1.9579,-1.3022 -0.1791,0.1538 -0.1014,0.1343 -0.5366,0.2831 -0.196,0.0668 -0.4858,-0.0778 -0.779,-0.2958 h -4.3585 c 0.2594,0.24 0.5189,0.4724 0.7749,0.6938 1.1753,1.014 2.4217,1.9899 3.5971,2.993 0.8036,0.6852 3.6749,2.4758 3.6749,3.8514 0,0.7766 -0.8577,0.9489 -1.2294,0.9489 -0.4099,0 -1.5354,-0.5196 -1.8033,-0.6489 -0.1065,0.4275 -0.5805,0.6059 -0.9583,0.6059 -0.3717,0 -1.2218,-0.496 -1.5843,-0.8138 -0.1859,0.2857 -0.5256,0.3896 -0.8264,0.3896 -0.523,0 -1.227,-0.2307 -1.5785,-0.7943 -0.2577,0.1352 -0.3396,0.2019 -0.539,0.2019 -0.3828,0 -0.7453,-0.2171 -1.0783,-0.6515 -0.0482,0.0778 -0.305,0.2434 -0.5061,0.2358 -1.2861,-0.0439 -2.1582,-1.9579 -3.2279,-3.5811 -0.1647,-0.2501 -0.2096,-0.4411 -0.4343,-0.6769 0,0 -0.3684,0.5603 -0.5239,0.747 -0.3254,0.3921 -0.8585,0.8712 -0.8585,0.8712 -0.1344,1.1011 -0.6118,3.6167 -0.1944,3.8963 0.8762,0.5881 2.9153,0.3009 3.3419,1.2016 0.1159,0.2451 0.1488,0.4149 0.1285,0.681 1.0503,0.0347 2.1716,0.0457 3.2431,0.1454 1.3444,0.1292 2.8628,1.0546 4.1075,2.3973 z m -28.6867,4.5181 c 1.3782,0.1859 2.7834,0.3186 4.2106,0.3929 0.3389,-0.4934 0.6472,-1.6114 0.6472,-1.7313 0,-1.4314 0.4065,-3.3893 2.2672,-3.3893 0.0862,0 0.4419,0.1639 0.365,0.343 -0.0608,0.1412 -0.256,0.1311 -0.3701,0.1311 -0.4639,0 -1.3114,0.4055 -1.4381,1.0528 -0.0601,0.3076 -0.1319,0.4918 0.272,0.5914 0.0947,0.0237 0.1969,-0.1207 0.3389,-0.1444 0.098,-0.016 0.1563,-0.016 0.2534,0 0.0313,0.0743 0.0525,0.0871 0.0525,0.2011 0,0.115 -0.0921,0.3211 -0.0921,0.4352 0,0.338 0.0287,0.5957 0.4351,0.5957 0.3955,0 0.3777,-0.2383 0.7436,-0.6786 0.4124,-0.4985 0.8197,-1.0874 1.3985,-1.4136 0.9041,-0.5104 4.3339,-0.9768 4.6373,-0.9768 0.1141,0 0.5137,-0.0659 0.7546,0.1081 0.5307,0.3811 -1.1729,0.6642 -1.8438,0.7733 -1.2227,0.1993 -1.6714,0.2922 -2.2663,0.4579 -1.4651,0.4064 -2.742,2.2045 -3.0977,3.7163 6.5792,-0.0364 12.7586,-1.2895 18.0838,-3.4526 -0.9904,-0.8518 -1.9596,-0.8019 -2.9753,-0.8696 -1.368,-0.098 -1.6013,0.0457 -1.7821,0.0457 0,0 -1.4053,0.4943 -2.4521,0.5949 -0.3026,0.0287 -0.5325,0.0633 -0.7826,-0.0786 -0.0802,-0.0449 -0.0658,-0.1142 -0.0658,-0.229 0,-0.4065 1.9823,-0.9253 2.4056,-0.9287 0.2155,-0.0025 0.4403,0.229 0.5028,0.229 0.115,0 1.8556,-0.1834 1.9697,-0.1834 2.0111,0 3.2896,0.9464 3.8237,1.1518 0.7055,-0.3 1.395,-0.6169 2.0676,-0.9482 -0.8662,-1.9536 -3.9335,-2.4023 -5.593,-2.4023 -0.1073,0 -0.8543,0.0406 -1.2777,0.0786 -0.1817,0.3684 -0.5154,0.633 -0.9168,0.6912 -0.3979,-1.2581 -1.4888,-0.7537 -2.322,-0.9919 h -0.115 c 0.0043,0.0076 -0.8745,2.8493 -1.608,2.8493 -0.2535,0 -1.2793,-1.8007 -1.1753,-2.6897 -0.7444,0.0913 -1.0537,0.1843 -1.712,0.3659 -0.654,0.1809 -1.6468,0.5619 -1.6468,0.5619 0,0 -0.0297,-0.2543 -0.0271,-0.4183 0.0025,-0.1275 0.0271,-0.3261 0.0271,-0.3261 -0.0634,0 -0.4268,0.2484 -0.9415,0.3261 -0.6531,0.0989 -1.5986,0.1293 -2.2349,0.2096 -0.3997,0.0871 -0.6363,0.4082 -0.7968,0.4588 -0.0542,-0.0962 -0.066,-0.2467 -0.066,-0.3548 0,-0.431 0.1902,-0.7428 0.398,-1.1281 -0.0371,-0.0313 0,-0.0254 -0.1081,-0.0254 -0.2214,0 -0.5628,0.2907 -0.8586,0.5611 -0.1031,-0.0371 -0.1943,-0.2636 -0.2213,-0.5492 -0.4343,0.1893 -0.9295,0.4031 -1.3385,0.5763 -0.8712,0.37 -2.2434,2.0483 -2.1826,2.5763 0.0126,0.1133 0.3667,0.3659 0.3667,0.4808 0,0.5011 -2.3136,0.8484 -3.7129,3.3538 z M 2.40739,33.4499 c 3.89711,8.6063 14.31081,15.2294 27.18011,17.1264 0.0118,-0.0178 0.0228,-0.0347 0.0321,-0.0508 0.676,-1.177 2.8484,-3.0267 2.9397,-3.2498 0.1378,-0.3202 0.9582,-1.646 1.0267,-1.7609 0.7791,-1.2312 2.3144,-1.8886 3.3758,-2.3534 0.0497,-0.0219 0.0946,-0.0421 0.1335,-0.0608 0.0346,-0.1437 0.0903,-0.2822 0.1715,-0.4014 0.3211,-0.4689 0.8297,-0.7587 1.1644,-0.8779 0.5281,-0.1884 1.0605,-0.2729 1.6486,-0.2729 0.1073,0 1.3588,0.087 1.4669,0.087 0.4419,0 0.6,0.0346 0.9126,-0.7208 0.3777,-0.9109 0.7477,-2.8172 0.7477,-2.9253 0,-0.1353 -2.3296,-1.9519 -2.3296,-4.0991 0,-0.0347 0.0271,-0.2113 0.0634,-0.4403 z M 0.755425,25.9473 c 0,2.4538 0.510375,4.7387 1.460995,6.9812 H 41.0109 c 0.0634,-0.3912 0.1259,-0.6895 0.1259,-0.7418 0,-1.527 -2.6693,-3.4315 -3.6935,-4.4666 -0.6903,-0.7014 -1.3088,-1.7695 -1.6705,-2.492 -1.3917,-2.7555 -1.2379,-5.5186 -3.363,-8.1508 -0.5012,-0.6252 -1.2337,-1.1373 -1.876,-1.494 -0.3176,-0.1774 -2.6752,-1.1297 -3.058,-1.1297 h -0.5932 c -0.1081,0 -0.6743,0.4749 -0.7816,0.4749 -0.4588,0 -0.4537,-1.1052 -0.4537,-1.2514 0,-2.0331 1.6891,-1.2861 2.9887,-1.9554 0.3397,-0.1723 0.4876,-0.5805 0.8171,-0.834 0.5712,-0.436 1.2185,-0.5163 1.8244,-0.5754 0,0 1.4246,0.0465 2.3355,0.0743 0.7132,0.022 1.8286,-0.0532 1.8286,0.055 0,0.2374 -0.4258,1.1449 -0.5383,1.2464 0.4681,0.2814 2.1556,1.7094 4.2242,3.0554 1.4162,0.922 2.382,0.9895 2.382,0.9895 0.18,-0.3827 0.2307,-1.2615 0.2307,-1.3866 0,-5.05897 -6.2073,-4.3281 -6.2073,-6.63573 0,-1.65027 1.826,-1.95785 3.5498,-2.09051 1.9282,-0.14788 3.3013,0.17914 4.9609,0.57121 0.7462,-0.34222 1.2329,-0.50953 2.05,-0.58219 0.4301,-0.03803 1.1061,0 1.1061,0 3.1721,0.3456 6.4482,2.38118 9.5273,3.98245 0.049,0.02704 2.8755,1.61057 2.8755,2.36007 0,0.3076 -0.3405,0.6802 -0.8196,0.7166 -0.649,0.0489 2.5679,4.0314 3.8946,5.9402 0.1031,0.1463 1.0114,1.3022 1.0114,1.7982 0,0.1081 -0.0845,0.2729 -0.18,0.4268 0.894,2.6439 1.6013,4.2317 2.8544,6.5613 1.7745,3.3023 3.0242,4.6483 3.7374,5.5338 h 2.0187 C 73.0709,30.686 73.5812,28.4011 73.5812,25.9473 73.5812,12.0404 57.1825,0.767255 37.168,0.767255 17.1533,0.767255 0.755425,12.0404 0.755425,25.9473 Z m -0.755424825897,0 C 1.74103e-7,11.617 16.5441,1.39345e-7 37.168,1.39345e-7 57.7925,1.39345e-7 74.3367,11.617 74.3367,25.9473 74.3367,40.2775 57.7925,51.8936 37.168,51.8936 16.5441,51.8936 1.74103e-7,40.2775 1.74103e-7,25.9473 Z M 30.3835,12.4704 c -0.2409,0 -0.1708,0.1529 -0.2865,0.349 l 0.1005,0.1014 c 0.1784,-0.1267 0.3752,-0.1648 0.5544,-0.2197 -0.1174,-0.1377 -0.2865,-0.2307 -0.3684,-0.2307 z m 0.2256,-0.4512 c 0.5788,0 1.2895,0.1436 1.9434,0.2535 v 0.185 c -0.2577,0.2924 -0.6523,0.2147 -0.9489,0.3888 -0.1952,0.1124 -0.436,0.648 -0.7537,0.6464 h -0.556 c -0.0338,0.1503 -0.033,0.3075 0.0067,0.7258 l -0.1031,0.0955 c -0.4224,-0.4107 -0.7157,-0.9785 -0.7157,-1.4551 0,-0.5425 0.7428,-0.8399 1.1273,-0.8399"
       fill="#231F20"
       transform="matrix(1.00732,0,0,1,0.411705,0.410206)"
       id="path8364"
       style="fill:#ffffff;fill-opacity:1" /><path
       d="m 30.2711,27.709 h 3.4433 v 1.8134 c 0,0.3507 -0.2425,0.818 -0.7453,0.9506 -0.5052,0.1327 -0.9971,0.1023 -1.548,0.1023 H 29.121 c -0.7622,0.011 -1.4137,0.0651 -1.8082,-0.1978 -0.2967,-0.1977 -0.4893,-0.5078 -0.4851,-0.8551 v -2.6355 c -0.0051,-0.366 0.2105,-0.6321 0.491,-0.8527 0.3413,-0.2686 1.0503,-0.201 1.8023,-0.201 h 2.3001 c 0.9076,0 1.5058,0.0025 1.8404,0.2307 0.5104,0.3498 0.4665,1.0351 0.4665,1.0351 h -2.3111 c -0.0727,-0.3423 -0.2772,-0.4318 -0.7436,-0.4318 -0.2924,0 -0.3084,0 -0.7411,0 -0.5061,-0.0051 -0.6962,0.1605 -0.6929,0.447 v 2.1006 c 0,0.2535 0.038,0.3651 0.2442,0.4606 0.1615,0.0777 0.4369,0.0642 0.7504,0.0642 0.0997,0 0.3507,8e-4 0.5864,8e-4 0.5527,0 0.6008,-0.2899 0.6008,-0.6058 v -0.5611 h -1.15 V 27.709"
       fill="#176FC1"
       transform="matrix(1.00732,0,0,1,0.411705,0.410206)"
       id="path8366"
       style="fill:#ffffff;fill-opacity:1" /><path
       d="M 12.1383,30.5753 V 25.8332 H 14.55 v 3.4771 h 3.1458 v 1.265 h -5.5575"
       fill="#176FC1"
       transform="matrix(1.00732,0,0,1,0.411705,0.410206)"
       id="path8368"
       style="fill:#ffffff;fill-opacity:1" /><path
       d="m 8.36713,27.7733 v 0.8568 c -8.5e-4,0.142 0.02112,0.4985 -0.21294,0.5931 C 7.85506,29.345 7.63706,29.3061 7.3337,29.3103 H 6.30027 v -2.2172 h 1.03428 c 0.30335,0.005 0.52051,-0.0347 0.82048,0.087 0.23407,0.0954 0.21125,0.4512 0.2121,0.5932 z m 0.11577,2.802 c 0.62782,0 1.31228,0.0498 1.7609,-0.1581 0.4522,-0.2078 0.5316,-0.7579 0.5316,-1.0435 l 8e-4,-2.3314 c 0,-0.2856 -0.0794,-0.8357 -0.5315,-1.0435 C 9.79601,25.7909 9.11072,25.8332 8.48374,25.8332 H 3.88951 v 4.7421 H 8.4829"
       fill="#176FC1"
       fill-rule="evenodd"
       transform="matrix(1.00732,0,0,1,0.411705,0.410206)"
       id="path8370"
       style="fill:#ffffff;fill-opacity:1" /><path
       d="m 21.195,26.6714 h 1.0427 c 0.3304,0 0.5831,-0.0245 0.8087,0.0752 0.2746,0.1225 0.2374,0.3329 0.2374,0.4436 0,0.1065 0.027,0.3347 -0.2374,0.4461 -0.2392,0.1007 -0.414,0.0727 -0.8087,0.0727 H 21.195 Z m -2.4125,3.9039 v -4.7421 h 4.5571 c 0.5265,0.0067 1.1222,-0.0406 1.548,0.1504 0.4851,0.2171 0.7487,0.4665 0.7487,0.9861 l -0.0034,0.1276 c 0,0.4055 -0.1775,0.6169 -0.5315,0.8349 -0.3498,0.2179 -0.7816,0.2492 -1.6063,0.2492 h 0.9869 c 0.3143,0 0.5831,0.0524 0.8078,0.1572 0.2282,0.1031 0.3431,0.3827 0.3431,0.5264 v 1.7103 h -2.4107 v -1.5008 c 0,-0.1444 0.0109,-0.3785 -0.2012,-0.4435 -0.2332,-0.071 -0.3802,-0.0508 -0.7537,-0.0575 H 21.195 v 2.0018 h -2.4125"
       fill="#176FC1"
       fill-rule="evenodd"
       transform="matrix(1.00732,0,0,1,0.411705,0.410206)"
       id="path8372"
       style="fill:#ffffff;fill-opacity:1" /></g></svg>
