<svg width="76" height="27" xmlns="http://www.w3.org/2000/svg" xmlns:xlink="http://www.w3.org/1999/xlink" xml:space="preserve" overflow="hidden"><defs><clipPath id="clip0"><rect x="0" y="0" width="76" height="27"/></clipPath></defs><g clip-path="url(#clip0)"><path d="M52.6933 21.8057C52.0347 19.9373 51.6927 19.1077 51.357 18.5503 50.445 17.024 49.1783 15.846 47.6583 15.086 47.3797 14.953 46.4107 14.573 45.505 14.25 44.5993 13.927 43.8457 13.6483 43.8267 13.6293 43.8077 13.6103 44.08 13.6167 44.4283 13.642 48.6147 13.9207 52.1107 16.9987 52.9403 21.1217 53.0607 21.736 53.181 22.9267 53.124 22.9267 53.105 22.9267 52.915 22.42 52.6933 21.8057Z" fill="#0062A1" transform="scale(1 1.00074)"/><path d="M1.17167 22.0843C0.595333 21.8943 0.342 21.6727 0.152 21.2167-0.0506667 20.7417-0.0316667 20.3173 0.253333 18.9367 0.399 18.221 0.589 17.423 0.671333 17.1633 1.19067 15.6243 2.21033 14.877 3.69867 14.9593 4.579 15.01 5.16167 15.371 5.32633 15.9727 5.42133 16.3273 5.36433 17.4737 5.21233 18.1767L5.092 18.715 3.12233 18.734 1.15267 18.7467 1.05133 19.19C0.899333 19.8487 0.918333 20.558 1.09567 20.9 1.32367 21.3497 1.501 21.4383 2.14067 21.4383 2.755 21.4383 3.02733 21.3307 3.41367 20.9507 3.63533 20.7353 3.92667 20.197 3.92667 20.0007 3.92667 19.9057 3.99 19.8867 4.37 19.8867 4.617 19.8867 4.81333 19.912 4.81333 19.95 4.81333 20.121 4.51567 20.786 4.294 21.09 3.78733 21.8057 3.16033 22.1097 2.09 22.1413 1.653 22.1603 1.33633 22.135 1.17167 22.0843ZM4.484 17.48C4.68033 16.1943 4.351 15.6433 3.382 15.6433 2.40667 15.6433 1.88733 16.074 1.53267 17.176 1.425 17.499 1.33 17.8283 1.311 17.9107L1.27933 18.05 2.83733 18.0373 4.40167 18.0183 4.484 17.48Z" fill="#0062A1" transform="scale(1 1.00074)"/><path d="M6.94767 22.078C6.593 21.983 6.22567 21.7043 6.04833 21.4003 5.94067 21.2103 5.92167 21.0773 5.92167 20.33 5.928 19.5953 5.95967 19.342 6.137 18.5567 6.555 16.72 6.897 15.96 7.51767 15.485 8.29667 14.8897 9.576 14.7757 10.2727 15.238 10.621 15.4597 10.7857 15.827 10.7857 16.3717 10.7857 17.0747 10.7667 17.1 10.2917 17.1L9.88633 17.1 9.918 16.6757C9.94967 16.3147 9.93067 16.2133 9.81667 16.036 9.58867 15.6623 8.949 15.5293 8.436 15.7383 7.83433 15.9917 7.53667 16.5427 7.163 18.0563 6.52967 20.6467 6.70067 21.5333 7.81533 21.4573 8.53733 21.4067 8.911 21.0773 9.16433 20.2857L9.272 19.95 9.671 19.95C10.1397 19.95 10.146 19.9627 9.94333 20.558 9.53167 21.7803 8.25233 22.4263 6.94767 22.078Z" fill="#0062A1" transform="scale(1 1.00074)"/><path d="M12.084 22.1097C11.7293 21.9957 11.4697 21.7803 11.324 21.4827 11.115 21.0457 11.1403 20.4883 11.457 19.0317 11.5963 18.373 11.818 17.3597 11.9383 16.7833 12.065 16.207 12.198 15.5863 12.236 15.409L12.3057 15.0733 12.7047 15.0733C13.0213 15.0733 13.11 15.0923 13.11 15.1683 13.11 15.219 13.0087 15.7383 12.8883 16.321 12.1853 19.6397 12.0967 20.121 12.0967 20.4947 12.0967 21.1723 12.3563 21.47 12.939 21.47 13.395 21.47 13.8003 21.2927 14.155 20.938 14.573 20.52 14.706 20.216 14.9023 19.2533 14.9973 18.8163 15.2253 17.7143 15.4217 16.796 15.6117 15.884 15.77 15.1177 15.77 15.105 15.77 15.086 15.9537 15.0733 16.1817 15.0733 16.4793 15.0733 16.5933 15.0987 16.5933 15.1557 16.5933 15.2063 16.4667 15.8523 16.3083 16.5997 16.0233 17.9233 15.3837 20.9697 15.238 21.66L15.162 22.0083 14.7947 22.0273 14.4273 22.0463 14.4653 21.8057C14.4907 21.6727 14.5287 21.4953 14.5477 21.4067 14.5857 21.2547 14.573 21.261 14.326 21.4827 14.1803 21.6157 13.8827 21.812 13.6673 21.9197 13.3317 22.0907 13.186 22.1287 12.7617 22.1413 12.483 22.154 12.179 22.135 12.084 22.1097Z" fill="#0062A1" transform="scale(1 1.00074)"/><path d="M24.2883 22.078C23.4207 21.8057 23.0343 21.1597 23.1483 20.178 23.218 19.5067 23.693 17.404 23.8703 16.9353 24.225 16.0297 24.757 15.447 25.5233 15.1303 25.8147 15.01 25.992 14.9847 26.6 14.9847 27.2333 14.9783 27.3727 14.9973 27.645 15.124 28.3543 15.4533 28.538 15.8523 28.4747 16.9353 28.4557 17.3217 28.386 17.879 28.3227 18.1767L28.2087 18.715 26.239 18.734C24.4277 18.7467 24.263 18.7593 24.2313 18.8607 24.1427 19.1647 24.0667 19.7663 24.0667 20.1717 24.0667 20.6847 24.2313 21.09 24.529 21.3053 24.681 21.413 24.8013 21.4383 25.2573 21.4383 25.878 21.4383 26.1567 21.3307 26.5303 20.9507 26.752 20.7353 27.0433 20.1907 27.0433 20.0007 27.0433 19.9057 27.1067 19.8867 27.4867 19.8867 28.025 19.8867 28.0313 19.9057 27.683 20.6213 27.17 21.6917 26.3403 22.173 25.0293 22.1603 24.7633 22.1603 24.4277 22.1223 24.2883 22.078ZM27.5563 17.784C27.6007 17.632 27.6387 17.233 27.6387 16.8973 27.645 16.2323 27.588 16.0867 27.208 15.808 26.9483 15.6117 25.9857 15.618 25.612 15.8143 25.099 16.0867 24.7633 16.6313 24.5163 17.5687L24.396 18.05 25.9413 18.05 27.4803 18.05 27.5563 17.784Z" fill="#0062A1" transform="scale(1 1.00074)"/><path d="M29.8807 22.1097C29.526 21.9957 29.2663 21.7803 29.1207 21.4827 28.9117 21.0583 28.9307 20.311 29.1587 19.589 29.298 19.1583 29.3867 19 29.6717 18.696 30.2797 18.0437 30.9257 17.8093 32.281 17.7523L33.1803 17.7143 33.2437 17.404C33.2817 17.233 33.3133 16.91 33.3133 16.6883 33.3133 16.3273 33.2943 16.2577 33.1297 16.074 32.9713 15.8967 32.908 15.8713 32.5407 15.846 32.224 15.827 32.0593 15.846 31.8377 15.9473 31.5083 16.093 31.1853 16.492 31.122 16.8213L31.084 17.0367 30.4633 17.0367 29.8427 17.0367 29.906 16.8023C30.2543 15.523 31.2803 14.8833 32.8383 14.9593 33.6997 15.0037 34.1683 15.238 34.3963 15.7383 34.6117 16.207 34.5483 16.6567 33.725 20.501 33.6743 20.748 33.611 21.1913 33.5857 21.4827L33.535 22.0083 32.9207 22.0273C32.2113 22.0463 32.2367 22.0717 32.395 21.47 32.4457 21.28 32.49 21.1153 32.49 21.1027 32.49 21.09 32.3443 21.2357 32.167 21.432 31.711 21.9323 31.2867 22.1223 30.5963 22.1477 30.2987 22.154 29.9757 22.135 29.8807 22.1097ZM31.7743 20.9887C31.9453 20.881 32.1797 20.653 32.319 20.4567 32.5597 20.1083 32.9333 19.0823 32.9333 18.7593L32.9333 18.5883 32.224 18.6263C31.122 18.6897 30.6723 18.9113 30.362 19.5447 30.039 20.2097 30.1403 20.8937 30.5963 21.1407 30.856 21.28 31.4197 21.204 31.7743 20.9887Z" fill="#0062A1" transform="scale(1 1.00074)"/><path d="M16.53 21.9513C16.53 21.9007 16.587 21.6093 16.6567 21.299 16.7833 20.7417 17.2013 18.7593 17.6953 16.3717L17.9613 15.105 18.3857 15.086C18.848 15.067 18.8543 15.067 18.753 15.4533 18.7213 15.5737 18.677 15.7573 18.658 15.8523L18.6137 16.036 18.81 15.808C19.2027 15.3647 20.064 14.9467 20.596 14.9467 20.7987 14.9467 20.805 14.9593 20.6403 15.599L20.577 15.8333 20.2097 15.8333C19.5257 15.8333 18.7783 16.3463 18.4807 17.0177 18.411 17.1697 18.202 18.031 18.012 18.924 17.822 19.817 17.594 20.8683 17.5117 21.2547 17.423 21.641 17.3533 21.9767 17.3533 22.002 17.3533 22.021 17.1697 22.04 16.9417 22.04 16.625 22.04 16.53 22.021 16.53 21.9513Z" fill="#0062A1" transform="scale(1 1.00074)"/><path d="M20.425 21.9007C20.444 21.8183 20.6023 21.071 20.7733 20.235 20.9507 19.399 21.2483 17.974 21.4447 17.0683 21.6347 16.1627 21.8057 15.3457 21.8247 15.2507 21.8563 15.0797 21.8753 15.0733 22.2743 15.0733L22.6923 15.0733 22.6543 15.314C22.6353 15.4407 22.4897 16.1627 22.325 16.91 22.1667 17.6573 21.8753 19.0253 21.679 19.95 21.4827 20.8747 21.3053 21.717 21.2863 21.8183 21.242 22.002 21.2357 22.0083 20.8177 22.0273 20.3997 22.0463 20.3933 22.04 20.425 21.9007Z" fill="#0062A1" transform="scale(1 1.00074)"/><path d="M35.0233 21.9577C35.0233 21.888 35.4477 19.8487 36.081 16.8783 36.2013 16.2893 36.3407 15.6433 36.3787 15.4533L36.4483 15.105 37.0373 15.086C37.5883 15.067 37.6263 15.0797 37.5947 15.181 37.5567 15.3013 36.9677 18.069 36.4357 20.634L36.1443 22.04 35.5807 22.04C35.169 22.04 35.0233 22.021 35.0233 21.9577Z" fill="#0062A1" transform="scale(1 1.00074)"/><path d="M37.05 22.002C37.05 21.983 37.3983 21.5333 37.829 21.0077 39.5707 18.8607 39.9 18.4427 39.9 18.3793 39.9 18.3413 39.6277 17.6067 39.2983 16.7453 38.969 15.8903 38.6967 15.162 38.6967 15.1303 38.6967 15.0987 39.0133 15.0733 39.3997 15.0733L40.0963 15.0733 40.1787 15.2823C40.223 15.39 40.4003 15.9347 40.5713 16.4793 40.7423 17.0303 40.9007 17.48 40.926 17.48 40.9513 17.48 41.3883 16.9417 41.9013 16.2767L42.826 15.0733 43.4847 15.0733C43.8457 15.0733 44.1433 15.0923 44.1433 15.124 44.1433 15.1493 43.567 15.8523 42.864 16.6947 42.1547 17.5307 41.5467 18.259 41.5023 18.3097 41.4453 18.3793 41.5023 18.5693 41.7747 19.2217 42.047 19.8677 42.5663 21.109 42.921 21.964 42.9463 22.021 42.7753 22.04 42.199 22.04L41.4453 22.04 40.945 20.6213 40.451 19.209 39.406 20.6213 38.361 22.04 37.7087 22.04C37.3477 22.04 37.05 22.021 37.05 22.002Z" fill="#0062A1" transform="scale(1 1.00074)"/><path d="M55.2267 21.9703C56.487 21.907 62.206 21.698 66.4367 21.565 68.1277 21.508 69.6857 21.4447 69.9073 21.4193L70.3063 21.375 72.4533 19.1267C73.9227 17.5877 74.575 16.8657 74.518 16.834 74.4167 16.777 72.485 15.9473 70.87 15.2633 69.046 14.4907 66.7407 13.5913 65.7527 13.262 61.9337 11.9953 55.8157 10.4627 51.7433 9.75967 49.704 9.405 49.039 9.31633 41.2173 8.322 40.1787 8.189 39.33 8.056 39.33 8.02433 39.33 7.93567 43.358 8.018 44.5867 8.13833 46.512 8.31567 49.5267 8.72733 51.87 9.12633 58.8303 10.317 66.1327 12.3437 74.0367 15.276 75.715 15.8967 75.962 16.017 75.9873 16.188 76 16.2703 75.7087 16.7137 75.1387 17.4863 74.6637 18.126 73.8403 19.2343 73.3147 19.9437 71.934 21.8057 71.858 21.8943 71.5793 21.9767 71.421 22.0147 68.514 22.0337 62.7633 22.0273 57.3927 22.0273 54.5743 22.002 55.2267 21.9703Z" fill="#0062A1" transform="scale(1 1.00074)"/><path d="M36.803 13.224C36.803 13.1417 36.8537 12.863 36.9107 12.6033L37.0183 12.1283 37.6707 12.1093C38.2913 12.0903 38.323 12.0967 38.2913 12.2107 38.2533 12.3183 38.0633 13.2747 38.0633 13.338 38.0633 13.3507 37.7783 13.3633 37.43 13.3633 36.8157 13.3633 36.7967 13.357 36.803 13.224Z" fill="#0062A1" transform="scale(1 1.00074)"/><path d="M22.1983 13.034C22.2173 12.9517 22.268 12.7173 22.3123 12.5083L22.401 12.1283 22.9203 12.1093C23.4397 12.0903 23.446 12.0903 23.4143 12.236 23.3953 12.3183 23.3447 12.559 23.3003 12.7807L23.2243 13.1733 22.6987 13.1733C22.1793 13.1733 22.1667 13.167 22.1983 13.034Z" fill="#0062A1" transform="scale(1 1.00074)"/><path d="M25.422 11.039 23.769 11.02 22.9203 10.1143C22.458 9.62033 21.8183 8.94267 21.5017 8.61333 21.1913 8.284 20.8493 7.923 20.748 7.809L20.5707 7.60633 23.2117 4.73733C24.6683 3.16033 25.9983 1.72267 26.1693 1.54533L26.4797 1.22233 25.6183 0.988 24.757 0.753667 23.3827 1.64667C22.629 2.14067 20.995 3.20467 19.76 4.009 13.756 7.923 14.2943 7.6 11.21 9.20867 7.87867 10.9567 8.06233 10.8617 8.113 10.811 8.14467 10.773 10.3107 9.35433 14.4717 6.65 15.5547 5.947 17.1063 4.93367 17.9233 4.40167 18.7403 3.86967 20.1083 2.97667 20.9633 2.41933 21.8183 1.86833 23.009 1.08933 23.6107 0.696667L24.7063-0.019 25.954 0.316667C26.638 0.500333 27.265 0.690333 27.3473 0.741 27.6957 0.956333 27.683 0.975333 24.5733 4.34467 22.971 6.08633 21.66 7.55567 21.66 7.61267 21.66 7.676 22.1793 8.284 22.8127 8.96167 23.7373 9.956 24.016 10.2157 24.2377 10.298 24.4973 10.3993 24.8647 10.4057 28.614 10.3677 32.6483 10.3233 33.9467 10.2727 34.9093 10.1017L35.397 10.0193 36.6067 9.025C37.2717 8.474 37.8227 8.037 37.8353 8.04967 37.848 8.06233 37.2843 8.75267 36.5813 9.58233L35.3083 11.0833 31.1917 11.0707C28.9307 11.058 26.3277 11.0453 25.422 11.039Z" fill="#0062A1" transform="scale(1 1.00074)"/><path d="M17.0367 25.5233 17.0367 24.054 17.6763 24.0793C18.3033 24.1047 18.3223 24.1047 18.4997 24.3073 18.7593 24.5923 18.7593 25.0103 18.506 25.27L18.3287 25.4473 18.4617 25.6057C18.5693 25.726 18.6137 25.8843 18.6453 26.2833 18.6707 26.5683 18.696 26.8343 18.7023 26.8723 18.7087 26.9167 18.6327 26.9483 18.525 26.9483 18.3097 26.9483 18.259 26.828 18.2463 26.2833 18.24 25.7893 18.126 25.65 17.7333 25.65L17.423 25.65 17.404 26.3023 17.385 26.9483 17.214 26.9673 17.0367 26.9863 17.0367 25.5233ZM18.145 25.175C18.3287 24.9977 18.354 24.6937 18.202 24.548 18.1387 24.4783 17.9867 24.4467 17.7587 24.4467L17.4167 24.4467 17.4167 24.89 17.4167 25.3333 17.7017 25.3333C17.9233 25.3333 18.031 25.2953 18.145 25.175Z" fill="#595A59" transform="scale(1 1.00074)"/><path d="M19.8233 26.8407C19.7917 26.7583 19.6333 26.1567 19.475 25.4917 19.3103 24.833 19.171 24.2377 19.152 24.1743 19.1203 24.073 19.1457 24.0603 19.3293 24.0793L19.5383 24.0983 19.798 25.27C19.9437 25.916 20.0767 26.3973 20.0957 26.3467 20.121 26.296 20.197 25.9793 20.273 25.65 20.349 25.3207 20.4567 24.833 20.5137 24.5733L20.6213 24.0983 20.8683 24.0983 21.1217 24.0983 21.261 24.7633C21.337 25.1307 21.451 25.6753 21.5143 25.9793L21.622 26.5367 21.8247 25.6627C22.1857 24.1173 22.192 24.0983 22.3123 24.0793 22.534 24.035 22.61 24.111 22.5467 24.301 22.515 24.396 22.363 24.9787 22.1983 25.5867 21.8247 27.018 21.8373 26.9927 21.584 26.9673L21.3877 26.9483 21.1217 25.745C20.9697 25.0483 20.843 24.5923 20.8177 24.6683 20.7987 24.738 20.6783 25.251 20.5517 25.8083 20.425 26.3657 20.3047 26.8597 20.292 26.904 20.2793 26.942 20.1843 26.98 20.0767 26.98 19.9373 26.98 19.8677 26.942 19.8233 26.8407Z" fill="#595A59" transform="scale(1 1.00074)"/><path d="M23.6677 26.942C23.6423 26.9167 23.6233 26.3467 23.6233 25.669L23.6233 24.4467 23.275 24.4467C22.933 24.4467 22.9267 24.4467 22.9267 24.2567L22.9267 24.0667 23.845 24.0667 24.7633 24.0667 24.7633 24.2567C24.7633 24.4467 24.757 24.4467 24.415 24.4467L24.0667 24.4467 24.054 25.7007 24.035 26.9483 23.8767 26.9673C23.788 26.98 23.693 26.9673 23.6677 26.942Z" fill="#595A59" transform="scale(1 1.00074)"/><path d="M25.3587 26.8977C25.346 26.8533 25.3397 26.2073 25.346 25.46L25.365 24.0983 25.5423 24.0793 25.7133 24.0603 25.7133 24.6937 25.7133 25.3333 26.22 25.3333 26.7267 25.3333 26.7267 24.6937 26.7267 24.0603 26.904 24.0793 27.075 24.0983 27.075 25.5233 27.075 26.9483 26.904 26.9673 26.7267 26.9863 26.7267 26.3213 26.7267 25.65 26.22 25.65 25.7133 25.65 25.7133 26.315 25.7133 26.98 25.555 26.98C25.4663 26.98 25.3777 26.942 25.3587 26.8977Z" fill="#595A59" transform="scale(1 1.00074)"/><path d="M28.5633 26.904C28.5633 26.8597 28.7597 26.2073 28.994 25.46L29.4247 24.0983 29.6717 24.0983 29.9187 24.0983 30.3747 25.4917C30.6217 26.258 30.8053 26.9103 30.78 26.9357 30.7547 26.9673 30.666 26.98 30.5837 26.9673 30.4633 26.9547 30.4063 26.8787 30.324 26.6317L30.2227 26.315 29.6653 26.315 29.1143 26.315 29.013 26.6317C28.9243 26.8977 28.8863 26.9483 28.7407 26.9673 28.6267 26.98 28.5633 26.961 28.5633 26.904ZM30.0833 25.8907C30.0833 25.878 29.9883 25.5613 29.868 25.175L29.6527 24.4783 29.5197 24.9533C29.4437 25.213 29.355 25.5107 29.317 25.612 29.2283 25.897 29.2347 25.9033 29.6717 25.9033 29.8997 25.9033 30.0833 25.897 30.0833 25.8907Z" fill="#595A59" transform="scale(1 1.00074)"/><path d="M31.2867 26.9293C31.2867 26.904 31.331 26.752 31.3753 26.5937 31.426 26.4417 31.6287 25.8083 31.825 25.1877L32.1797 24.0603 32.414 24.0793 32.6483 24.0983 33.1043 25.4917C33.3577 26.258 33.535 26.9103 33.5097 26.9357 33.478 26.9673 33.3893 26.98 33.307 26.9673 33.1867 26.9547 33.136 26.8787 33.0537 26.6317L32.9523 26.315 32.414 26.296 31.8757 26.277 31.7553 26.6127C31.654 26.8977 31.6097 26.9483 31.4577 26.9673 31.3627 26.98 31.2867 26.961 31.2867 26.9293ZM32.8067 25.8717C32.8067 25.8147 32.4267 24.5543 32.4013 24.529 32.3887 24.51 32.224 25.023 32.0087 25.7957 31.977 25.8907 32.0277 25.9033 32.3887 25.9033 32.6167 25.9033 32.8067 25.8907 32.8067 25.8717Z" fill="#595A59" transform="scale(1 1.00074)"/><path d="M34.333 26.8217C34.0733 26.6 33.991 26.1757 34.0227 25.2953 34.0543 24.3453 34.162 24.1743 34.7763 24.035 35.0233 23.978 35.454 24.111 35.5617 24.282 35.6187 24.3643 35.682 24.5353 35.701 24.662 35.739 24.89 35.7327 24.89 35.5047 24.89 35.2957 24.89 35.2767 24.8773 35.2767 24.7127 35.2767 24.472 35.169 24.3833 34.8967 24.3833 34.4787 24.3833 34.4217 24.5163 34.4217 25.4853 34.4217 26.4733 34.4913 26.6633 34.865 26.6633 35.112 26.6633 35.2703 26.5303 35.321 26.277 35.3463 26.125 35.3907 26.0933 35.5363 26.0933 35.7073 26.0933 35.72 26.1123 35.72 26.3213 35.72 26.4987 35.6693 26.6 35.5047 26.7647 35.3083 26.961 35.2577 26.98 34.9093 26.98 34.5927 26.98 34.4913 26.9547 34.333 26.8217Z" fill="#595A59" transform="scale(1 1.00074)"/><path d="M36.3787 26.8977C36.366 26.8533 36.3597 26.2073 36.366 25.46L36.385 24.0983 36.5623 24.0793 36.7333 24.0603 36.7333 24.6937 36.7333 25.3333 37.24 25.3333 37.7467 25.3333 37.7467 24.7 37.7467 24.0667 37.9367 24.0667 38.1267 24.0667 38.114 25.5107 38.095 26.9483 37.924 26.9673 37.7467 26.9863 37.7467 26.3213 37.7467 25.65 37.24 25.65 36.7333 25.65 36.7333 26.315 36.7333 26.98 36.575 26.98C36.4863 26.98 36.3977 26.942 36.3787 26.8977Z" fill="#595A59" transform="scale(1 1.00074)"/><path d="M38.8867 25.5233 38.8867 24.0667 39.615 24.0667 40.3433 24.0667 40.3433 24.2567 40.3433 24.4467 39.805 24.4467 39.2667 24.4467 39.2667 24.89 39.2667 25.3333 39.7733 25.3333C40.2737 25.3333 40.28 25.3333 40.28 25.4917 40.28 25.65 40.2737 25.65 39.7733 25.65L39.2667 25.65 39.2667 26.125 39.2667 26.6 39.8113 26.6 40.3497 26.6 40.3307 26.7773 40.3117 26.9483 39.6023 26.9673 38.8867 26.9863 38.8867 25.5233Z" fill="#595A59" transform="scale(1 1.00074)"/><path d="M41.021 26.942C40.9957 26.9167 40.9767 26.258 40.9767 25.479L40.9767 24.0603 41.2427 24.0793 41.515 24.0983 42.028 25.2257C42.313 25.8463 42.5663 26.372 42.5853 26.391 42.6043 26.4163 42.6233 25.897 42.6233 25.251L42.6233 24.0667 42.7817 24.0667 42.94 24.0667 42.9273 25.5107 42.9083 26.9483 42.731 26.9673C42.6297 26.98 42.5157 26.9547 42.465 26.9167 42.4207 26.8787 42.161 26.3467 41.8887 25.7387L41.3883 24.6303 41.3567 25.7893C41.325 26.8977 41.3187 26.9483 41.1983 26.9673 41.1223 26.98 41.0463 26.9673 41.021 26.942Z" fill="#595A59" transform="scale(1 1.00074)"/></g></svg>