<?xml version="1.0" encoding="UTF-8" standalone="no"?>
<svg
   width="72.472229"
   height="26.021837"
   xml:space="preserve"
   overflow="hidden"
   version="1.1"
   id="svg72"
   sodipodi:docname="ford.svg"
   inkscape:version="1.2 (dc2aedaf03, 2022-05-15)"
   xmlns:inkscape="http://www.inkscape.org/namespaces/inkscape"
   xmlns:sodipodi="http://sodipodi.sourceforge.net/DTD/sodipodi-0.dtd"
   xmlns="http://www.w3.org/2000/svg"
   xmlns:svg="http://www.w3.org/2000/svg"><sodipodi:namedview
     id="namedview74"
     pagecolor="#ffffff"
     bordercolor="#000000"
     borderopacity="0.25"
     inkscape:showpageshadow="2"
     inkscape:pageopacity="0.0"
     inkscape:pagecheckerboard="0"
     inkscape:deskcolor="#d1d1d1"
     showgrid="false"
     inkscape:zoom="9.0789474"
     inkscape:cx="58.927536"
     inkscape:cy="-3.4695652"
     inkscape:window-width="2560"
     inkscape:window-height="1351"
     inkscape:window-x="1431"
     inkscape:window-y="517"
     inkscape:window-maximized="1"
     inkscape:current-layer="g70" /><defs
     id="defs42"><clipPath
       id="clip0"><rect
         x="0"
         y="0"
         width="76"
         height="29"
         id="rect39" /></clipPath></defs><g
     clip-path="url(#clip0)"
     id="g70"
     style="display:inline"
     transform="translate(-1.69566,-1.4271858)"><path
       d="m 15.1712,57.6892 c 0,-2.5225 1.3097,-3.5897 3.6624,-3.5897 1.4067,0 2.2678,0.4124 2.8135,0.9823 L 20.592,56.149 c -0.3517,-0.3395 -0.8125,-0.6427 -1.7706,-0.6427 -1.5159,0 -2.1101,0.7519 -2.1101,2.195 0,1.5159 0.4123,2.2678 2.098,2.2678 1.3583,0 1.7463,-0.4487 1.7463,-1.431 v -0.1455 h -1.9403 v -1.2734 h 3.4562 v 1.14 c 0,1.9767 -0.7882,3.0196 -3.3471,3.0196 -2.7771,0 -3.5532,-1.2733 -3.5532,-3.5896"
       fill="#263746"
       transform="matrix(1,0,0,1.0055,-1.80911,-17.9855)"
       id="path44" /><path
       d="m 22.6779,58.5138 c 0,-1.7827 0.7761,-2.7771 2.7771,-2.7771 2.001,0 2.7772,0.9823 2.7772,2.7771 0,1.7949 -0.7762,2.7772 -2.7772,2.7772 -1.9888,-0.0122 -2.7771,-0.9945 -2.7771,-2.7772 m 4.0869,0.0364 c 0,-0.8974 -0.279,-1.4674 -1.2976,-1.4674 -1.0309,0 -1.2976,0.57 -1.2976,1.4674 0,0.8974 0.2667,1.4795 1.2976,1.4795 1.0065,0 1.2976,-0.5821 1.2976,-1.4795"
       fill="#263746"
       transform="matrix(1,0,0,1.0055,-1.80911,-17.9855)"
       id="path46" /><path
       d="m 30.8759,54.2208 h 5.0692 v 1.3825 h -3.529 v 1.5038 h 3.432 v 1.3704 h -3.432 v 2.7043 h -1.5402 z"
       fill="#263746"
       transform="matrix(1,0,0,1.0055,-1.80911,-17.9855)"
       id="path48" /><path
       d="M 36.697,58.6957 V 55.858 h 1.4795 v 2.862 c 0,0.7398 0.0121,1.2612 1.0672,1.2612 1.0429,0 1.0672,-0.5214 1.0672,-1.2733 v -2.862 h 1.4431 v 2.8498 c 0,1.8191 -0.4851,2.571 -2.5224,2.571 -2.0253,0 -2.5346,-0.7397 -2.5346,-2.571"
       fill="#263746"
       transform="matrix(1,0,0,1.0055,-1.80911,-17.9855)"
       id="path50" /><path
       d="m 42.421,55.9429 1.1521,-0.0849 0.1455,0.5821 c 0.2304,-0.3396 0.8732,-0.6064 1.6978,-0.6428 v 1.4068 c -1.2491,0.0121 -1.5159,0.4972 -1.5159,1.334 v 2.6316 H 42.421 Z"
       fill="#263746"
       transform="matrix(1,0,0,1.0055,-1.80911,-17.9855)"
       id="path52" /><path
       d="m 45.7803,55.858 h 0.9459 l 0.2547,-1.2976 1.152,-0.2305 v 1.5281 h 1.2613 v 1.2612 h -1.2613 v 2.195 c 0,0.4124 0.0607,0.6428 0.6913,0.6428 h 0.57 v 1.2248 c -0.2183,0.0243 -0.6064,0.0243 -0.8732,0.0243 -1.4431,0 -1.8555,-0.4851 -1.8555,-1.6736 V 57.1192 H 45.7924 V 55.858 Z"
       fill="#263746"
       transform="matrix(1,0,0,1.0055,-1.80911,-17.9855)"
       id="path54" /><path
       d="m 50.049,53.8934 h 1.4674 v 2.3284 c 0.2183,-0.2304 0.7277,-0.4851 1.7342,-0.4851 1.6008,0 1.904,0.8974 1.904,2.2193 v 3.2258 H 53.6872 V 58.247 c 0,-0.6548 -0.0728,-1.1157 -0.9702,-1.1157 -1.0187,0 -1.1884,0.473 -1.1884,1.1885 v 2.862 H 50.049 Z"
       fill="#263746"
       transform="matrix(1,0,0,1.0055,-1.80911,-17.9855)"
       id="path56" /><path
       d="m 55.7852,58.5138 c 0,-1.4795 0.4851,-2.7771 2.765,-2.7771 2.3406,0 2.4133,1.5644 2.3648,3.335 h -3.6988 c 0.0849,0.6427 0.4002,1.0187 1.3461,1.0187 0.8126,0 1.2734,-0.1941 1.6736,-0.4851 l 0.7398,0.958 c -0.6913,0.5215 -1.3583,0.7277 -2.4134,0.7277 -2.3041,-0.0122 -2.7771,-1.2613 -2.7771,-2.7772 m 1.431,-0.485 h 2.3527 c -0.0364,-0.6064 -0.1576,-1.0551 -1.0672,-1.0551 -0.9095,0 -1.2127,0.4002 -1.2855,1.0551"
       fill="#263746"
       transform="matrix(1,0,0,1.0055,-1.80911,-17.9855)"
       id="path58" /><path
       d="m 61.6184,55.9429 1.1521,-0.0849 0.1455,0.5821 c 0.2304,-0.3396 0.8732,-0.6064 1.6978,-0.6428 v 1.4068 c -1.2491,0.0121 -1.5159,0.4972 -1.5159,1.334 v 2.6316 h -1.4795 z"
       fill="#263746"
       transform="matrix(1,0,0,1.0055,-1.80911,-17.9855)"
       id="path60"
       style="display:inline" /><path
       d="m 61.958,28.1715 c 0.0485,-0.0849 0,-0.1455 -0.1092,-0.1455 -0.57,0 -1.3218,0 -1.9039,0 -0.1456,0 -0.2183,0.0121 -0.279,0.1455 -0.2183,0.4245 -2.8863,4.4265 -3.3835,5.2026 -0.0849,0.1213 -0.1819,0.097 -0.194,-0.0364 -0.0485,-0.4608 -0.4487,-0.9944 -1.0793,-1.2491 -0.473,-0.194 -0.946,-0.2304 -1.431,-0.1698 -0.8732,0.1213 -1.6615,0.5821 -2.3527,1.1036 -1.043,0.7883 -1.9282,1.807 -3.0925,2.571 -0.6306,0.4123 -1.4916,0.764 -2.0737,0.2304 -0.5215,-0.4851 -0.4608,-1.5644 0.3395,-2.4012 0.0849,-0.0849 0.182,-0.0121 0.1698,0.0607 -0.0727,0.3759 0.0243,0.7518 0.3032,1.0065 0.3517,0.3153 0.8489,0.3517 1.2734,0.1455 0.5093,-0.2546 0.8004,-0.7276 0.8852,-1.2854 0.1335,-0.849 -0.5214,-1.6008 -1.3339,-1.6615 -0.667,-0.0485 -1.2977,0.1819 -1.9283,0.7034 -0.3153,0.2547 -0.4851,0.4487 -0.764,0.8368 -0.0606,0.097 -0.1698,0.1091 -0.1576,-0.0364 0.0363,-1.0914 -0.4245,-1.6978 -1.3219,-1.7221 -0.6913,-0.0121 -1.4431,0.3639 -2.0252,0.8247 -0.6428,0.5093 -1.1885,1.1885 -1.7949,1.8312 -0.0727,0.0728 -0.1334,0.0728 -0.1576,-0.0728 -0.0243,-0.7155 -0.1941,-1.4189 -0.5336,-1.9161 -0.1213,-0.1697 -0.3638,-0.2546 -0.57,-0.1455 -0.097,0.0485 -0.4366,0.2062 -0.6791,0.4002 -0.1213,0.097 -0.1698,0.2425 -0.1213,0.4245 0.3274,1.0793 0.2547,2.3041 -0.1819,3.3349 -0.4002,0.946 -1.1764,1.807 -2.098,2.0859 -0.6064,0.1941 -1.237,0.097 -1.6251,-0.4366 -0.5336,-0.7397 -0.3153,-2.0252 0.473,-3.0924 0.7034,-0.9338 1.7221,-1.5402 2.7286,-1.9161 0.1213,-0.0485 0.1455,-0.1213 0.1092,-0.2183 -0.0485,-0.1698 -0.1456,-0.3881 -0.1819,-0.4972 -0.0971,-0.2425 -0.3517,-0.2911 -0.667,-0.2547 -0.7398,0.0849 -1.3947,0.3396 -2.0495,0.6913 -1.71,0.9216 -2.571,2.6922 -2.9591,3.6503 -0.1819,0.4608 -0.3396,0.7397 -0.5336,0.9944 -0.2668,0.3396 -0.6063,0.6549 -1.237,1.1885 -0.0606,0.0485 -0.097,0.1576 -0.0485,0.2546 0.0607,0.1334 0.3881,0.5822 0.473,0.6307 0.097,0.0485 0.2183,-0.0243 0.2668,-0.0485 0.4366,-0.2911 0.958,-0.7641 1.2127,-1.0794 0.0849,-0.1091 0.1819,-0.0606 0.2304,0.097 0.2426,0.849 0.8611,1.5402 1.7221,1.8313 1.5765,0.5336 3.2137,-0.2426 4.4386,-1.5766 0.7882,-0.8489 1.0671,-1.3946 1.3703,-1.7706 0.5094,-0.6306 1.5159,-2.0373 2.7044,-2.9469 0.4366,-0.3395 0.9581,-0.5942 1.2127,-0.4244 0.2062,0.1334 0.279,0.4487 -0.0606,1.0672 -1.2127,2.2192 -3.0076,4.8387 -3.335,5.4693 -0.0606,0.1092 -0.0121,0.1941 0.1091,0.1941 0.6428,0 1.2734,0 1.8434,0 0.097,0 0.1455,-0.0485 0.194,-0.1213 0.9338,-1.4674 1.8191,-2.862 2.7529,-4.293 0.0485,-0.0849 0.097,-0.0243 0.097,0.0121 0.0243,0.3396 0.097,0.7883 0.3032,1.0914 0.3517,0.5579 0.861,0.7883 1.4189,0.8004 0.4487,0 0.667,-0.0606 1.1521,-0.2425 0.388,-0.1455 0.7033,-0.3396 0.9459,-0.5093 0.1455,-0.0971 0.1698,0.0606 0.1576,0.0849 -0.2182,1.1642 0.0486,2.5345 1.2006,3.1166 1.3825,0.6792 2.8984,-0.2789 3.7716,-1.1399 0.0849,-0.0849 0.1819,-0.0728 0.1819,0.1091 0.0243,0.3275 0.1698,0.7277 0.4366,0.9945 0.7276,0.7397 2.2071,0.4487 3.6867,-0.7034 0.9459,-0.7398 1.9525,-1.7706 2.8499,-2.8742 0.0363,-0.0363 0.0606,-0.1091 0,-0.1819 -0.1334,-0.1455 -0.3396,-0.3032 -0.473,-0.4366 -0.0606,-0.0485 -0.1455,-0.0363 -0.2062,0 -0.9216,0.8732 -1.7584,1.8798 -2.9469,2.7044 -0.4002,0.2789 -1.055,0.5094 -1.334,0.1213 -0.1091,-0.1455 -0.097,-0.3638 0.0122,-0.6428 0.3638,-0.8367 5.9059,-9.2652 6.197,-9.7624 m -7.3249,7.0702 c 0.0122,0.0606 0.097,0.1213 0.1819,0.1577 0.0243,0.0121 0.0485,0.0363 0.0122,0.097 -0.2305,0.5093 -0.4487,0.8004 -0.7519,1.2369 -0.2668,0.4003 -0.5821,0.7156 -0.9459,1.0309 -0.5579,0.4608 -1.334,0.958 -1.9768,0.6306 -0.2789,-0.1455 -0.4123,-0.5457 -0.4002,-0.8732 0.0121,-0.9095 0.4123,-1.8433 1.1642,-2.7529 0.9096,-1.1157 1.9161,-1.6978 2.571,-1.3825 0.6791,0.3275 0.4608,1.1157 0.1577,1.7342 -0.0243,0.0364 -0.0243,0.0849 -0.0122,0.1213"
       fill="#ffffff"
       transform="matrix(1,0,0,1.0055,-1.80911,-17.9855)"
       id="path64" /><path
       d="m 21.7805,40.0441 c -2.0616,0.0121 -3.8807,-1.2613 -4.099,-3.4684 -0.1213,-1.2249 0.2304,-2.3163 0.9217,-3.2137 0.6184,-0.8004 1.6493,-1.4674 2.5345,-1.6251 0.2911,-0.0485 0.667,-0.0242 0.8247,0.1698 0.2547,0.2911 0.1819,0.6064 -0.0728,0.7398 -0.667,0.3395 -1.4795,0.9338 -1.8797,1.7342 -0.3274,0.6548 -0.3881,1.4431 0.1092,2.195 0.8246,1.2491 3.1409,1.2855 5.2874,-0.7155 0.5336,-0.4851 1.0066,-0.9581 1.4917,-1.5159 0.9459,-1.0793 1.2612,-1.4795 2.5224,-3.2259 0.0122,-0.0242 0.0243,-0.0485 0.0122,-0.0606 -0.0122,-0.0242 -0.0243,-0.0242 -0.0607,-0.0242 -0.8367,0.0242 -1.5765,0.2668 -2.2799,0.8004 -0.2062,0.1455 -0.4972,0.1334 -0.6306,-0.0728 -0.1455,-0.2183 -0.0364,-0.5094 0.194,-0.6791 1.14,-0.8004 2.4012,-0.946 3.6746,-1.1521 0,0 0.0849,0 0.1576,-0.097 0.5215,-0.667 0.9217,-1.2855 1.4796,-1.9646 0.5578,-0.6913 1.2854,-1.3219 1.8433,-1.807 0.7761,-0.667 1.2733,-0.8974 1.7827,-1.1642 0.1334,-0.0728 -0.0121,-0.1577 -0.0606,-0.1577 -2.8257,-0.5336 -5.7605,-1.2127 -8.5619,-0.1819 -1.9403,0.7277 -2.7892,2.2678 -2.389,3.2986 0.291,0.7277 1.2491,0.8489 2.1465,0.4124 0.7398,-0.3639 1.431,-0.9581 1.9282,-1.71 0.2789,-0.4244 0.8489,-0.1213 0.5457,0.6185 -0.8246,1.9282 -2.389,3.4563 -4.293,3.5169 -1.625,0.0485 -2.668,-1.14 -2.668,-2.6195 0.0122,-2.9105 3.2501,-4.8266 6.6457,-5.1055 4.099,-0.3396 7.9798,0.7518 12.0545,1.2491 3.1167,0.3759 6.1121,0.388 9.2409,-0.3396 0.376,-0.0849 0.6307,0.1576 0.6064,0.5336 -0.0364,0.5457 -0.4487,1.0672 -1.4795,1.625 -1.1764,0.6428 -2.4012,0.8368 -3.6867,0.8489 -3.1046,0.0243 -5.9908,-1.1884 -8.9863,-1.8312 0,0.1334 0.0364,0.2911 -0.0727,0.3639 -1.6493,1.2248 -3.1531,2.4618 -4.1597,4.2081 -0.0364,0.0364 -0.0121,0.0728 0.0485,0.0728 0.8732,-0.0485 1.6493,-0.0728 2.4619,-0.1334 0.1455,-0.0122 0.1455,-0.0485 0.1334,-0.1456 -0.0728,-0.5942 0.097,-1.2854 0.6306,-1.7584 0.5457,-0.4851 1.2127,-0.5457 1.6614,-0.194 0.5094,0.4002 0.4608,1.1157 0.1819,1.6493 -0.2789,0.5457 -0.7519,0.8367 -1.2006,0.9701 0,0 -0.097,0.0243 -0.0849,0.1092 0.0243,0.1334 0.6307,0.4729 0.6792,0.57 0.0485,0.0848 0.0242,0.2182 -0.0728,0.3153 -0.0606,0.0727 -0.1698,0.1455 -0.2911,0.1455 -0.1091,0 -0.1697,-0.0364 -0.3031,-0.1092 -0.279,-0.1455 -0.6185,-0.4001 -0.8489,-0.6791 -0.0849,-0.097 -0.1213,-0.097 -0.3154,-0.0849 -0.8852,0.0485 -2.2556,0.1819 -3.1773,0.3032 -0.2304,0.0243 -0.2547,0.0728 -0.3032,0.1455 -1.4795,2.4376 -3.0681,5.0813 -4.8023,6.8398 -1.8313,1.8918 -3.3714,2.3891 -5.0207,2.4012 M 35.8966,29.1902 c 0.0242,0.1213 0.0727,0.1455 0.1334,0.1334 0.2789,-0.0606 0.5942,-0.291 0.7761,-0.5578 0.1698,-0.2426 0.2426,-0.5943 0.0849,-0.7398 -0.1455,-0.1213 -0.3881,-0.097 -0.57,0.0606 -0.3638,0.3275 -0.4729,0.7641 -0.4244,1.1036"
       fill="#ffffff"
       transform="matrix(1,0,0,1.0055,-1.80911,-17.9855)"
       id="path66" /><path
       d="m 39.7409,45.186 c -20.0099,0 -36.23613,-5.7968 -36.23613,-12.9397 0,-7.143 16.22623,-12.9398 36.23613,-12.9398 20.0099,0 36.2361,5.7968 36.2361,12.9398 0,7.1429 -16.2262,12.9397 -36.2361,12.9397 m 0,-24.8123 c -19.3065,0 -34.96277,5.336 -34.96277,11.8604 0,6.5245 15.65627,11.8605 34.96277,11.8605 19.3065,0 34.9628,-5.336 34.9628,-11.8605 0,-6.5244 -15.6563,-11.8604 -34.9628,-11.8604"
       fill="#ffffff"
       transform="matrix(1,0,0,1.0055,-1.80911,-17.9855)"
       id="path68" /></g></svg>
