<svg width="76" height="29" xmlns="http://www.w3.org/2000/svg" xmlns:xlink="http://www.w3.org/1999/xlink" xml:space="preserve" overflow="hidden"><defs><clipPath id="clip0"><rect x="0" y="0" width="76" height="29"/></clipPath></defs><g clip-path="url(#clip0)"><path d="M15.1712 57.6892C15.1712 55.1667 16.4809 54.0995 18.8336 54.0995 20.2403 54.0995 21.1014 54.5119 21.6471 55.0818L20.592 56.149C20.2403 55.8095 19.7795 55.5063 18.8214 55.5063 17.3055 55.5063 16.7113 56.2582 16.7113 57.7013 16.7113 59.2172 17.1236 59.9691 18.8093 59.9691 20.1676 59.9691 20.5556 59.5204 20.5556 58.5381L20.5556 58.3926 18.6153 58.3926 18.6153 57.1192 22.0715 57.1192 22.0715 58.2592C22.0715 60.2359 21.2833 61.2788 18.7244 61.2788 15.9473 61.2788 15.1712 60.0055 15.1712 57.6892" fill="#263746" transform="matrix(1 0 0 1.0055 -1.80911 -17.9855)"/><path d="M22.6779 58.5138C22.6779 56.7311 23.454 55.7367 25.455 55.7367 27.456 55.7367 28.2322 56.719 28.2322 58.5138 28.2322 60.3087 27.456 61.291 25.455 61.291 23.4662 61.2788 22.6779 60.2965 22.6779 58.5138M26.7648 58.5502C26.7648 57.6528 26.4858 57.0828 25.4672 57.0828 24.4363 57.0828 24.1696 57.6528 24.1696 58.5502 24.1696 59.4476 24.4363 60.0297 25.4672 60.0297 26.4737 60.0297 26.7648 59.4476 26.7648 58.5502" fill="#263746" transform="matrix(1 0 0 1.0055 -1.80911 -17.9855)"/><path d="M30.8759 54.2208 35.9451 54.2208 35.9451 55.6033 32.4161 55.6033 32.4161 57.1071 35.8481 57.1071 35.8481 58.4775 32.4161 58.4775 32.4161 61.1818 30.8759 61.1818Z" fill="#263746" transform="matrix(1 0 0 1.0055 -1.80911 -17.9855)"/><path d="M36.697 58.6957 36.697 55.858 38.1765 55.858 38.1765 58.72C38.1765 59.4598 38.1886 59.9812 39.2437 59.9812 40.2866 59.9812 40.3109 59.4598 40.3109 58.7079L40.3109 55.8459 41.754 55.8459 41.754 58.6957C41.754 60.5148 41.2689 61.2667 39.2316 61.2667 37.2063 61.2667 36.697 60.527 36.697 58.6957" fill="#263746" transform="matrix(1 0 0 1.0055 -1.80911 -17.9855)"/><path d="M42.421 55.9429 43.5731 55.858 43.7186 56.4401C43.949 56.1005 44.5918 55.8337 45.4164 55.7973L45.4164 57.2041C44.1673 57.2162 43.9005 57.7013 43.9005 58.5381L43.9005 61.1697 42.421 61.1697 42.421 55.9429Z" fill="#263746" transform="matrix(1 0 0 1.0055 -1.80911 -17.9855)"/><path d="M45.7803 55.858 46.7262 55.858 46.9809 54.5604 48.1329 54.3299 48.1329 55.858 49.3942 55.858 49.3942 57.1192 48.1329 57.1192 48.1329 59.3142C48.1329 59.7266 48.1936 59.957 48.8242 59.957L49.3942 59.957 49.3942 61.1818C49.1759 61.2061 48.7878 61.2061 48.521 61.2061 47.0779 61.2061 46.6655 60.721 46.6655 59.5325L46.6655 57.1192 45.7924 57.1192 45.7924 55.858Z" fill="#263746" transform="matrix(1 0 0 1.0055 -1.80911 -17.9855)"/><path d="M50.049 53.8934 51.5164 53.8934 51.5164 56.2218C51.7347 55.9914 52.2441 55.7367 53.2506 55.7367 54.8514 55.7367 55.1546 56.6341 55.1546 57.956L55.1546 61.1818 53.6872 61.1818 53.6872 58.247C53.6872 57.5922 53.6144 57.1313 52.717 57.1313 51.6983 57.1313 51.5286 57.6043 51.5286 58.3198L51.5286 61.1818 50.049 61.1818 50.049 53.8934Z" fill="#263746" transform="matrix(1 0 0 1.0055 -1.80911 -17.9855)"/><path d="M55.7852 58.5138C55.7852 57.0343 56.2703 55.7367 58.5502 55.7367 60.8908 55.7367 60.9635 57.3011 60.915 59.0717L57.2162 59.0717C57.3011 59.7144 57.6164 60.0904 58.5623 60.0904 59.3749 60.0904 59.8357 59.8963 60.2359 59.6053L60.9757 60.5633C60.2844 61.0848 59.6174 61.291 58.5623 61.291 56.2582 61.2788 55.7852 60.0297 55.7852 58.5138M57.2162 58.0288 59.5689 58.0288C59.5325 57.4224 59.4113 56.9737 58.5017 56.9737 57.5922 56.9737 57.289 57.3739 57.2162 58.0288" fill="#263746" transform="matrix(1 0 0 1.0055 -1.80911 -17.9855)"/><path d="M61.6184 55.9429 62.7705 55.858 62.916 56.4401C63.1464 56.1005 63.7892 55.8337 64.6138 55.7973L64.6138 57.2041C63.3647 57.2162 63.0979 57.7013 63.0979 58.5381L63.0979 61.1697 61.6184 61.1697 61.6184 55.9429Z" fill="#263746" transform="matrix(1 0 0 1.0055 -1.80911 -17.9855)"/><path d="M39.7409 18.0574C18.7487 18.0574 1.92823 24.3515 1.92823 32.2341 1.92823 40.0683 18.8942 46.4109 39.7409 46.4109 60.5876 46.4109 77.5536 40.0441 77.5536 32.2341 77.5536 24.4242 60.5876 18.0574 39.7409 18.0574" fill="#003478" transform="matrix(1 0 0 1.0055 -1.80911 -17.9855)"/><path d="M61.958 28.1715C62.0065 28.0866 61.958 28.026 61.8488 28.026 61.2788 28.026 60.527 28.026 59.9449 28.026 59.7993 28.026 59.7266 28.0381 59.6659 28.1715 59.4476 28.596 56.7796 32.598 56.2824 33.3741 56.1975 33.4954 56.1005 33.4711 56.0884 33.3377 56.0399 32.8769 55.6397 32.3433 55.0091 32.0886 54.5361 31.8946 54.0631 31.8582 53.5781 31.9188 52.7049 32.0401 51.9166 32.5009 51.2254 33.0224 50.1824 33.8107 49.2972 34.8294 48.1329 35.5934 47.5023 36.0057 46.6413 36.3574 46.0592 35.8238 45.5377 35.3387 45.5984 34.2594 46.3987 33.4226 46.4836 33.3377 46.5807 33.4105 46.5685 33.4833 46.4958 33.8592 46.5928 34.2351 46.8717 34.4898 47.2234 34.8051 47.7206 34.8415 48.1451 34.6353 48.6544 34.3807 48.9455 33.9077 49.0303 33.3499 49.1638 32.5009 48.5089 31.7491 47.6964 31.6884 47.0294 31.6399 46.3987 31.8703 45.7681 32.3918 45.4528 32.6465 45.283 32.8405 45.0041 33.2286 44.9435 33.3256 44.8343 33.3377 44.8465 33.1922 44.8828 32.1008 44.422 31.4944 43.5246 31.4701 42.8333 31.458 42.0815 31.834 41.4994 32.2948 40.8566 32.8041 40.3109 33.4833 39.7045 34.126 39.6318 34.1988 39.5711 34.1988 39.5469 34.0532 39.5226 33.3377 39.3528 32.6343 39.0133 32.1371 38.892 31.9674 38.6495 31.8825 38.4433 31.9916 38.3463 32.0401 38.0067 32.1978 37.7642 32.3918 37.6429 32.4888 37.5944 32.6343 37.6429 32.8163 37.9703 33.8956 37.8976 35.1204 37.461 36.1512 37.0608 37.0972 36.2846 37.9582 35.363 38.2371 34.7566 38.4312 34.126 38.3341 33.7379 37.8005 33.2043 37.0608 33.4226 35.7753 34.2109 34.7081 34.9143 33.7743 35.933 33.1679 36.9395 32.792 37.0608 32.7435 37.085 32.6707 37.0487 32.5737 37.0002 32.4039 36.9031 32.1856 36.8668 32.0765 36.7697 31.834 36.5151 31.7854 36.1998 31.8218 35.46 31.9067 34.8051 32.1614 34.1503 32.5131 32.4403 33.4347 31.5793 35.2053 31.1912 36.1634 31.0093 36.6242 30.8516 36.9031 30.6576 37.1578 30.3908 37.4974 30.0513 37.8127 29.4206 38.3463 29.36 38.3948 29.3236 38.5039 29.3721 38.6009 29.4328 38.7343 29.7602 39.1831 29.8451 39.2316 29.9421 39.2801 30.0634 39.2073 30.1119 39.1831 30.5485 38.892 31.0699 38.419 31.3246 38.1037 31.4095 37.9946 31.5065 38.0431 31.555 38.2007 31.7976 39.0497 32.4161 39.7409 33.2771 40.032 34.8536 40.5656 36.4908 39.7894 37.7157 38.4554 38.5039 37.6065 38.7828 37.0608 39.086 36.6848 39.5954 36.0542 40.6019 34.6475 41.7904 33.7379 42.227 33.3984 42.7485 33.1437 43.0031 33.3135 43.2093 33.4469 43.2821 33.7622 42.9425 34.3807 41.7298 36.5999 39.9349 39.2194 39.6075 39.85 39.5469 39.9592 39.5954 40.0441 39.7166 40.0441 40.3594 40.0441 40.99 40.0441 41.56 40.0441 41.657 40.0441 41.7055 39.9956 41.754 39.9228 42.6878 38.4554 43.5731 37.0608 44.5069 35.6298 44.5554 35.5449 44.6039 35.6055 44.6039 35.6419 44.6282 35.9815 44.7009 36.4302 44.9071 36.7333 45.2588 37.2912 45.7681 37.5216 46.326 37.5337 46.7747 37.5337 46.993 37.4731 47.4781 37.2912 47.8661 37.1457 48.1814 36.9516 48.424 36.7819 48.5695 36.6848 48.5938 36.8425 48.5816 36.8668 48.3634 38.031 48.6302 39.4013 49.7822 39.9834 51.1647 40.6626 52.6806 39.7045 53.5538 38.8435 53.6387 38.7586 53.7357 38.7707 53.7357 38.9526 53.76 39.2801 53.9055 39.6803 54.1723 39.9471 54.8999 40.6868 56.3794 40.3958 57.859 39.2437 58.8049 38.5039 59.8115 37.4731 60.7089 36.3695 60.7452 36.3332 60.7695 36.2604 60.7089 36.1876 60.5755 36.0421 60.3693 35.8844 60.2359 35.751 60.1753 35.7025 60.0904 35.7147 60.0297 35.751 59.1081 36.6242 58.2713 37.6308 57.0828 38.4554 56.6826 38.7343 56.0278 38.9648 55.7488 38.5767 55.6397 38.4312 55.6518 38.2129 55.761 37.9339 56.1248 37.0972 61.6669 28.6687 61.958 28.1715M54.6331 35.2417C54.6453 35.3023 54.7301 35.363 54.815 35.3994 54.8393 35.4115 54.8635 35.4357 54.8272 35.4964 54.5967 36.0057 54.3785 36.2968 54.0753 36.7333 53.8085 37.1336 53.4932 37.4489 53.1294 37.7642 52.5715 38.225 51.7954 38.7222 51.1526 38.3948 50.8737 38.2493 50.7403 37.8491 50.7524 37.5216 50.7645 36.6121 51.1647 35.6783 51.9166 34.7687 52.8262 33.653 53.8327 33.0709 54.4876 33.3862 55.1667 33.7137 54.9484 34.5019 54.6453 35.1204 54.621 35.1568 54.621 35.2053 54.6331 35.2417" fill="#FFFFFF" transform="matrix(1 0 0 1.0055 -1.80911 -17.9855)"/><path d="M21.7805 40.0441C19.7189 40.0562 17.8998 38.7828 17.6815 36.5757 17.5602 35.3508 17.9119 34.2594 18.6032 33.362 19.2216 32.5616 20.2525 31.8946 21.1377 31.7369 21.4288 31.6884 21.8047 31.7127 21.9624 31.9067 22.2171 32.1978 22.1443 32.5131 21.8896 32.6465 21.2226 32.986 20.4101 33.5803 20.0099 34.3807 19.6825 35.0355 19.6218 35.8238 20.1191 36.5757 20.9437 37.8248 23.26 37.8612 25.4065 35.8602 25.9401 35.3751 26.4131 34.9021 26.8982 34.3443 27.8441 33.265 28.1594 32.8648 29.4206 31.1184 29.4328 31.0942 29.4449 31.0699 29.4328 31.0578 29.4206 31.0336 29.4085 31.0336 29.3721 31.0336 28.5354 31.0578 27.7956 31.3004 27.0922 31.834 26.886 31.9795 26.595 31.9674 26.4616 31.7612 26.3161 31.5429 26.4252 31.2518 26.6556 31.0821 27.7956 30.2817 29.0568 30.1361 30.3302 29.93 30.3302 29.93 30.4151 29.93 30.4878 29.833 31.0093 29.166 31.4095 28.5475 31.9674 27.8684 32.5252 27.1771 33.2528 26.5465 33.8107 26.0614 34.5868 25.3944 35.084 25.164 35.5934 24.8972 35.7268 24.8244 35.5813 24.7395 35.5328 24.7395 32.7071 24.2059 29.7723 23.5268 26.9709 24.5576 25.0306 25.2853 24.1817 26.8254 24.5819 27.8562 24.8729 28.5839 25.831 28.7051 26.7284 28.2686 27.4682 27.9047 28.1594 27.3105 28.6566 26.5586 28.9355 26.1342 29.5055 26.4373 29.2023 27.1771 28.3777 29.1053 26.8133 30.6334 24.9093 30.694 23.2843 30.7425 22.2413 29.554 22.2413 28.0745 22.2535 25.164 25.4914 23.2479 28.887 22.969 32.986 22.6294 36.8668 23.7208 40.9415 24.2181 44.0582 24.594 47.0536 24.6061 50.1824 23.8785 50.5584 23.7936 50.8131 24.0361 50.7888 24.4121 50.7524 24.9578 50.3401 25.4793 49.3093 26.0371 48.1329 26.6799 46.9081 26.8739 45.6226 26.886 42.518 26.9103 39.6318 25.6976 36.6363 25.0548 36.6363 25.1882 36.6727 25.3459 36.5636 25.4187 34.9143 26.6435 33.4105 27.8805 32.4039 29.6268 32.3675 29.6632 32.3918 29.6996 32.4524 29.6996 33.3256 29.6511 34.1017 29.6268 34.9143 29.5662 35.0598 29.554 35.0598 29.5177 35.0477 29.4206 34.9749 28.8264 35.1447 28.1352 35.6783 27.6622 36.224 27.1771 36.891 27.1165 37.3397 27.4682 37.8491 27.8684 37.8005 28.5839 37.5216 29.1175 37.2427 29.6632 36.7697 29.9542 36.321 30.0876 36.321 30.0876 36.224 30.1119 36.2361 30.1968 36.2604 30.3302 36.8668 30.6697 36.9153 30.7668 36.9638 30.8516 36.9395 30.985 36.8425 31.0821 36.7819 31.1548 36.6727 31.2276 36.5514 31.2276 36.4423 31.2276 36.3817 31.1912 36.2483 31.1184 35.9693 30.9729 35.6298 30.7183 35.3994 30.4393 35.3145 30.3423 35.2781 30.3423 35.084 30.3544 34.1988 30.4029 32.8284 30.5363 31.9067 30.6576 31.6763 30.6819 31.652 30.7304 31.6035 30.8031 30.124 33.2407 28.5354 35.8844 26.8012 37.6429 24.9699 39.5347 23.4298 40.032 21.7805 40.0441M35.8966 29.1902C35.9208 29.3115 35.9693 29.3357 36.03 29.3236 36.3089 29.263 36.6242 29.0326 36.8061 28.7658 36.9759 28.5232 37.0487 28.1715 36.891 28.026 36.7455 27.9047 36.5029 27.929 36.321 28.0866 35.9572 28.4141 35.8481 28.8507 35.8966 29.1902" fill="#FFFFFF" transform="matrix(1 0 0 1.0055 -1.80911 -17.9855)"/><path d="M39.7409 45.186C19.731 45.186 3.50477 39.3892 3.50477 32.2463 3.50477 25.1033 19.731 19.3065 39.7409 19.3065 59.7508 19.3065 75.977 25.1033 75.977 32.2463 75.977 39.3892 59.7508 45.186 39.7409 45.186M39.7409 20.3737C20.4344 20.3737 4.77813 25.7097 4.77813 32.2341 4.77813 38.7586 20.4344 44.0946 39.7409 44.0946 59.0474 44.0946 74.7037 38.7586 74.7037 32.2341 74.7037 25.7097 59.0474 20.3737 39.7409 20.3737" fill="#FFFFFF" transform="matrix(1 0 0 1.0055 -1.80911 -17.9855)"/></g></svg>