<svg width="64" height="18" xmlns="http://www.w3.org/2000/svg" xmlns:xlink="http://www.w3.org/1999/xlink" xml:space="preserve" overflow="hidden"><defs><clipPath id="clip0"><rect x="0" y="0" width="64" height="18"/></clipPath></defs><g clip-path="url(#clip0)"><path d="M0 10.3434C2.44936 9.08254 6.03733 7.04372 10.2963 4.06326L10.2963 3.06282C6.54784 5.51516 2.73637 7.48428 0 8.78685L0 10.3434Z" fill="#179C7D" transform="scale(1 1.00781)"/><path d="M0 7.35603C2.72719 6.24496 6.53891 4.52837 10.2963 2.29358L10.2963 1.79969C6.7649 3.5515 3.09581 4.64794 0 5.3316L0 7.35603Z" fill="#179C7D" transform="scale(1 1.00781)"/><path d="M10.2963 10.3484 10.2963 5.31646C7.95212 7.29253 5.63051 9.00366 3.6805 10.3484L10.2963 10.3484Z" fill="#179C7D" transform="scale(1 1.00781)"/><path d="M2.36403 10.3484C4.21581 9.24899 6.4635 7.81445 8.70202 6.1378 9.22419 5.74636 9.75752 5.34326 10.2966 4.92651L10.2966 4.30288C6.98319 6.78673 3.60161 8.8573 0.959752 10.3484L2.36403 10.3484Z" fill="#179C7D" transform="scale(1 1.00781)"/><path d="M0 4.59957C3.01147 4.06995 6.69594 3.11715 10.2963 1.40602L10.2963 0.845147C6.66816 2.47392 3.03678 3.16453 0 3.41036L0 4.59957Z" fill="#179C7D" transform="scale(1 1.00781)"/><path d="M0 0 0 2.88248C0.224992 2.86859 0.454202 2.85246 0.688372 2.83436 3.19206 2.64186 6.60887 2.19932 10.2963 0.605023L10.2963 0 0 0Z" fill="#179C7D" transform="scale(1 1.00781)"/><path d="M0 2.88248 0 3.41036C3.03678 3.16453 6.66816 2.47392 10.2963 0.845147L10.2963 0.605023C6.60912 2.19932 3.19206 2.64186 0.688372 2.83436 0.454202 2.85271 0.224992 2.86859 0 2.88248Z" fill="#FFFFFF" transform="scale(1 1.00781)"/><path d="M0 5.3316C3.09581 4.64794 6.7649 3.5515 10.2963 1.79969L10.2963 1.40626C6.69594 3.11715 3.01147 4.06995 0 4.59957L0 5.3316Z" fill="#FFFFFF" transform="scale(1 1.00781)"/><path d="M0 8.78685C2.73637 7.48428 6.54784 5.51516 10.2963 3.06282L10.2963 2.29358C6.53891 4.52837 2.72719 6.24496 0 7.35603L0 8.78685Z" fill="#FFFFFF" transform="scale(1 1.00781)"/><path d="M2.36403 10.3484 3.68074 10.3484C5.63076 9.00391 7.95237 7.29253 10.2966 5.31646L10.2966 4.92651C9.75752 5.34326 9.22443 5.74636 8.70202 6.1378 6.4635 7.81445 4.21581 9.24899 2.36403 10.3484Z" fill="#FFFFFF" transform="scale(1 1.00781)"/><path d="M0 10.3484 0.959752 10.3484C3.60161 8.8573 6.98319 6.78698 10.2963 4.30288L10.2963 4.06326C6.03733 7.04397 2.44936 9.08254 0 10.3434L0 10.3484Z" fill="#FFFFFF" transform="scale(1 1.00781)"/><path d="M60.509 10.3434 61.8332 10.3434 61.8332 8.47454C61.8332 7.7435 61.8332 6.39851 62.9098 6.39851 63.1472 6.39851 63.3851 6.43771 63.5039 6.50741L63.5039 5.17333C63.3645 5.13364 63.2263 5.13364 63.0983 5.13364 62.3075 5.13364 61.764 5.93488 61.7049 6.40819L61.6846 6.40819 61.6846 5.25271 60.5093 5.25271 60.5093 10.3434ZM59.1844 8.9796C58.6897 9.25594 58.1368 9.49383 57.4936 9.49383 56.6747 9.49383 56.1012 9.02921 56.0407 8.20763L59.5592 8.20763C59.5592 6.42853 59.0264 5.13389 57.1376 5.13389 55.5572 5.13389 54.7761 6.3494 54.7761 7.82239 54.7761 9.49383 55.7537 10.462 57.435 10.462 58.1472 10.462 58.6992 10.3238 59.1846 10.0564L59.1846 8.9796ZM56.0404 7.29848C56.101 6.61631 56.475 6.10257 57.2167 6.10257 57.9585 6.10257 58.2556 6.65625 58.2943 7.29848L56.0404 7.29848ZM51.8102 10.3434 53.1344 10.3434 53.1344 6.22065 54.2904 6.22065 54.2904 5.25247 53.1344 5.25247 53.1344 4.61966C53.1344 4.2245 53.2736 3.83851 53.7186 3.83851 54.0048 3.83851 54.173 3.94766 54.2904 4.01712L54.3997 2.91969C54.1435 2.8604 53.7674 2.81079 53.4313 2.81079 52.3833 2.81079 51.8102 3.52248 51.8102 4.54053L51.8102 5.25247 50.8321 5.25247 50.8321 6.22065 51.8102 6.22065 51.8102 10.3434ZM46.5424 7.6738C46.5424 6.91274 46.9571 6.16136 47.8177 6.16136 48.6879 6.16136 49.1021 6.89315 49.1021 7.6738 49.1021 8.5244 48.8362 9.4338 47.8177 9.4338 46.8083 9.43355 46.5424 8.51398 46.5424 7.6738M45.1577 7.83281C45.1577 9.29464 46.1373 10.4618 47.8177 10.4618 49.5075 10.4618 50.4858 9.29464 50.4858 7.83281 50.4858 6.15194 49.3309 5.13389 47.8177 5.13389 46.3152 5.13364 45.1577 6.15194 45.1577 7.83281M39.6428 10.3434 40.9679 10.3434 40.9679 7.85166C40.9679 7.19975 41.1753 6.16136 42.1346 6.16136 42.9844 6.16136 42.9936 7.00205 42.9936 7.62443L42.9936 10.3434 44.3173 10.3434 44.3173 7.13029C44.3173 5.98375 43.7936 5.13364 42.5885 5.13364 41.8967 5.13364 41.3234 5.45017 40.9888 5.94431L40.9679 5.94431 40.9679 2.92986 39.6428 2.92986 39.6428 10.3434ZM33.6045 10.3434 34.9281 10.3434 34.9281 7.85166C34.9281 7.19975 35.1365 6.16136 36.0948 6.16136 36.9446 6.16136 36.9543 7.00205 36.9543 7.62443L36.9543 10.3434 38.2799 10.3434 38.2799 7.13029C38.2799 5.98375 37.7553 5.13364 36.5497 5.13364 35.8579 5.13364 35.294 5.36136 34.8793 5.94431L34.8584 5.94431 34.8584 5.25247 33.6045 5.25247 33.6045 10.3434ZM32.2396 5.25271 30.9145 5.25271 30.9145 7.74375C30.9145 8.39541 30.7071 9.43355 29.7483 9.43355 28.8982 9.43355 28.8883 8.59287 28.8883 7.97023L28.8883 5.25271 27.5639 5.25271 27.5639 8.46512C27.5639 9.61141 28.0878 10.4618 29.2936 10.4618 29.9852 10.4618 30.559 10.146 30.9638 9.6511L30.9839 9.6511 30.9839 10.3434 32.2394 10.3434 32.2394 5.25271ZM23.2047 8.87045C23.2047 8.08905 24.0843 7.99032 24.6777 7.99032L25.2512 7.99032C25.2512 8.38623 25.1919 8.75113 24.9741 9.03864 24.7668 9.31398 24.451 9.49358 24.0454 9.49358 23.5711 9.49358 23.2047 9.30481 23.2047 8.87045M22.533 6.65625C22.9777 6.31963 23.5408 6.10257 24.1047 6.10257 24.8851 6.10257 25.251 6.37916 25.251 7.2L24.5194 7.2C23.9663 7.2 23.3136 7.24862 22.8095 7.49619 22.3052 7.74375 21.9401 8.18828 21.9401 8.95008 21.9401 9.91777 22.8195 10.4618 23.7187 10.4618 24.3217 10.4618 24.9843 10.146 25.2902 9.58239L25.3103 9.58239C25.3207 9.73991 25.3207 10.075 25.3696 10.3434L26.5357 10.3434C26.5062 9.94704 26.4866 9.59107 26.4762 9.20583 26.4665 8.83051 26.4566 8.44502 26.4566 7.93079L26.4566 7.27839C26.4566 5.77588 25.8141 5.13364 24.2624 5.13364 23.6989 5.13364 23.0073 5.28248 22.493 5.51938L22.533 6.65625ZM18.5498 10.3434 19.8742 10.3434 19.8742 8.47454C19.8742 7.7435 19.8742 6.39851 20.9513 6.39851 21.1887 6.39851 21.4259 6.43771 21.5449 6.50741L21.5449 5.17333C21.4065 5.13364 21.2683 5.13364 21.1396 5.13364 20.349 5.13364 19.8053 5.93488 19.746 6.40819L19.7261 6.40819 19.7261 5.25271 18.5498 5.25271 18.5498 10.3434ZM13.766 10.3434 15.1499 10.3434 15.1499 7.31783 17.4827 7.31783 17.4827 6.23057 15.1499 6.23057 15.1499 4.53085 17.6012 4.53085 17.6012 3.44385 13.766 3.44385 13.766 10.3434Z" transform="scale(1 1.00781)"/><path d="M56.8938 13.8587 57.5628 13.8587 57.5628 17.3108 56.8938 17.3108 56.8938 13.8587Z" transform="scale(1 1.00781)"/><path d="M58.461 13.8587 59.3074 13.8587C59.6832 13.8558 60.0062 13.9247 60.2771 14.0669 60.5514 14.2152 60.6916 14.4938 60.698 14.9023 60.6943 15.2982 60.572 15.58 60.3297 15.7485 60.0876 15.9199 59.782 16.0037 59.4123 16.0002L59.1303 16.0002 59.1303 17.3108 58.461 17.3108 58.461 13.8587ZM59.1303 15.4562 59.3642 15.4562C59.5393 15.46 59.6897 15.4238 59.8137 15.3476 59.9345 15.2717 59.9968 15.1365 60 14.9423 60 14.8401 59.9841 14.754 59.9521 14.685 59.9171 14.6161 59.8708 14.561 59.8137 14.5218 59.6926 14.4427 59.5428 14.403 59.3642 14.403L59.1303 14.403 59.1303 15.4562Z" transform="scale(1 1.00781)"/><path d="M61.8786 14.403 60.923 14.403 60.923 13.8587 63.5034 13.8587 63.5034 14.403 62.5473 14.403 62.5473 17.3108 61.8783 17.3108 61.8783 14.403Z" transform="scale(1 1.00781)"/></g></svg>