<?xml version="1.0" encoding="UTF-8" standalone="no"?>
<svg
   width="63.503899"
   height="17.445997"
   xml:space="preserve"
   overflow="hidden"
   version="1.1"
   id="svg18536"
   sodipodi:docname="fraunhofer.svg"
   inkscape:version="1.2 (dc2aedaf03, 2022-05-15)"
   xmlns:inkscape="http://www.inkscape.org/namespaces/inkscape"
   xmlns:sodipodi="http://sodipodi.sourceforge.net/DTD/sodipodi-0.dtd"
   xmlns="http://www.w3.org/2000/svg"
   xmlns:svg="http://www.w3.org/2000/svg"><sodipodi:namedview
     id="namedview18538"
     pagecolor="#ffffff"
     bordercolor="#000000"
     borderopacity="0.25"
     inkscape:showpageshadow="2"
     inkscape:pageopacity="0.0"
     inkscape:pagecheckerboard="0"
     inkscape:deskcolor="#d1d1d1"
     showgrid="false"
     inkscape:zoom="21.5625"
     inkscape:cx="21.82029"
     inkscape:cy="9.0202899"
     inkscape:window-width="2560"
     inkscape:window-height="1351"
     inkscape:window-x="1431"
     inkscape:window-y="517"
     inkscape:window-maximized="1"
     inkscape:current-layer="g18534" /><defs
     id="defs18502"><clipPath
       id="clip0"><rect
         x="0"
         y="0"
         width="64"
         height="18"
         id="rect18499" /></clipPath></defs><g
     clip-path="url(#clip0)"
     id="g18534"><path
       d="M 0,10.3434 C 2.44936,9.08254 6.03733,7.04372 10.2963,4.06326 V 3.06282 C 6.54784,5.51516 2.73637,7.48428 0,8.78685 Z"
       fill="#179c7d"
       transform="scale(1,1.00781)"
       id="path18504"
       style="fill:#ffffff;fill-opacity:1" /><path
       d="M 0,7.35603 C 2.72719,6.24496 6.53891,4.52837 10.2963,2.29358 V 1.79969 C 6.7649,3.5515 3.09581,4.64794 0,5.3316 Z"
       fill="#179c7d"
       transform="scale(1,1.00781)"
       id="path18506"
       style="fill:#ffffff;fill-opacity:1" /><path
       d="M 10.2963,10.3484 V 5.31646 C 7.95212,7.29253 5.63051,9.00366 3.6805,10.3484 Z"
       fill="#179c7d"
       transform="scale(1,1.00781)"
       id="path18508"
       style="fill:#ffffff;fill-opacity:1" /><path
       d="M 2.36403,10.3484 C 4.21581,9.24899 6.4635,7.81445 8.70202,6.1378 9.22419,5.74636 9.75752,5.34326 10.2966,4.92651 V 4.30288 C 6.98319,6.78673 3.60161,8.8573 0.959752,10.3484 Z"
       fill="#179c7d"
       transform="scale(1,1.00781)"
       id="path18510"
       style="fill:#ffffff;fill-opacity:1" /><path
       d="M 0,4.59957 C 3.01147,4.06995 6.69594,3.11715 10.2963,1.40602 V 0.845147 C 6.66816,2.47392 3.03678,3.16453 0,3.41036 Z"
       fill="#179c7d"
       transform="scale(1,1.00781)"
       id="path18512"
       style="fill:#ffffff;fill-opacity:1" /><path
       d="M 0,0 V 2.88248 C 0.224992,2.86859 0.454202,2.85246 0.688372,2.83436 3.19206,2.64186 6.60887,2.19932 10.2963,0.605023 V 0 Z"
       fill="#179c7d"
       transform="scale(1,1.00781)"
       id="path18514"
       style="fill:#ffffff;fill-opacity:1" /><path
       d="m 60.509,10.3434 h 1.3242 V 8.47454 c 0,-0.73104 0,-2.07603 1.0766,-2.07603 0.2374,0 0.4753,0.0392 0.5941,0.1089 V 5.17333 C 63.3645,5.13364 63.2263,5.13364 63.0983,5.13364 c -0.7908,0 -1.3343,0.80124 -1.3934,1.27455 H 61.6846 V 5.25271 H 60.5093 V 10.3434 Z M 59.1844,8.9796 c -0.4947,0.27634 -1.0476,0.51423 -1.6908,0.51423 -0.8189,0 -1.3924,-0.46462 -1.4529,-1.2862 h 3.5185 c 0,-1.7791 -0.5328,-3.07374 -2.4216,-3.07374 -1.5804,0 -2.3615,1.21551 -2.3615,2.6885 0,1.67144 0.9776,2.63961 2.6589,2.63961 0.7122,0 1.2642,-0.1382 1.7496,-0.4056 V 8.9796 Z m -3.144,-1.68112 c 0.0606,-0.68217 0.4346,-1.19591 1.1763,-1.19591 0.7418,0 1.0389,0.55368 1.0776,1.19591 z m -4.2302,3.04492 h 1.3242 V 6.22065 h 1.156 V 5.25247 h -1.156 V 4.61966 c 0,-0.39516 0.1392,-0.78115 0.5842,-0.78115 0.2862,0 0.4544,0.10915 0.5718,0.17861 l 0.1093,-1.09743 c -0.2562,-0.05929 -0.6323,-0.1089 -0.9684,-0.1089 -1.048,0 -1.6211,0.71169 -1.6211,1.72974 v 0.71194 h -0.9781 v 0.96818 h 0.9781 z M 46.5424,7.6738 c 0,-0.76106 0.4147,-1.51244 1.2753,-1.51244 0.8702,0 1.2844,0.73179 1.2844,1.51244 0,0.8506 -0.2659,1.76 -1.2844,1.76 -1.0094,-2.5e-4 -1.2753,-0.91982 -1.2753,-1.76 m -1.3847,0.15901 c 0,1.46183 0.9796,2.62899 2.66,2.62899 1.6898,0 2.6681,-1.16716 2.6681,-2.62899 0,-1.68087 -1.1549,-2.69892 -2.6681,-2.69892 -1.5025,-2.5e-4 -2.66,1.01805 -2.66,2.69892 m -5.5149,2.51059 h 1.3251 V 7.85166 c 0,-0.65191 0.2074,-1.6903 1.1667,-1.6903 0.8498,0 0.859,0.84069 0.859,1.46307 v 2.71897 h 1.3237 V 7.13029 c 0,-1.14654 -0.5237,-1.99665 -1.7288,-1.99665 -0.6918,0 -1.2651,0.31653 -1.5997,0.81067 H 40.9679 V 2.92986 h -1.3251 z m -6.0383,0 h 1.3236 V 7.85166 c 0,-0.65191 0.2084,-1.6903 1.1667,-1.6903 0.8498,0 0.8595,0.84069 0.8595,1.46307 v 2.71897 h 1.3256 V 7.13029 c 0,-1.14654 -0.5246,-1.99665 -1.7302,-1.99665 -0.6918,0 -1.2557,0.22772 -1.6704,0.81067 H 34.8584 V 5.25247 H 33.6045 Z M 32.2396,5.25271 h -1.3251 v 2.49104 c 0,0.65166 -0.2074,1.6898 -1.1662,1.6898 -0.8501,0 -0.86,-0.84068 -0.86,-1.46332 V 5.25271 h -1.3244 v 3.21241 c 0,1.14629 0.5239,1.99668 1.7297,1.99668 0.6916,0 1.2654,-0.3158 1.6702,-0.8107 h 0.0201 v 0.6923 h 1.2555 V 5.25271 Z m -9.0349,3.61774 c 0,-0.7814 0.8796,-0.88013 1.473,-0.88013 h 0.5735 c 0,0.39591 -0.0593,0.76081 -0.2771,1.04832 -0.2073,0.27534 -0.5231,0.45494 -0.9287,0.45494 -0.4743,0 -0.8407,-0.18877 -0.8407,-0.62313 M 22.533,6.65625 c 0.4447,-0.33662 1.0078,-0.55368 1.5717,-0.55368 0.7804,0 1.1463,0.27659 1.1463,1.09743 h -0.7316 c -0.5531,0 -1.2058,0.04862 -1.7099,0.29619 -0.5043,0.24756 -0.8694,0.69209 -0.8694,1.45389 0,0.96769 0.8794,1.51172 1.7786,1.51172 0.603,0 1.2656,-0.3158 1.5715,-0.87941 h 0.0201 c 0.0104,0.15752 0.0104,0.49261 0.0593,0.76101 h 1.1661 C 26.5062,9.94704 26.4866,9.59107 26.4762,9.20583 26.4665,8.83051 26.4566,8.44502 26.4566,7.93079 v -0.6524 c 0,-1.50251 -0.6425,-2.14475 -2.1942,-2.14475 -0.5635,0 -1.2551,0.14884 -1.7694,0.38574 z m -3.9832,3.68715 h 1.3244 V 8.47454 c 0,-0.73104 0,-2.07603 1.0771,-2.07603 0.2374,0 0.4746,0.0392 0.5936,0.1089 V 5.17333 C 21.4065,5.13364 21.2683,5.13364 21.1396,5.13364 c -0.7906,0 -1.3343,0.80124 -1.3936,1.27455 H 19.7261 V 5.25271 h -1.1763 z m -4.7838,0 h 1.3839 V 7.31783 h 2.3328 V 6.23057 H 15.1499 V 4.53085 h 2.4513 v -1.087 H 13.766 Z"
       transform="scale(1,1.00781)"
       id="path18526"
       style="fill:#ffffff;fill-opacity:1" /><path
       d="m 56.8938,13.8587 h 0.669 v 3.4521 h -0.669 z"
       transform="scale(1,1.00781)"
       id="path18528"
       style="fill:#ffffff;fill-opacity:1" /><path
       d="m 58.461,13.8587 h 0.8464 c 0.3758,-0.0029 0.6988,0.066 0.9697,0.2082 0.2743,0.1483 0.4145,0.4269 0.4209,0.8354 -0.0037,0.3959 -0.126,0.6777 -0.3683,0.8462 -0.2421,0.1714 -0.5477,0.2552 -0.9174,0.2517 h -0.282 v 1.3106 H 58.461 Z m 0.6693,1.5975 h 0.2339 C 59.5393,15.46 59.6897,15.4238 59.8137,15.3476 59.9345,15.2717 59.9968,15.1365 60,14.9423 60,14.8401 59.9841,14.754 59.9521,14.685 59.9171,14.6161 59.8708,14.561 59.8137,14.5218 59.6926,14.4427 59.5428,14.403 59.3642,14.403 h -0.2339 z"
       transform="scale(1,1.00781)"
       id="path18530"
       style="fill:#ffffff;fill-opacity:1" /><path
       d="M 61.8786,14.403 H 60.923 v -0.5443 h 2.5804 v 0.5443 h -0.9561 v 2.9078 h -0.669 V 14.403 Z"
       transform="scale(1,1.00781)"
       id="path18532"
       style="fill:#ffffff;fill-opacity:1" /></g></svg>
