<?xml version="1.0" encoding="UTF-8"?>
<svg xmlns="http://www.w3.org/2000/svg" xmlns:xlink="http://www.w3.org/1999/xlink" width="17px" height="29px" viewBox="0 0 17 28" version="1.1">
<g id="surface1">
<path style=" stroke:none;fill-rule:nonzero;fill:rgb(50.196078%,50.980392%,52.156863%);fill-opacity:1;" d="M 14.320312 27.460938 L 16.449219 27.460938 L 16.449219 19.121094 L 14.320312 19.121094 Z M 13.378906 19.121094 L 6.589844 19.121094 L 6.589844 20.957031 L 9.816406 20.957031 L 5.921875 27.460938 L 12.960938 27.460938 L 12.960938 25.621094 L 9.511719 25.621094 Z M 5.519531 20.957031 L 5.519531 19.121094 L 0.8125 19.121094 L 0.8125 27.460938 L 2.945312 27.460938 L 2.945312 24.183594 L 5.285156 24.183594 L 5.285156 22.347656 L 2.945312 22.347656 L 2.945312 20.957031 L 5.519531 20.957031 "/>
<path style=" stroke:none;fill-rule:nonzero;fill:rgb(0%,49.803922%,32.54902%);fill-opacity:1;" d="M 3.09375 0.539062 L 11.203125 0.550781 L 13.734375 3.035156 L 0.5625 3.023438 Z M 16.433594 5.683594 L 16.433594 13.648438 L 13.902344 16.136719 L 13.902344 3.199219 Z M 2.832031 3.394531 L 8.839844 3.394531 L 11.109375 5.621094 L 0.5625 5.621094 Z M 13.527344 7.996094 L 13.527344 13.894531 L 11.257812 16.125 L 11.257812 5.769531 Z M 2.59375 5.953125 L 6.671875 5.953125 L 8.703125 7.949219 L 0.5625 7.949219 Z M 10.871094 10.078125 L 10.871094 14.121094 L 8.839844 16.117188 L 8.839844 8.078125 Z M 2.109375 8.328125 L 5.261719 8.328125 L 6.820312 9.859375 L 0.550781 9.859375 Z M 2.136719 10.273438 L 4.960938 10.273438 L 6.519531 11.804688 L 6.53125 14.589844 L 4.972656 16.117188 L 2.136719 16.128906 L 0.582031 14.597656 L 0.570312 11.816406 L 2.125 10.285156 Z M 4.972656 11.804688 L 2.125 11.804688 L 2.125 14.597656 L 4.972656 14.597656 Z M 8.480469 11.488281 L 8.480469 14.589844 L 6.921875 16.117188 L 6.921875 9.960938 L 8.480469 11.488281 "/>
</g>
</svg>
