<?xml version="1.0" encoding="UTF-8" standalone="no"?>
<svg
   width="15.898438"
   height="26.921877"
   viewBox="0 0 15.898438 25.993536"
   version="1.1"
   id="svg20867"
   sodipodi:docname="fzi.svg"
   inkscape:version="1.2 (dc2aedaf03, 2022-05-15)"
   xmlns:inkscape="http://www.inkscape.org/namespaces/inkscape"
   xmlns:sodipodi="http://sodipodi.sourceforge.net/DTD/sodipodi-0.dtd"
   xmlns="http://www.w3.org/2000/svg"
   xmlns:svg="http://www.w3.org/2000/svg">
  <defs
     id="defs20871" />
  <sodipodi:namedview
     id="namedview20869"
     pagecolor="#ffffff"
     bordercolor="#000000"
     borderopacity="0.25"
     inkscape:showpageshadow="2"
     inkscape:pageopacity="0.0"
     inkscape:pagecheckerboard="0"
     inkscape:deskcolor="#d1d1d1"
     showgrid="false"
     inkscape:zoom="35.413793"
     inkscape:cx="1.7366115"
     inkscape:cy="13.455209"
     inkscape:window-width="2560"
     inkscape:window-height="1351"
     inkscape:window-x="1431"
     inkscape:window-y="517"
     inkscape:window-maximized="1"
     inkscape:current-layer="svg20867" />
  <g
     id="surface1"
     transform="translate(-0.550781,-1.039062)"
     style="fill:#ffffff;fill-opacity:1">
    <path
       style="fill:#ffffff;fill-opacity:1;fill-rule:nonzero;stroke:none"
       d="m 14.320312,27.460938 h 2.128907 V 19.121094 H 14.320312 Z M 13.378906,19.121094 H 6.589844 v 1.835937 h 3.226562 l -3.894531,6.503907 h 7.039063 V 25.621094 H 9.511719 Z M 5.519531,20.957031 V 19.121094 H 0.8125 v 8.339844 H 2.945312 V 24.183594 H 5.285156 V 22.347656 H 2.945312 v -1.390625 h 2.574219"
       id="path20862" />
    <path
       style="fill:#ffffff;fill-opacity:1;fill-rule:nonzero;stroke:none"
       d="m 3.09375,0.539062 8.109375,0.011719 2.53125,2.484375 L 0.5625,3.023438 Z m 13.339844,5.144532 v 7.964844 l -2.53125,2.488281 V 3.199219 Z M 2.832031,3.394531 h 6.007813 l 2.269531,2.226563 H 0.5625 Z m 10.695313,4.601563 v 5.898437 L 11.257812,16.125 V 5.769531 Z M 2.59375,5.953125 h 4.078125 l 2.03125,1.996094 H 0.5625 Z m 8.277344,4.125 v 4.042969 l -2.03125,1.996094 V 8.078125 Z m -8.761719,-1.75 h 3.152344 l 1.558593,1.53125 H 0.550781 Z m 0.027344,1.945313 h 2.824219 l 1.558593,1.53125 0.011719,2.785156 -1.558594,1.527344 -2.835937,0.01172 -1.554688,-1.53125 -0.011719,-2.78125 1.554688,-1.53125 z m 2.835937,1.53125 H 2.125 v 2.792968 h 2.847656 z m 3.507813,-0.316407 v 3.101563 l -1.558594,1.527344 v -6.15625 l 1.558594,1.527343"
       id="path20864" />
  </g>
</svg>
