<svg width="75" height="28" xmlns="http://www.w3.org/2000/svg" xmlns:xlink="http://www.w3.org/1999/xlink" xml:space="preserve" overflow="hidden"><defs><clipPath id="clip0"><rect x="0" y="0" width="75" height="28"/></clipPath></defs><g clip-path="url(#clip0)"><path d="M74.4467 0.197598 56.8937 0.197598 56.8937 6.17605 62.0258 6.17605 62.0258 26.7866 69.3146 26.7866 69.3146 6.17605 74.4467 6.17605ZM55.1465 26.7593 47.8577 26.7593 47.8577 0.197598 55.1465 0.197598ZM46.6293 26.7593 38.5216 26.7593 28.8851 16.4131 28.8851 10.4893 38.2213 0.170286 46.5747 0.170286 35.819 13.5467Z" fill-rule="evenodd" transform="scale(1 1.01425)"/><path d="M6.36362 9.91598C4.97136 11.6085 3.77024 13.4648 2.84205 15.4577L27.138 26.7593 6.36362 9.91598Z" fill="#32A189" fill-rule="evenodd" transform="scale(1 1.01425)"/><path d="M27.138 26.7593 15.809 2.65451C13.7889 3.58263 11.9326 4.72922 10.2401 6.09416Z" fill="#32A189" fill-rule="evenodd" transform="scale(1 1.01425)"/><path d="M27.138 26.7593 27.1652 0.197598 26.9469 0.197598C24.7903 0.197598 22.6883 0.470616 20.6682 0.96198Z" fill-rule="evenodd" transform="scale(1 1.01425)"/><path d="M1.09494 20.2622C0.548979 22.337 0.275987 24.5208 0.248682 26.7593L27.138 26.7593 1.09494 20.2622Z" fill="#32A189" fill-rule="evenodd" transform="scale(1 1.01425)"/><path d="M74.8138 32.7402C74.704 32.831 74.3603 32.9837 74.0643 32.9837 73.6393 32.9837 73.2622 32.6543 73.2622 32.1721L75 32.1721C75 31.389 74.7374 30.797 73.9258 30.797 73.2383 30.797 72.7847 31.3079 72.7847 32.0288 72.7847 32.8214 73.181 33.3473 74.0452 33.3473 74.4461 33.3473 74.642 33.251 74.8138 33.189ZM73.2622 31.8379C73.2956 31.5228 73.477 31.16 73.9163 31.16 74.303 31.16 74.5226 31.4654 74.5226 31.8379ZM71.8099 33.2892 72.2586 33.2892 72.2586 30.8543 71.8099 30.8543ZM72.2873 29.804 71.7812 29.804 71.7812 30.3101 72.2873 30.3101ZM43.6239 29.9097 44.1228 29.9097 44.1228 30.4181 43.6239 30.4181ZM44.691 29.9097 45.1898 29.9097 45.1898 30.4181 44.691 30.4181ZM46.1203 33.2892 46.5692 33.2892 46.5692 32.1816C46.5692 31.5706 46.8317 31.1886 47.2328 31.1886 47.3092 31.1886 47.3999 31.1981 47.4811 31.2315L47.4811 30.8306C47.3856 30.8113 47.3187 30.797 47.1851 30.797 46.9272 30.797 46.6693 30.9785 46.55 31.2315L46.5405 31.2315 46.5405 30.8543 46.1203 30.8543 46.1203 33.2892ZM45.4835 30.7961 45.0346 30.7961 45.0346 31.9229C45.0346 32.515 44.8056 32.9255 44.2946 32.9255 43.9032 32.9017 43.7791 32.6248 43.7791 32.0567L43.7791 30.7961 43.3303 30.7961 43.3303 32.2428C43.3303 32.8969 43.6119 33.2892 44.2422 33.2892 44.5811 33.2892 44.9058 33.1214 45.0395 32.8444L45.049 32.8444 45.049 33.2311 45.4835 33.2311 45.4835 30.7961ZM21.2873 33.2892 21.7361 33.2892 21.7361 32.1816C21.7361 31.5706 21.9987 31.1886 22.3997 31.1886 22.4761 31.1886 22.5668 31.1981 22.6481 31.2315L22.6481 30.8306C22.5526 30.8113 22.4856 30.797 22.352 30.797 22.0942 30.797 21.8363 30.9785 21.7169 31.2315L21.7074 31.2315 21.7074 30.8543 21.2873 30.8543 21.2873 33.2892ZM71.1626 30.8543 70.7471 30.8543 70.7471 31.2173 70.7377 31.2173C70.604 30.9547 70.3653 30.797 69.9356 30.797 69.2003 30.797 68.847 31.4654 68.847 32.0909 68.847 32.7211 69.1908 33.2892 69.8879 33.2892 70.1981 33.2892 70.5133 33.1651 70.7042 32.9121L70.7138 32.9121 70.7138 33.1508C70.7138 33.6673 70.4321 33.9872 69.9595 33.9872 69.63 33.9872 69.4247 33.925 69.0809 33.7675L69.0332 34.1828C69.4247 34.3166 69.6491 34.35 69.9069 34.35 70.7807 34.35 71.1626 33.925 71.1626 33.1842L71.1626 30.8543ZM70.0024 32.9264C69.5822 32.9264 69.3245 32.5254 69.3245 32.067 69.3245 31.6517 69.5489 31.16 70.0024 31.16 70.4798 31.16 70.7138 31.5944 70.7138 32.1005 70.7138 32.5541 70.4226 32.9264 70.0024 32.9264ZM65.9299 32.0717C65.9299 32.7689 66.436 33.3473 67.1712 33.3473 67.9018 33.3473 68.4078 32.7689 68.4078 32.0717 68.4078 31.3318 67.9113 30.797 67.1712 30.797 66.4265 30.797 65.9299 31.3318 65.9299 32.0717ZM66.4074 32.0717C66.4074 31.6088 66.689 31.16 67.1712 31.16 67.6487 31.16 67.9304 31.6088 67.9304 32.0717 67.9304 32.5063 67.6964 32.9837 67.1712 32.9837 66.6413 32.9837 66.4074 32.5063 66.4074 32.0717ZM64.8223 33.2892 65.2711 33.2892 65.2711 29.7086 64.8223 29.7086ZM61.6856 32.0717C61.6856 32.7689 62.1916 33.3473 62.9269 33.3473 63.6574 33.3473 64.1635 32.7689 64.1635 32.0717 64.1635 31.3318 63.6669 30.797 62.9269 30.797 62.1821 30.797 61.6856 31.3318 61.6856 32.0717ZM62.163 32.0717C62.163 31.6088 62.4446 31.16 62.9269 31.16 63.4043 31.16 63.686 31.6088 63.686 32.0717 63.686 32.5063 63.452 32.9837 62.9269 32.9837 62.3969 32.9837 62.163 32.5063 62.163 32.0717ZM58.9308 33.2892 59.3796 33.2892 59.3796 32.1625C59.3796 31.5706 59.6088 31.16 60.1196 31.16 60.5111 31.1837 60.6352 31.4607 60.6352 32.0288L60.6352 33.2892 61.084 33.2892 61.084 31.8427C61.084 31.1886 60.8024 30.797 60.1721 30.797 59.8331 30.797 59.5084 30.9641 59.3748 31.241L59.3653 31.241 59.3653 30.8543 58.9308 30.8543 58.9308 33.2892ZM56.0138 33.2892 56.4625 33.2892 56.4625 32.1625C56.4625 31.5706 56.6917 31.16 57.2025 31.16 57.594 31.1837 57.7181 31.4607 57.7181 32.0288L57.7181 33.2892 58.1669 33.2892 58.1669 31.8427C58.1669 31.1886 57.8852 30.797 57.2551 30.797 56.916 30.797 56.6344 30.945 56.472 31.2029L56.4625 31.2029 56.4625 29.7086 56.0138 29.7086 56.0138 33.2892ZM55.479 30.8926C55.3502 30.8401 55.1162 30.797 54.9347 30.797 54.19 30.797 53.6934 31.3318 53.6934 32.0717 53.6934 32.7689 54.1995 33.3473 54.9347 33.3473 55.097 33.3473 55.312 33.333 55.4981 33.2463L55.4648 32.8453C55.3262 32.936 55.1353 32.9837 54.9825 32.9837 54.4048 32.9837 54.1709 32.5063 54.1709 32.0717 54.1709 31.6088 54.4526 31.16 54.9539 31.16 55.097 31.16 55.2689 31.1933 55.4408 31.2649ZM53.1062 32.7402C52.9963 32.831 52.6526 32.9837 52.3566 32.9837 51.9316 32.9837 51.5545 32.6543 51.5545 32.1721L53.2923 32.1721C53.2923 31.389 53.0297 30.797 52.2182 30.797 51.5306 30.797 51.077 31.3079 51.077 32.0288 51.077 32.8214 51.4733 33.3473 52.3375 33.3473 52.7384 33.3473 52.9342 33.251 53.1062 33.189ZM51.5545 31.8379C51.5879 31.5228 51.7694 31.16 52.2086 31.16 52.5953 31.16 52.8149 31.4654 52.8149 31.8379ZM49.6448 33.2892 50.1221 33.2892 50.1221 30.3769 51.1582 30.3769 51.1582 29.9567 48.6086 29.9567 48.6086 30.3769 49.6448 30.3769ZM41.7004 33.2892 42.1492 33.2892 42.1492 31.2173 42.7937 31.2173 42.7937 30.8543 42.1492 30.8543 42.1492 30.5918C42.1492 30.2623 42.1968 30.014 42.5835 30.014 42.66 30.014 42.7459 30.0236 42.7985 30.0427L42.8175 29.6799C42.7268 29.6655 42.6314 29.6513 42.5168 29.6513 41.8531 29.6513 41.7004 30.038 41.7004 30.63L41.7004 30.8543 41.1274 30.8543 41.1274 31.2173 41.7004 31.2173ZM39.6395 30.8543 38.9949 30.8543 38.9949 30.1478 38.5461 30.2909 38.5461 30.8543 37.997 30.8543 37.997 31.2173 38.5461 31.2173 38.5461 32.64C38.5461 33.127 38.8325 33.3473 39.2957 33.3473 39.4389 33.3473 39.5774 33.3092 39.6776 33.2797L39.6776 32.8977C39.6108 32.9408 39.5105 32.9837 39.372 32.9837 39.1668 32.9837 38.9949 32.831 38.9949 32.5493L38.9949 31.2173 39.6395 31.2173ZM37.5817 30.8543 37.1329 30.8543 37.1329 31.9811C37.1329 32.5731 36.9038 32.9837 36.3929 32.9837 36.0014 32.9598 35.8773 32.6829 35.8773 32.1148L35.8773 30.8543 35.4285 30.8543 35.4285 32.301C35.4285 32.955 35.7101 33.3473 36.3404 33.3473 36.6794 33.3473 37.004 33.1795 37.1378 32.9025L37.1473 32.9025 37.1473 33.2892 37.5817 33.2892 37.5817 30.8543ZM34.8651 30.8543 34.2206 30.8543 34.2206 30.1478 33.7718 30.2909 33.7718 30.8543 33.2227 30.8543 33.2227 31.2173 33.7718 31.2173 33.7718 32.64C33.7718 33.127 34.0582 33.3473 34.5213 33.3473 34.6646 33.3473 34.803 33.3092 34.9033 33.2797L34.9033 32.8977C34.8365 32.9408 34.7362 32.9837 34.5977 32.9837 34.3925 32.9837 34.2206 32.831 34.2206 32.5493L34.2206 31.2173 34.8651 31.2173ZM32.3012 33.2892 32.75 33.2892 32.75 30.8543 32.3012 30.8543ZM32.7787 29.804 32.2726 29.804 32.2726 30.3101 32.7787 30.3101ZM31.6806 30.8543 31.036 30.8543 31.036 30.1478 30.5872 30.2909 30.5872 30.8543 30.0381 30.8543 30.0381 31.2173 30.5872 31.2173 30.5872 32.64C30.5872 33.127 30.8736 33.3473 31.3368 33.3473 31.4801 33.3473 31.6184 33.3092 31.7187 33.2797L31.7187 32.8977C31.652 32.9408 31.5516 32.9837 31.4131 32.9837 31.2079 32.9837 31.036 32.831 31.036 32.5493L31.036 31.2173 31.6806 31.2173ZM28.3241 33.2129C28.5294 33.3235 28.7634 33.3473 28.9925 33.3473 29.427 33.3473 29.8424 33.1078 29.8424 32.5875 29.8424 31.8092 28.7873 31.9524 28.7873 31.4559 28.7873 31.2554 28.9877 31.16 29.2169 31.16 29.322 31.16 29.5894 31.222 29.6896 31.2841L29.7278 30.8926C29.5511 30.8401 29.3793 30.797 29.1692 30.797 28.6869 30.797 28.3097 31.0406 28.3097 31.5467 28.3097 32.2294 29.3649 32.1911 29.3649 32.6351 29.3649 32.8977 29.1119 32.9837 28.9067 32.9837 28.7777 32.9837 28.5247 32.9264 28.348 32.8118ZM25.6124 33.2892 26.0612 33.2892 26.0612 32.1625C26.0612 31.5706 26.2903 31.16 26.8011 31.16 27.1926 31.1837 27.3167 31.4607 27.3167 32.0288L27.3167 33.2892 27.7655 33.2892 27.7655 31.8427C27.7655 31.1886 27.4839 30.797 26.8537 30.797 26.5147 30.797 26.19 30.9641 26.0564 31.241L26.0468 31.241 26.0468 30.8543 25.6124 30.8543 25.6124 33.2892ZM24.328 33.2892 24.8054 33.2892 24.8054 29.9567 24.328 29.9567ZM20.3723 32.7402C20.2624 32.831 19.9187 32.9837 19.6227 32.9837 19.1977 32.9837 18.8206 32.6543 18.8206 32.1721L20.5584 32.1721C20.5584 31.389 20.2958 30.797 19.4842 30.797 18.7967 30.797 18.3431 31.3079 18.3431 32.0288 18.3431 32.8214 18.7394 33.3473 19.6036 33.3473 20.0045 33.3473 20.2004 33.251 20.3723 33.189ZM18.8206 31.8379C18.854 31.5228 19.0354 31.16 19.4747 31.16 19.8614 31.16 20.081 31.4654 20.081 31.8379ZM15.5884 33.2892 16.0372 33.2892 16.0372 32.1625C16.0372 31.5706 16.2664 31.16 16.7772 31.16 17.1687 31.1837 17.2928 31.4607 17.2928 32.0288L17.2928 33.2892 17.7416 33.2892 17.7416 31.8427C17.7416 31.1886 17.4599 30.797 16.8297 30.797 16.4907 30.797 16.2091 30.945 16.0467 31.2029L16.0372 31.2029 16.0372 29.7086 15.5884 29.7086 15.5884 33.2892ZM14.8244 30.8543 14.3757 30.8543 14.3757 31.9811C14.3757 32.5731 14.1466 32.9837 13.6357 32.9837 13.2442 32.9598 13.1201 32.6829 13.1201 32.1148L13.1201 30.8543 12.6713 30.8543 12.6713 32.301C12.6713 32.955 12.953 33.3473 13.5833 33.3473 13.9222 33.3473 14.2468 33.1795 14.3806 32.9025L14.3901 32.9025 14.3901 33.2892 14.8244 33.2892 14.8244 30.8543ZM10.814 33.2892 11.2628 33.2892 11.2628 32.1816C11.2628 31.5706 11.5254 31.1886 11.9264 31.1886 12.0029 31.1886 12.0935 31.1981 12.1748 31.2315L12.1748 30.8306C12.0793 30.8113 12.0124 30.797 11.8787 30.797 11.6209 30.797 11.363 30.9785 11.2437 31.2315L11.2342 31.2315 11.2342 30.8543 10.814 30.8543 10.814 33.2892ZM8.75145 33.2129C8.9568 33.3235 9.19073 33.3473 9.41985 33.3473 9.85433 33.3473 10.2697 33.1078 10.2697 32.5875 10.2697 31.8092 9.21465 31.9524 9.21465 31.4559 9.21465 31.2554 9.41505 31.16 9.64425 31.16 9.74932 31.16 10.0167 31.222 10.1169 31.2841L10.1551 30.8926C9.97845 30.8401 9.80663 30.797 9.59648 30.797 9.1143 30.797 8.73713 31.0406 8.73713 31.5467 8.73713 32.2294 9.7923 32.1911 9.7923 32.6351 9.7923 32.8977 9.53925 32.9837 9.33398 32.9837 9.20498 32.9837 8.952 32.9264 8.77538 32.8118ZM7.68675 33.2892 8.13555 33.2892 8.13555 29.7086 7.68675 29.7086ZM5.77222 33.2892 6.221 33.2892 6.221 32.1816C6.221 31.5706 6.4836 31.1886 6.88459 31.1886 6.96103 31.1886 7.05173 31.1981 7.13293 31.2315L7.13293 30.8306C7.03745 30.8113 6.97055 30.797 6.83691 30.797 6.57907 30.797 6.32121 30.9785 6.20187 31.2315L6.19234 31.2315 6.19234 30.8543 5.77222 30.8543ZM3.25613 31.4081C3.43754 31.2554 3.70966 31.16 3.96265 31.16 4.41152 31.16 4.56428 31.3748 4.56428 31.7949 4.38763 31.7854 4.26353 31.7854 4.08686 31.7854 3.62371 31.7854 2.95525 31.9763 2.95525 32.5875 2.95525 33.1175 3.32294 33.3473 3.84815 33.3473 4.25865 33.3473 4.49737 33.1222 4.60244 32.9742L4.61196 32.9742 4.61196 33.2892 5.03207 33.2892C5.02256 33.2177 5.01305 33.0888 5.01305 32.8118L5.01305 31.8044C5.01305 31.1408 4.73131 30.797 4.03431 30.797 3.72392 30.797 3.45656 30.8926 3.23222 31.0262L3.25612 31.4082ZM4.56428 32.344C4.56428 32.7068 4.33034 32.9837 3.88631 32.9837 3.68101 32.9837 3.43278 32.8453 3.43278 32.5875 3.43278 32.1577 4.03432 32.1196 4.27779 32.1196 4.37325 32.1196 4.46871 32.129 4.56428 32.129L4.56428 32.344ZM0 33.2892 0.477434 33.2892 0.477434 31.6564 1.96224 33.2892 2.65934 33.2892 0.969218 31.5323 2.53523 29.9567 1.90019 29.9567 0.477434 31.4225 0.477434 29.9567 0 29.9567Z" transform="scale(1 1.01425)"/></g></svg>