<?xml version="1.0" encoding="UTF-8" standalone="no"?>
<svg
   width="74.198021"
   height="26.995596"
   xml:space="preserve"
   overflow="hidden"
   version="1.1"
   id="svg23216"
   sodipodi:docname="kit.svg"
   inkscape:version="1.2 (dc2aedaf03, 2022-05-15)"
   xmlns:inkscape="http://www.inkscape.org/namespaces/inkscape"
   xmlns:sodipodi="http://sodipodi.sourceforge.net/DTD/sodipodi-0.dtd"
   xmlns="http://www.w3.org/2000/svg"
   xmlns:svg="http://www.w3.org/2000/svg"><sodipodi:namedview
     id="namedview23218"
     pagecolor="#ffffff"
     bordercolor="#000000"
     borderopacity="0.25"
     inkscape:showpageshadow="2"
     inkscape:pageopacity="0.0"
     inkscape:pagecheckerboard="0"
     inkscape:deskcolor="#d1d1d1"
     showgrid="false"
     inkscape:zoom="18.4"
     inkscape:cx="25.298913"
     inkscape:cy="13.88587"
     inkscape:window-width="2560"
     inkscape:window-height="1351"
     inkscape:window-x="1431"
     inkscape:window-y="517"
     inkscape:window-maximized="1"
     inkscape:current-layer="svg23216" /><defs
     id="defs23200"><clipPath
       id="clip0"><rect
         x="0"
         y="0"
         width="75"
         height="28"
         id="rect23197" /></clipPath></defs><path
     d="M 74.4467,0.197598 H 56.8937 V 6.17605 h 5.1321 V 26.7866 h 7.2888 V 6.17605 h 5.1321 z M 55.1465,26.7593 H 47.8577 V 0.197598 h 7.2888 z m -8.5172,0 H 38.5216 L 28.8851,16.4131 V 10.4893 L 38.2213,0.170286 h 8.3534 L 35.819,13.5467 Z"
     fill-rule="evenodd"
     transform="matrix(1,0,0,1.01425,-0.248682,-0.17271258)"
     id="path23202"
     style="fill:#ffffff;fill-opacity:1" /><path
     d="M 6.36362,9.91598 C 4.97136,11.6085 3.77024,13.4648 2.84205,15.4577 L 27.138,26.7593 Z"
     fill="#32a189"
     fill-rule="evenodd"
     transform="matrix(1,0,0,1.01425,-0.248682,-0.17271258)"
     id="path23204"
     style="fill:#ffffff;fill-opacity:1" /><path
     d="M 27.138,26.7593 15.809,2.65451 c -2.0201,0.92812 -3.8764,2.07471 -5.5689,3.43965 z"
     fill="#32a189"
     fill-rule="evenodd"
     transform="matrix(1,0,0,1.01425,-0.248682,-0.17271258)"
     id="path23206"
     style="fill:#ffffff;fill-opacity:1" /><path
     d="M 27.138,26.7593 27.1652,0.197598 h -0.2183 c -2.1566,0 -4.2586,0.273018 -6.2787,0.764382 z"
     fill-rule="evenodd"
     transform="matrix(1,0,0,1.01425,-0.248682,-0.17271258)"
     id="path23208"
     style="fill:#ffffff;fill-opacity:1" /><path
     d="M 1.09494,20.2622 C 0.548979,22.337 0.275987,24.5208 0.248682,26.7593 H 27.138 Z"
     fill="#32a189"
     fill-rule="evenodd"
     transform="matrix(1,0,0,1.01425,-0.248682,-0.17271258)"
     id="path23210"
     style="fill:#ffffff;fill-opacity:1" /></svg>
