<svg width="76" height="50" xmlns="http://www.w3.org/2000/svg" xmlns:xlink="http://www.w3.org/1999/xlink" xml:space="preserve" overflow="hidden"><defs><clipPath id="clip0"><rect x="0" y="0" width="76" height="50"/></clipPath></defs><g clip-path="url(#clip0)"><path d="M0.137363 49.6703C0.0549451 49.478 0.0274725 41.9506 0.0549451 32.967L0.137363 16.6209 8.46154 16.5385 16.7582 16.4835 16.7582 8.24176 16.7582 0 25.9066 0C36.1813 0 37.4451 0.164835 40.8791 1.81319 43.7363 3.18681 46.7308 6.18132 48.1319 9.06593 50.1923 13.2967 50.1374 12.6374 50.1374 32.2802L50.1374 49.8626 41.7033 49.9451 33.2418 50 33.2418 33.3791 33.2418 16.7582 25.1374 16.7582 17.033 16.7582 16.978 33.3242 16.8956 49.8626 8.57143 49.9451C2.06044 50 0.21978 49.9451 0.137363 49.6703Z" fill="#03B585" transform="scale(1.00232 1)"/><path d="M71.1538 49.3681C68.1319 48.4615 66.3187 47.3626 64.011 45.0549 62.5 43.544 61.6484 42.4451 60.9066 40.9066 59.0934 37.1978 59.0659 37.033 59.0659 17.5275L59.0659 0 67.4451 0 75.8242 0 75.8242 25 75.8242 50 74.533 49.9725C73.7912 49.9725 72.2802 49.6978 71.1538 49.3681Z" fill="#03B585" transform="scale(1.00232 1)"/></g></svg>