<?xml version="1.0" encoding="UTF-8" standalone="no"?>
<svg
   width="75.477928"
   height="19.737988"
   xml:space="preserve"
   overflow="hidden"
   version="1.1"
   id="svg27895"
   sodipodi:docname="rwth.svg"
   inkscape:version="1.2 (dc2aedaf03, 2022-05-15)"
   xmlns:inkscape="http://www.inkscape.org/namespaces/inkscape"
   xmlns:sodipodi="http://sodipodi.sourceforge.net/DTD/sodipodi-0.dtd"
   xmlns="http://www.w3.org/2000/svg"
   xmlns:svg="http://www.w3.org/2000/svg"><sodipodi:namedview
     id="namedview27897"
     pagecolor="#ffffff"
     bordercolor="#000000"
     borderopacity="0.25"
     inkscape:showpageshadow="2"
     inkscape:pageopacity="0.0"
     inkscape:pagecheckerboard="0"
     inkscape:deskcolor="#d1d1d1"
     showgrid="false"
     inkscape:zoom="18.157895"
     inkscape:cx="28.5"
     inkscape:cy="0.35797101"
     inkscape:window-width="2560"
     inkscape:window-height="1351"
     inkscape:window-x="1431"
     inkscape:window-y="517"
     inkscape:window-maximized="1"
     inkscape:current-layer="svg27895" /><defs
     id="defs27885"><clipPath
       id="clip0"><rect
         x="0"
         y="0"
         width="76"
         height="20"
         id="rect27882" /></clipPath></defs><path
     d="M 3.1953624,9.444288 H 3.0728416 0 V 8.395308 0.202857 0.134082 h 3.0663117 0.00631 2.1669473 c 1.421053,-2.04e-4 2.6463224,0.891426 3.0461113,2.073676 0.3705229,1.0951 0.0539,2.28551 -0.7816798,3.13224 0.1111528,0.29204 0.2193655,0.52 0.3225235,0.78225 0.2317857,0.51836 0.4444253,1.03673 0.676211,1.54877 l 0.7602126,1.77327 h -0.01937 -3.2208403 c 0,0.00142 -0.025893,-0.07511 -0.051579,-0.10613 C 5.8425204,9.063468 5.7265193,8.769798 5.5976852,8.495098 L 4.8183162,6.703058 C 4.5092549,5.978568 4.1999975,5.294288 3.8907298,4.569798 c 0.3861101,-0.01 0.6745296,0.06 1.0471569,-0.10572 0.2614746,-0.1251 0.6583234,-0.4353 0.6684226,-1.03 -0.010099,-0.2951 -0.094307,-0.51837 -0.295362,-0.75041 -0.2019009,-0.21591 -0.4938999,-0.37591 -0.8741093,-0.38122 0,0 -1.2421049,-6.1e-4 -1.241259,0 v 7.14184 z M 35.041537,0.135715 H 33.374813 V 3.494898 H 31.292466 31.137935 V 0.716531 0.135715 h -2.305891 -8.116265 -2.241623 -0.264085 v 4.183673 c 0.02569,0.19347 0.07077,0.38694 0.09016,0.58694 L 17.437108,3.001838 C 17.050575,2.127548 16.683333,1.253268 16.296903,0.372857 16.264614,0.291633 16.241713,0.237143 16.200038,0.135715 h -3.297962 c 0,0.455714 0.0066,0.961433 0,1.404893 v 2.77878 c 0.03229,0.17469 0.09037,0.40571 0.116259,0.58694 l -0.01939,-0.03755 C 12.290349,3.301428 11.607547,1.727958 10.931346,0.135715 H 7.6410492 c 0.064422,0.187346 0.1673739,0.355918 0.2320024,0.543265 l 0.7267378,1.649998 0.5071556,1.1551 0.032216,0.07021 c 0.2332609,0.53857 0.417893,0.9604 0.6442114,1.47836 0.6524026,1.49551 1.2802216,2.93939 1.9341406,4.41306 h 3.297858 v -4.8704 c 0.08356,0.27469 0.148238,0.55571 0.212609,0.83673 0.560457,1.33612 1.166098,2.69123 1.73914,4.03367 h 3.291669 v -3.77775 -3.37796 h 2.254106 v 3.14694 0.1498 3.85897 h 3.169632 0.02589 v -3.19081 -3.06592 -0.67429 -0.22469 h 2.234505 v 7.15571 h 1.410995 c 0.579748,-0.00612 1.204886,0 1.784428,0 v -3.79632 h 0.02589 1.913065 0.297921 v 3.79632 h 0.700339 2.49498 V 0.135715 h -1.528802 z"
     fill="#00549f"
     fill-rule="evenodd"
     id="path27887"
     style="stroke-width:1.01567;fill:#ffffff;fill-opacity:1" /><path
     d="M 47.925765,0.181837 H 45.542402 L 43.54743,7.488368 41.552044,0.181837 h -2.383775 l -2.530568,9.268771 h 2.008898 l 0.44162,-1.9602 h 2.544495 l 0.441826,1.9602 h 2.945676 l 0.441723,-1.9602 h 2.544598 l 0.441929,1.9602 h 2.00859 z m -8.502798,5.776731 0.924192,-4.16694 h 0.02682 l 0.92378,4.16694 z m 6.373926,0 0.924193,-4.16694 h 0.02672 l 0.923574,4.16694 z m 8.475977,-2.64816 c 0,-1.35021 -0.281209,-1.93429 -1.151759,-1.93429 -0.977732,0 -1.205504,0.94776 -1.205504,3.5698 0,2.80408 0.401903,3.3102 1.232222,3.3102 0.696626,0 1.205092,-0.3504 1.205092,-2.34959 h 1.928642 c 0,1.99919 -0.509085,3.72572 -3.039654,3.72572 -2.89286,0 -3.254119,-1.99919 -3.254119,-4.81592 C 49.98779,1.999178 50.349049,0 53.241909,0 c 2.758548,0 2.958984,1.960198 2.958984,3.310408 z m 2.302177,-3.128367 h 1.927714 v 3.543667 h 2.250185 V 0.182041 h 1.928126 v 9.268567 h -1.928126 v -4.1151 h -2.250185 v 4.1151 h -1.927714 z m 11.984174,-2.04e-4 v 1.531631 h -3.414736 v 2.18082 h 3.213475 v 1.53204 h -3.213475 v 2.49224 h 3.548636 v 1.53184 H 63.215637 V 0.181837 Z m 2.786092,0 2.329926,6.347751 h 0.02651 V 0.181837 h 1.767819 v 9.268571 h -2.196441 l -2.356231,-6.49061 h -0.02754 v 6.49061 H 69.121948 V 0.181837 Z"
     fill="#8ebae5"
     fill-rule="evenodd"
     id="path27889"
     style="stroke-width:1.01567;fill:#ffffff;fill-opacity:1" /><path
     d="m 50.493264,11.663488 h 0.910988 c 0.870344,0 1.338785,0.4283 1.338785,1.2849 0,1 -0.52198,1.3896 -1.446378,1.3896 h -0.803395 z m -1.92792,7.8928 h 1.92792 v -3.9206 h 1.031374 c 0.77647,0 1.111011,0.4412 1.138348,1.168 l 0.05323,1.7786 c 0.01331,0.3636 0.05333,0.7142 0.241286,0.974 h 2.08864 v -0.0781 c -0.361259,-0.1817 -0.415107,-0.688 -0.428621,-1.6617 -0.02651,-1.96 -0.227154,-2.6608 -1.539324,-2.8302 v -0.0257 c 1.084191,-0.221 1.593172,-1.0516 1.593172,-2.2849 0,-1.5834 -0.964114,-2.3883 -2.544185,-2.3883 h -3.562046 v 9.2689 z m -28.371648,-9.2689 v 6.4647 c 0,2.4793 1.486713,2.9859 3.053271,2.9859 1.56697,0 3.05327,-0.6235 3.05327,-2.9859 v -6.4647 h -1.928435 v 6.4647 c 0,0.9218 -0.227567,1.6097 -1.124835,1.6097 -0.897268,0 -1.124835,-0.6879 -1.124835,-1.6097 v -6.4647 z m 6.519792,0 v 9.2689 h 1.767613 v -6.491 h 0.02672 l 2.357057,6.491 h 2.196233 v -9.2689 h -1.767818 v 6.3477 h -0.02672 l -2.329927,-6.3477 z m 8.771628,0 h -1.928229 v 9.2689 h 1.928229 z m 0.132352,0 2.196234,9.2689 h 2.477236 l 2.196646,-9.2689 h -1.995385 l -1.420176,6.8542 h -0.03982 l -1.352195,-6.8542 z m 7.041255,0 v 9.2689 h 5.477484 v -1.5322 h -3.549254 v -2.4923 h 3.214094 v -1.5318 h -3.214094 v -2.181 h 3.415458 v -1.5316 z m 12.17316,6.3736 v 0.3766 c 0,1.7138 0.857037,2.7004 3.039551,2.7004 2.089465,0 3.320862,-0.8831 3.320862,-2.8431 0,-1.1294 -0.374773,-1.8431 -1.820842,-2.4537 l -1.486816,-0.6226 c -0.817011,-0.338 -0.990936,-0.6882 -0.990936,-1.2592 0,-0.5453 0.228083,-1.0776 1.098323,-1.0776 0.736445,0 1.044269,0.5066 1.044269,1.3762 h 1.847972 v -0.2598 c 0,-1.7786 -1.244807,-2.4923 -2.959809,-2.4923 -1.820429,0 -2.958984,0.9219 -2.958984,2.7262 0,1.5446 0.789984,2.2326 2.503851,2.8036 1.272247,0.4284 1.71428,0.7398 1.71428,1.5841 0,0.7784 -0.562521,1.1423 -1.151553,1.1423 -1.017654,0 -1.272248,-0.5582 -1.272248,-1.4284 v -0.2727 z m 8.540967,-6.3736 h -1.928539 v 9.2689 h 1.928539 z m 10.01561,0 -1.338681,3.5828 h -0.02672 l -1.258837,-3.5828 h -7.138431 v 1.5316 h 2.089259 v 7.7373 h 1.92792 v -7.7373 h 1.626802 l 1.80248,4.0894 v 3.6479 h 1.928435 v -3.6479 l 2.477236,-5.621 z"
     fill="#8ebae5"
     fill-rule="evenodd"
     id="path27891"
     style="stroke-width:1.01567;fill:#ffffff;fill-opacity:1" /></svg>
