<svg width="64" height="11" xmlns="http://www.w3.org/2000/svg" xmlns:xlink="http://www.w3.org/1999/xlink" xml:space="preserve" overflow="hidden"><defs><clipPath id="clip0"><rect x="0" y="0" width="64" height="11"/></clipPath></defs><g clip-path="url(#clip0)"><path d="M49.9565 10.4805 50.9595 10.4805 50.9595 8.37799 51.4964 8.37799C51.9001 8.37799 52.0741 8.61423 52.0891 9.0051L52.117 9.95866C52.1235 10.1541 52.145 10.3409 52.2416 10.4805L53.3283 10.4805 53.3283 10.4397C53.1415 10.3409 53.1136 10.0703 53.105 9.54846 53.0921 8.49611 52.9868 8.12027 52.3039 8.03007L52.3039 8.01718C52.8687 7.89906 53.1329 7.45235 53.1329 6.79087 53.1329 5.9404 52.6325 5.50872 51.8099 5.50872L49.9587 5.50872 49.9587 10.4805ZM50.9595 6.24752 51.4319 6.24752C51.8851 6.24752 52.1278 6.47732 52.1278 6.93691 52.1278 7.47383 51.8572 7.68215 51.3761 7.68215L50.9573 7.68215 50.9573 6.24752Z" fill="#80A9CF" transform="matrix(1 0 0 1.02437 0 0.0099)"/><path d="M35.1721 5.50872 35.1721 8.97718C35.1721 10.3066 35.9452 10.5793 36.7592 10.5793 37.5732 10.5793 38.3463 10.2443 38.3463 8.97718L38.3463 5.50872 37.3434 5.50872 37.3434 8.97718C37.3434 9.47114 37.2252 9.84054 36.7592 9.84054 36.2932 9.84054 36.175 9.47114 36.175 8.97718L36.175 5.50872 35.1721 5.50872Z" fill="#80A9CF" transform="matrix(1 0 0 1.02437 0 0.0099)"/><path d="M38.5933 5.50872 38.5933 10.4805 39.5125 10.4805 39.5125 6.99919 39.5254 6.99919 40.7517 10.4805 41.8942 10.4805 41.8942 5.50872 40.975 5.50872 40.975 8.9149 40.96 8.9149 39.7487 5.50872Z" fill="#80A9CF" transform="matrix(1 0 0 1.02437 0 0.0099)"/><path d="M42.1519 5.50872 43.1549 5.50872 43.1549 10.4805 42.1519 10.4805Z" fill="#80A9CF" transform="matrix(1 0 0 1.02437 0 0.0099)"/><path d="M43.2236 5.50872 44.364 10.4805 45.6526 10.4805 46.7952 5.50872 45.7579 5.50872 45.0191 9.1855 44.9997 9.1855 44.2953 5.50872Z" fill="#80A9CF" transform="matrix(1 0 0 1.02437 0 0.0099)"/><path d="M46.8854 5.50872 46.8854 10.4805 49.7332 10.4805 49.7332 9.66013 47.8883 9.66013 47.8883 8.32215 49.5592 8.32215 49.5592 7.50175 47.8883 7.50175 47.8883 6.33127 49.6644 6.33127 49.6644 5.50872Z" fill="#80A9CF" transform="matrix(1 0 0 1.02437 0 0.0099)"/><path d="M53.2166 8.92778 53.2166 9.12966C53.2166 10.0489 53.6612 10.5793 54.7973 10.5793 55.884 10.5793 56.524 10.1047 56.524 9.0545 56.524 8.44886 56.3286 8.06658 55.5769 7.73799L54.8038 7.40295C54.3785 7.22255 54.2883 7.03356 54.2883 6.72644 54.2883 6.43436 54.4064 6.14872 54.8596 6.14872 55.2419 6.14872 55.403 6.42148 55.403 6.88752L56.363 6.88752 56.363 6.74792C56.363 5.79436 55.7144 5.41208 54.8231 5.41208 53.876 5.41208 53.2832 5.90604 53.2832 6.87463 53.2832 7.70362 53.6934 8.07302 54.5847 8.37799 55.2462 8.60779 55.476 8.7753 55.476 9.22846 55.476 9.6451 55.1839 9.84054 54.8768 9.84054 54.3463 9.84054 54.2153 9.54201 54.2153 9.07383L54.2153 8.92778 53.2166 8.92778Z" fill="#80A9CF" transform="matrix(1 0 0 1.02437 0 0.0099)"/><path d="M56.655 5.50872 57.658 5.50872 57.658 10.4805 56.655 10.4805Z" fill="#80A9CF" transform="matrix(1 0 0 1.02437 0 0.0099)"/><path d="M62.866 5.50872 62.1702 7.43087 62.1552 7.43087 61.5001 5.50872 57.789 5.50872 57.789 6.33127 58.8757 6.33127 58.8757 10.4805 59.8787 10.4805 59.8787 6.33127 60.7227 6.33127 61.6612 8.52403 61.6612 10.4805 62.6642 10.4805 62.6642 8.52403 63.9528 5.50872Z" fill="#80A9CF" transform="matrix(1 0 0 1.02437 0 0.0099)"/><path d="M26.3624 5.05772 24.7001 5.05772 24.7001 0.0622819 27.4255 0.0622819C28.1643 0.0622819 28.8021 0.541208 29.0105 1.17477 29.2038 1.76322 29.0384 2.40107 28.6046 2.85423 28.6626 3.01101 28.7184 3.13342 28.7721 3.27302 28.8923 3.55007 29.004 3.82926 29.1243 4.10416L29.5195 5.05557 27.8336 5.05557C27.8336 5.05557 27.8207 5.01477 27.8078 4.99758 27.7412 4.85154 27.6811 4.69262 27.6124 4.54658L27.2064 3.58443C27.0454 3.1957 26.8843 2.82846 26.7232 2.43973 26.923 2.43329 27.0733 2.47195 27.2666 2.38175 27.4019 2.31517 27.6102 2.14765 27.6145 1.8298 27.6102 1.67302 27.5651 1.55275 27.4599 1.42819 27.3546 1.31221 27.2021 1.22631 27.0046 1.22416 27.0046 1.22416 26.3581 1.22416 26.3581 1.22416L26.3581 5.05772Z" fill="#00549F" transform="matrix(1 0 0 1.02437 0 0.0099)"/><path d="M43.7176 0.0622819 43.7176 5.05772 42.0553 5.05772 42.0553 3.02174 40.8913 3.02174 40.8913 5.05772C40.5906 5.05772 40.2642 5.05342 39.9635 5.05772L39.229 5.05772 39.229 1.21772 38.0671 1.21772 38.0671 5.05557 36.4048 5.05557 36.4048 1.21772 35.2322 1.21772 35.2322 5.05557 33.5205 5.05557C33.222 4.33611 32.9085 3.60805 32.6164 2.89074 32.582 2.7404 32.5498 2.59007 32.5047 2.44188L32.5047 5.05557 30.7887 5.05557C30.4494 4.26523 30.123 3.48993 29.7836 2.68886 29.6655 2.41181 29.5689 2.18416 29.4486 1.89638L29.4314 1.85772 29.1672 1.23919 28.7893 0.354362C28.757 0.253423 28.7034 0.163221 28.669 0.0622819L30.3807 0.0622819C30.7329 0.917047 31.0872 1.76107 31.4566 2.60081L31.4674 2.62013C31.4545 2.52349 31.4244 2.39893 31.4072 2.30443L31.4072 0.816107C31.4094 0.577718 31.4072 0.307114 31.4072 0.0622819L33.1232 0.0622819C33.1447 0.115973 33.1576 0.14604 33.1726 0.188993 33.3745 0.661476 33.5656 1.12966 33.7654 1.6L34.2142 2.62228C34.2035 2.5149 34.1799 2.41181 34.167 2.30658L34.167 0.0622819 40.8891 0.0622819 40.8891 1.86416 42.0532 1.86416 42.0532 0.0622819 42.9208 0.0622819 43.7176 0.0622819Z" fill="#00549F" transform="matrix(1 0 0 1.02437 0 0.0099)"/><path d="M48.5391 3.17423 49.0223 0.927785 49.0352 0.927785 49.5184 3.17423M45.2081 3.17423 45.6913 0.927785 45.7042 0.927785 46.1874 3.17423 45.2081 3.17423ZM49.6515 0.0622819 48.4059 0.0622819 47.3643 3.99893 46.3227 0.0622819 45.077 0.0622819 43.7541 5.05772 44.8043 5.05772 45.0341 4.00107 46.3635 4.00107 46.5933 5.05772 48.1332 5.05772 48.3651 4.00107 49.6945 4.00107 49.9243 5.05772 50.9745 5.05772 49.6515 0.0622819Z" fill="#80A9CF" transform="matrix(1 0 0 1.02437 0 0.0099)"/><path d="M53.9726 1.76752C53.9726 1.04376 53.8674-0.0085906 52.4328-0.0085906 50.9294-0.0085906 50.7404 1.06309 50.7404 2.57503 50.7404 4.08698 50.9294 5.15866 52.4328 5.15866 53.7493 5.15866 54.0134 4.23302 54.0134 3.15919L53.0105 3.15919C53.0105 4.23302 52.7463 4.41987 52.3834 4.41987 51.9517 4.41987 51.7434 4.14711 51.7434 2.64376 51.7434 1.23705 51.8615 0.728054 52.3705 0.728054 52.8236 0.728054 52.9697 1.04161 52.9697 1.76537L53.9726 1.76537Z" fill="#80A9CF" transform="matrix(1 0 0 1.02437 0 0.0099)"/><path d="M54.2132 5.05772 55.2204 5.05772 55.2204 2.83919 56.3952 2.83919 56.3952 5.05772 57.4024 5.05772 57.4024 0.0622819 56.3952 0.0622819 56.3952 1.97154 55.2204 1.97154 55.2204 0.0622819 54.2132 0.0622819Z" fill="#80A9CF" transform="matrix(1 0 0 1.02437 0 0.0099)"/><path d="M57.6215 0.0622819 57.6215 5.05772 60.4821 5.05772 60.4821 4.23087 58.6287 4.23087 58.6287 2.88859 60.3082 2.88859 60.3082 2.06175 58.6287 2.06175 58.6287 0.88698 60.4134 0.88698 60.4134 0.0622819Z" fill="#80A9CF" transform="matrix(1 0 0 1.02437 0 0.0099)"/><path d="M60.6325 0.0622819 60.6325 5.05772 61.556 5.05772 61.556 1.55919 61.5689 1.55919 62.8016 5.05772 63.9485 5.05772 63.9485 0.0622819 63.025 0.0622819 63.025 3.48349 63.0099 3.48349 61.7944 0.0622819Z" fill="#80A9CF" transform="matrix(1 0 0 1.02437 0 0.0099)"/><path d="M21.2617 0.0558389 21.5667 0.0558389 21.5667 10.5235 21.2617 10.5235Z" fill="#00549F" transform="matrix(1 0 0 1.02437 0 0.0099)"/><path d="M14.1487 4.14711C14.2174 4.14711 14.284 4.15141 14.3506 4.15356 14.007 4.17074 13.7256 4.25235 13.5109 4.40913 13.2725 4.58524 13.1329 4.87732 13.0942 5.28752L12.7721 5.28752C12.8107 4.87732 12.9503 4.58524 13.1887 4.40913 13.4293 4.23302 13.7493 4.14711 14.1487 4.14711ZM13.8137 9.34013C13.8717 9.34013 13.9211 9.33584 13.9748 9.33369 13.8652 9.32725 13.7579 9.31651 13.6526 9.29718 13.4958 9.26711 13.3605 9.21557 13.2424 9.14255 13.1264 9.06953 13.0319 8.97289 12.9654 8.85047 12.8966 8.72805 12.8623 8.56913 12.8623 8.37584L12.9654 7.90121C13.0341 7.7702 13.1243 7.66282 13.236 7.57906 13.3477 7.49745 13.4787 7.43087 13.6247 7.38148 13.7707 7.33208 13.9275 7.29342 14.0929 7.26336 14.2497 7.23544 14.4129 7.20966 14.5826 7.19034 14.7522 7.17101 14.9133 7.14738 15.0658 7.11732 15.2161 7.08725 15.3579 7.05074 15.4889 7.00779 15.491 7.00779 15.4932 7.00564 15.4975 7.00349L15.4975 6.82309C15.4094 6.9004 15.2999 6.96268 15.1689 7.00564 15.0379 7.04859 14.8961 7.0851 14.7436 7.11517 14.5933 7.14524 14.4322 7.16886 14.2604 7.18819 14.0886 7.20752 13.9254 7.23329 13.7707 7.26121 13.6054 7.29128 13.4486 7.32993 13.3026 7.37933 13.1565 7.42872 13.0277 7.49315 12.9138 7.57691 12.8021 7.66067 12.7119 7.76805 12.6432 7.89906 12.5745 8.03007 12.5401 8.18899 12.5401 8.37369 12.5401 8.56913 12.5745 8.72805 12.6432 8.84832 12.7119 8.97074 12.8043 9.06738 12.9203 9.1404 13.0362 9.21342 13.1737 9.26497 13.3305 9.29503 13.4872 9.3251 13.6483 9.34013 13.8137 9.34013ZM17.9522 9.82121C17.9136 9.5098 17.8942 9.18336 17.8942 8.84188L17.8942 4.90738C17.8942 4.45852 17.7911 4.09342 17.5871 3.80993 17.3831 3.52644 17.1189 3.30738 16.7968 3.15275 16.4746 2.99597 16.1181 2.89074 15.7294 2.83919 15.3385 2.7855 14.9541 2.75973 14.574 2.75973 14.5095 2.75973 14.4472 2.76188 14.385 2.76403 14.7221 2.77047 15.0636 2.79195 15.4094 2.83919 15.8003 2.89289 16.1546 2.99812 16.4768 3.15275 16.7989 3.30953 17.0631 3.52859 17.2671 3.80993 17.4711 4.09342 17.5742 4.45852 17.5742 4.90738L17.5742 8.84188C17.5742 9.18336 17.5936 9.5098 17.6322 9.82121 17.6709 10.1326 17.7396 10.3667 17.8362 10.5235L18.1584 10.5235C18.0596 10.3689 17.9909 10.1348 17.9522 9.82121ZM15.5834 9.79329C15.2526 10.1348 14.8617 10.3753 14.4129 10.517 14.0113 10.6438 13.6032 10.7103 13.1866 10.7232 13.2446 10.7254 13.3004 10.7297 13.3584 10.7297 13.8266 10.7297 14.284 10.6588 14.7329 10.517 15.0593 10.414 15.3536 10.2572 15.6156 10.0489 15.6048 9.9651 15.5898 9.87919 15.5834 9.79329Z" fill="#646567" transform="matrix(1 0 0 1.02437 0 0.0099)"/><path d="M5.07919 5.68268 5.07919 0.0794631 5.40134 0.0794631 5.40134 5.34765 5.07919 5.68268ZM5.88456 7.14524 5.07919 7.92054 5.07919 10.5235 5.40134 10.5235 5.40134 7.92054 6.00483 7.34067 5.88456 7.14524ZM7.62631 5.74067 10.4784 2.96161 10.1562 2.96161 7.30416 5.74067 10.4784 10.5235 10.8005 10.5235 7.62631 5.74067Z" fill="#646567" transform="matrix(1 0 0 1.02437 0 0.0099)"/><path d="M2.12403 2.96161 2.44617 2.96161 2.44617 10.5235 2.12403 10.5235 2.12403 2.96161ZM2.12403 0.0794631 2.12403 1.79114 2.44617 1.79114 2.44617 0.0794631 2.12403 0.0794631Z" fill="#646567" transform="matrix(1 0 0 1.02437 0 0.0099)"/><path d="M2.12403 1.79114 0.0472483 1.79114 0.0472483 0.0794631 2.12403 0.0794631 2.12403 1.79114ZM0.0472483 2.96161 2.12403 2.96161 2.12403 10.5235 0.0472483 10.5235 0.0472483 2.96161Z" fill="#FFED00" transform="matrix(1 0 0 1.02437 0 0.0099)"/><path d="M3.00242 0.0794631 5.07919 0.0794631 5.07919 5.68268 7.69718 2.96161 10.1541 2.96161 7.30416 5.74067 10.4784 10.5235 7.96134 10.5235 5.88456 7.14524 5.07919 7.92054 5.07919 10.5235 3.00242 10.5235 3.00242 0.0794631Z" fill="#FFED00" transform="matrix(1 0 0 1.02437 0 0.0099)"/><path d="M10.6974 5.28752C10.7275 4.8 10.8478 4.39409 11.0625 4.07409 11.2773 3.75195 11.5501 3.49423 11.8808 3.29879 12.2115 3.10336 12.5831 2.96591 12.9933 2.88215 13.4035 2.80054 13.8223 2.75758 14.2518 2.75758 14.6319 2.75758 15.0164 2.78336 15.4072 2.83705 15.7981 2.89074 16.1525 2.99597 16.4746 3.1506 16.7968 3.30738 17.0609 3.52644 17.265 3.80779 17.469 4.09128 17.5721 4.45638 17.5721 4.90523L17.5721 8.83973C17.5721 9.18121 17.5914 9.50765 17.6301 9.81906 17.6687 10.1305 17.7374 10.3646 17.8341 10.5213L15.7272 10.5213C15.6886 10.4032 15.6564 10.2851 15.6328 10.1627 15.6091 10.0403 15.5919 9.9157 15.5812 9.78899 15.2505 10.1305 14.8596 10.371 14.4107 10.5128 13.9619 10.6545 13.5044 10.7254 13.0362 10.7254 12.6754 10.7254 12.3383 10.6781 12.0268 10.5858 11.7154 10.4934 11.4427 10.3538 11.2086 10.1691 10.9745 9.98443 10.7919 9.75034 10.6609 9.46685 10.5299 9.18336 10.4634 8.84832 10.4634 8.45745 10.4634 8.02792 10.5364 7.67356 10.6824 7.39651 10.8285 7.11732 11.0239 6.89611 11.2687 6.73074 11.5114 6.56537 11.7885 6.44081 12.0956 6.35705 12.4027 6.27329 12.7184 6.20886 13.0384 6.15946 13.3605 6.11007 13.6677 6.07141 13.9597 6.04349 14.2518 6.01342 14.5138 5.97047 14.7415 5.91248 14.9713 5.8545 15.1538 5.76859 15.2891 5.65691 15.4266 5.54523 15.4932 5.38201 15.4932 5.16725 15.4932 4.94389 15.4566 4.76564 15.3836 4.63463 15.3106 4.50362 15.2118 4.40054 15.0915 4.32752 14.9691 4.2545 14.8274 4.2051 14.6685 4.18148 14.5074 4.15785 14.3356 4.14497 14.1487 4.14497 13.7493 4.14497 13.4293 4.23302 13.1909 4.40913 12.9525 4.58524 12.8129 4.87732 12.7742 5.28752L10.6974 5.28752ZM15.4953 6.82309C15.4072 6.9004 15.2977 6.96268 15.1667 7.00564 15.0357 7.04859 14.894 7.0851 14.7415 7.11517 14.5911 7.14524 14.4301 7.16886 14.2583 7.18819 14.0864 7.20752 13.9232 7.23329 13.7686 7.26121 13.6032 7.29128 13.4464 7.32993 13.3004 7.37933 13.1544 7.42872 13.0255 7.49315 12.9117 7.57691 12.8 7.66067 12.7098 7.76805 12.6411 7.89906 12.5723 8.03007 12.538 8.18899 12.538 8.37369 12.538 8.56913 12.5723 8.72805 12.6411 8.84832 12.7098 8.97074 12.8021 9.06738 12.9181 9.1404 13.0341 9.21342 13.1715 9.26497 13.3283 9.29503 13.4851 9.3251 13.6462 9.33799 13.8115 9.33799 14.2217 9.33799 14.5374 9.26926 14.763 9.13396 14.9863 8.99651 15.1538 8.83329 15.2612 8.6443 15.3686 8.45315 15.4352 8.26201 15.4588 8.06658 15.4824 7.87114 15.4953 7.71651 15.4953 7.59839L15.4953 6.82309Z" fill="#FFED00" transform="matrix(1 0 0 1.02437 0 0.0099)"/></g></svg>