<svg width="64" height="13" xmlns="http://www.w3.org/2000/svg" xmlns:xlink="http://www.w3.org/1999/xlink" xml:space="preserve" overflow="hidden"><defs><clipPath id="clip0"><rect x="0" y="0" width="64" height="13"/></clipPath></defs><g clip-path="url(#clip0)"><path d="M12.9323 3.68877 12.9323 6.7063C12.9323 7.50687 12.766 8.27665 12.4581 9.01563 12.1994 9.64993 11.8423 10.2103 11.4112 10.7276 11.2634 10.9062 11.1156 11.091 10.9432 11.2449 10.2411 11.8854 9.45287 12.3965 8.54145 12.6798 8.19659 12.7906 7.84557 12.883 7.48224 12.9384 7.21743 12.9815 6.95879 12.9754 6.70014 12.9877 6.52771 12.9938 6.34912 12.9877 6.17669 12.9877 5.53624 12.9938 4.92042 12.8522 4.31075 12.649 3.71956 12.4458 3.16532 12.1625 2.67267 11.793 2.00758 11.2942 1.42871 10.6968 0.985315 9.98247 0.677404 9.48982 0.431075 8.96637 0.270962 8.40597 0.160114 8.03032 0.0800568 7.64235 0.0492658 7.24207 0.0246329 6.92184-0.0184747 6.59545 0.00615822 6.27523 0.0492658 5.81336 0.0985315 5.35149 0.221696 4.89578 0.363335 4.37234 0.572714 3.86736 0.843676 3.38702 1.06537 2.98674 1.31786 2.59877 1.64424 2.27238 1.82283 2.08764 2.00758 1.90905 2.18617 1.73046 2.44481 1.4595 2.75888 1.25628 3.07295 1.05921 3.56561 0.751303 4.08906 0.511132 4.65561 0.363335 4.91426 0.295595 5.16675 0.227854 5.43155 0.178588 5.67172 0.135481 5.91805 0.160114 6.15206 0.117006 6.34297 0.0800568 6.52771 0.0738986 6.71862 0.0677404 6.81715 0.0615822 6.84178 0.10469 6.83562 0.190905 6.82946 0.264803 6.83562 0.332544 6.83562 0.406442L6.83562 5.33302C6.83562 5.40692 6.84178 5.47466 6.83562 5.54856 6.82946 5.64093 6.86641 5.68404 6.95879 5.66556L6.98958 5.66556C7.32212 5.6594 7.2667 5.72099 7.2667 5.40076 7.2667 3.72572 7.2667 2.05685 7.2667 0.38181 7.2667 0.307911 7.27286 0.240171 7.2667 0.166272 7.26054 0.0800568 7.30365 0.0677404 7.37755 0.0677404 7.65467 0.0738986 7.93179 0.0677404 8.20891 0.0677404 8.32591 0.0677404 8.36286 0.117006 8.36902 0.234012 8.37518 0.295595 8.36902 0.357177 8.36902 0.418759L8.36902 5.34533C8.36902 5.42539 8.36286 5.51161 8.37518 5.59166 8.38134 5.6163 8.41829 5.6594 8.44292 5.6594 8.5045 5.67172 8.56608 5.6594 8.62767 5.66556 8.7262 5.67788 8.75699 5.63477 8.74467 5.5424 8.73851 5.4685 8.74467 5.40076 8.74467 5.32686 8.74467 3.69493 8.74467 2.063 8.74467 0.431075 8.74467 0.357177 8.74467 0.289436 8.74467 0.215538 8.74467 0.117006 8.80009 0.0677404 8.89247 0.0677404L8.95405 0.0677404C9.24964 0.0738986 9.53908 0.0862151 9.83468 0.0923733 9.84083 0.369493 9.84083 0.646613 9.84083 0.917575L9.84083 5.35149C9.84083 5.43155 9.84083 5.51776 9.84699 5.59782 9.84699 5.62245 9.87778 5.6594 9.89626 5.6594 9.98863 5.66556 10.0872 5.67788 10.1734 5.6594 10.2165 5.64709 10.2596 5.57935 10.2719 5.52392 10.2904 5.45618 10.2781 5.38228 10.2781 5.30838 10.2781 3.66414 10.2781 2.02605 10.2781 0.38181 10.2781 0.301753 10.2719 0.215538 10.2842 0.135481 10.2904 0.110848 10.3273 0.0677404 10.352 0.0677404 10.6476 0.0615822 10.9493 0.0677404 11.2449 0.0615822 11.3126 0.0615822 11.3311 0.0985315 11.325 0.160114L11.325 0.375651 11.325 5.30223 11.325 5.48697C11.3311 5.62861 11.3681 5.65324 11.5097 5.66556L11.5713 5.66556C11.7499 5.66556 11.756 5.69635 11.756 5.48697 11.756 3.79346 11.756 2.09995 11.756 0.406442 11.756 0.332544 11.7622 0.264803 11.756 0.190905 11.7499 0.10469 11.7684 0.0615822 11.873 0.0677404 12.1933 0.0738986 12.5073 0.0738986 12.8276 0.0677404 12.9138 0.0677404 12.9323 0.110848 12.9261 0.178588L12.9261 0.394126C12.9323 1.49029 12.9323 2.59261 12.9323 3.68877ZM10.5921 7.06348C10.5921 6.81715 10.5921 6.57082 10.5921 6.32449 10.5921 6.17054 10.5921 6.17054 10.4197 6.16438 10.3766 6.16438 10.3396 6.17054 10.2965 6.16438 10.1919 6.15206 10.1303 6.19517 10.0995 6.29986 9.98247 6.66935 9.85315 7.03884 9.72999 7.40834 9.71767 7.43913 9.70535 7.46992 9.69304 7.50687 9.66224 7.47608 9.61914 7.45145 9.61298 7.42065 9.50213 7.10658 9.4036 6.79252 9.29891 6.47845 9.19422 6.15206 9.19422 6.15822 8.86784 6.16438 8.77546 6.16438 8.74467 6.18901 8.74467 6.28754 8.75083 6.76172 8.74467 7.22975 8.74467 7.70393 8.74467 7.7532 8.75083 7.80862 8.74467 7.85789 8.73851 7.9441 8.77546 7.96258 8.84936 7.95642 9.05258 7.95026 9.05258 7.98721 9.04642 7.75936 9.04027 7.43297 9.04642 7.10658 9.04642 6.77404 9.04642 6.75557 9.0649 6.74325 9.07721 6.72477 9.08953 6.73709 9.10801 6.74941 9.11416 6.76172 9.17575 6.95879 9.23733 7.15585 9.29891 7.34676 9.36049 7.51919 9.42208 7.69777 9.50213 7.86405 9.56371 7.98721 9.74846 7.98721 9.82852 7.8702 9.85931 7.82094 9.8901 7.77167 9.90857 7.71625 10.0133 7.40218 10.118 7.08811 10.2165 6.77404 10.2226 6.75557 10.235 6.73709 10.2473 6.72477 10.2596 6.74941 10.2842 6.77404 10.2842 6.79252L10.2842 7.77783C10.2842 7.9441 10.2473 7.95026 10.469 7.95642 10.5675 7.95642 10.5921 7.92563 10.586 7.83325 10.586 7.57461 10.5921 7.31596 10.5921 7.06348ZM10.9616 7.05116 10.9616 7.85173C10.9616 7.90715 10.9616 7.95642 11.0355 7.95642L12.1748 7.95642C12.1994 7.95642 12.2425 7.91947 12.2549 7.89484 12.2918 7.75936 12.2487 7.71625 12.1132 7.71009 11.9716 7.71009 11.8238 7.71009 11.6821 7.71009 11.5528 7.70393 11.4235 7.69777 11.288 7.69162 11.2819 7.56229 11.2819 7.42681 11.2695 7.29749 11.2634 7.19896 11.2819 7.14969 11.405 7.15585 11.6329 7.16817 11.8546 7.15585 12.0824 7.16201 12.181 7.16201 12.1994 7.1189 12.1994 7.03269 12.1994 6.94031 12.1686 6.90952 12.0763 6.90952 11.9346 6.91568 11.7868 6.90952 11.6452 6.90952 11.2449 6.90952 11.2511 6.90952 11.2695 6.52155 11.2757 6.4415 11.2942 6.41686 11.3742 6.41686 11.6329 6.42302 11.8854 6.41686 12.144 6.42302 12.2487 6.42302 12.2549 6.37376 12.2549 6.2937 12.2549 6.19517 12.2241 6.17054 12.1317 6.17669 11.7807 6.18285 11.4358 6.18285 11.0848 6.17669 10.9986 6.17669 10.9555 6.19517 10.9555 6.2937 10.9616 6.53387 10.9616 6.79252 10.9616 7.05116ZM6.89721 7.18048 6.89721 7.79631C6.89721 7.95642 6.90336 7.9441 7.06964 7.95642 7.18664 7.96258 7.20512 7.91947 7.20512 7.81478 7.19896 7.4576 7.20512 7.10043 7.20512 6.73709 7.20512 6.41071 7.20512 6.41071 7.51919 6.41071L7.73472 6.41071C7.8271 6.41071 7.82094 6.34912 7.82094 6.28754 7.82094 6.22596 7.83325 6.16438 7.73472 6.16438 7.30365 6.16438 6.87257 6.17054 6.4415 6.16438 6.31833 6.16438 6.34912 6.23828 6.34297 6.30602 6.33681 6.37991 6.36144 6.41071 6.44766 6.41686 6.59545 6.41686 6.74941 6.43534 6.89721 6.44766 6.89721 6.60161 6.90336 6.75557 6.90336 6.90952 6.89721 6.99574 6.89721 7.08811 6.89721 7.18048ZM8.37518 7.06348C8.37518 6.80483 8.37518 6.55234 8.37518 6.2937 8.37518 6.25675 8.36902 6.18901 8.35054 6.18285 8.27049 6.17054 8.19043 6.15822 8.11037 6.17054 8.0919 6.17054 8.06727 6.25059 8.06727 6.29986L8.06727 7.77783C8.06727 7.96873 8.05495 7.95026 8.25817 7.95642 8.35054 7.96258 8.38134 7.92563 8.38134 7.83325 8.36902 7.57461 8.37518 7.31596 8.37518 7.06348Z" fill="#02559F" transform="matrix(1.00171 0 0 1 0.0151587 0)"/><path d="M24.9408 0.991473C24.8915 0.849834 24.8484 0.714353 24.7991 0.572714 24.7807 0.529607 24.756 0.486499 24.7314 0.443392 24.5651 0.0677404 24.5651 0.0677404 24.9531 0.0677404L26.3695 0.0677404C26.5358 0.0677404 26.5296 0.0738986 26.5973 0.234012 26.7759 0.658929 26.9607 1.07769 27.1393 1.50261 27.2932 1.85978 27.4349 2.22312 27.5888 2.58645 27.595 2.60493 27.6196 2.61724 27.6319 2.62956 27.6381 2.61108 27.6504 2.59261 27.6504 2.57414 27.6504 1.92752 27.6504 1.28091 27.6504 0.634297 27.6504 0.480341 27.6504 0.326386 27.6504 0.17243 27.6504 0.10469 27.6566 0.0615822 27.7489 0.0615822 28.334 0.0677404 28.919 0.0615822 29.504 0.0615822 29.5533 0.0615822 29.5964 0.0492658 29.621 0.123164 29.7196 0.400284 29.8181 0.677404 29.9351 0.942208 30.1506 1.44718 30.3785 1.946 30.6063 2.44481 30.6248 2.48176 30.6433 2.51255 30.6618 2.5495 30.6802 2.58029 30.6926 2.60493 30.711 2.62956 30.7172 2.59877 30.7295 2.57414 30.7295 2.54334 30.7295 2.3586 30.7295 2.17385 30.7295 1.9891 30.7295 1.39176 30.7295 0.800568 30.7295 0.203221 30.7295 0.0615822 30.7357 0.055424 30.8835 0.055424L35.5329 0.055424 38.0886 0.055424C38.2364 0.055424 38.2425 0.055424 38.2425 0.203221L38.2425 1.95831C38.2425 2.03837 38.2487 2.08764 38.3534 2.08764 38.6921 2.08148 39.0308 2.08148 39.3695 2.08764 39.4803 2.08764 39.4803 2.03221 39.4803 1.95831 39.4803 1.42255 39.4803 0.892942 39.4803 0.357177 39.4803 0.283278 39.4803 0.215538 39.4803 0.141639 39.4803 0.0738986 39.5111 0.055424 39.5727 0.055424L41.297 0.055424C41.3648 0.055424 41.3832 0.0862151 41.3832 0.147797L41.3832 0.394126 41.3832 5.47466C41.3832 5.53624 41.3832 5.59166 41.3771 5.65324 40.792 5.65324 40.207 5.6594 39.622 5.6594 39.4803 5.6594 39.4742 5.65324 39.4742 5.50545 39.4742 4.87115 39.4742 4.2307 39.4742 3.5964 39.4742 3.44244 39.4742 3.44244 39.3325 3.43629 39.0246 3.43629 38.7167 3.43629 38.4088 3.43629 38.2425 3.43629 38.2364 3.43629 38.2364 3.5964L38.2364 5.35149C38.2364 5.41307 38.2302 5.47466 38.2364 5.53624 38.2487 5.62861 38.2118 5.6594 38.1194 5.6594 37.5528 5.65324 36.9924 5.6594 36.4259 5.6594 36.3643 5.6594 36.3273 5.64709 36.3335 5.57319 36.3335 5.49929 36.3335 5.43155 36.3335 5.35765 36.3335 4.09522 36.3335 2.83278 36.3335 1.57035 36.3335 1.41023 36.3458 1.39792 36.1672 1.40407 35.847 1.41023 35.5329 1.41023 35.2127 1.40407 35.1142 1.40407 35.0957 1.44102 35.0957 1.52724L35.0957 3.62103 35.0957 5.49929C35.0957 5.65324 35.0957 5.6594 34.9233 5.6594 34.3998 5.6594 33.8764 5.6594 33.3529 5.6594 33.162 5.6594 33.1928 5.64093 33.1928 5.48697 33.1928 4.22454 33.1928 2.9621 33.1928 1.69967 33.1928 1.40407 33.1928 1.40407 32.9095 1.40407 32.6509 1.40407 32.3984 1.40407 32.1397 1.40407 31.9427 1.40407 31.9488 1.3856 31.955 1.58266L31.955 2.62956 31.955 5.49313C31.955 5.68404 31.9365 5.6594 31.7887 5.6594 31.253 5.6594 30.7234 5.6594 30.1876 5.6594 29.9967 5.6594 30.0152 5.64709 29.9228 5.46234 29.7873 5.19754 29.6888 4.92042 29.5779 4.65561 29.4178 4.27996 29.2639 3.89815 29.1099 3.51634 29.0853 3.46092 29.0545 3.41165 29.0237 3.36239 29.0052 3.3316 28.9867 3.29465 28.9744 3.2577 28.9621 3.29465 28.9436 3.3316 28.9436 3.36855L28.9436 5.33918C28.9436 5.6594 28.9436 5.6594 28.6234 5.6594 28.1431 5.6594 27.6566 5.65324 27.1762 5.66556 27.0223 5.67172 26.9422 5.62245 26.8806 5.47466 26.739 5.12364 26.5727 4.77878 26.4249 4.42776 26.3387 4.21838 26.2586 4.009 26.1786 3.79962 26.0369 3.4486 25.8953 3.09143 25.7414 2.74041 25.5874 2.38939 25.4273 2.04453 25.2733 1.69351 25.1994 1.5334 25.144 1.36712 25.0701 1.20701 25.064 1.18854 25.027 1.17622 25.0085 1.15775 24.9839 1.11464 25.0578 1.01611 24.9408 0.991473 24.9408 0.985315 24.9408 0.991473 24.9408 0.991473Z" fill="#02559F" transform="matrix(1.00171 0 0 1 0.0151587 0)"/><path d="M41.3771 5.66556C41.3771 5.60398 41.3771 5.54856 41.3832 5.48697 41.4756 5.41923 41.4818 5.30838 41.5064 5.20985 41.5988 4.84036 41.685 4.47703 41.7958 4.11369 41.9252 3.68877 42.0175 3.24538 42.1284 2.81431 42.1838 2.58645 42.2515 2.36476 42.3131 2.14306 42.3932 1.83515 42.4794 1.52724 42.5594 1.21317 42.6457 0.886783 42.7257 0.55424 42.8058 0.221696 42.8304 0.117006 42.8735 0.0615822 42.9844 0.0615822 43.3847 0.0615822 43.7849 0.0677404 44.1852 0.0615822 44.2714 0.0615822 44.2714 0.0985315 44.2899 0.166272 44.4069 0.634297 44.5547 1.09616 44.6594 1.5765 44.7333 1.91521 44.8442 2.24775 44.9304 2.58645 45.0474 3.02984 45.1582 3.47324 45.2691 3.91047 45.306 4.05211 45.3491 4.18759 45.3922 4.32923 45.3984 4.34154 45.4169 4.35386 45.4292 4.36002 45.4353 4.34154 45.4538 4.32307 45.4538 4.31075 45.4969 3.92894 45.6509 3.57793 45.7309 3.20843 45.8295 2.76504 45.9465 2.32165 46.0758 1.88442 46.1743 1.55187 46.2605 1.21317 46.3406 0.874467 46.3899 0.665088 46.4453 0.461866 46.5007 0.252487 46.5377 0.110848 46.5931 0.0615822 46.7409 0.0615822L47.8494 0.0615822C47.9294 0.0615822 47.9541 0.0800568 47.9848 0.17243 48.145 0.702037 48.2743 1.2378 48.4098 1.77357 48.5144 2.19848 48.6499 2.61108 48.7546 3.036 48.8716 3.47939 48.9455 3.92894 49.0872 4.36618 49.2165 4.7603 49.2658 5.17906 49.432 5.56703 49.4567 5.62245 49.4505 5.67172 49.3828 5.67172 49.0256 5.67172 48.6622 5.67172 48.3051 5.67172 48.2373 5.67172 48.225 5.64093 48.2127 5.57935 48.1573 5.28375 48.0957 4.98816 48.028 4.69256 47.9972 4.54477 47.9417 4.50166 47.7878 4.50166 47.4183 4.50166 47.0488 4.50166 46.6793 4.50166 46.5685 4.50166 46.5007 4.53861 46.4884 4.6433 46.4576 4.96352 46.316 5.26528 46.3036 5.59166 46.3036 5.6594 46.2667 5.67172 46.2051 5.67172 45.6693 5.67172 45.1397 5.67172 44.604 5.67172 44.5424 5.67172 44.5239 5.64093 44.5116 5.5855 44.4562 5.30838 44.3946 5.03126 44.3269 4.7603 44.3145 4.70488 44.2776 4.64946 44.2714 4.59403 44.2653 4.50782 44.216 4.50166 44.1483 4.50166 43.7295 4.50166 43.3046 4.50166 42.8858 4.50166 42.7996 4.50166 42.7935 4.53861 42.7811 4.60635 42.7257 4.92658 42.6641 5.24064 42.5964 5.55471 42.5779 5.64093 42.504 5.67172 42.4117 5.67172 42.0791 5.66556 41.7281 5.66556 41.3771 5.66556ZM43.5632 3.57793 43.9635 3.57793C44.099 3.57793 44.1113 3.54713 44.0744 3.41165 44.0128 3.17764 43.9574 2.94363 43.9081 2.70346 43.8527 2.46329 43.8219 2.22312 43.7603 1.9891 43.6926 1.7243 43.6248 1.4595 43.6002 1.18854 43.6002 1.17006 43.5756 1.14543 43.5632 1.12695 43.5571 1.14543 43.5448 1.1639 43.5386 1.18238 43.4647 1.46566 43.4031 1.74893 43.3539 2.03837 43.3108 2.26622 43.2553 2.49408 43.1999 2.72193 43.1506 2.93747 43.1014 3.15917 43.0521 3.3747 43.009 3.56561 43.0336 3.57793 43.2307 3.58408 43.3415 3.57793 43.4524 3.57793 43.5632 3.57793ZM47.2459 3.57793C47.3259 3.57793 47.4121 3.58408 47.4922 3.57793 47.5907 3.57177 47.6892 3.55945 47.7878 3.54713 47.7693 3.46092 47.7385 3.38086 47.7324 3.29465 47.7077 3.02984 47.6153 2.78351 47.5661 2.52487 47.523 2.30317 47.4552 2.08764 47.4244 1.8721 47.3998 1.66888 47.3444 1.47181 47.2951 1.26859 47.289 1.2378 47.2766 1.21317 47.2705 1.18854 47.2582 1.21317 47.252 1.24396 47.2335 1.25628 47.1104 1.35481 47.1904 1.50261 47.1412 1.62577 47.0611 1.85362 47.0426 2.09995 46.9811 2.34012 46.9379 2.50024 46.9195 2.66035 46.8702 2.82046 46.8148 3.01137 46.7901 3.22075 46.7409 3.41781 46.7039 3.54713 46.7409 3.57793 46.8702 3.58408 46.9995 3.57793 47.1227 3.57793 47.2459 3.57793Z" fill="#8FBAE5" transform="matrix(1.00171 0 0 1 0.0151587 0)"/><path d="M25.0024 1.17622C25.0208 1.32402 25.0147 1.48413 25.0701 1.61345 25.2117 1.96447 25.0701 2.27854 24.9654 2.59261 24.91 2.75888 24.8423 2.93131 24.7006 3.05448 24.5651 3.17148 24.6021 3.30696 24.6575 3.44244 24.7745 3.73188 24.9038 4.02132 25.027 4.30459 25.1994 4.71104 25.378 5.11132 25.5504 5.51776 25.5936 5.6163 25.5628 5.67172 25.4581 5.67172 24.9038 5.67172 24.3496 5.66556 23.7954 5.67788 23.6845 5.67788 23.6599 5.62861 23.6291 5.54856 23.4751 5.19754 23.3212 4.85268 23.1672 4.50166 23.081 4.30459 23.0009 4.10137 22.9209 3.90431 22.7916 3.59024 22.6561 3.27617 22.5206 2.95595 22.5083 2.919 22.496 2.88205 22.4898 2.8451 22.4775 2.76504 22.4898 2.70346 22.5945 2.71577 22.6684 2.72193 22.7361 2.71577 22.81 2.71577 23.081 2.71577 23.2781 2.58645 23.3704 2.34628 23.5182 1.95216 23.3396 1.45334 22.8039 1.41639 22.6068 1.40407 22.4159 1.41639 22.2189 1.41639 22.145 1.41639 22.1018 1.42871 22.108 1.51492 22.1142 1.58882 22.108 1.65656 22.108 1.73046L22.108 5.3946C22.108 5.44387 22.1018 5.49929 22.108 5.54856 22.1203 5.64093 22.0772 5.67172 21.991 5.67172 21.5784 5.66556 21.172 5.67172 20.7594 5.67172 20.5808 5.67172 20.396 5.65324 20.2174 5.64709 20.2113 5.47466 20.2051 5.30223 20.2051 5.1298 20.2051 3.54713 20.2051 1.97063 20.2051 0.387968 20.2051 0.307911 20.199 0.221696 20.2113 0.141639 20.2174 0.117006 20.2544 0.0800568 20.2852 0.0738986 20.3468 0.0615822 20.4083 0.0677404 20.4699 0.0677404 21.406 0.0677404 22.3359 0.055424 23.2719 0.0738986 23.7399 0.0800568 24.171 0.234012 24.5097 0.578873 24.6267 0.702037 24.7314 0.843676 24.8484 0.96684 24.8669 0.991473 24.9223 0.985315 24.9593 0.991473L24.9408 0.985315C24.9593 1.05306 24.8792 1.15159 25.0024 1.17622Z" fill="#02559F" transform="matrix(1.00171 0 0 1 0.0151587 0)"/><path d="M39.5973 8.93558C39.5973 8.06111 39.5973 7.1928 39.5973 6.31833 39.5973 6.16438 39.5973 6.16438 39.739 6.16438L41.8328 6.16438C42.0298 6.16438 42.036 6.19517 42.0606 6.39223 42.0976 6.66319 42.153 6.93415 42.2084 7.19896 42.2331 7.33444 42.2823 7.46376 42.307 7.59308 42.3747 7.96873 42.4055 8.3567 42.4979 8.7262 42.5964 9.10801 42.6087 9.50213 42.7319 9.87162 42.7504 9.91473 42.7319 9.97631 42.738 10.0256 42.738 10.0502 42.7627 10.0748 42.775 10.0933 42.7811 10.0748 42.7935 10.0625 42.7996 10.0441 42.8427 9.90242 42.892 9.76694 42.9228 9.6253 42.9782 9.33586 43.046 9.05258 43.0952 8.76315 43.1383 8.5045 43.1876 8.2397 43.243 7.98105 43.3169 7.63003 43.3539 7.2667 43.4709 6.92184 43.514 6.79252 43.5201 6.65088 43.5448 6.5154 43.5632 6.41686 43.594 6.32449 43.6063 6.23212 43.6125 6.16438 43.6495 6.15206 43.7049 6.15206L44.6902 6.15206C44.7579 6.15206 44.7887 6.18285 44.7764 6.24443 44.7641 6.31833 44.7333 6.39223 44.7148 6.46613 44.6532 6.81099 44.5486 7.14969 44.4808 7.48839 44.4008 7.88252 44.3022 8.27049 44.216 8.65846 44.1236 9.0649 44.0313 9.47134 43.9327 9.87778 43.8773 10.1118 43.8034 10.352 43.7788 10.5983 43.7603 10.8015 43.6864 10.9924 43.6371 11.1956 43.6002 11.3373 43.5632 11.4789 43.5386 11.6206 43.5263 11.6883 43.4955 11.7006 43.4401 11.7006 43.0213 11.7006 42.5964 11.6945 42.1776 11.7006 42.0791 11.7006 42.0606 11.6514 42.0422 11.5836 42.0052 11.4604 41.9498 11.3434 41.9436 11.2203 41.9313 10.9801 41.8328 10.7646 41.7897 10.5367 41.7281 10.2042 41.6419 9.87162 41.568 9.53908 41.5249 9.34202 41.4756 9.1388 41.4263 8.94173 41.3709 8.71388 41.3093 8.49218 41.2601 8.26433 41.2108 8.04263 41.1923 7.81478 41.1246 7.6054 41.0507 7.37139 41.0261 7.13122 40.9522 6.89721 40.8906 6.69398 40.8659 6.47845 40.8228 6.26291 40.8167 6.24443 40.7982 6.23212 40.792 6.2198 40.7797 6.23828 40.7613 6.25059 40.7613 6.26907L40.7613 6.5154 40.7613 11.405C40.7613 11.4789 40.7674 11.5467 40.7551 11.6206 40.7489 11.6452 40.712 11.6883 40.6874 11.6883 40.3487 11.6945 40.0099 11.6883 39.6712 11.6945 39.5727 11.6945 39.5912 11.6267 39.5912 11.5651 39.5912 11.1156 39.5912 10.6599 39.5912 10.2103 39.5973 9.79773 39.5973 9.36665 39.5973 8.93558Z" fill="#8FBAE5" transform="matrix(1.00171 0 0 1 0.0151587 0)"/><path d="M58.1952 9.39744C58.1952 8.67693 58.1952 7.96258 58.1952 7.24207 58.1952 7.08811 58.1952 7.08811 58.0535 7.08811 57.7271 7.08811 57.3946 7.08811 57.0682 7.08811 56.9882 7.08811 56.9635 7.05732 56.9635 6.98342 56.9697 6.74941 56.9697 6.50924 56.9635 6.27523 56.9574 6.17054 57.0128 6.15822 57.0928 6.16438L57.2468 6.16438 60.9417 6.16438C61.145 6.16438 61.145 6.16438 61.2189 6.37991 61.4221 6.98342 61.6253 7.58693 61.8285 8.19043 61.8347 8.20891 61.8408 8.22738 61.8532 8.24585 61.8655 8.22738 61.8839 8.20891 61.8901 8.19043 62.0379 7.80246 62.1795 7.4145 62.3212 7.02037 62.4074 6.77404 62.4813 6.52155 62.5737 6.28138 62.5921 6.23212 62.6537 6.17054 62.6968 6.17054 63.0663 6.16438 63.4358 6.16438 63.8053 6.17054 63.8238 6.17054 63.8607 6.23828 63.8546 6.25059 63.6821 6.52771 63.6021 6.83562 63.4728 7.13122 63.3065 7.51303 63.1464 7.89484 62.9863 8.27665 62.8446 8.61535 62.7091 8.96021 62.5429 9.28659 62.469 9.42823 62.4443 9.56371 62.4443 9.71151L62.4443 11.559C62.4443 11.7006 62.4382 11.7006 62.2904 11.7068 61.9948 11.7068 61.693 11.7068 61.3974 11.7068 61.3112 11.7068 61.2681 11.6883 61.2743 11.5898 61.2804 11.325 61.2743 11.054 61.2743 10.7892 61.2743 10.4197 61.262 10.0502 61.2804 9.68072 61.2866 9.53292 61.2496 9.39744 61.2004 9.27428 61.0587 8.9171 60.874 8.57224 60.7262 8.21506 60.5907 7.88252 60.4737 7.54382 60.2951 7.22975 60.3198 7.06964 60.2212 7.07579 60.1104 7.08195 59.9133 7.08811 59.7224 7.08195 59.5253 7.08195 59.3714 7.08195 59.3652 7.08195 59.3652 7.25438L59.3652 11.4112C59.3652 11.4851 59.3714 11.5528 59.3591 11.6267 59.3529 11.6514 59.316 11.7006 59.2913 11.7006 58.9526 11.7068 58.6139 11.7006 58.2752 11.7068 58.1767 11.7068 58.189 11.6452 58.189 11.5836 58.189 11.1217 58.189 10.6599 58.189 10.198 58.1952 9.93321 58.1952 9.66224 58.1952 9.39744Z" fill="#8FBAE5" transform="matrix(1.00171 0 0 1 0.0151587 0)"/><path d="M60.1658 2.83894C60.1658 1.96447 60.1658 1.09616 60.1658 0.221696 60.1658 0.0738986 60.1658 0.0677404 60.3136 0.0677404L61.3297 0.0677404C61.4406 0.0677404 61.4898 0.110848 61.5268 0.209379 61.7054 0.751303 61.8839 1.29323 62.081 1.82899 62.2965 2.42634 62.5244 3.02369 62.7215 3.63335 62.7276 3.65182 62.7461 3.66414 62.7584 3.68261 62.7707 3.70725 62.7769 3.73804 62.7892 3.76267 62.8015 3.73804 62.82 3.71341 62.82 3.68877 62.8261 3.61487 62.82 3.54713 62.82 3.47324 62.82 2.39555 62.82 1.31786 62.82 0.240171 62.82 0.0923733 62.7892 0.0677404 62.9863 0.0738986 63.2326 0.0800568 63.4789 0.0738986 63.7253 0.0738986 63.8669 0.0738986 63.8669 0.0800568 63.8669 0.227854L63.8669 2.35244 63.8669 5.52392C63.8669 5.67172 63.8669 5.67788 63.7191 5.67788 63.3927 5.67788 63.0602 5.67788 62.7338 5.67788 62.5675 5.67788 62.5675 5.67172 62.5121 5.50545 62.3089 4.90194 62.0995 4.29844 61.8839 3.70109 61.7177 3.22691 61.576 2.74657 61.3666 2.2847 61.3235 2.18617 61.3051 2.08148 61.2804 1.97679 61.2743 1.95831 61.262 1.946 61.2496 1.92752 61.2373 1.93984 61.2189 1.95831 61.2189 1.97063L61.2189 2.21696 61.2189 5.51161C61.2189 5.67172 61.2373 5.67788 61.0526 5.67788 60.7939 5.67172 60.5414 5.67172 60.2828 5.67788 60.1843 5.67788 60.1658 5.63477 60.1658 5.54856 60.1658 4.6433 60.1658 3.73804 60.1658 2.83894Z" fill="#8FBAE5" transform="matrix(1.00171 0 0 1 0.0151587 0)"/><path d="M39.351 8.94173 39.351 11.4974C39.351 11.7006 39.351 11.7006 39.1355 11.7006 38.8399 11.7006 38.5381 11.7006 38.2425 11.7006 38.0639 11.7006 38.0639 11.6945 37.9962 11.522 37.7006 10.7769 37.4666 10.0071 37.1895 9.2558 37.0478 8.86784 36.937 8.46139 36.7646 8.08574 36.7523 8.06111 36.7399 8.04263 36.7276 8.018 36.7215 8.04263 36.703 8.07343 36.703 8.09806L36.703 10.0995 36.703 11.5775C36.703 11.6637 36.6907 11.7068 36.5921 11.7068 36.315 11.7006 36.0379 11.7006 35.7608 11.7068 35.6807 11.7068 35.6499 11.6821 35.6561 11.6021 35.6622 11.5528 35.6561 11.4974 35.6561 11.4481 35.6561 9.77309 35.6561 8.10422 35.6561 6.42918 35.6561 6.3676 35.6561 6.30602 35.6561 6.24443 35.6561 6.17669 35.6869 6.15822 35.7485 6.16438L36.8261 6.16438C36.9308 6.16438 36.9801 6.21364 37.0109 6.31833 37.2388 7.03884 37.5159 7.73472 37.756 8.44908 37.873 8.79394 38.0024 9.1388 38.1194 9.48982 38.1502 9.58219 38.1994 9.6684 38.2425 9.75462 38.2487 9.76694 38.2672 9.77925 38.2795 9.79157 38.2856 9.77309 38.3041 9.75462 38.3041 9.7423 38.3041 9.66224 38.3041 9.57603 38.3041 9.49597 38.3041 8.43676 38.3041 7.3837 38.3041 6.32449 38.3041 6.17054 38.3041 6.17054 38.4458 6.17054 38.7044 6.17054 38.9569 6.17669 39.2155 6.17054 39.3202 6.16438 39.3572 6.19517 39.351 6.30602 39.3449 6.98342 39.351 7.66082 39.351 8.33823Z" fill="#8FBAE5" transform="matrix(1.00171 0 0 1 0.0151587 0)"/><path d="M48.2804 8.92326C48.2804 8.07343 48.2804 7.21743 48.2804 6.3676 48.2804 6.16438 48.2804 6.16438 48.5021 6.16438L50.5651 6.16438C51.1317 6.16438 51.7167 6.57698 51.8029 7.18664 51.8276 7.36523 51.8645 7.54382 51.8522 7.72241 51.8153 8.09806 51.7414 8.46755 51.4211 8.72004 51.3103 8.80625 51.1686 8.86168 51.0393 8.93558 51.027 8.94173 51.0147 8.96021 51.0024 8.97252 51.0208 8.97868 51.0332 8.99716 51.0516 8.99716 51.4704 9.04027 51.6428 9.26812 51.7414 9.73614 51.8029 10.0317 51.8029 10.3212 51.7906 10.6106 51.7783 10.8569 51.8645 11.0848 51.8645 11.325 51.8645 11.4173 51.9692 11.5097 52.0246 11.6021 52.0554 11.6575 52.0493 11.7068 51.9754 11.7068 51.6182 11.7068 51.2549 11.7129 50.8977 11.7006 50.8484 11.7006 50.7684 11.6329 50.7499 11.5836 50.7129 11.4728 50.6945 11.3558 50.6883 11.2387 50.676 11.0355 50.6945 10.8261 50.6821 10.6229 50.6698 10.352 50.6514 10.081 50.6206 9.8162 50.5959 9.61298 50.325 9.37897 50.1217 9.37281 49.9062 9.36665 49.6907 9.37897 49.4813 9.38513 49.4751 9.58835 49.4567 9.78541 49.4567 9.98863 49.4505 10.5244 49.4567 11.054 49.4567 11.5898 49.4567 11.676 49.4382 11.7191 49.3396 11.7129 49.0317 11.7068 48.7238 11.7068 48.4159 11.7129 48.2989 11.7191 48.2804 11.676 48.2804 11.5713 48.2866 10.8138 48.2804 10.0502 48.2804 9.29275 48.2804 9.16959 48.2804 9.04642 48.2804 8.92326ZM49.4505 7.76551 49.4505 8.47371C49.4505 8.5045 49.4813 8.56608 49.4998 8.56608 49.7954 8.57224 50.1033 8.61535 50.3742 8.44292 50.4912 8.36902 50.5713 8.2828 50.6267 8.12885 50.7006 7.92563 50.6945 7.72241 50.6637 7.5315 50.6267 7.31596 50.5097 7.06964 50.2634 7.03269 50.0047 6.99574 49.7338 7.03269 49.469 7.03269 49.4628 7.23591 49.4505 7.43297 49.4443 7.63619 49.4505 7.6793 49.4505 7.72241 49.4505 7.76551Z" fill="#8FBAE5" transform="matrix(1.00171 0 0 1 0.0151587 0)"/><path d="M53.0223 2.85126C53.0223 1.97679 53.0223 1.10848 53.0223 0.234012 53.0223 0.0677404 53.0223 0.0677404 53.1824 0.0677404 53.4595 0.0677404 53.7366 0.0738986 54.0137 0.0677404 54.1123 0.0677404 54.1307 0.10469 54.1307 0.190905L54.1307 1.946 54.1307 2.13074C54.1307 2.19233 54.1431 2.22928 54.2108 2.22928 54.5926 2.22928 54.9683 2.22928 55.3501 2.22312 55.3747 2.22312 55.4178 2.18001 55.424 2.15538 55.4363 2.08764 55.4301 2.01374 55.4301 1.93984 55.4301 1.39792 55.4301 0.855992 55.4301 0.307911 55.4301 0.0923733 55.4548 0.0738986 55.6765 0.0677404 55.9228 0.0677404 56.1691 0.0615822 56.4154 0.0677404 56.5509 0.0677404 56.5879 0.110848 56.6002 0.246329L56.6002 0.369493 56.6002 5.44387C56.6002 5.49313 56.6063 5.54856 56.594 5.59782 56.5879 5.62861 56.5448 5.66556 56.5201 5.66556 56.1814 5.67172 55.8427 5.66556 55.504 5.67172 55.4055 5.67172 55.424 5.60398 55.424 5.5424 55.424 4.89578 55.424 4.24917 55.424 3.60256 55.424 3.47324 55.4055 3.34391 55.3993 3.21459 55.2762 3.20843 55.153 3.20843 55.036 3.20227 54.7774 3.20227 54.5249 3.20843 54.2662 3.19612 54.1492 3.18996 54.1307 3.23306 54.1307 3.33775 54.1369 4.01516 54.1307 4.69256 54.1307 5.36997 54.1307 5.66556 54.1307 5.67172 53.8228 5.66556 53.558 5.6594 53.2994 5.64709 53.0346 5.64093 53.0284 5.38844 53.0223 5.1298 53.0223 4.87731 53.0223 4.1999 53.0223 3.52866 53.0223 2.85126Z" fill="#8FBAE5" transform="matrix(1.00171 0 0 1 0.0151587 0)"/><path d="M33.0081 8.35054C33.0081 9.00947 33.0142 9.66224 33.0019 10.3212 33.0019 10.5182 33.0881 10.666 33.1866 10.8077 33.2975 10.9678 33.6239 11.0171 33.8148 10.9308 34.0919 10.8015 34.2335 10.5798 34.2335 10.2719 34.2335 9.00332 34.2335 7.72856 34.2335 6.45997 34.2335 6.17054 34.2335 6.17054 34.523 6.17054L35.262 6.17054C35.4036 6.17054 35.4036 6.17669 35.4036 6.32449L35.4036 9.70535C35.4036 9.87162 35.4098 10.0317 35.4036 10.198 35.3913 10.3458 35.379 10.4936 35.342 10.6352 35.2989 10.7954 35.2496 10.9555 35.1573 11.091 34.8925 11.4666 34.5599 11.7437 34.0673 11.7807 33.8702 11.793 33.6731 11.8484 33.4761 11.8299 33.2605 11.8115 33.0512 11.7807 32.8418 11.7129 32.2629 11.5159 32.0535 11.1956 31.9119 10.7338 31.8565 10.5613 31.838 10.3704 31.838 10.1734 31.8503 8.89247 31.8441 7.61156 31.8441 6.33065 31.8441 6.17054 31.8441 6.17054 32.0104 6.17054L32.8418 6.17054C33.0142 6.17054 33.0142 6.17054 33.0142 6.36144 33.0081 7.02037 33.0081 7.68546 33.0081 8.35054Z" fill="#8FBAE5" transform="matrix(1.00171 0 0 1 0.0151587 0)"/><path d="M52.4742 9.92089 52.7205 9.92089C52.8129 9.92089 52.9299 9.89626 52.9853 9.93937 53.0346 9.98247 53.0099 10.1056 53.0223 10.1919 53.0469 10.3273 53.0654 10.4628 53.1146 10.5921 53.2255 10.9 53.5765 11.0294 53.9337 10.9432 54.1123 10.9 54.2662 10.8138 54.3216 10.6168 54.3648 10.4567 54.5249 10.3027 54.3709 10.1241 54.3894 9.84083 54.1615 9.7423 53.9768 9.60682 53.7612 9.44671 53.5026 9.38513 53.2563 9.30507 52.9237 9.19422 52.622 9.02795 52.3757 8.80009 52.2032 8.63998 52.0924 8.41829 52.0246 8.1658 51.9507 7.901 51.9446 7.63619 51.9815 7.3837 52.0677 6.75557 52.4311 6.25675 53.1331 6.09048 53.4349 6.02274 53.7366 6.01042 54.0322 6.04121 54.5803 6.10279 55.0606 6.31217 55.3008 6.86641 55.4055 7.11274 55.4301 7.36523 55.4117 7.62388 55.4117 7.64851 55.3624 7.69162 55.3378 7.69162 55.0175 7.69777 54.7035 7.69162 54.3832 7.69777 54.2847 7.69777 54.3032 7.62388 54.3032 7.56845 54.3093 7.35291 54.2539 7.15585 54.0815 7.00805 53.8659 6.82331 53.3055 6.82946 53.1639 7.19896 53.0284 7.56229 53.1454 7.97489 53.4964 8.14732 53.7551 8.27665 54.0261 8.38134 54.2909 8.49834 54.6234 8.64614 54.9559 8.79394 55.2269 9.03411 55.3747 9.16959 55.4671 9.36049 55.5348 9.55756 55.621 9.80388 55.5964 10.2658 55.5471 10.5613 55.4917 10.9185 55.3131 11.1895 55.0483 11.4112 54.8143 11.6082 54.5372 11.7314 54.2231 11.7622 54.0445 11.7807 53.8721 11.8299 53.6935 11.8238 53.3548 11.8115 53.0346 11.756 52.7144 11.639 52.3818 11.5159 52.117 11.2572 51.9692 10.8569 51.9323 10.7584 51.9138 10.6476 51.9076 10.5429 51.8953 10.3581 51.9076 10.1734 51.9015 9.98863 51.9015 9.91473 51.9446 9.90857 52 9.91473 52.1663 9.92089 52.3202 9.92089 52.4742 9.92089Z" fill="#8FBAE5" transform="matrix(1.00171 0 0 1 0.0151587 0)"/><path d="M56.7788 2.8882C56.7788 2.05685 56.7788 1.22549 56.7788 0.394126 56.7788 0.332544 56.7726 0.270962 56.7788 0.209379 56.7849 0.117006 56.8404 0.0677404 56.9327 0.0615822L57.0251 0.0615822 59.7655 0.0615822C59.9195 0.0615822 59.9195 0.0615822 59.9195 0.203221 59.9195 0.437234 59.9133 0.677404 59.9256 0.911416 59.9318 1.02226 59.8948 1.0469 59.7901 1.0469 59.279 1.04074 58.7679 1.0469 58.2506 1.0469 58.1767 1.0469 58.109 1.0469 58.0351 1.0469 57.9673 1.0469 57.9488 1.07769 57.955 1.13927L57.955 2.18617C57.955 2.27854 58.0043 2.27854 58.072 2.27854L59.3652 2.27854C59.4884 2.27854 59.6116 2.27238 59.7347 2.2847 59.7594 2.2847 59.784 2.32781 59.8086 2.35244 59.8148 2.3586 59.8086 2.37091 59.8086 2.38323 59.8025 2.66651 59.8025 2.95595 59.7963 3.23922 59.5253 3.24538 59.2482 3.2577 58.9773 3.26386 58.6694 3.27001 58.3614 3.26386 58.0535 3.26386 57.9919 3.26386 57.9612 3.28233 57.9612 3.35007 57.9612 3.79346 57.9612 4.2307 57.9673 4.67409 57.9673 4.69872 58.0104 4.74183 58.0351 4.74183 58.1274 4.74799 58.2198 4.74799 58.3122 4.74799L59.8825 4.74799C60.055 4.74799 60.0611 4.74799 60.055 4.90194 60.0488 5.15443 60.0365 5.40692 60.0303 5.6594 59.784 5.66556 59.5438 5.67172 59.2975 5.67172 58.5154 5.67172 57.7395 5.67172 56.9574 5.67172 56.7849 5.67172 56.7911 5.67172 56.7911 5.50545 56.7788 4.63098 56.7788 3.76267 56.7788 2.8882Z" fill="#8FBAE5" transform="matrix(1.00171 0 0 1 0.0151587 0)"/><path d="M50.3126 2.85126 50.3126 3.76267C50.3188 4.009 50.3681 4.25533 50.4358 4.48934 50.5836 4.96352 51.0147 5.02511 51.3103 4.87115 51.5135 4.76646 51.5381 4.53861 51.6059 4.3477 51.6859 4.12601 51.6613 3.89199 51.6675 3.66414 51.6675 3.5225 51.6736 3.5225 51.8214 3.5225L52.6528 3.5225C52.7883 3.5225 52.8498 3.57177 52.8314 3.70109 52.7698 4.2307 52.7698 4.78494 52.4064 5.23449 52.3572 5.29607 52.3202 5.36997 52.2525 5.41923 51.8091 5.74562 51.298 5.86262 50.7622 5.79488 50.4297 5.75178 50.1033 5.65324 49.8138 5.44387 49.6722 5.34533 49.586 5.20985 49.5182 5.08053 49.4012 4.85268 49.2781 4.62482 49.2473 4.3477 49.2288 4.18143 49.2288 4.009 49.1919 3.84889 49.081 3.35623 49.1303 2.85741 49.1487 2.36476 49.1611 1.96447 49.1857 1.55803 49.3212 1.17006 49.4074 0.929891 49.5182 0.695879 49.6784 0.504974 49.8816 0.264803 50.171 0.166272 50.4666 0.0800568 50.7253 0.00615822 50.9839 0.0123164 51.2425 0.0246329 51.6551 0.0492658 52.0308 0.17243 52.3325 0.474183 52.5358 0.677404 52.6343 0.936049 52.6959 1.19469 52.7575 1.43486 52.8006 1.68735 52.7698 1.93984 52.7636 2.00758 52.7575 2.05069 52.6712 2.05069 52.3757 2.04453 52.0739 2.05069 51.7783 2.04453 51.6428 2.04453 51.5997 1.99526 51.5997 1.85978 51.5997 1.66888 51.5812 1.48413 51.5381 1.29323 51.4889 1.06537 51.2918 0.849834 51.0455 0.874467 50.9408 0.886783 50.8176 0.825201 50.7253 0.917575 50.6082 1.02842 50.4789 1.13311 50.4297 1.29323 50.3927 1.41639 50.3989 1.54571 50.3619 1.66888 50.2572 2.08148 50.3434 2.5064 50.3126 2.85126Z" fill="#8FBAE5" transform="matrix(1.00171 0 0 1 0.0151587 0)"/><path d="M44.8318 8.90479C44.8318 8.04263 44.8318 7.18048 44.8318 6.31833 44.8318 6.16438 44.8318 6.16438 44.9735 6.16438L47.837 6.16438C47.9479 6.16438 47.9787 6.18901 47.9725 6.29986 47.9664 6.52771 47.9664 6.74941 47.9725 6.97726 47.9787 7.08195 47.9294 7.09427 47.8432 7.09427 47.3198 7.09427 46.7963 7.09427 46.2729 7.09427 45.9957 7.09427 45.9957 7.09427 45.9957 7.35907L45.9957 8.2828C45.9957 8.36286 46.0265 8.38749 46.1004 8.38749L47.64 8.38749C47.8617 8.38749 47.8494 8.3567 47.8432 8.57224 47.837 8.81241 47.8247 9.05874 47.8186 9.29891 47.5846 9.30507 47.3505 9.30507 47.1165 9.31123 46.7778 9.31123 46.4391 9.31123 46.1004 9.31123 46.0204 9.31123 45.9957 9.34202 45.9957 9.41592 45.9957 9.83468 46.0019 10.2596 45.9957 10.6784 45.9957 10.783 46.0388 10.7892 46.1251 10.7892L47.8802 10.7892C48.028 10.7892 48.028 10.7892 48.0341 10.937 48.0341 11.1525 48.028 11.3681 48.0403 11.5836 48.0464 11.7006 48.0033 11.7191 47.8986 11.7191 47.2212 11.7129 46.5438 11.7191 45.8664 11.7191 45.5893 11.7191 45.3122 11.7191 45.0351 11.7191 44.8318 11.7191 44.8318 11.7191 44.8318 11.5036 44.8318 10.6229 44.8318 9.76078 44.8318 8.90479Z" fill="#8FBAE5" transform="matrix(1.00171 0 0 1 0.0151587 0)"/><path d="M56.8404 8.96637 56.8404 11.5467C56.8404 11.7006 56.8404 11.7006 56.6987 11.7006 56.4093 11.7006 56.126 11.7006 55.8366 11.7006 55.7627 11.7006 55.7196 11.6821 55.7319 11.5959 55.738 11.5467 55.7319 11.4912 55.7319 11.442 55.7319 9.76078 55.7319 8.07958 55.7319 6.40455 55.7319 6.35528 55.7319 6.29986 55.7319 6.25059 55.7257 6.18901 55.7442 6.15822 55.8119 6.15822 56.1322 6.15822 56.4462 6.15822 56.7665 6.16438 56.7911 6.16438 56.8342 6.20748 56.8404 6.23212 56.8527 6.29986 56.8465 6.37376 56.8465 6.44766 56.8404 7.28517 56.8404 8.12885 56.8404 8.96637Z" fill="#8FBAE5" transform="matrix(1.00171 0 0 1 0.0151587 0)"/><path d="M16.4424 5.91805C16.4424 4.0829 16.4424 2.24159 16.4424 0.406442 16.4424 0.332544 16.4486 0.264803 16.4424 0.190905 16.4363 0.10469 16.4609 0.0677404 16.5595 0.0615822 16.6765 0.055424 16.7072 0.0985315 16.6949 0.203221 16.6888 0.264803 16.6949 0.326386 16.6949 0.387968L16.6949 11.442 16.6949 11.6267C16.6888 11.7684 16.6765 11.7745 16.5348 11.7684 16.4671 11.7622 16.4486 11.7376 16.4486 11.676 16.4486 11.5959 16.4486 11.5097 16.4486 11.4297 16.4424 9.58835 16.4424 7.7532 16.4424 5.91805Z" fill="#02559F" transform="matrix(1.00171 0 0 1 0.0151587 0)"/></g></svg>