<svg width="76" height="20" xmlns="http://www.w3.org/2000/svg" xmlns:xlink="http://www.w3.org/1999/xlink" xml:space="preserve" overflow="hidden"><defs><clipPath id="clip0"><rect x="0" y="0" width="76" height="20"/></clipPath></defs><g clip-path="url(#clip0)"><path d="M3.36204 9.5538 3.24327 9.5538 0.264498 9.5538 0.264498 8.50482 0.264498 0.312369 0.264498 0.243594 3.23694 0.243594 3.24306 0.243594 5.34367 0.243594C6.72122 0.24339 7.90898 1.13502 8.29653 2.31727 8.65571 3.41237 8.34878 4.60278 7.53878 5.44951 7.64653 5.74155 7.75143 5.96951 7.85143 6.23176 8.07612 6.75012 8.28225 7.26849 8.50694 7.78053L9.24388 9.5538 9.2251 9.5538 6.10286 9.5538C6.10286 9.55522 6.07776 9.47869 6.05286 9.44767 5.92816 9.17298 5.81571 8.87931 5.69082 8.60461L4.93531 6.81257C4.63571 6.08808 4.33592 5.4038 4.03612 4.67931 4.41041 4.66931 4.69 4.73931 5.05122 4.57359 5.30469 4.44849 5.68939 4.13829 5.69918 3.54359 5.68939 3.24849 5.60776 3.02522 5.41286 2.79318 5.21714 2.57727 4.93408 2.41727 4.56551 2.41196 4.56551 2.41196 3.36143 2.41135 3.36225 2.41196L3.36225 9.5538 3.36204 9.5538ZM34.2333 0.245227 32.6176 0.245227 32.6176 3.60441 30.599 3.60441 30.4492 3.60441 30.4492 0.826043 30.4492 0.245227 28.2139 0.245227 20.3461 0.245227 18.1731 0.245227 17.9171 0.245227 17.9171 4.4289C17.942 4.62237 17.9857 4.81584 18.0045 5.01584L17.1678 3.11135C16.7931 2.23706 16.4371 1.36278 16.0625 0.482369 16.0312 0.401145 16.009 0.346655 15.9686 0.245227L12.7716 0.245227C12.7716 0.700941 12.778 1.20666 12.7716 1.65012L12.7716 4.4289C12.8029 4.60359 12.8592 4.83461 12.8843 5.01584L12.8655 4.97829C12.1786 3.41094 11.5167 1.83747 10.8612 0.245227L7.67163 0.245227C7.73408 0.432573 7.83388 0.601145 7.89653 0.788492L8.60102 2.43849 9.09265 3.59359 9.12388 3.6638C9.35 4.20237 9.52898 4.6242 9.74837 5.14216 10.3808 6.63767 10.9894 8.08155 11.6233 9.55522L14.8202 9.55522 14.8202 4.68482C14.9012 4.95951 14.9639 5.24053 15.0263 5.52155 15.5696 6.85767 16.1567 8.21278 16.7122 9.55522L19.9031 9.55522 19.9031 5.77747 19.9031 2.39951 22.0882 2.39951 22.0882 5.54645 22.0882 5.69625 22.0882 9.55522 25.1608 9.55522 25.1859 9.55522 25.1859 6.36441 25.1859 3.29849 25.1859 2.6242 25.1859 2.39951 27.352 2.39951 27.352 9.55522 28.7198 9.55522C29.2818 9.5491 29.8878 9.55522 30.4496 9.55522L30.4496 5.7589 30.4747 5.7589 32.3292 5.7589 32.618 5.7589 32.618 9.55522 33.2969 9.55522 35.7155 9.55522 35.7155 0.245227 34.2335 0.245227 34.2333 0.245227Z" fill="#00549F" fill-rule="evenodd" transform="scale(1.03158 1)"/><path d="M46.7231 0.291349 44.4127 0.291349 42.4788 7.59788 40.5445 0.291349 38.2337 0.291349 35.7806 9.56012 37.728 9.56012 38.1561 7.59992 40.6227 7.59992 41.051 9.56012 43.9065 9.56012 44.3347 7.59992 46.8014 7.59992 47.2298 9.56012 49.1769 9.56012 46.7231 0.291349ZM38.4806 6.06808 39.3765 1.90114 39.4025 1.90114 40.298 6.06808 38.4806 6.06808ZM44.6594 6.06808 45.5553 1.90114 45.5812 1.90114 46.4765 6.06808 44.6594 6.06808ZM52.8759 3.41992C52.8759 2.06971 52.6033 1.48563 51.7594 1.48563 50.8116 1.48563 50.5908 2.43339 50.5908 5.05543 50.5908 7.85951 50.9804 8.36563 51.7853 8.36563 52.4606 8.36563 52.9535 8.01523 52.9535 6.01604L54.8231 6.01604C54.8231 8.01523 54.3296 9.74176 51.8765 9.74176 49.0722 9.74176 48.722 7.74257 48.722 4.92584 48.722 2.10869 49.0722 0.109512 51.8765 0.109512 54.5506 0.109512 54.7449 2.06971 54.7449 3.41992L52.8759 3.41992ZM55.1076 0.291553 56.9763 0.291553 56.9763 3.83522 59.1576 3.83522 59.1576 0.291553 61.0267 0.291553 61.0267 9.56012 59.1576 9.56012 59.1576 5.44502 56.9763 5.44502 56.9763 9.56012 55.1076 9.56012 55.1076 0.291553ZM66.7249 0.291349 66.7249 1.82298 63.4147 1.82298 63.4147 4.0038 66.5298 4.0038 66.5298 5.53584 63.4147 5.53584 63.4147 8.02808 66.8547 8.02808 66.8547 9.55992 61.5449 9.55992 61.5449 0.291349 66.7249 0.291349ZM69.4257 0.291349 71.6843 6.6391 71.71 6.6391 71.71 0.291349 73.4237 0.291349 73.4237 9.55992 71.2945 9.55992 69.0104 3.06931 68.9837 3.06931 68.9837 9.55992 67.2704 9.55992 67.2704 0.291349 69.4257 0.291349Z" fill="#8EBAE5" fill-rule="evenodd" transform="scale(1.03158 1)"/><path d="M49.212 11.773 50.0951 11.773C50.9388 11.773 51.3929 12.2013 51.3929 13.0579 51.3929 14.0579 50.8869 14.4475 49.9908 14.4475L49.212 14.4475 49.212 11.773ZM47.3431 19.6658 49.212 19.6658 49.212 15.7452 50.2118 15.7452C50.9645 15.7452 51.2888 16.1864 51.3153 16.9132L51.3669 18.6918C51.3798 19.0554 51.4186 19.406 51.6008 19.6658L53.6255 19.6658 53.6255 19.5877C53.2753 19.406 53.2231 18.8997 53.21 17.926 53.1843 15.966 52.9898 15.2652 51.7178 15.0958L51.7178 15.0701C52.7688 14.8491 53.2622 14.0185 53.2622 12.7852 53.2622 11.2018 52.3276 10.3969 50.7959 10.3969L47.3429 10.3969 47.3429 19.6658 47.3431 19.6658ZM19.84 10.3969 19.84 16.8616C19.84 19.3409 21.2812 19.8475 22.7998 19.8475 24.3188 19.8475 25.7596 19.224 25.7596 16.8616L25.7596 10.3969 23.8902 10.3969 23.8902 16.8616C23.8902 17.7834 23.6696 18.4713 22.7998 18.4713 21.93 18.4713 21.7094 17.7834 21.7094 16.8616L21.7094 10.3969 19.84 10.3969ZM26.1602 10.3969 26.1602 19.6658 27.8737 19.6658 27.8737 13.1748 27.8996 13.1748 30.1845 19.6658 32.3135 19.6658 32.3135 10.3969 30.5998 10.3969 30.5998 16.7446 30.5739 16.7446 28.3153 10.3969 26.1602 10.3969ZM34.6633 10.3969 32.7941 10.3969 32.7941 19.6658 34.6633 19.6658 34.6633 10.3969ZM34.7916 10.3969 36.9206 19.6658 39.322 19.6658 41.4514 10.3969 39.5171 10.3969 38.1404 17.2511 38.1018 17.2511 36.791 10.3969 34.7916 10.3969ZM41.6173 10.3969 41.6173 19.6658 46.9271 19.6658 46.9271 18.1336 43.4865 18.1336 43.4865 15.6413 46.6022 15.6413 46.6022 14.1095 43.4865 14.1095 43.4865 11.9285 46.7974 11.9285 46.7974 10.3969 41.6173 10.3969ZM53.4178 16.7705 53.4178 17.1471C53.4178 18.8609 54.2486 19.8475 56.3643 19.8475 58.3898 19.8475 59.5835 18.9644 59.5835 17.0044 59.5835 15.875 59.2202 15.1613 57.8184 14.5507L56.3771 13.9281C55.5851 13.5901 55.4165 13.2399 55.4165 12.6689 55.4165 12.1236 55.6376 11.5913 56.4812 11.5913 57.1951 11.5913 57.4935 12.0979 57.4935 12.9675L59.2849 12.9675 59.2849 12.7077C59.2849 10.9291 58.0782 10.2154 56.4157 10.2154 54.651 10.2154 53.5473 11.1373 53.5473 12.9416 53.5473 14.4862 54.3131 15.1742 55.9745 15.7452 57.2078 16.1736 57.6363 16.485 57.6363 17.3293 57.6363 18.1077 57.091 18.4716 56.52 18.4716 55.5335 18.4716 55.2867 17.9134 55.2867 17.0432L55.2867 16.7705 53.4178 16.7705ZM61.6973 10.3969 59.8278 10.3969 59.8278 19.6658 61.6973 19.6658 61.6973 10.3969ZM71.4063 10.3969 70.1086 13.9797 70.0827 13.9797 68.8624 10.3969 61.9425 10.3969 61.9425 11.9285 63.9678 11.9285 63.9678 19.6658 65.8367 19.6658 65.8367 11.9285 67.4137 11.9285 69.161 16.0179 69.161 19.6658 71.0304 19.6658 71.0304 16.0179 73.4318 10.3969 71.4063 10.3969Z" fill="#8EBAE5" fill-rule="evenodd" transform="scale(1.03158 1)"/></g></svg>