<?xml version="1.0" encoding="utf-8"?>
<!-- Generator: Adobe Illustrator 16.0.3, SVG Export Plug-In . SVG Version: 6.00 Build 0)  -->
<!DOCTYPE svg PUBLIC "-//W3C//DTD SVG 1.1//EN" "http://www.w3.org/Graphics/SVG/1.1/DTD/svg11.dtd">
<svg version="1.1" id="Ebene_1" xmlns="http://www.w3.org/2000/svg" xmlns:xlink="http://www.w3.org/1999/xlink" x="0px" y="0px"
	 width="414.202px" height="110px" viewBox="0 0 414.202 110" enable-background="new 0 0 414.202 110" xml:space="preserve">
<rect y="0" fill="#FFFFFF" width="413.825" height="110.032"/>
<g>
	<path fill="#8EBAE5" d="M327.223,86.192h4.444v-9.323h2.376c1.791,0,2.563,1.051,2.625,2.779l0.123,4.229
		c0.031,0.862,0.124,1.696,0.557,2.314h4.814v-0.185c-0.833-0.434-0.957-1.637-0.987-3.951c-0.062-4.662-0.524-6.329-3.55-6.73
		v-0.062c2.5-0.524,3.674-2.5,3.674-5.434c0-3.767-2.223-5.681-5.865-5.681h-8.211V86.192z M331.667,67.424h2.1
		c2.006,0,3.088,1.019,3.088,3.057c0,2.376-1.205,3.302-3.335,3.302h-1.853V67.424z"/>
	<path fill="#8EBAE5" d="M261.686,64.151v15.373c0,5.896,3.426,7.1,7.038,7.1c3.61,0,7.039-1.48,7.039-7.1V64.151h-4.445v15.373
		c0,2.192-0.525,3.828-2.594,3.828s-2.594-1.636-2.594-3.828V64.151H261.686z"/>
</g>
<polygon fill="#8EBAE5" points="276.851,64.151 276.851,86.192 280.925,86.192 280.925,70.759 280.986,70.759 286.419,86.192 
	291.482,86.192 291.482,64.151 287.407,64.151 287.407,79.246 287.346,79.246 281.975,64.151 "/>
<rect x="292.625" y="64.151" fill="#8EBAE5" width="4.445" height="22.041"/>
<polygon fill="#8EBAE5" points="297.375,64.151 302.438,86.192 308.148,86.192 313.21,64.151 308.611,64.151 305.339,80.451 
	305.247,80.451 302.129,64.151 "/>
<polygon fill="#8EBAE5" points="313.606,64.151 313.606,86.192 326.232,86.192 326.232,82.551 318.052,82.551 318.052,76.622 
	325.462,76.622 325.462,72.98 318.052,72.98 318.052,67.794 325.924,67.794 325.924,64.151 "/>
<g>
	<path fill="#8EBAE5" d="M341.668,79.309v0.895c0,4.076,1.975,6.423,7.008,6.423c4.814,0,7.654-2.101,7.654-6.763
		c0-2.685-0.864-4.382-4.198-5.834l-3.427-1.48c-1.883-0.804-2.283-1.637-2.283-2.994c0-1.296,0.524-2.563,2.53-2.563
		c1.697,0,2.408,1.204,2.408,3.273h4.26v-0.618c0-4.229-2.872-5.927-6.822-5.927c-4.198,0-6.821,2.191-6.821,6.481
		c0,3.675,1.821,5.312,5.771,6.668c2.934,1.02,3.952,1.761,3.952,3.768c0,1.852-1.298,2.716-2.654,2.716
		c-2.348,0-2.934-1.327-2.934-3.396v-0.648H341.668z"/>
</g>
<rect x="356.911" y="64.151" fill="#8EBAE5" width="4.445" height="22.041"/>
<polygon fill="#8EBAE5" points="384.445,64.151 381.358,72.672 381.296,72.672 378.396,64.151 361.939,64.151 361.939,67.794 
	366.754,67.794 366.754,86.192 371.2,86.192 371.2,67.794 374.949,67.794 379.104,77.519 379.104,86.192 383.55,86.192 
	383.55,77.519 389.261,64.151 "/>
<g>
	<path fill="#00549F" d="M222.636,62.146h-0.282h-7.084v-2.495v-19.48v-0.163h7.069h0.015h4.995c3.276-0.001,6.101,2.12,7.022,4.931
		c0.853,2.605,0.124,5.434-1.802,7.449c0.256,0.693,0.506,1.236,0.742,1.859c0.535,1.233,1.024,2.466,1.56,3.683l1.753,4.217h-0.045
		h-7.424c0,0.004-0.061-0.178-0.119-0.253c-0.297-0.651-0.565-1.351-0.861-2.004l-1.797-4.262c-0.713-1.722-1.426-3.35-2.138-5.072
		c0.889-0.024,1.554,0.143,2.412-0.252c0.604-0.297,1.518-1.035,1.542-2.449c-0.024-0.701-0.219-1.232-0.682-1.785
		c-0.466-0.513-1.139-0.894-2.016-0.906c0,0-2.862-0.001-2.861,0V62.146z"/>
	<path fill="#00549F" d="M299.571,40.008v22.139h-5.751h-1.615V53.12h-0.687h-4.409h-0.061v9.027c-1.336,0-2.776-0.015-4.112,0
		h-3.253V45.13h-5.152v0.534v1.603v7.291v7.588h-0.059h-7.307V52.97v-0.356V45.13h-5.196v8.033v8.983h-7.587
		c-1.322-3.191-2.717-6.414-4.009-9.592c-0.149-0.668-0.298-1.337-0.49-1.99v11.582h-7.604c-1.507-3.504-2.955-6.938-4.457-10.494
		c-0.521-1.232-0.947-2.234-1.485-3.515l-0.074-0.168l-1.17-2.747l-1.676-3.923c-0.147-0.445-0.385-0.847-0.534-1.292h7.586
		c1.559,3.786,3.132,7.528,4.766,11.255l0.045,0.089c-0.059-0.431-0.193-0.98-0.268-1.395v-6.608c0.014-1.055,0-2.258,0-3.341h7.602
		c0.097,0.241,0.149,0.371,0.224,0.565c0.891,2.093,1.737,4.172,2.629,6.25l1.99,4.529c-0.046-0.476-0.149-0.935-0.209-1.395v-9.949
		h0.608h5.168h18.709h5.315v1.381v6.608h0.356h4.8v-7.989h3.843H299.571z"/>
</g>
<path fill="#8EBAE5" d="M320.937,53.805l2.14-9.954h0.063l2.14,9.954H320.937z M306.178,53.805l2.139-9.954h0.063l2.14,9.954
	H306.178z M325.867,40.005h-5.52l-4.62,17.452l-4.62-17.452h-5.52l-5.861,22.141h4.652l1.022-4.682h5.894l1.021,4.682h6.822
	l1.022-4.682h5.893l1.022,4.682h4.652L325.867,40.005z"/>
<g>
	<path fill="#8EBAE5" d="M345.027,47.561c0-3.21-0.463-7.872-6.822-7.872c-6.667,0-7.502,4.754-7.502,11.453
		c0,6.698,0.835,11.452,7.502,11.452c5.834,0,7.007-4.105,7.007-8.859h-4.445c0,4.754-1.173,5.587-2.777,5.587
		c-1.914,0-2.841-1.204-2.841-7.872c0-6.235,0.525-8.488,2.778-8.488c2.006,0,2.655,1.389,2.655,4.599H345.027z"/>
</g>
<polygon fill="#8EBAE5" points="346.09,62.146 350.555,62.146 350.555,52.318 355.765,52.318 355.765,62.146 360.229,62.146 
	360.229,40.008 355.765,40.008 355.765,48.474 350.555,48.474 350.555,40.008 346.09,40.008 "/>
<polygon fill="#8EBAE5" points="361.197,40.004 361.197,62.146 373.882,62.146 373.882,58.488 365.663,58.488 365.663,52.533 
	373.107,52.533 373.107,48.873 365.663,48.873 365.663,43.663 373.571,43.663 373.571,40.004 "/>
<polygon fill="#8EBAE5" points="374.545,40.008 374.545,62.146 378.638,62.146 378.638,46.643 378.699,46.643 384.157,62.146 
	389.242,62.146 389.242,40.008 385.148,40.008 385.148,55.17 385.087,55.17 379.691,40.008 "/>
<rect x="200.26" y="39.978" fill="#00549F" width="1.023" height="46.398"/>
<g>
	<path fill="#00549F" d="M40.972,54.543h-4.137V50.13h4.137v-2.758c0-2.795,0.653-4.727,1.958-5.794
		c1.305-1.067,3.172-1.599,5.6-1.599c1.287,0,2.372,0.055,3.255,0.165v4.579H50.13c-1.104,0-1.913,0.221-2.428,0.662
		c-0.515,0.442-0.772,1.159-0.772,2.151v2.594h4.855v4.413H46.93v31.836h-5.958V54.543z"/>
	<path fill="#00549F" d="M67.4,70.738c-0.406,0.296-0.893,0.562-1.461,0.802c-0.572,0.237-1.159,0.468-1.766,0.688
		c-0.607,0.221-1.214,0.434-1.821,0.635c-0.607,0.203-1.13,0.414-1.572,0.636c-0.846,0.404-1.462,1.028-1.848,1.875
		c-0.387,0.847-0.58,1.82-0.58,2.924c0,1.251,0.304,2.309,0.91,3.172c0.607,0.865,1.536,1.297,2.787,1.297
		c1.801,0,3.145-0.626,4.027-1.876c0.883-1.249,1.324-2.979,1.324-5.186V70.738z M73.027,80.228c0,0.551,0.146,1.039,0.442,1.462
		c0.294,0.423,0.661,0.634,1.103,0.634c0.441,0,0.772-0.055,0.993-0.166v3.862c-0.368,0.186-0.8,0.352-1.296,0.497
		c-0.497,0.147-1.04,0.221-1.629,0.221c-1.323,0-2.473-0.295-3.447-0.882c-0.975-0.589-1.499-1.6-1.573-3.035h-0.11
		c-0.809,1.472-1.803,2.565-2.979,3.282c-1.178,0.717-2.648,1.076-4.413,1.076c-2.428,0-4.322-0.672-5.683-2.014
		s-2.041-3.447-2.041-6.316c0-1.655,0.174-3.007,0.524-4.054c0.349-1.049,0.827-1.913,1.435-2.593
		c0.607-0.682,1.332-1.216,2.179-1.601c0.845-0.387,1.765-0.746,2.758-1.077l4.634-1.269c1.066-0.294,1.912-0.68,2.538-1.158
		c0.625-0.478,0.938-1.36,0.938-2.648c0-1.359-0.285-2.437-0.855-3.227c-0.571-0.791-1.647-1.187-3.227-1.187
		c-0.994,0-1.785,0.166-2.373,0.496c-0.589,0.331-1.048,0.755-1.379,1.27s-0.543,1.122-0.634,1.821
		c-0.093,0.697-0.138,1.397-0.138,2.096h-5.628c0-1.582,0.174-2.979,0.524-4.194c0.349-1.213,0.929-2.233,1.738-3.061
		c0.808-0.828,1.885-1.453,3.228-1.876c1.342-0.422,2.987-0.634,4.938-0.634c1.324,0,2.555,0.137,3.696,0.414
		c1.139,0.276,2.132,0.698,2.978,1.269c0.846,0.571,1.517,1.316,2.014,2.235s0.745,2.041,0.745,3.364V80.228z"/>
	<path fill="#00549F" d="M92.421,65.387v-0.771c0-0.588-0.055-1.159-0.166-1.711c-0.11-0.551-0.322-1.038-0.634-1.461
		c-0.313-0.423-0.717-0.764-1.214-1.022c-0.496-0.255-1.131-0.385-1.903-0.385c-1.178,0-2.179,0.294-3.007,0.883
		c-0.827,0.588-1.241,1.581-1.241,2.979c0,1.177,0.303,2.06,0.91,2.647c0.608,0.588,1.701,1.158,3.283,1.709l3.806,1.325
		c2.207,0.737,3.834,1.757,4.883,3.062c1.048,1.308,1.571,3.138,1.571,5.49c0,1.581-0.275,2.943-0.826,4.081
		c-0.553,1.142-1.307,2.079-2.262,2.815c-0.958,0.735-2.088,1.278-3.393,1.626c-1.307,0.35-2.695,0.525-4.165,0.525
		c-1.876,0-3.44-0.213-4.689-0.636c-1.252-0.422-2.254-1.027-3.007-1.819c-0.755-0.79-1.289-1.758-1.6-2.896
		c-0.313-1.141-0.47-2.428-0.47-3.862v-1.104h5.297V77.8c0,1.767,0.331,3.091,0.993,3.973c0.662,0.883,1.876,1.324,3.641,1.324
		c1.655,0,2.877-0.386,3.668-1.158s1.187-1.839,1.187-3.2c0-2.17-1.086-3.623-3.255-4.358l-4.854-1.71
		c-2.245-0.735-3.862-1.747-4.856-3.034c-0.993-1.287-1.489-3.126-1.489-5.518c0-2.794,0.91-4.854,2.73-6.178
		c1.821-1.325,4.294-1.986,7.42-1.986c1.876,0,3.421,0.247,4.634,0.745c1.215,0.495,2.161,1.139,2.842,1.93
		c0.681,0.792,1.149,1.664,1.407,2.621c0.257,0.956,0.386,1.896,0.386,2.813v1.323H92.421z"/>
	<path fill="#00549F" d="M34.616,82.375c-0.439,0-0.805-0.21-1.098-0.63c-0.289-0.416-0.432-0.896-0.435-1.436V59.795h-5.958V81.48
		v0.001c0,0.007,0.001,0.013,0.002,0.019c0.17,2.222,1.172,3.804,2.139,4.388c0.362,0.218,0.756,0.382,1.166,0.52
		c0.689,0.229,1.438,0.358,2.264,0.358c0.584,0,1.124-0.074,1.618-0.22s0.924-0.312,1.29-0.494V82.21
		C35.384,82.319,35.055,82.375,34.616,82.375"/>
	<path fill="#F6A800" d="M30.112,47.116c-2.834,0-5.131,2.298-5.131,5.131c0,2.834,2.297,5.131,5.131,5.131s5.131-2.297,5.131-5.131
		C35.243,49.414,32.946,47.116,30.112,47.116"/>
</g>
<polygon fill="#FFFFFF" points="30.124,47.105 27.73,50.977 32.502,50.967 "/>
<g>
	<path fill="#00549F" d="M182.201,84.575v0.195c0,0.266,0.03,0.506,0.092,0.721c0.061,0.215,0.168,0.398,0.322,0.552
		c0.153,0.154,0.359,0.271,0.619,0.354c0.259,0.082,0.589,0.123,0.992,0.123c0.293,0,0.566-0.036,0.819-0.107
		c0.251-0.072,0.468-0.179,0.649-0.323c0.18-0.143,0.322-0.324,0.425-0.542c0.102-0.218,0.153-0.47,0.153-0.757
		c0-0.416-0.092-0.745-0.276-0.987c-0.184-0.241-0.498-0.438-0.941-0.588l-0.849-0.287c-0.24-0.073-0.401-0.166-0.486-0.275
		c-0.086-0.109-0.128-0.232-0.128-0.368c0-0.198,0.066-0.346,0.199-0.445c0.133-0.099,0.288-0.147,0.466-0.147
		c0.231,0,0.394,0.065,0.486,0.198c0.092,0.134,0.138,0.344,0.138,0.63h1.268v-0.226c0-0.498-0.153-0.883-0.46-1.156
		c-0.307-0.272-0.782-0.408-1.422-0.408c-0.362,0-0.67,0.044-0.926,0.133c-0.255,0.089-0.465,0.208-0.629,0.357
		c-0.164,0.15-0.283,0.325-0.358,0.527c-0.076,0.201-0.112,0.414-0.112,0.639c0,0.39,0.098,0.708,0.296,0.957
		c0.198,0.248,0.491,0.442,0.88,0.578l0.992,0.358c0.136,0.054,0.256,0.128,0.358,0.22c0.103,0.092,0.154,0.228,0.154,0.404
		c0,0.218-0.066,0.381-0.195,0.491c-0.129,0.108-0.303,0.162-0.521,0.162c-0.24,0-0.422-0.072-0.548-0.219s-0.189-0.34-0.189-0.578
		v-0.185H182.201z M174.61,86.376h1.412v-3.622c0-0.327,0.066-0.564,0.199-0.716c0.133-0.15,0.312-0.225,0.537-0.225
		c0.198,0,0.339,0.062,0.425,0.184c0.085,0.123,0.128,0.3,0.128,0.532v3.847h1.411v-3.622c0-0.327,0.067-0.564,0.2-0.716
		c0.133-0.15,0.312-0.225,0.537-0.225c0.197,0,0.339,0.062,0.425,0.184c0.084,0.123,0.127,0.3,0.127,0.532v3.847h1.412v-4
		c0-0.532-0.111-0.938-0.332-1.223c-0.222-0.283-0.568-0.424-1.039-0.424c-0.334,0-0.623,0.073-0.864,0.22
		c-0.243,0.146-0.419,0.366-0.527,0.66h-0.02c-0.076-0.287-0.224-0.505-0.445-0.655c-0.222-0.15-0.497-0.225-0.824-0.225
		c-0.307,0-0.572,0.054-0.793,0.164c-0.222,0.108-0.421,0.288-0.598,0.542h-0.021v-0.563h-1.35V86.376z M170.999,83v-0.215
		c0-0.13,0.011-0.259,0.036-0.389c0.023-0.131,0.062-0.247,0.117-0.354c0.054-0.104,0.128-0.19,0.22-0.255
		c0.092-0.065,0.21-0.097,0.353-0.097c0.143,0,0.261,0.027,0.353,0.086c0.092,0.059,0.164,0.144,0.215,0.256
		c0.051,0.113,0.087,0.249,0.107,0.409c0.021,0.161,0.034,0.346,0.041,0.558H170.999z M173.792,83.839v-0.316
		c0-0.424-0.028-0.807-0.082-1.151c-0.056-0.345-0.158-0.638-0.307-0.88c-0.151-0.242-0.357-0.43-0.619-0.563
		c-0.263-0.133-0.599-0.198-1.008-0.198c-0.478,0-0.859,0.078-1.146,0.234c-0.286,0.157-0.506,0.368-0.659,0.634
		c-0.154,0.267-0.256,0.57-0.307,0.911c-0.051,0.342-0.077,0.696-0.077,1.064c0,0.34,0.015,0.687,0.046,1.038
		c0.031,0.351,0.114,0.668,0.251,0.952c0.136,0.282,0.347,0.513,0.634,0.689c0.286,0.177,0.685,0.267,1.197,0.267
		c0.675,0,1.169-0.173,1.483-0.518c0.313-0.344,0.484-0.836,0.512-1.478h-1.269c-0.041,0.348-0.116,0.606-0.225,0.777
		s-0.283,0.255-0.522,0.255c-0.13,0-0.239-0.034-0.327-0.106c-0.089-0.072-0.161-0.167-0.215-0.286
		c-0.055-0.12-0.094-0.256-0.117-0.41c-0.025-0.152-0.036-0.312-0.036-0.475v-0.44H173.792z M166.938,80.872h-0.716v0.962h0.716
		v3.151c0,0.278,0.017,0.511,0.052,0.694c0.033,0.185,0.097,0.333,0.189,0.445c0.092,0.113,0.223,0.193,0.394,0.241
		c0.17,0.048,0.395,0.071,0.675,0.071c0.164,0,0.318-0.008,0.465-0.021c0.147-0.014,0.298-0.028,0.456-0.041v-0.981
		c-0.049,0.007-0.1,0.012-0.154,0.015c-0.055,0.003-0.109,0.005-0.164,0.005c-0.204,0-0.339-0.046-0.404-0.138
		s-0.097-0.247-0.097-0.465v-2.978h0.819v-0.962h-0.819v-1.575h-1.412V80.872z M161.718,84.575v0.195
		c0,0.266,0.031,0.506,0.092,0.721c0.061,0.215,0.169,0.398,0.322,0.552c0.154,0.154,0.359,0.271,0.619,0.354
		c0.259,0.082,0.59,0.123,0.993,0.123c0.292,0,0.565-0.036,0.818-0.107c0.252-0.072,0.469-0.179,0.65-0.323
		c0.18-0.143,0.322-0.324,0.424-0.542s0.154-0.47,0.154-0.757c0-0.416-0.092-0.745-0.277-0.987
		c-0.184-0.241-0.498-0.438-0.941-0.588l-0.849-0.287c-0.239-0.073-0.401-0.166-0.486-0.275c-0.086-0.109-0.128-0.232-0.128-0.368
		c0-0.198,0.067-0.346,0.2-0.445c0.133-0.099,0.287-0.147,0.465-0.147c0.231,0,0.394,0.065,0.486,0.198
		c0.092,0.134,0.138,0.344,0.138,0.63h1.269v-0.226c0-0.498-0.154-0.883-0.461-1.156c-0.306-0.272-0.781-0.408-1.421-0.408
		c-0.363,0-0.671,0.044-0.926,0.133c-0.256,0.089-0.466,0.208-0.629,0.357c-0.164,0.15-0.284,0.325-0.359,0.527
		c-0.075,0.201-0.112,0.414-0.112,0.639c0,0.39,0.098,0.708,0.297,0.957c0.197,0.248,0.491,0.442,0.879,0.578l0.993,0.358
		c0.136,0.054,0.255,0.128,0.358,0.22c0.102,0.092,0.153,0.228,0.153,0.404c0,0.218-0.065,0.381-0.194,0.491
		c-0.13,0.108-0.304,0.162-0.522,0.162c-0.239,0-0.421-0.072-0.547-0.219c-0.127-0.146-0.189-0.34-0.189-0.578v-0.185H161.718z
		 M157.349,88.176h0.573c0.327,0,0.598-0.022,0.813-0.07c0.215-0.049,0.399-0.149,0.552-0.303c0.154-0.153,0.307-0.427,0.461-0.817
		c0.153-0.393,0.25-0.72,0.291-0.978l1.33-5.136h-1.412l-0.716,3.806h-0.02l-0.819-3.806h-1.473l1.545,5.504
		c-0.02,0.245-0.087,0.438-0.199,0.573c-0.113,0.136-0.299,0.204-0.558,0.204c-0.123,0-0.245-0.01-0.368-0.03V88.176z
		 M151.647,84.095v0.296c0,0.676,0.179,1.199,0.537,1.571c0.358,0.371,0.953,0.558,1.785,0.558c0.798,0,1.42-0.182,1.867-0.542
		c0.447-0.361,0.67-0.929,0.67-1.698c0-0.226-0.021-0.431-0.062-0.614c-0.04-0.184-0.114-0.353-0.219-0.506
		c-0.106-0.154-0.249-0.297-0.43-0.43c-0.181-0.134-0.407-0.262-0.68-0.385l-1.136-0.49c-0.314-0.131-0.519-0.271-0.614-0.425
		c-0.095-0.153-0.143-0.343-0.143-0.567c0-0.11,0.012-0.215,0.036-0.317c0.023-0.103,0.068-0.192,0.133-0.271
		c0.064-0.079,0.151-0.143,0.261-0.19c0.109-0.048,0.245-0.071,0.409-0.071c0.286,0,0.491,0.095,0.614,0.281
		c0.122,0.188,0.184,0.455,0.184,0.803h1.412v-0.203c0-0.349-0.057-0.647-0.169-0.896c-0.113-0.248-0.269-0.453-0.471-0.613
		c-0.201-0.161-0.44-0.276-0.716-0.348c-0.276-0.072-0.578-0.108-0.905-0.108c-0.703,0-1.256,0.178-1.658,0.532
		c-0.402,0.355-0.603,0.894-0.603,1.617c0,0.299,0.038,0.563,0.112,0.793c0.075,0.228,0.193,0.429,0.353,0.603
		c0.161,0.175,0.36,0.325,0.599,0.455c0.238,0.13,0.522,0.249,0.849,0.358c0.245,0.082,0.452,0.162,0.619,0.241
		s0.302,0.166,0.404,0.261c0.102,0.095,0.176,0.202,0.22,0.322s0.066,0.261,0.066,0.424c0,0.307-0.09,0.534-0.271,0.681
		s-0.383,0.221-0.608,0.221c-0.198,0-0.359-0.028-0.481-0.082c-0.123-0.055-0.222-0.131-0.297-0.226
		c-0.075-0.095-0.126-0.213-0.153-0.353c-0.028-0.141-0.041-0.295-0.041-0.466v-0.215H151.647z M145.739,82.27
		c0.092-0.305,0.291-0.456,0.598-0.456c0.314,0,0.517,0.151,0.609,0.456c0.092,0.303,0.138,0.754,0.138,1.354
		c0,0.6-0.046,1.052-0.138,1.355s-0.295,0.456-0.609,0.456c-0.307,0-0.506-0.152-0.598-0.456s-0.138-0.756-0.138-1.355
		C145.601,83.023,145.647,82.572,145.739,82.27 M147.145,86.376h1.351v-7.304h-1.412v2.312h-0.02
		c-0.151-0.218-0.32-0.382-0.507-0.49c-0.187-0.11-0.414-0.164-0.68-0.164c-0.58,0-1.006,0.227-1.279,0.68s-0.409,1.192-0.409,2.215
		c0,1.023,0.136,1.762,0.409,2.215s0.699,0.681,1.279,0.681c0.286,0,0.527-0.057,0.721-0.169c0.194-0.112,0.37-0.299,0.527-0.558
		h0.02V86.376z M139.143,86.376h1.412v-3.652c0-0.606,0.249-0.91,0.747-0.91c0.212,0,0.365,0.057,0.46,0.169
		c0.095,0.112,0.144,0.312,0.144,0.599v3.795h1.411v-4.082c0-0.552-0.12-0.951-0.363-1.197c-0.242-0.244-0.588-0.367-1.038-0.367
		c-0.307,0-0.58,0.063-0.819,0.188c-0.238,0.126-0.432,0.325-0.583,0.6h-0.02v-0.646h-1.351V86.376z M136.765,84.708
		c0,0.157-0.027,0.289-0.082,0.395c-0.054,0.105-0.124,0.192-0.21,0.261c-0.085,0.068-0.179,0.118-0.281,0.147
		c-0.102,0.031-0.2,0.046-0.297,0.046c-0.19,0-0.327-0.073-0.409-0.225c-0.082-0.15-0.123-0.33-0.123-0.542
		c0-0.245,0.062-0.439,0.185-0.583c0.122-0.143,0.327-0.245,0.613-0.307c0.089-0.021,0.189-0.054,0.297-0.098
		c0.109-0.044,0.212-0.104,0.307-0.179V84.708z M135.456,82.561v-0.153c0-0.218,0.055-0.393,0.163-0.522
		c0.11-0.13,0.273-0.193,0.491-0.193c0.24,0,0.408,0.059,0.507,0.179c0.099,0.119,0.148,0.284,0.148,0.496
		c0,0.184-0.041,0.324-0.123,0.419s-0.228,0.171-0.44,0.225l-0.798,0.216c-0.245,0.068-0.455,0.146-0.629,0.234
		c-0.174,0.089-0.317,0.2-0.429,0.333c-0.113,0.133-0.196,0.293-0.251,0.481c-0.054,0.187-0.082,0.411-0.082,0.67
		c0,0.184,0.025,0.37,0.072,0.557c0.048,0.188,0.122,0.356,0.225,0.507c0.102,0.15,0.239,0.273,0.409,0.368
		c0.171,0.095,0.378,0.144,0.624,0.144c0.342,0,0.619-0.049,0.834-0.144s0.404-0.287,0.567-0.573h0.021
		c0.02,0.096,0.043,0.192,0.066,0.292c0.025,0.1,0.061,0.192,0.108,0.281h1.35c-0.067-0.164-0.113-0.316-0.138-0.46
		c-0.023-0.144-0.036-0.345-0.036-0.604v-2.896c0-0.246-0.025-0.473-0.076-0.68c-0.052-0.208-0.149-0.387-0.292-0.538
		c-0.143-0.15-0.346-0.267-0.609-0.347c-0.262-0.082-0.601-0.123-1.018-0.123c-0.266,0-0.516,0.028-0.751,0.087
		c-0.236,0.058-0.44,0.152-0.614,0.286c-0.174,0.133-0.312,0.309-0.415,0.526c-0.102,0.218-0.153,0.484-0.153,0.798v0.134H135.456z
		 M126.966,84.575v0.195c0,0.266,0.03,0.506,0.092,0.721c0.061,0.215,0.168,0.398,0.322,0.552c0.153,0.154,0.359,0.271,0.619,0.354
		c0.259,0.082,0.589,0.123,0.992,0.123c0.293,0,0.566-0.036,0.819-0.107c0.251-0.072,0.468-0.179,0.649-0.323
		c0.18-0.143,0.322-0.324,0.425-0.542c0.102-0.218,0.153-0.47,0.153-0.757c0-0.416-0.092-0.745-0.276-0.987
		c-0.184-0.241-0.498-0.438-0.941-0.588l-0.849-0.287c-0.24-0.073-0.401-0.166-0.486-0.275c-0.086-0.109-0.128-0.232-0.128-0.368
		c0-0.198,0.066-0.346,0.199-0.445c0.133-0.099,0.288-0.147,0.466-0.147c0.231,0,0.394,0.065,0.486,0.198
		c0.092,0.134,0.138,0.344,0.138,0.63h1.268v-0.226c0-0.498-0.153-0.883-0.46-1.156c-0.307-0.272-0.782-0.408-1.422-0.408
		c-0.362,0-0.67,0.044-0.926,0.133c-0.256,0.089-0.465,0.208-0.629,0.357c-0.164,0.15-0.283,0.325-0.358,0.527
		c-0.076,0.201-0.112,0.414-0.112,0.639c0,0.39,0.098,0.708,0.296,0.957c0.198,0.248,0.491,0.442,0.88,0.578l0.992,0.358
		c0.136,0.054,0.256,0.128,0.358,0.22c0.103,0.092,0.154,0.228,0.154,0.404c0,0.218-0.066,0.381-0.195,0.491
		c-0.13,0.108-0.303,0.162-0.521,0.162c-0.24,0-0.422-0.072-0.548-0.219s-0.189-0.34-0.189-0.578v-0.185H126.966z M123.584,83
		v-0.215c0-0.13,0.011-0.259,0.035-0.389c0.024-0.131,0.063-0.247,0.118-0.354c0.054-0.104,0.128-0.19,0.22-0.255
		c0.092-0.065,0.21-0.097,0.353-0.097c0.143,0,0.261,0.027,0.353,0.086c0.092,0.059,0.164,0.144,0.215,0.256
		c0.051,0.113,0.087,0.249,0.107,0.409c0.021,0.161,0.034,0.346,0.041,0.558H123.584z M126.376,83.839v-0.316
		c0-0.424-0.027-0.807-0.081-1.151c-0.056-0.345-0.158-0.638-0.307-0.88c-0.151-0.242-0.357-0.43-0.619-0.563
		c-0.263-0.133-0.599-0.198-1.008-0.198c-0.478,0-0.859,0.078-1.146,0.234c-0.286,0.157-0.506,0.368-0.66,0.634
		c-0.153,0.267-0.255,0.57-0.306,0.911c-0.052,0.342-0.077,0.696-0.077,1.064c0,0.34,0.015,0.687,0.046,1.038
		c0.031,0.351,0.113,0.668,0.25,0.952c0.137,0.282,0.348,0.513,0.635,0.689c0.286,0.177,0.685,0.267,1.197,0.267
		c0.675,0,1.169-0.173,1.483-0.518c0.313-0.344,0.484-0.836,0.512-1.478h-1.269c-0.041,0.348-0.117,0.606-0.225,0.777
		c-0.11,0.171-0.283,0.255-0.522,0.255c-0.13,0-0.239-0.034-0.327-0.106c-0.089-0.072-0.161-0.167-0.215-0.286
		c-0.055-0.12-0.094-0.256-0.118-0.41c-0.024-0.152-0.035-0.312-0.035-0.475v-0.44H126.376z M119.698,84.812h-0.02l-0.788-3.939
		h-1.473l1.422,5.504h1.637l1.381-5.504h-1.412L119.698,84.812z M115.355,86.376h1.412v-5.504h-1.412V86.376z M115.355,80.197h1.412
		V78.99h-1.412V80.197z M111.815,86.376h1.412v-3.304c0-0.186,0.03-0.34,0.092-0.466c0.061-0.126,0.143-0.229,0.245-0.308
		c0.103-0.079,0.215-0.135,0.338-0.169c0.123-0.033,0.245-0.051,0.368-0.051c0.075,0,0.148,0.002,0.22,0.005
		c0.072,0.003,0.144,0.009,0.22,0.017v-1.352c-0.041-0.007-0.084-0.012-0.128-0.015c-0.045-0.003-0.087-0.005-0.128-0.005
		c-0.293,0-0.542,0.08-0.747,0.239c-0.204,0.161-0.378,0.374-0.521,0.641h-0.021v-0.737h-1.35V86.376z M106.032,86.376h2.322
		c0.491,0,0.897-0.075,1.217-0.225c0.321-0.151,0.576-0.379,0.768-0.687c0.191-0.307,0.325-0.694,0.404-1.166
		c0.079-0.47,0.117-1.029,0.117-1.678c0-0.539-0.03-1.026-0.092-1.462c-0.061-0.438-0.179-0.812-0.353-1.121
		c-0.173-0.31-0.417-0.549-0.731-0.716c-0.314-0.166-0.726-0.25-1.238-0.25h-2.414V86.376z M107.505,80.156h0.624
		c0.279,0,0.503,0.053,0.67,0.159c0.167,0.104,0.294,0.264,0.379,0.475c0.085,0.212,0.141,0.473,0.168,0.783
		c0.028,0.31,0.041,0.673,0.041,1.089c0,0.499-0.015,0.914-0.046,1.248c-0.03,0.335-0.092,0.604-0.184,0.809
		c-0.092,0.204-0.218,0.351-0.378,0.439c-0.161,0.089-0.367,0.133-0.619,0.133h-0.655V80.156z"/>
	<path fill="#00549F" d="M150.715,74.776h1.412v-3.304c0-0.184,0.031-0.34,0.092-0.466c0.062-0.126,0.143-0.229,0.246-0.308
		c0.102-0.077,0.215-0.135,0.337-0.168c0.123-0.033,0.246-0.052,0.369-0.052c0.074,0,0.148,0.002,0.22,0.005
		c0.071,0.004,0.144,0.01,0.219,0.017v-1.352c-0.04-0.007-0.083-0.012-0.127-0.015c-0.045-0.003-0.087-0.005-0.128-0.005
		c-0.294,0-0.542,0.08-0.747,0.24s-0.379,0.374-0.522,0.64h-0.02v-0.737h-1.351V74.776z M147.104,71.4v-0.215
		c0-0.13,0.011-0.259,0.036-0.388c0.024-0.13,0.062-0.248,0.118-0.354c0.054-0.105,0.127-0.191,0.22-0.256
		c0.092-0.064,0.209-0.097,0.353-0.097c0.143,0,0.26,0.028,0.352,0.087c0.093,0.058,0.164,0.143,0.215,0.255
		c0.051,0.113,0.087,0.249,0.108,0.41c0.02,0.16,0.033,0.345,0.041,0.557H147.104z M149.897,72.239v-0.316
		c0-0.423-0.028-0.806-0.082-1.151c-0.055-0.345-0.157-0.637-0.307-0.88c-0.15-0.242-0.357-0.43-0.619-0.562
		c-0.263-0.134-0.598-0.2-1.007-0.2c-0.478,0-0.86,0.079-1.146,0.234c-0.287,0.157-0.506,0.369-0.66,0.636
		c-0.153,0.266-0.256,0.568-0.307,0.91c-0.051,0.341-0.077,0.695-0.077,1.063c0,0.341,0.016,0.688,0.046,1.038
		c0.031,0.351,0.114,0.668,0.251,0.952c0.136,0.283,0.348,0.513,0.634,0.689c0.287,0.178,0.686,0.267,1.197,0.267
		c0.675,0,1.17-0.172,1.484-0.517c0.313-0.345,0.484-0.837,0.511-1.479h-1.268c-0.041,0.348-0.117,0.606-0.225,0.778
		c-0.11,0.171-0.284,0.256-0.522,0.256c-0.13,0-0.24-0.036-0.328-0.108c-0.089-0.071-0.16-0.167-0.214-0.286
		c-0.056-0.12-0.094-0.256-0.118-0.409c-0.025-0.153-0.036-0.312-0.036-0.476v-0.44H149.897z M139.485,74.776h1.637l0.685-3.907
		h0.021l0.726,3.907h1.606l1.187-5.504h-1.351l-0.665,3.908h-0.02l-0.726-3.908h-1.535l-0.685,3.908h-0.021l-0.644-3.908h-1.412
		L139.485,74.776z M135.027,71.248c0.013-0.239,0.046-0.443,0.097-0.614s0.126-0.304,0.225-0.399
		c0.098-0.095,0.236-0.143,0.414-0.143c0.287,0,0.484,0.15,0.593,0.45c0.109,0.299,0.164,0.795,0.164,1.482
		c0,0.689-0.055,1.185-0.164,1.483c-0.109,0.3-0.306,0.451-0.593,0.451c-0.178,0-0.316-0.048-0.414-0.145
		c-0.099-0.095-0.174-0.228-0.225-0.398c-0.051-0.17-0.084-0.375-0.097-0.613c-0.015-0.239-0.021-0.499-0.021-0.778
		C135.006,71.746,135.012,71.485,135.027,71.248 M133.697,73.294c0.067,0.36,0.184,0.665,0.348,0.91
		c0.163,0.245,0.384,0.428,0.664,0.547c0.28,0.12,0.631,0.176,1.054,0.169c0.402,0,0.742-0.063,1.018-0.189
		c0.276-0.126,0.499-0.31,0.67-0.552c0.17-0.243,0.293-0.545,0.368-0.906c0.075-0.36,0.113-0.776,0.113-1.248
		c0-0.478-0.035-0.897-0.102-1.263c-0.069-0.366-0.185-0.67-0.348-0.916c-0.164-0.245-0.386-0.427-0.665-0.547
		c-0.28-0.12-0.631-0.176-1.054-0.169c-0.403,0-0.742,0.063-1.018,0.188c-0.276,0.126-0.5,0.311-0.67,0.554
		c-0.171,0.241-0.293,0.544-0.368,0.904c-0.076,0.361-0.113,0.778-0.113,1.248C133.594,72.509,133.628,72.933,133.697,73.294
		 M128.472,74.776h1.473V71.86h0.788c0.348,0,0.665-0.044,0.951-0.133c0.287-0.089,0.53-0.222,0.732-0.398
		c0.2-0.178,0.358-0.404,0.47-0.681c0.113-0.275,0.169-0.604,0.169-0.986c0-0.273-0.035-0.54-0.102-0.804
		c-0.069-0.263-0.181-0.496-0.338-0.701c-0.157-0.203-0.363-0.369-0.619-0.495c-0.255-0.126-0.571-0.189-0.946-0.189h-2.578V74.776z
		 M129.945,68.557h0.614c0.368,0,0.63,0.095,0.788,0.287c0.156,0.191,0.235,0.47,0.235,0.838c0,0.376-0.091,0.652-0.271,0.829
		c-0.181,0.177-0.418,0.266-0.711,0.266h-0.655V68.557z M122.278,70.67c0.092-0.305,0.291-0.456,0.598-0.456
		c0.313,0,0.517,0.151,0.609,0.456c0.092,0.303,0.138,0.755,0.138,1.354c0,0.602-0.046,1.053-0.138,1.356
		c-0.092,0.303-0.296,0.455-0.609,0.455c-0.307,0-0.506-0.152-0.598-0.455c-0.092-0.304-0.138-0.755-0.138-1.356
		C122.14,71.425,122.186,70.973,122.278,70.67 M123.685,74.776h1.35v-7.304h-1.412v2.313h-0.02
		c-0.151-0.219-0.319-0.383-0.507-0.491c-0.188-0.11-0.414-0.164-0.68-0.164c-0.58,0-1.007,0.227-1.279,0.68
		c-0.273,0.454-0.409,1.192-0.409,2.215c0,1.023,0.136,1.763,0.409,2.215c0.272,0.453,0.699,0.681,1.279,0.681
		c0.286,0,0.527-0.057,0.721-0.169c0.195-0.112,0.37-0.298,0.527-0.558h0.021V74.776z M118.413,74.776h1.412v-5.504h-1.412V74.776z
		 M118.413,68.598h1.412v-1.207h-1.412V68.598z M116.037,74.776h1.35v-5.504h-1.412v3.652c0,0.606-0.249,0.911-0.747,0.911
		c-0.211,0-0.365-0.057-0.46-0.169c-0.096-0.112-0.143-0.313-0.143-0.599v-3.796h-1.412v4.082c0,0.552,0.121,0.951,0.363,1.197
		c0.242,0.245,0.588,0.368,1.039,0.368c0.307,0,0.579-0.063,0.818-0.189c0.238-0.126,0.433-0.325,0.583-0.599h0.021V74.776z
		 M110.779,74.776h1.412v-7.304h-1.412V74.776z M105.96,74.776h1.473v-3.171h2.455v-1.207h-2.455V68.68h2.609v-1.207h-4.082V74.776z
		"/>
	<path fill="#00549F" d="M150.946,63.178h1.412v-3.305c0-0.184,0.03-0.339,0.092-0.465c0.061-0.127,0.143-0.229,0.245-0.308
		c0.103-0.078,0.215-0.135,0.338-0.169s0.245-0.051,0.368-0.051c0.075,0,0.149,0.001,0.22,0.005c0.072,0.003,0.144,0.008,0.22,0.016
		v-1.351c-0.041-0.007-0.084-0.012-0.128-0.015c-0.045-0.004-0.087-0.005-0.128-0.005c-0.293,0-0.542,0.079-0.746,0.24
		c-0.205,0.159-0.379,0.372-0.522,0.639h-0.021v-0.736h-1.35V63.178z M147.219,59.648c0.013-0.239,0.046-0.444,0.097-0.614
		c0.052-0.17,0.126-0.303,0.225-0.399c0.099-0.096,0.237-0.143,0.415-0.143c0.286,0,0.484,0.149,0.593,0.45
		c0.109,0.3,0.164,0.794,0.164,1.483c0,0.688-0.055,1.183-0.164,1.483c-0.109,0.3-0.307,0.45-0.593,0.45
		c-0.178,0-0.316-0.049-0.415-0.144c-0.099-0.096-0.173-0.229-0.225-0.398c-0.051-0.171-0.084-0.375-0.097-0.614
		c-0.014-0.239-0.02-0.498-0.02-0.777C147.199,60.145,147.205,59.887,147.219,59.648 M145.889,61.694
		c0.068,0.36,0.184,0.665,0.348,0.911c0.164,0.244,0.385,0.427,0.665,0.547c0.279,0.119,0.63,0.175,1.054,0.169
		c0.402,0,0.741-0.064,1.018-0.189c0.276-0.127,0.499-0.311,0.67-0.553c0.17-0.242,0.292-0.544,0.368-0.905
		c0.075-0.362,0.113-0.777,0.113-1.248c0-0.478-0.035-0.899-0.103-1.264c-0.068-0.365-0.184-0.67-0.348-0.915
		c-0.163-0.246-0.385-0.429-0.665-0.548c-0.28-0.119-0.631-0.176-1.053-0.168c-0.403,0-0.742,0.062-1.018,0.188
		c-0.276,0.126-0.5,0.311-0.67,0.553c-0.171,0.241-0.294,0.543-0.368,0.905c-0.076,0.361-0.113,0.777-0.113,1.248
		C145.787,60.91,145.821,61.332,145.889,61.694 M143.154,63.178h1.412v-4.543h0.818v-0.961h-0.818v-0.48
		c0-0.158,0.04-0.271,0.122-0.338c0.082-0.068,0.221-0.103,0.42-0.103h0.133c0.061,0,0.108,0.003,0.143,0.01v-1.001
		c-0.26-0.021-0.512-0.031-0.757-0.031c-0.225,0-0.43,0.022-0.614,0.067c-0.184,0.044-0.34,0.117-0.465,0.22
		c-0.127,0.103-0.224,0.238-0.292,0.409c-0.068,0.17-0.102,0.378-0.102,0.624v0.624h-0.716v0.961h0.716V63.178z M136.862,59.802
		v-0.215c0-0.13,0.013-0.26,0.036-0.389c0.024-0.13,0.064-0.247,0.118-0.354c0.054-0.105,0.128-0.19,0.22-0.256
		c0.092-0.064,0.209-0.097,0.353-0.097c0.143,0,0.261,0.029,0.353,0.087c0.092,0.057,0.163,0.143,0.214,0.256
		c0.052,0.112,0.087,0.248,0.108,0.409c0.02,0.16,0.034,0.346,0.041,0.558H136.862z M139.655,60.641v-0.317
		c0-0.423-0.028-0.808-0.082-1.151c-0.054-0.344-0.156-0.638-0.307-0.879c-0.15-0.243-0.356-0.43-0.619-0.563
		c-0.262-0.134-0.598-0.199-1.007-0.199c-0.478,0-0.86,0.077-1.146,0.234c-0.286,0.156-0.506,0.368-0.66,0.635
		c-0.153,0.266-0.256,0.568-0.307,0.91c-0.051,0.341-0.076,0.695-0.076,1.064c0,0.34,0.015,0.686,0.046,1.038
		c0.03,0.351,0.114,0.668,0.25,0.951c0.136,0.283,0.348,0.513,0.635,0.69c0.286,0.178,0.685,0.267,1.196,0.267
		c0.676,0,1.17-0.173,1.484-0.518s0.484-0.838,0.511-1.478h-1.268c-0.041,0.348-0.116,0.606-0.225,0.776
		c-0.11,0.171-0.284,0.257-0.522,0.257c-0.13,0-0.238-0.036-0.327-0.107c-0.089-0.072-0.161-0.168-0.215-0.287
		c-0.054-0.119-0.094-0.255-0.118-0.409c-0.023-0.152-0.036-0.312-0.036-0.476v-0.439H139.655z M132.802,57.674h-0.716v0.961h0.716
		v3.151c0,0.28,0.017,0.512,0.051,0.696c0.034,0.184,0.097,0.332,0.189,0.444s0.223,0.192,0.394,0.24
		c0.171,0.047,0.396,0.072,0.675,0.072c0.164,0,0.32-0.007,0.466-0.021c0.146-0.014,0.299-0.026,0.455-0.04v-0.982
		c-0.048,0.007-0.099,0.012-0.153,0.016c-0.055,0.003-0.11,0.005-0.164,0.005c-0.205,0-0.34-0.046-0.404-0.138
		c-0.065-0.092-0.097-0.248-0.097-0.466v-2.978h0.818v-0.961h-0.818v-1.576h-1.412V57.674z M130.107,63.178h1.351v-5.504h-1.412
		v3.652c0,0.606-0.249,0.91-0.747,0.91c-0.212,0-0.365-0.057-0.46-0.168c-0.095-0.113-0.143-0.313-0.143-0.6v-3.795h-1.412v4.082
		c0,0.552,0.121,0.951,0.363,1.196c0.243,0.246,0.588,0.369,1.038,0.369c0.307,0,0.58-0.064,0.819-0.189
		c0.238-0.127,0.433-0.327,0.583-0.599h0.02V63.178z M124.451,57.674h-0.716v0.961h0.716v3.151c0,0.28,0.018,0.512,0.051,0.696
		c0.035,0.184,0.098,0.332,0.19,0.444c0.092,0.112,0.224,0.192,0.394,0.24c0.17,0.047,0.395,0.072,0.675,0.072
		c0.163,0,0.319-0.007,0.465-0.021c0.147-0.014,0.299-0.026,0.455-0.04v-0.982c-0.047,0.007-0.098,0.012-0.153,0.016
		c-0.054,0.003-0.109,0.005-0.164,0.005c-0.204,0-0.338-0.046-0.404-0.138c-0.064-0.092-0.097-0.248-0.097-0.466v-2.978h0.818
		v-0.961h-0.818v-1.576h-1.412V57.674z M121.668,63.178h1.412v-5.504h-1.412V63.178z M121.668,56.999h1.412v-1.207h-1.412V56.999z
		 M118.764,57.674h-0.716v0.961h0.716v3.151c0,0.28,0.018,0.512,0.052,0.696c0.034,0.184,0.097,0.332,0.189,0.444
		c0.092,0.112,0.224,0.192,0.394,0.24c0.17,0.047,0.396,0.072,0.675,0.072c0.163,0,0.319-0.007,0.465-0.021
		c0.148-0.014,0.299-0.026,0.456-0.04v-0.982c-0.048,0.007-0.099,0.012-0.154,0.016c-0.054,0.003-0.108,0.005-0.164,0.005
		c-0.204,0-0.338-0.046-0.404-0.138c-0.064-0.092-0.097-0.248-0.097-0.466v-2.978h0.819v-0.961h-0.819v-1.576h-1.412V57.674z
		 M113.545,61.377v0.194c0,0.266,0.031,0.507,0.092,0.722c0.061,0.214,0.169,0.399,0.322,0.552c0.154,0.154,0.359,0.271,0.619,0.354
		c0.259,0.082,0.589,0.123,0.993,0.123c0.292,0,0.565-0.036,0.818-0.108c0.252-0.071,0.468-0.179,0.65-0.322
		c0.18-0.143,0.322-0.323,0.424-0.542s0.154-0.471,0.154-0.757c0-0.416-0.093-0.746-0.277-0.986
		c-0.184-0.243-0.498-0.439-0.941-0.59l-0.849-0.285c-0.239-0.076-0.401-0.169-0.486-0.276c-0.086-0.11-0.128-0.232-0.128-0.368
		c0-0.199,0.067-0.347,0.2-0.445c0.133-0.1,0.287-0.148,0.465-0.148c0.231,0,0.394,0.066,0.486,0.2
		c0.092,0.133,0.138,0.342,0.138,0.629h1.269v-0.226c0-0.498-0.154-0.884-0.461-1.155c-0.306-0.273-0.781-0.409-1.422-0.409
		c-0.362,0-0.67,0.044-0.925,0.133c-0.256,0.088-0.466,0.207-0.629,0.358c-0.164,0.148-0.284,0.324-0.359,0.525
		c-0.075,0.201-0.112,0.415-0.112,0.641c0,0.389,0.098,0.706,0.297,0.955c0.197,0.249,0.491,0.441,0.879,0.578l0.993,0.358
		c0.136,0.055,0.255,0.128,0.358,0.22c0.102,0.092,0.153,0.227,0.153,0.404c0,0.218-0.065,0.382-0.194,0.491
		c-0.13,0.108-0.304,0.164-0.522,0.164c-0.239,0-0.421-0.074-0.547-0.221c-0.127-0.146-0.189-0.339-0.189-0.578v-0.184H113.545z
		 M108.59,63.178h1.411v-3.652c0-0.607,0.249-0.91,0.747-0.91c0.211,0,0.364,0.056,0.46,0.169c0.096,0.112,0.144,0.312,0.144,0.598
		v3.796h1.411v-4.082c0-0.553-0.121-0.952-0.363-1.196c-0.242-0.246-0.588-0.368-1.038-0.368c-0.307,0-0.58,0.062-0.818,0.188
		c-0.24,0.126-0.434,0.325-0.584,0.599h-0.02v-0.645h-1.35V63.178z M107.505,55.873h-1.473v7.304h1.473V55.873z"/>
</g>
</svg>
