<svg width="76" height="28" xmlns="http://www.w3.org/2000/svg" xmlns:xlink="http://www.w3.org/1999/xlink" xml:space="preserve" overflow="hidden"><defs><clipPath id="clip0"><rect x="0" y="0" width="76" height="28"/></clipPath></defs><g clip-path="url(#clip0)"><path d="M57.1583 35.3319C58.2789 33.7836 59.7387 32.7194 61.5903 32.203 62.3132 31.9946 63.0625 31.8927 63.815 31.9004 65.7476 31.9345 67.474 32.5486 68.9571 33.804 69.2172 34.0242 69.4614 34.2627 69.6895 34.4709 70.1412 34.0923 70.5664 33.6847 71.0419 33.348 72.0669 32.6216 73.2529 32.1541 74.4983 31.9854 75.8561 31.7849 77.2428 31.9412 78.522 32.439 79.4547 32.7916 80.3097 33.322 81.0403 34.0007 81.8147 34.7259 82.4598 35.5422 82.9088 36.507 83.2924 37.3309 83.5557 38.1895 83.6243 39.0998 83.6504 39.4479 83.6682 39.7977 83.6682 40.1467 83.6709 45.9571 83.6714 51.7675 83.67 57.578 83.67 58.646 82.933 59.4863 81.8769 59.6262 80.8171 59.7666 79.8017 59.1247 79.5343 58.1312 79.4872 57.9396 79.4652 57.7426 79.4689 57.5451 79.4657 51.7273 79.4643 45.9091 79.4648 40.0912 79.4638 38.3388 78.5028 36.9112 76.8734 36.3438 75.5978 35.8997 74.3835 36.1131 73.3032 36.9362 72.2781 37.7173 71.7944 38.7847 71.7926 40.057 71.7844 45.8976 71.7835 51.7387 71.7889 57.5794 71.7889 58.6264 71.0529 59.4886 70.0457 59.6258 68.953 59.7748 67.9298 59.143 67.655 58.1349 67.6061 57.936 67.5837 57.7312 67.5878 57.5263 67.5846 51.6779 67.5837 45.8295 67.5851 39.9811 67.5851 38.1546 66.2935 36.5476 64.5013 36.2054 63.3208 35.9798 62.2391 36.2436 61.3124 37.039 60.3984 37.8233 59.9545 38.825 59.954 40.0247 59.9531 45.8729 59.9513 51.7218 59.949 57.5702 59.9476 58.4284 59.5261 59.084 58.7534 59.4406 57.995 59.7913 57.2246 59.7405 56.5356 59.223 55.9701 58.7983 55.6935 58.2194 55.7035 57.5085 55.7053 57.3942 55.7012 57.2799 55.6999 57.1661 55.7058 57.1386 55.7117 57.1117 55.7181 57.0842 55.8338 56.9384 55.96 56.7994 56.0638 56.6453 56.7564 55.629 57.124 54.4261 57.1185 53.1963 57.1231 47.3876 57.1236 41.5788 57.1199 35.7702 57.1199 35.664 57.1117 35.5578 57.1071 35.4516 57.124 35.4117 57.1409 35.3718 57.1583 35.3319Z" fill="#23B63B" transform="matrix(1 0 0 1.00649 -7.70776 -32.0526)"/><path d="M24.216 46.9725C24.2171 44.5825 24.2127 42.1927 24.2217 39.8029 24.2255 38.8117 24.463 37.865 24.8482 36.9555 25.3009 35.8712 25.9829 34.8978 26.8473 34.102 28.039 33.0071 29.4292 32.2925 31.0336 32.0378 31.5794 31.9439 32.1326 31.8999 32.6864 31.9065 33.7815 31.9327 34.8596 32.1826 35.8545 32.6409 37.3032 33.3051 38.4542 34.3113 39.3508 35.6199 39.3612 35.6304 39.3733 35.6392 39.3867 35.6456 39.3893 35.6751 39.3919 35.7045 39.3944 35.734 39.3931 38.0383 39.3867 40.3427 39.3945 42.6471 39.3942 43.1237 39.425 43.5999 39.4867 44.0725 39.6423 45.2234 40.0877 46.2757 40.6457 47.2848 40.6595 47.3094 40.6896 47.3254 40.7121 47.3456 40.7156 47.3812 40.719 47.4169 40.7225 47.4525 40.7202 47.5513 40.7158 47.6501 40.7158 47.7493 40.7155 51.0159 40.7153 54.2821 40.7153 57.5487 40.7222 58.4028 40.2082 59.1745 39.4176 59.4973 38.6544 59.8082 37.6468 59.6162 37.0893 59.0332 36.7155 58.6551 36.5077 58.1436 36.5118 57.6118 36.5111 55.0077 36.511 52.4035 36.5115 49.7993L36.5115 49.5081 28.4232 49.5081 28.4232 49.7696C28.4232 52.3815 28.4228 54.993 28.4221 57.605 28.4207 58.6003 27.6262 59.4882 26.627 59.6267 25.5595 59.7748 24.595 59.1946 24.3037 58.2181 24.2536 58.0434 24.2264 57.8624 24.2228 57.6809 24.2109 57.247 24.2179 56.8127 24.2173 56.3788 24.2201 56.3541 24.2229 56.329 24.2256 56.3038 24.4218 56.0112 24.6476 55.7337 24.8088 55.4228 25.2904 54.4938 25.6025 53.5145 25.6918 52.4602 25.7587 51.7278 25.7347 50.9903 25.6205 50.2638 25.4717 49.3508 25.1357 48.4949 24.6834 47.6889 24.5514 47.4535 24.3764 47.2422 24.2211 47.02ZM28.4228 45.2677 36.4681 45.2677C36.4681 43.4548 36.489 41.6594 36.4597 39.8646 36.444 38.8972 36.0164 38.0696 35.3506 37.3827 34.4978 36.5028 33.4534 36.0747 32.2149 36.144 31.1524 36.2034 30.2518 36.6295 29.5357 37.3937 28.7736 38.2072 28.4012 39.1925 28.4202 40.3213 28.435 41.1969 28.4229 42.0728 28.4228 42.9486 28.4228 43.7157 28.4228 44.4828 28.4228 45.2677Z" fill="#049DC7" transform="matrix(1 0 0 1.00649 -7.70776 -32.0526)"/><path d="M24.2256 56.3038C24.2229 56.329 24.2201 56.3541 24.2173 56.3788 24.0208 56.5992 23.8242 56.8195 23.6275 57.0399 22.3596 58.4526 20.7702 59.2678 18.9081 59.5709 18.6683 59.6102 18.4256 59.6303 18.1824 59.6313 15.9511 59.6358 13.7197 59.6367 11.4884 59.634 10.3236 59.6335 9.49343 58.7663 9.45014 57.5999 9.40305 56.3312 10.464 55.4169 11.6419 55.4255 13.6675 55.4411 15.6933 55.4297 17.7191 55.4297 19.4662 55.4297 21.0034 54.2039 21.4017 52.4963 21.8866 50.417 20.4687 48.3669 18.4567 47.982 18.166 47.9276 17.8712 47.8983 17.5756 47.8937 16.9209 47.8809 16.2656 47.8992 15.6109 47.8882 13.7441 47.8562 12.0836 47.2431 10.6427 46.0618 9.28299 44.9468 8.36755 43.5254 7.97793 41.8144 7.40159 39.2836 7.8864 36.9533 9.5104 34.904 10.4919 33.6655 11.7368 32.7672 13.256 32.3038 13.8456 32.124 14.468 31.9721 15.0792 31.9569 17.2778 31.9024 19.478 31.8973 21.6775 31.9029 22.7313 31.9056 23.5934 32.7622 23.7054 33.8836 23.7896 34.7265 23.2324 35.7405 22.234 36.0227 22.0511 36.0726 21.8623 36.0976 21.6728 36.097 19.7841 36.1023 17.8954 36.0911 16.0068 36.1055 15.3923 36.1101 14.7817 36.1818 14.2126 36.4586 12.9666 37.0647 12.2173 38.0371 12.0133 39.414 11.8333 40.6291 12.2246 41.676 13.0517 42.5407 13.6764 43.1938 14.468 43.5951 15.3909 43.636 16.2795 43.6754 17.1704 43.6601 18.0597 43.6881 19.8289 43.7439 21.4074 44.3395 22.7587 45.4741 23.2895 45.92 23.7329 46.4696 24.216 46.9725 24.2177 46.988 24.2194 47.004 24.2211 47.02 24.2205 49.3394 24.2199 51.6583 24.2194 53.9776 24.2195 54.753 24.2235 55.5284 24.2256 56.3038Z" fill="#0072CA" transform="matrix(1 0 0 1.00649 -7.70776 -32.0526)"/><path d="M40.7225 47.4525C40.719 47.4169 40.7156 47.3812 40.7121 47.3456 40.7133 45.004 40.715 42.6625 40.7173 40.3211 40.7194 39.508 40.6397 38.7132 40.4121 37.9252 40.2079 37.2178 39.8775 36.5745 39.549 35.9262 39.5127 35.8544 39.4466 35.7977 39.3944 35.734 39.3918 35.7045 39.3893 35.6751 39.3867 35.6456 39.3879 35.0747 39.3891 34.5036 39.3904 33.9326 39.3931 32.6842 40.5572 31.7192 41.7874 31.904 43.0108 32.0877 43.608 33.185 43.6019 34.054 43.582 36.9091 43.5813 39.7643 43.5999 42.6197 43.6122 44.3733 44.3862 45.7495 45.835 46.7256 47.127 47.5966 48.5498 47.7538 50.0197 47.3081 51.2459 46.9359 52.1845 46.161 52.8118 45.0339 52.8781 44.9078 52.9128 44.7674 52.9123 44.6251 52.9178 41.0769 52.9192 37.5288 52.9165 33.9807 52.9165 33.1128 53.3947 32.3551 54.1504 32.0392 55.009 31.6805 55.7981 31.8251 56.478 32.4391 56.8991 32.8196 57.1021 33.333 57.1181 33.9046 57.13 34.323 57.119 34.7421 57.1222 35.1608 57.1286 35.2189 57.1405 35.2761 57.1583 35.3318 57.1409 35.3718 57.124 35.4118 57.1071 35.4517 57.0522 35.5122 56.9823 35.5647 56.9453 35.6346 56.7336 36.0287 56.5105 36.4182 56.3276 36.8257 55.9362 37.699 55.709 38.6194 55.7076 39.5774 55.7003 45.3145 55.6989 51.0516 55.7044 56.7889 55.7044 56.8872 55.7136 56.9859 55.7181 57.0842 55.7122 57.1117 55.7058 57.1386 55.6999 57.1661 55.5266 57.3453 55.3574 57.5286 55.18 57.7037 54.134 58.7361 52.8845 59.3643 51.4246 59.5394 50.9985 59.5906 50.5528 59.6121 50.1326 59.5453 48.9512 59.3588 48.2147 58.1911 48.5004 57.0298 48.7491 56.0199 49.5428 55.3899 50.5743 55.3839 51.7845 55.3762 52.7848 54.438 52.8707 53.231 52.8982 52.8141 52.9078 52.3962 52.9151 51.9788 52.9224 51.5604 52.9165 51.1416 52.9165 50.6826 52.8259 50.7247 52.7537 50.7539 52.6856 50.7901 51.1362 51.6116 49.4697 51.8992 47.7438 51.7616 45.8492 51.6103 44.1504 50.9158 42.6821 49.6896 41.9174 49.0495 41.2564 48.2947 40.7225 47.4525Z" fill="#1ACDB5" transform="matrix(1 0 0 1.00649 -7.70776 -32.0526)"/><path d="M55.7181 57.0842C55.7131 56.9859 55.7044 56.8872 55.7044 56.7889 55.704 51.0516 55.7049 45.3145 55.7076 39.5774 55.709 38.6194 55.9362 37.699 56.3276 36.8257 56.5105 36.4182 56.7336 36.0287 56.9453 35.6346 56.9823 35.5647 57.0522 35.5122 57.1071 35.4517 57.1117 35.5578 57.1199 35.664 57.1199 35.7702 57.1208 41.5788 57.1204 47.3876 57.1185 53.1963 57.124 54.4261 56.7564 55.629 56.0638 56.6453 55.96 56.7994 55.8338 56.9384 55.7181 57.0842Z" fill="#1EC178" transform="matrix(1 0 0 1.00649 -7.70776 -32.0526)"/><path d="M39.3944 35.734C39.4466 35.7977 39.5127 35.8544 39.549 35.9262 39.8775 36.5745 40.2079 37.2178 40.4121 37.9252 40.6397 38.7132 40.7194 39.508 40.7173 40.3211 40.7113 42.6625 40.7095 45.004 40.7121 47.3456 40.6896 47.3254 40.6595 47.3094 40.6457 47.2848 40.0877 46.2757 39.6423 45.2234 39.4867 44.0725 39.425 43.5999 39.3942 43.1237 39.3945 42.6471 39.3867 40.3427 39.3931 38.0383 39.3944 35.734Z" fill="#0EB4BE" transform="matrix(1 0 0 1.00649 -7.70776 -32.0526)"/><path d="M24.2256 56.3038C24.2235 55.5284 24.2195 54.753 24.2194 53.9776 24.2192 51.6583 24.2197 49.3394 24.2211 47.02 24.3764 47.2422 24.5514 47.4535 24.6834 47.6889 25.1357 48.4949 25.4717 49.3508 25.6205 50.2638 25.7347 50.9903 25.7587 51.7278 25.6918 52.4602 25.6025 53.5145 25.2904 54.4938 24.8088 55.4228 24.6476 55.7337 24.4218 56.0112 24.2256 56.3038Z" fill="#0187C8" transform="matrix(1 0 0 1.00649 -7.70776 -32.0526)"/></g></svg>