<?xml version="1.0" encoding="UTF-8" standalone="no"?>
<!-- Generator: Adobe Illustrator 26.1.0, SVG Export Plug-In . SVG Version: 6.00 Build 0)  -->

<svg
   version="1.1"
   id="Ebene_1"
   x="0px"
   y="0px"
   viewBox="0 0 311.89998 38.485687"
   xml:space="preserve"
   sodipodi:docname="stadtwerke.svg"
   width="311.89999"
   height="38.485687"
   inkscape:version="1.2 (dc2aedaf03, 2022-05-15)"
   xmlns:inkscape="http://www.inkscape.org/namespaces/inkscape"
   xmlns:sodipodi="http://sodipodi.sourceforge.net/DTD/sodipodi-0.dtd"
   xmlns="http://www.w3.org/2000/svg"
   xmlns:svg="http://www.w3.org/2000/svg"><defs
   id="defs59291" /><sodipodi:namedview
   id="namedview59289"
   pagecolor="#ffffff"
   bordercolor="#000000"
   borderopacity="0.25"
   inkscape:showpageshadow="2"
   inkscape:pageopacity="0.0"
   inkscape:pagecheckerboard="0"
   inkscape:deskcolor="#d1d1d1"
   showgrid="false"
   inkscape:zoom="4.0564372"
   inkscape:cx="101.4437"
   inkscape:cy="18.612392"
   inkscape:window-width="2560"
   inkscape:window-height="1351"
   inkscape:window-x="1431"
   inkscape:window-y="517"
   inkscape:window-maximized="1"
   inkscape:current-layer="Ebene_1" />
<style
   type="text/css"
   id="style59276">
	.st0{fill:#164194;}
	.st1{fill:#BDBFE1;}
</style>
<g
   id="g59286"
   style="fill:#ffffff;fill-opacity:1"
   transform="translate(-14.6,-9.9)">
	<path
   class="st0"
   d="m 311.3,28 c -0.1,0 -0.2,0 -0.3,0 -0.1,0 -0.3,0 -0.5,0 -0.6,0 -1.1,-0.1 -1.4,-0.3 -0.3,-0.2 -0.4,-0.5 -0.4,-1 0,-0.1 0,-0.2 0,-0.3 0,-0.1 0,-0.1 0,-0.2 l 0.9,-6.4 h 2.5 l 0.5,-3.7 h -2.5 l 0.7,-5.1 h -6.2 l -0.7,5.1 h -2.3 l -0.6,3.7 h 2.3 l -1.1,7.4 c -0.1,0.4 -0.1,0.7 -0.1,1 0,0.3 0,0.6 0,0.8 0,1.2 0.4,2.2 1.3,2.8 0.8,0.7 2,1 3.6,1 0.5,0 1.1,0 1.7,-0.1 0.6,0 1.2,-0.1 1.8,-0.2 z m -15.9,4.8 0.9,-6.3 c 0.2,-1.7 0.6,-2.9 1.2,-3.5 0.6,-0.6 1.4,-0.9 2.6,-0.9 0.2,0 0.5,0 1,0.1 0.2,0 0.4,0 0.5,0 l 0.9,-6.3 c 0,0 -0.1,0 -0.1,0 -0.3,0 -0.5,0 -0.7,0 -1,0 -1.8,0.2 -2.6,0.7 -0.8,0.5 -1.5,1.2 -2.1,2.2 l 0.3,-2.4 h -5.8 l -2.3,16.5 h 6.2 z M 280.7,29 c -0.4,0.2 -1,0.3 -1.6,0.3 -0.9,0 -1.6,-0.3 -2.1,-0.8 -0.5,-0.5 -0.7,-1.3 -0.7,-2.3 V 26 h 12 c 0,-0.3 0.1,-0.5 0.1,-0.8 0,-0.3 0,-0.5 0,-0.8 0,-2.8 -0.8,-5 -2.3,-6.4 -1.5,-1.5 -3.7,-2.2 -6.6,-2.2 -2.9,0 -5.3,0.9 -7,2.7 -1.8,1.8 -2.6,4.2 -2.6,7.2 0,2.4 0.8,4.3 2.4,5.7 1.6,1.4 3.8,2.1 6.6,2.1 2.3,0 4.3,-0.5 5.8,-1.4 1.5,-0.9 2.6,-2.3 3.1,-4 h -6.2 c -0.2,0.3 -0.5,0.7 -0.9,0.9 m -3.2,-8.5 c 0.5,-0.5 1.2,-0.8 2,-0.8 0.8,0 1.5,0.3 1.9,0.8 0.5,0.5 0.7,1.3 0.7,2.2 h -5.7 c 0.3,-0.9 0.6,-1.7 1.1,-2.2 m -22.4,12.3 0.3,-2.3 c 0.5,0.9 1.2,1.6 2.1,2.1 0.9,0.5 2,0.7 3.3,0.7 2.3,0 4.2,-0.9 5.7,-2.8 1.4,-1.9 2.2,-4.3 2.2,-7.4 0,-2.3 -0.6,-4.1 -1.7,-5.4 -1.1,-1.3 -2.7,-2 -4.6,-2 -0.9,0 -1.7,0.2 -2.5,0.5 -0.7,0.3 -1.4,0.9 -2,1.5 l 1.2,-7.4 h -6.3 l -3.3,22.4 h 5.6 z m 6.8,-11.4 c 0.4,0.5 0.6,1.3 0.6,2.3 0,1.4 -0.3,2.5 -0.9,3.4 -0.6,0.9 -1.4,1.3 -2.3,1.3 -0.8,0 -1.4,-0.3 -1.8,-0.8 -0.4,-0.6 -0.7,-1.3 -0.7,-2.3 0,-1.4 0.3,-2.5 0.9,-3.4 0.6,-0.9 1.4,-1.3 2.3,-1.3 0.9,0 1.5,0.3 1.9,0.8 M 247,32.8 250,10.4 h -6.3 l -3.1,22.4 z M 232.1,29 c -0.4,0.2 -1,0.3 -1.6,0.3 -0.9,0 -1.6,-0.3 -2.1,-0.8 -0.5,-0.5 -0.7,-1.3 -0.7,-2.3 V 26 h 12 c 0,-0.3 0.1,-0.5 0.1,-0.8 0,-0.3 0,-0.5 0,-0.8 0,-2.8 -0.8,-5 -2.3,-6.4 -1.5,-1.5 -3.7,-2.2 -6.6,-2.2 -2.9,0 -5.3,0.9 -7,2.7 -1.8,1.8 -2.6,4.2 -2.6,7.2 0,2.4 0.8,4.3 2.4,5.7 1.6,1.4 3.8,2.1 6.6,2.1 2.3,0 4.3,-0.5 5.8,-1.4 1.5,-0.9 2.6,-2.3 3.1,-4 H 233 c -0.2,0.3 -0.5,0.7 -0.9,0.9 M 229,20.5 c 0.5,-0.5 1.2,-0.8 2,-0.8 0.8,0 1.5,0.3 1.9,0.8 0.5,0.5 0.7,1.3 0.7,2.2 H 228 c 0.1,-0.9 0.4,-1.7 1,-2.2 m -15.1,12.3 10.3,-22.4 h -7.4 l -5.1,13.2 c -0.1,0.3 -0.2,0.6 -0.3,1 -0.1,0.4 -0.2,0.9 -0.3,1.5 0,-0.3 0,-0.6 0,-0.7 0,-0.2 0,-0.3 0,-0.4 0,-0.3 0,-0.5 0,-0.8 0,-0.3 0,-0.5 -0.1,-0.8 l -1.5,-13 h -6.9 l 4.1,22.4 z M 184.1,29 c -0.4,0.2 -1,0.3 -1.6,0.3 -0.9,0 -1.6,-0.3 -2.1,-0.8 -0.5,-0.5 -0.7,-1.3 -0.7,-2.3 V 26 h 12 c 0,-0.3 0.1,-0.5 0.1,-0.8 0,-0.3 0,-0.5 0,-0.8 0,-2.8 -0.8,-5 -2.3,-6.4 -1.5,-1.5 -3.7,-2.2 -6.6,-2.2 -2.9,0 -5.3,0.9 -7,2.7 -1.8,1.8 -2.6,4.2 -2.6,7.2 0,2.4 0.8,4.3 2.4,5.7 1.6,1.4 3.8,2.1 6.6,2.1 2.3,0 4.3,-0.5 5.8,-1.4 1.5,-0.9 2.6,-2.3 3.1,-4 H 185 c -0.2,0.3 -0.5,0.7 -0.9,0.9 m -3.2,-8.5 c 0.5,-0.5 1.2,-0.8 2,-0.8 0.8,0 1.5,0.3 1.9,0.8 0.5,0.5 0.7,1.3 0.7,2.2 h -5.7 c 0.3,-0.9 0.6,-1.7 1.1,-2.2 m -20.3,12.3 0.7,-4.4 1.8,-1.8 2.4,6.1 h 6.8 l -4.6,-10.1 6.7,-6.4 H 167 l -4.8,5.3 1.7,-11.2 h -6.4 l -3.3,22.4 h 6.4 z m -12.3,0 0.9,-6.3 c 0.2,-1.7 0.6,-2.9 1.2,-3.5 0.6,-0.6 1.4,-0.9 2.6,-0.9 0.2,0 0.5,0 1,0.1 0.2,0 0.4,0 0.5,0 l 0.9,-6.3 c 0,0 -0.1,0 -0.1,0 -0.3,0 -0.5,0 -0.7,0 -1,0 -1.8,0.2 -2.6,0.7 -0.8,0.5 -1.5,1.2 -2.1,2.2 l 0.3,-2.4 h -5.8 L 142,32.8 Z M 133.5,29 c -0.4,0.2 -1,0.3 -1.6,0.3 -0.9,0 -1.6,-0.3 -2.1,-0.8 -0.5,-0.5 -0.7,-1.3 -0.7,-2.3 V 26 h 12 c 0,-0.3 0.1,-0.5 0.1,-0.8 0,-0.3 0,-0.5 0,-0.8 0,-2.8 -0.8,-5 -2.3,-6.4 -1.5,-1.5 -3.7,-2.2 -6.6,-2.2 -2.9,0 -5.3,0.9 -7,2.7 -1.8,1.8 -2.6,4.2 -2.6,7.2 0,2.4 0.8,4.3 2.4,5.7 1.6,1.4 3.8,2.1 6.6,2.1 2.3,0 4.3,-0.5 5.8,-1.4 1.5,-0.9 2.6,-2.3 3.1,-4 h -6.2 c -0.2,0.3 -0.4,0.7 -0.9,0.9 m -3.1,-8.5 c 0.5,-0.5 1.2,-0.8 2,-0.8 0.8,0 1.5,0.3 1.9,0.8 0.5,0.5 0.7,1.3 0.7,2.2 h -5.7 c 0.2,-0.9 0.6,-1.7 1.1,-2.2 m -25.4,12.3 3.8,-9.9 1.2,9.9 h 6.4 l 7.1,-16.5 h -6.2 l -3.7,9.6 -1.1,-9.6 H 107 l -4,9.7 -0.9,-9.7 h -6 l 2.6,16.5 z M 95.3,28 c -0.1,0 -0.2,0 -0.3,0 -0.1,0 -0.3,0 -0.5,0 -0.6,0 -1.1,-0.1 -1.4,-0.3 -0.3,-0.2 -0.4,-0.5 -0.4,-1 0,-0.1 0,-0.2 0,-0.3 0,-0.1 0,-0.1 0,-0.2 l 0.9,-6.4 h 2.5 l 0.5,-3.7 H 94.1 L 94.8,11 h -6.2 l -0.7,5.1 H 85.6 L 85.2,20 h 2.3 l -1.1,7.4 c -0.1,0.4 -0.1,0.7 -0.1,1 0,0.3 0,0.6 0,0.8 0,1.2 0.4,2.2 1.3,2.8 0.8,0.7 2,1 3.6,1 0.5,0 1.1,0 1.7,-0.1 0.6,0 1.2,-0.1 1.8,-0.2 z m -12.6,4.8 3.1,-22.4 h -6.3 l -1.1,7.7 c -0.6,-0.8 -1.3,-1.4 -2.1,-1.8 -0.8,-0.4 -1.7,-0.6 -2.8,-0.6 -2.2,0 -4.1,0.9 -5.5,2.8 -1.5,1.9 -2.2,4.2 -2.2,7 0,2.4 0.6,4.3 1.7,5.7 1.2,1.4 2.7,2.1 4.7,2.1 1,0 2,-0.2 2.9,-0.7 0.9,-0.5 1.7,-1.1 2.3,-2 l -0.2,2.1 h 5.5 z M 77.1,21.5 c 0.4,0.5 0.7,1.3 0.7,2.3 0,1.4 -0.3,2.6 -0.9,3.5 -0.6,0.9 -1.4,1.3 -2.4,1.3 -0.8,0 -1.4,-0.3 -1.8,-0.8 -0.4,-0.5 -0.6,-1.3 -0.6,-2.3 0,-1.4 0.3,-2.5 0.9,-3.4 0.6,-0.9 1.4,-1.4 2.3,-1.4 0.7,0 1.3,0.3 1.8,0.8 M 63.5,32.8 V 32.4 C 63.3,32.2 63.2,31.9 63.1,31.7 63,31.4 63,31.1 63,30.7 c 0,-0.1 0,-0.3 0,-0.5 0,-0.2 0.1,-0.5 0.1,-0.9 l 0.9,-6 c 0.1,-0.5 0.1,-0.9 0.2,-1.4 0,-0.4 0.1,-0.8 0.1,-1.1 0,-1.7 -0.7,-3 -2,-3.9 C 61,16 59,15.6 56.5,15.6 c -2.7,0 -4.8,0.5 -6.3,1.4 -1.5,0.9 -2.3,2.3 -2.6,4.2 h 6.1 c 0.1,-0.6 0.3,-1 0.6,-1.3 0.4,-0.3 0.9,-0.4 1.6,-0.4 0.6,0 1.2,0.1 1.5,0.4 0.4,0.2 0.6,0.6 0.6,1 0,0.8 -1.1,1.3 -3.2,1.5 -0.4,0 -0.7,0.1 -0.9,0.1 -3,0.3 -5.1,0.9 -6.3,1.9 -1.2,0.9 -1.8,2.4 -1.8,4.2 0,1.4 0.5,2.5 1.5,3.3 1,0.8 2.3,1.3 3.9,1.3 1,0 2,-0.2 3,-0.5 0.9,-0.3 1.9,-0.9 2.8,-1.6 l 0.2,1.5 h 6.3 z m -7,-4.4 c -0.6,0.7 -1.4,1 -2.5,1 -0.5,0 -0.9,-0.1 -1.2,-0.4 -0.3,-0.2 -0.5,-0.6 -0.5,-1 0,-0.9 0.9,-1.6 2.6,-1.9 1.1,-0.2 1.9,-0.5 2.6,-0.7 0,1.3 -0.4,2.3 -1,3 M 45.5,28 c -0.1,0 -0.2,0 -0.3,0 -0.1,0 -0.3,0 -0.5,0 -0.6,0 -1.1,-0.1 -1.4,-0.3 -0.3,-0.2 -0.4,-0.5 -0.4,-1 0,-0.1 0,-0.2 0,-0.3 0,-0.1 0,-0.1 0,-0.2 l 0.9,-6.4 h 2.5 l 0.5,-3.7 H 44.3 L 45,11 h -6 l -0.7,5.1 H 36 L 35.4,20 h 2.3 l -1.1,7.4 c -0.1,0.4 -0.1,0.7 -0.1,1 0,0.3 0,0.6 0,0.8 0,1.2 0.4,2.2 1.3,2.8 0.8,0.7 2,1 3.6,1 0.5,0 1.1,0 1.7,-0.1 0.6,0 1.2,-0.1 1.8,-0.2 z m -28.2,3.4 c 1.8,1.4 4.2,2 7.4,2 3,0 5.4,-0.6 7.1,-1.9 1.7,-1.3 2.5,-3 2.5,-5.3 0,-1.4 -0.4,-2.7 -1.3,-3.8 -0.8,-1.1 -2.2,-2 -4,-2.8 -0.5,-0.2 -1.2,-0.5 -2.1,-0.9 -2.2,-0.9 -3.4,-1.7 -3.4,-2.4 0,-0.4 0.2,-0.8 0.6,-1.1 0.4,-0.3 0.9,-0.4 1.4,-0.4 0.9,0 1.6,0.2 2,0.6 0.5,0.4 0.8,0.9 0.9,1.7 h 6.7 C 35,14.8 34,13 32.4,11.8 30.8,10.5 28.5,9.9 25.7,9.9 c -2.8,0 -5,0.6 -6.6,1.8 -1.6,1.2 -2.4,2.9 -2.4,5 0,1.5 0.5,2.8 1.4,3.8 0.9,1 2.7,2.1 5.3,3.3 0.3,0.1 0.6,0.3 1.1,0.5 1.9,0.8 2.8,1.5 2.8,2.3 0,0.6 -0.2,1 -0.6,1.3 -0.4,0.3 -1,0.5 -1.8,0.5 -1.1,0 -1.9,-0.2 -2.5,-0.7 -0.6,-0.4 -0.9,-1.1 -0.9,-1.9 v -0.1 h -6.9 c 0,2.4 0.9,4.3 2.7,5.7"
   id="path59278"
   style="fill:#ffffff;fill-opacity:1" />
	<path
   class="st1"
   d="m 308.4,31.3 c 0.6,-0.3 1.3,0.1 1.9,0 0.4,0.2 0.8,0 1.3,0.1 0.2,0 0.3,0.2 0.5,0.2 0.5,-0.3 1.1,-0.2 1.6,-0.2 0.5,0.1 0.4,1 1.1,0.9 0.2,0.1 0.2,0.4 0.1,0.6 -0.4,0.4 -1.6,-0.6 -1.4,0.6 0.2,0.3 0.6,0.5 0.5,0.9 -0.2,0.3 -0.5,0.4 -0.8,0.3 -0.2,0 -0.2,-0.1 -0.4,0 -0.2,0.3 -0.3,0.6 -0.6,0.8 -1,-0.1 -1.8,-0.2 -2.9,-0.1 -0.9,-0.3 -1.8,-0.3 -2.7,-0.1 -0.6,-0.2 -1.4,0.2 -2.1,-0.3 -2.7,0.3 -5,0 -7.6,0.3 -1,-0.4 -1.8,0.2 -2.9,-0.2 -0.7,0.6 -1.6,0.2 -2.4,0.3 -0.9,0 -2,0 -2.8,0.3 -1.6,-0.2 -3.2,0.1 -4.8,0.2 -0.2,-0.1 -0.5,-0.3 -0.8,-0.1 l -0.2,0.1 c -2.8,0 -5.8,0.3 -8.6,0.7 -1.5,0.1 -3,0.3 -4.6,0.5 -0.2,0 -0.4,-0.3 -0.6,-0.1 -0.5,0.5 -1.2,0.2 -1.8,0.4 -1.4,0.1 -2.8,0.4 -4.1,0.6 -0.4,-0.1 -1,-0.3 -1.4,0.2 -1,0.2 -1.9,0.3 -2.8,0.4 -1,0.3 -1.9,0.1 -2.7,0.7 -0.2,0 -0.5,0 -0.6,-0.1 -0.8,0.1 -1.7,0.4 -2.6,0.6 -0.5,-0.1 -0.9,-0.3 -1.2,0.2 -3.3,0.6 -6.5,1.1 -9.7,2.1 -0.8,-0.4 -1.4,0.7 -2,0.2 -0.4,-0.3 -0.9,0.5 -1.3,0 0.1,-0.4 0.6,-0.7 0.4,-1.2 -0.3,-0.6 -1.2,-0.8 -1.3,-1.5 0.2,-0.1 0.3,-0.3 0.4,-0.1 0.1,0.3 0.3,0.5 0.6,0.5 0.4,-0.4 0.7,-1 1.4,-0.8 0.2,-0.2 0.5,-0.1 0.7,-0.1 1,-0.6 2.1,-0.5 3.1,-1 1,-0.1 2,-0.7 3.1,-0.6 2.1,-0.6 4.4,-1.2 6.5,-1.4 0.8,0.3 1.5,-0.6 2.2,-0.4 1.6,-0.3 2.9,-0.1 4.4,-0.9 0.2,0 0.4,0 0.5,0 2.4,-0.3 4.7,-0.5 7.2,-1 0.6,-0.3 1.2,0.4 1.7,-0.1 3.5,-0.6 6.9,-0.6 10.4,-1.1 0.4,0.2 0.8,0.3 1.2,0 2.3,-0.2 4.7,-0.3 7.1,-0.5 0.6,0.4 1.2,-0.3 1.8,-0.2 5,-0.4 9.5,-0.5 14.7,-0.5 0.4,-0.3 0.8,0 1.3,0 0.7,-0.2 1.4,-0.2 2,-0.1"
   id="path59280"
   style="fill:#ffffff;fill-opacity:1" />
	<path
   class="st1"
   d="m 302.6,37.1 c 0.4,0.2 0.8,-0.3 1.1,-0.1 0.5,0.3 1,-0.1 1.5,0.2 2.2,0.3 4.4,0.3 6.5,0.6 0.6,0.5 1.2,-0.4 1.8,0.2 0.5,0.3 1.4,0 2,0.3 1.8,0.1 3.7,0.8 5.4,0.6 0.4,0.5 0.9,0.3 1.5,0.2 0.6,0.7 1.6,0.4 2.4,0.8 0.2,0 0.6,-0.1 0.7,0.3 -0.1,0.3 -0.3,0.5 -0.3,0.7 0.1,0.3 0.3,0.5 0.6,0.5 0.3,0 0.5,-0.1 0.7,0.2 -0.1,0.5 -0.6,0.2 -0.9,0.3 -0.6,-0.1 -1.1,0.5 -1.6,0.8 0.1,0.4 0.7,0.2 0.7,0.7 -0.7,-0.3 -0.9,0.7 -1.5,0.6 -0.2,-0.3 -0.6,-0.6 -0.9,-0.6 -0.6,0.3 -1.4,0.1 -1.9,-0.3 -0.5,0.1 -1.1,0 -1.5,-0.3 -1.5,-0.2 -3.1,-0.4 -4.6,-0.4 -1.1,-0.7 -2.6,-0.5 -3.9,-0.8 -0.9,-0.3 -1.9,0.1 -2.8,-0.3 -1.7,0.1 -3.6,-0.6 -5.4,-0.1 -0.9,-0.5 -2.1,0 -3,-0.3 -2.4,0.1 -4.8,0 -7,0.1 -0.3,-0.1 -0.6,-0.5 -1,-0.3 l -0.3,0.2 c -3,0 -6.3,0 -9.5,0.2 -1.3,0 -2.3,0.4 -3.6,0.3 -2,0.1 -4.1,0.2 -6.2,0.5 -0.7,0.5 -1.3,0 -2,0.4 -1,-0.5 -2.1,0.3 -3.1,0.2 -1,0 -2.1,0.2 -3.1,0.4 -0.9,-0.8 -1.8,0.8 -2.6,0 -0.5,0 -1.2,0.5 -1.5,0 0.1,-0.5 0.8,-0.6 0.9,-1 -0.2,-0.3 -0.4,-0.6 -0.7,-0.8 -0.5,-0.1 -1.2,0.2 -1.4,-0.5 0.1,-0.3 0.4,-0.1 0.6,-0.1 0.1,0.1 0.5,0.2 0.7,0 0.3,-0.8 1.1,-0.2 1.7,-0.5 1.9,-0.3 4.1,-1 6,-0.9 0.1,0 0.2,0.1 0.4,0 0.4,-0.6 1.2,-0.3 1.8,-0.5 2.4,-0.5 4.9,-0.3 7.1,-0.9 1.6,0.6 3.1,-0.2 4.7,-0.1 2,-0.3 4,-0.1 6.1,-0.3 0.5,0.1 1.1,-0.3 1.5,0.1 0.4,0 0.8,-0.4 1.2,-0.2 2.1,-0.2 3.8,0 5.8,-0.2 2.2,0.1 4.4,0.1 6.9,0.1"
   id="path59282"
   style="fill:#ffffff;fill-opacity:1" />
	<path
   class="st1"
   d="m 292.4,42.5 c 2.2,-0.6 4.5,0 6.7,0 1,0.5 2,0 3,0.1 0.6,-0.3 1.1,0.2 1.7,0 2.2,0.3 4.4,0.4 6.5,0.6 1,0.3 2.2,0.4 3.2,0.6 0.6,0 1.2,0.2 1.8,0.2 0.6,0.5 1.5,0.2 2,0.8 0,0.3 -0.2,0.4 -0.4,0.5 -0.4,0 -0.9,-0.2 -1.1,0.3 -0.1,0.7 1.2,0.4 0.8,1.1 -0.6,0.3 -1.2,0.3 -1.7,0.9 -1,0.6 -1.9,-0.2 -2.8,-0.3 -1,0.1 -1.6,-0.5 -2.4,-0.3 -0.6,0 -1.2,-0.6 -1.8,-0.2 -1.6,-0.2 -3.5,-0.5 -5.3,-0.4 L 301.7,46 c -0.5,0.2 -1,0.5 -1.5,0.1 -2.7,-0.1 -5.6,-0.3 -8.3,-0.4 -0.4,-0.2 -0.9,-0.2 -1.2,0 -1.8,-0.3 -3.6,0.1 -5.5,0.1 -2.2,0 -4.4,-0.2 -6.3,0.5 -0.5,0 -1,-0.6 -1.6,-0.1 -2.6,0 -5.2,0.3 -7.7,0.5 -2.5,0.6 -5.1,0.3 -7.7,1.1 -0.8,-0.3 -1.6,0.1 -2.3,0.5 -0.4,0.2 -0.8,-0.4 -1.2,-0.2 -0.6,0.3 -1.2,0 -1.7,0.1 -0.5,-0.2 -1.1,0.4 -1.7,0.1 -0.4,-0.6 -1.2,0.1 -1.4,-0.8 0.4,-0.3 1.3,0.5 1.3,-0.5 -0.2,-0.5 -0.8,-0.4 -1.2,-0.6 -0.1,-0.3 -0.2,-0.7 -0.5,-0.8 0,0 -0.2,0 -0.2,-0.1 0.2,0 0.5,0 0.8,-0.1 0.7,0.4 1.3,0 2,0 1.8,-0.4 3.6,-0.7 5.3,-0.8 0.6,0.3 1,-0.8 1.6,-0.3 1,-0.3 1.9,-0.2 2.8,-0.5 2.5,-0.2 4.9,-0.5 7.4,-0.8 0.4,-0.2 1,-0.6 1.4,-0.2 1.8,-0.1 3.9,0 5.8,-0.3 2.2,0 4.3,-0.2 6.5,-0.1 1.8,-0.3 3.4,-0.3 5.3,-0.1 z"
   id="path59284"
   style="fill:#ffffff;fill-opacity:1" />
</g>
</svg>
