<?xml version="1.0" encoding="utf-8"?>
<!-- Generator: Adobe Illustrator 26.1.0, SVG Export Plug-In . SVG Version: 6.00 Build 0)  -->
<svg version="1.1" id="Ebene_1" xmlns="http://www.w3.org/2000/svg" xmlns:xlink="http://www.w3.org/1999/xlink" x="0px" y="0px"
	 viewBox="0 0 340.2 56.7" style="enable-background:new 0 0 340.2 56.7;" xml:space="preserve">
<style type="text/css">
	.st0{fill:#164194;}
	.st1{fill:#BDBFE1;}
</style>
<g>
	<path class="st0" d="M311.3,28c-0.1,0-0.2,0-0.3,0c-0.1,0-0.3,0-0.5,0c-0.6,0-1.1-0.1-1.4-0.3c-0.3-0.2-0.4-0.5-0.4-1
		c0-0.1,0-0.2,0-0.3c0-0.1,0-0.1,0-0.2l0.9-6.4h2.5l0.5-3.7h-2.5l0.7-5.1h-6.2l-0.7,5.1h-2.3l-0.6,3.7h2.3l-1.1,7.4
		c-0.1,0.4-0.1,0.7-0.1,1c0,0.3,0,0.6,0,0.8c0,1.2,0.4,2.2,1.3,2.8c0.8,0.7,2,1,3.6,1c0.5,0,1.1,0,1.7-0.1c0.6,0,1.2-0.1,1.8-0.2
		L311.3,28z M295.4,32.8l0.9-6.3c0.2-1.7,0.6-2.9,1.2-3.5c0.6-0.6,1.4-0.9,2.6-0.9c0.2,0,0.5,0,1,0.1c0.2,0,0.4,0,0.5,0l0.9-6.3
		c0,0-0.1,0-0.1,0c-0.3,0-0.5,0-0.7,0c-1,0-1.8,0.2-2.6,0.7c-0.8,0.5-1.5,1.2-2.1,2.2l0.3-2.4h-5.8l-2.3,16.5H295.4z M280.7,29
		c-0.4,0.2-1,0.3-1.6,0.3c-0.9,0-1.6-0.3-2.1-0.8c-0.5-0.5-0.7-1.3-0.7-2.3V26h12c0-0.3,0.1-0.5,0.1-0.8c0-0.3,0-0.5,0-0.8
		c0-2.8-0.8-5-2.3-6.4c-1.5-1.5-3.7-2.2-6.6-2.2c-2.9,0-5.3,0.9-7,2.7c-1.8,1.8-2.6,4.2-2.6,7.2c0,2.4,0.8,4.3,2.4,5.7
		c1.6,1.4,3.8,2.1,6.6,2.1c2.3,0,4.3-0.5,5.8-1.4c1.5-0.9,2.6-2.3,3.1-4h-6.2C281.4,28.4,281.1,28.8,280.7,29 M277.5,20.5
		c0.5-0.5,1.2-0.8,2-0.8c0.8,0,1.5,0.3,1.9,0.8c0.5,0.5,0.7,1.3,0.7,2.2h-5.7C276.7,21.8,277,21,277.5,20.5 M255.1,32.8l0.3-2.3
		c0.5,0.9,1.2,1.6,2.1,2.1c0.9,0.5,2,0.7,3.3,0.7c2.3,0,4.2-0.9,5.7-2.8c1.4-1.9,2.2-4.3,2.2-7.4c0-2.3-0.6-4.1-1.7-5.4
		c-1.1-1.3-2.7-2-4.6-2c-0.9,0-1.7,0.2-2.5,0.5c-0.7,0.3-1.4,0.9-2,1.5l1.2-7.4h-6.3l-3.3,22.4H255.1z M261.9,21.4
		c0.4,0.5,0.6,1.3,0.6,2.3c0,1.4-0.3,2.5-0.9,3.4c-0.6,0.9-1.4,1.3-2.3,1.3c-0.8,0-1.4-0.3-1.8-0.8c-0.4-0.6-0.7-1.3-0.7-2.3
		c0-1.4,0.3-2.5,0.9-3.4c0.6-0.9,1.4-1.3,2.3-1.3C260.9,20.6,261.5,20.9,261.9,21.4 M247,32.8l3-22.4h-6.3l-3.1,22.4H247z M232.1,29
		c-0.4,0.2-1,0.3-1.6,0.3c-0.9,0-1.6-0.3-2.1-0.8c-0.5-0.5-0.7-1.3-0.7-2.3V26h12c0-0.3,0.1-0.5,0.1-0.8c0-0.3,0-0.5,0-0.8
		c0-2.8-0.8-5-2.3-6.4c-1.5-1.5-3.7-2.2-6.6-2.2c-2.9,0-5.3,0.9-7,2.7c-1.8,1.8-2.6,4.2-2.6,7.2c0,2.4,0.8,4.3,2.4,5.7
		c1.6,1.4,3.8,2.1,6.6,2.1c2.3,0,4.3-0.5,5.8-1.4c1.5-0.9,2.6-2.3,3.1-4H233C232.8,28.4,232.5,28.8,232.1,29 M229,20.5
		c0.5-0.5,1.2-0.8,2-0.8c0.8,0,1.5,0.3,1.9,0.8c0.5,0.5,0.7,1.3,0.7,2.2H228C228.1,21.8,228.4,21,229,20.5 M213.9,32.8l10.3-22.4
		h-7.4l-5.1,13.2c-0.1,0.3-0.2,0.6-0.3,1c-0.1,0.4-0.2,0.9-0.3,1.5c0-0.3,0-0.6,0-0.7c0-0.2,0-0.3,0-0.4c0-0.3,0-0.5,0-0.8
		c0-0.3,0-0.5-0.1-0.8l-1.5-13h-6.9l4.1,22.4H213.9z M184.1,29c-0.4,0.2-1,0.3-1.6,0.3c-0.9,0-1.6-0.3-2.1-0.8
		c-0.5-0.5-0.7-1.3-0.7-2.3V26h12c0-0.3,0.1-0.5,0.1-0.8c0-0.3,0-0.5,0-0.8c0-2.8-0.8-5-2.3-6.4c-1.5-1.5-3.7-2.2-6.6-2.2
		c-2.9,0-5.3,0.9-7,2.7c-1.8,1.8-2.6,4.2-2.6,7.2c0,2.4,0.8,4.3,2.4,5.7c1.6,1.4,3.8,2.1,6.6,2.1c2.3,0,4.3-0.5,5.8-1.4
		c1.5-0.9,2.6-2.3,3.1-4h-6.2C184.8,28.4,184.5,28.8,184.1,29 M180.9,20.5c0.5-0.5,1.2-0.8,2-0.8c0.8,0,1.5,0.3,1.9,0.8
		c0.5,0.5,0.7,1.3,0.7,2.2h-5.7C180.1,21.8,180.4,21,180.9,20.5 M160.6,32.8l0.7-4.4l1.8-1.8l2.4,6.1h6.8l-4.6-10.1l6.7-6.4H167
		l-4.8,5.3l1.7-11.2h-6.4l-3.3,22.4H160.6z M148.3,32.8l0.9-6.3c0.2-1.7,0.6-2.9,1.2-3.5c0.6-0.6,1.4-0.9,2.6-0.9c0.2,0,0.5,0,1,0.1
		c0.2,0,0.4,0,0.5,0l0.9-6.3c0,0-0.1,0-0.1,0c-0.3,0-0.5,0-0.7,0c-1,0-1.8,0.2-2.6,0.7c-0.8,0.5-1.5,1.2-2.1,2.2l0.3-2.4h-5.8
		L142,32.8H148.3z M133.5,29c-0.4,0.2-1,0.3-1.6,0.3c-0.9,0-1.6-0.3-2.1-0.8c-0.5-0.5-0.7-1.3-0.7-2.3V26h12c0-0.3,0.1-0.5,0.1-0.8
		c0-0.3,0-0.5,0-0.8c0-2.8-0.8-5-2.3-6.4c-1.5-1.5-3.7-2.2-6.6-2.2c-2.9,0-5.3,0.9-7,2.7c-1.8,1.8-2.6,4.2-2.6,7.2
		c0,2.4,0.8,4.3,2.4,5.7c1.6,1.4,3.8,2.1,6.6,2.1c2.3,0,4.3-0.5,5.8-1.4c1.5-0.9,2.6-2.3,3.1-4h-6.2C134.2,28.4,134,28.8,133.5,29
		 M130.4,20.5c0.5-0.5,1.2-0.8,2-0.8c0.8,0,1.5,0.3,1.9,0.8c0.5,0.5,0.7,1.3,0.7,2.2h-5.7C129.5,21.8,129.9,21,130.4,20.5 M105,32.8
		l3.8-9.9l1.2,9.9h6.4l7.1-16.5h-6.2l-3.7,9.6l-1.1-9.6H107l-4,9.7l-0.9-9.7h-6l2.6,16.5H105z M95.3,28c-0.1,0-0.2,0-0.3,0
		c-0.1,0-0.3,0-0.5,0c-0.6,0-1.1-0.1-1.4-0.3c-0.3-0.2-0.4-0.5-0.4-1c0-0.1,0-0.2,0-0.3s0-0.1,0-0.2l0.9-6.4h2.5l0.5-3.7h-2.5
		l0.7-5.1h-6.2l-0.7,5.1h-2.3L85.2,20h2.3l-1.1,7.4c-0.1,0.4-0.1,0.7-0.1,1c0,0.3,0,0.6,0,0.8c0,1.2,0.4,2.2,1.3,2.8
		c0.8,0.7,2,1,3.6,1c0.5,0,1.1,0,1.7-0.1c0.6,0,1.2-0.1,1.8-0.2L95.3,28z M82.7,32.8l3.1-22.4h-6.3l-1.1,7.7
		c-0.6-0.8-1.3-1.4-2.1-1.8c-0.8-0.4-1.7-0.6-2.8-0.6c-2.2,0-4.1,0.9-5.5,2.8c-1.5,1.9-2.2,4.2-2.2,7c0,2.4,0.6,4.3,1.7,5.7
		c1.2,1.4,2.7,2.1,4.7,2.1c1,0,2-0.2,2.9-0.7c0.9-0.5,1.7-1.1,2.3-2l-0.2,2.1H82.7z M77.1,21.5c0.4,0.5,0.7,1.3,0.7,2.3
		c0,1.4-0.3,2.6-0.9,3.5c-0.6,0.9-1.4,1.3-2.4,1.3c-0.8,0-1.4-0.3-1.8-0.8c-0.4-0.5-0.6-1.3-0.6-2.3c0-1.4,0.3-2.5,0.9-3.4
		s1.4-1.4,2.3-1.4C76,20.7,76.6,21,77.1,21.5 M63.5,32.8v-0.4c-0.2-0.2-0.3-0.5-0.4-0.7C63,31.4,63,31.1,63,30.7c0-0.1,0-0.3,0-0.5
		c0-0.2,0.1-0.5,0.1-0.9l0.9-6c0.1-0.5,0.1-0.9,0.2-1.4c0-0.4,0.1-0.8,0.1-1.1c0-1.7-0.7-3-2-3.9c-1.3-0.9-3.3-1.3-5.8-1.3
		c-2.7,0-4.8,0.5-6.3,1.4c-1.5,0.9-2.3,2.3-2.6,4.2h6.1c0.1-0.6,0.3-1,0.6-1.3c0.4-0.3,0.9-0.4,1.6-0.4c0.6,0,1.2,0.1,1.5,0.4
		c0.4,0.2,0.6,0.6,0.6,1c0,0.8-1.1,1.3-3.2,1.5c-0.4,0-0.7,0.1-0.9,0.1c-3,0.3-5.1,0.9-6.3,1.9c-1.2,0.9-1.8,2.4-1.8,4.2
		c0,1.4,0.5,2.5,1.5,3.3c1,0.8,2.3,1.3,3.9,1.3c1,0,2-0.2,3-0.5c0.9-0.3,1.9-0.9,2.8-1.6l0.2,1.5H63.5z M56.5,28.4
		c-0.6,0.7-1.4,1-2.5,1c-0.5,0-0.9-0.1-1.2-0.4c-0.3-0.2-0.5-0.6-0.5-1c0-0.9,0.9-1.6,2.6-1.9c1.1-0.2,1.9-0.5,2.6-0.7
		C57.5,26.7,57.1,27.7,56.5,28.4 M45.5,28c-0.1,0-0.2,0-0.3,0c-0.1,0-0.3,0-0.5,0c-0.6,0-1.1-0.1-1.4-0.3c-0.3-0.2-0.4-0.5-0.4-1
		c0-0.1,0-0.2,0-0.3s0-0.1,0-0.2l0.9-6.4h2.5l0.5-3.7h-2.5l0.7-5.1H39l-0.7,5.1H36L35.4,20h2.3l-1.1,7.4c-0.1,0.4-0.1,0.7-0.1,1
		c0,0.3,0,0.6,0,0.8c0,1.2,0.4,2.2,1.3,2.8c0.8,0.7,2,1,3.6,1c0.5,0,1.1,0,1.7-0.1c0.6,0,1.2-0.1,1.8-0.2L45.5,28z M17.3,31.4
		c1.8,1.4,4.2,2,7.4,2c3,0,5.4-0.6,7.1-1.9c1.7-1.3,2.5-3,2.5-5.3c0-1.4-0.4-2.7-1.3-3.8c-0.8-1.1-2.2-2-4-2.8
		c-0.5-0.2-1.2-0.5-2.1-0.9c-2.2-0.9-3.4-1.7-3.4-2.4c0-0.4,0.2-0.8,0.6-1.1c0.4-0.3,0.9-0.4,1.4-0.4c0.9,0,1.6,0.2,2,0.6
		c0.5,0.4,0.8,0.9,0.9,1.7h6.7C35,14.8,34,13,32.4,11.8c-1.6-1.3-3.9-1.9-6.7-1.9c-2.8,0-5,0.6-6.6,1.8c-1.6,1.2-2.4,2.9-2.4,5
		c0,1.5,0.5,2.8,1.4,3.8c0.9,1,2.7,2.1,5.3,3.3c0.3,0.1,0.6,0.3,1.1,0.5c1.9,0.8,2.8,1.5,2.8,2.3c0,0.6-0.2,1-0.6,1.3
		c-0.4,0.3-1,0.5-1.8,0.5c-1.1,0-1.9-0.2-2.5-0.7c-0.6-0.4-0.9-1.1-0.9-1.9v-0.1h-6.9C14.6,28.1,15.5,30,17.3,31.4"/>
	<path class="st1" d="M308.4,31.3c0.6-0.3,1.3,0.1,1.9,0c0.4,0.2,0.8,0,1.3,0.1c0.2,0,0.3,0.2,0.5,0.2c0.5-0.3,1.1-0.2,1.6-0.2
		c0.5,0.1,0.4,1,1.1,0.9c0.2,0.1,0.2,0.4,0.1,0.6c-0.4,0.4-1.6-0.6-1.4,0.6c0.2,0.3,0.6,0.5,0.5,0.9c-0.2,0.3-0.5,0.4-0.8,0.3
		c-0.2,0-0.2-0.1-0.4,0c-0.2,0.3-0.3,0.6-0.6,0.8c-1-0.1-1.8-0.2-2.9-0.1c-0.9-0.3-1.8-0.3-2.7-0.1c-0.6-0.2-1.4,0.2-2.1-0.3
		c-2.7,0.3-5,0-7.6,0.3c-1-0.4-1.8,0.2-2.9-0.2c-0.7,0.6-1.6,0.2-2.4,0.3c-0.9,0-2,0-2.8,0.3c-1.6-0.2-3.2,0.1-4.8,0.2
		c-0.2-0.1-0.5-0.3-0.8-0.1l-0.2,0.1c-2.8,0-5.8,0.3-8.6,0.7c-1.5,0.1-3,0.3-4.6,0.5c-0.2,0-0.4-0.3-0.6-0.1
		c-0.5,0.5-1.2,0.2-1.8,0.4c-1.4,0.1-2.8,0.4-4.1,0.6c-0.4-0.1-1-0.3-1.4,0.2c-1,0.2-1.9,0.3-2.8,0.4c-1,0.3-1.9,0.1-2.7,0.7
		c-0.2,0-0.5,0-0.6-0.1c-0.8,0.1-1.7,0.4-2.6,0.6c-0.5-0.1-0.9-0.3-1.2,0.2c-3.3,0.6-6.5,1.1-9.7,2.1c-0.8-0.4-1.4,0.7-2,0.2
		c-0.4-0.3-0.9,0.5-1.3,0c0.1-0.4,0.6-0.7,0.4-1.2c-0.3-0.6-1.2-0.8-1.3-1.5c0.2-0.1,0.3-0.3,0.4-0.1c0.1,0.3,0.3,0.5,0.6,0.5
		c0.4-0.4,0.7-1,1.4-0.8c0.2-0.2,0.5-0.1,0.7-0.1c1-0.6,2.1-0.5,3.1-1c1-0.1,2-0.7,3.1-0.6c2.1-0.6,4.4-1.2,6.5-1.4
		c0.8,0.3,1.5-0.6,2.2-0.4c1.6-0.3,2.9-0.1,4.4-0.9c0.2,0,0.4,0,0.5,0c2.4-0.3,4.7-0.5,7.2-1c0.6-0.3,1.2,0.4,1.7-0.1
		c3.5-0.6,6.9-0.6,10.4-1.1c0.4,0.2,0.8,0.3,1.2,0c2.3-0.2,4.7-0.3,7.1-0.5c0.6,0.4,1.2-0.3,1.8-0.2c5-0.4,9.5-0.5,14.7-0.5
		c0.4-0.3,0.8,0,1.3,0C307.1,31.2,307.8,31.2,308.4,31.3"/>
	<path class="st1" d="M302.6,37.1c0.4,0.2,0.8-0.3,1.1-0.1c0.5,0.3,1-0.1,1.5,0.2c2.2,0.3,4.4,0.3,6.5,0.6c0.6,0.5,1.2-0.4,1.8,0.2
		c0.5,0.3,1.4,0,2,0.3c1.8,0.1,3.7,0.8,5.4,0.6c0.4,0.5,0.9,0.3,1.5,0.2c0.6,0.7,1.6,0.4,2.4,0.8c0.2,0,0.6-0.1,0.7,0.3
		c-0.1,0.3-0.3,0.5-0.3,0.7c0.1,0.3,0.3,0.5,0.6,0.5c0.3,0,0.5-0.1,0.7,0.2c-0.1,0.5-0.6,0.2-0.9,0.3c-0.6-0.1-1.1,0.5-1.6,0.8
		c0.1,0.4,0.7,0.2,0.7,0.7c-0.7-0.3-0.9,0.7-1.5,0.6c-0.2-0.3-0.6-0.6-0.9-0.6c-0.6,0.3-1.4,0.1-1.9-0.3c-0.5,0.1-1.1,0-1.5-0.3
		c-1.5-0.2-3.1-0.4-4.6-0.4c-1.1-0.7-2.6-0.5-3.9-0.8c-0.9-0.3-1.9,0.1-2.8-0.3c-1.7,0.1-3.6-0.6-5.4-0.1c-0.9-0.5-2.1,0-3-0.3
		c-2.4,0.1-4.8,0-7,0.1c-0.3-0.1-0.6-0.5-1-0.3l-0.3,0.2c-3,0-6.3,0-9.5,0.2c-1.3,0-2.3,0.4-3.6,0.3c-2,0.1-4.1,0.2-6.2,0.5
		c-0.7,0.5-1.3,0-2,0.4c-1-0.5-2.1,0.3-3.1,0.2c-1,0-2.1,0.2-3.1,0.4c-0.9-0.8-1.8,0.8-2.6,0c-0.5,0-1.2,0.5-1.5,0
		c0.1-0.5,0.8-0.6,0.9-1c-0.2-0.3-0.4-0.6-0.7-0.8c-0.5-0.1-1.2,0.2-1.4-0.5c0.1-0.3,0.4-0.1,0.6-0.1c0.1,0.1,0.5,0.2,0.7,0
		c0.3-0.8,1.1-0.2,1.7-0.5c1.9-0.3,4.1-1,6-0.9c0.1,0,0.2,0.1,0.4,0c0.4-0.6,1.2-0.3,1.8-0.5c2.4-0.5,4.9-0.3,7.1-0.9
		c1.6,0.6,3.1-0.2,4.7-0.1c2-0.3,4-0.1,6.1-0.3c0.5,0.1,1.1-0.3,1.5,0.1c0.4,0,0.8-0.4,1.2-0.2c2.1-0.2,3.8,0,5.8-0.2
		C297.9,37.1,300.1,37.1,302.6,37.1"/>
	<path class="st1" d="M292.4,42.5c2.2-0.6,4.5,0,6.7,0c1,0.5,2,0,3,0.1c0.6-0.3,1.1,0.2,1.7,0c2.2,0.3,4.4,0.4,6.5,0.6
		c1,0.3,2.2,0.4,3.2,0.6c0.6,0,1.2,0.2,1.8,0.2c0.6,0.5,1.5,0.2,2,0.8c0,0.3-0.2,0.4-0.4,0.5c-0.4,0-0.9-0.2-1.1,0.3
		c-0.1,0.7,1.2,0.4,0.8,1.1c-0.6,0.3-1.2,0.3-1.7,0.9c-1,0.6-1.9-0.2-2.8-0.3c-1,0.1-1.6-0.5-2.4-0.3c-0.6,0-1.2-0.6-1.8-0.2
		c-1.6-0.2-3.5-0.5-5.3-0.4l-0.9-0.4c-0.5,0.2-1,0.5-1.5,0.1c-2.7-0.1-5.6-0.3-8.3-0.4c-0.4-0.2-0.9-0.2-1.2,0
		c-1.8-0.3-3.6,0.1-5.5,0.1c-2.2,0-4.4-0.2-6.3,0.5c-0.5,0-1-0.6-1.6-0.1c-2.6,0-5.2,0.3-7.7,0.5c-2.5,0.6-5.1,0.3-7.7,1.1
		c-0.8-0.3-1.6,0.1-2.3,0.5c-0.4,0.2-0.8-0.4-1.2-0.2c-0.6,0.3-1.2,0-1.7,0.1c-0.5-0.2-1.1,0.4-1.7,0.1c-0.4-0.6-1.2,0.1-1.4-0.8
		c0.4-0.3,1.3,0.5,1.3-0.5c-0.2-0.5-0.8-0.4-1.2-0.6c-0.1-0.3-0.2-0.7-0.5-0.8c0,0-0.2,0-0.2-0.1c0.2,0,0.5,0,0.8-0.1
		c0.7,0.4,1.3,0,2,0c1.8-0.4,3.6-0.7,5.3-0.8c0.6,0.3,1-0.8,1.6-0.3c1-0.3,1.9-0.2,2.8-0.5c2.5-0.2,4.9-0.5,7.4-0.8
		c0.4-0.2,1-0.6,1.4-0.2c1.8-0.1,3.9,0,5.8-0.3c2.2,0,4.3-0.2,6.5-0.1c1.8-0.3,3.4-0.3,5.3-0.1L292.4,42.5z"/>
</g>
</svg>
