<?xml version="1.0" ?>

<!DOCTYPE svg  PUBLIC '-//W3C//DTD SVG 1.1//EN'  'http://www.w3.org/Graphics/SVG/1.1/DTD/svg11.dtd'>

<!-- Uploaded to: SVG Repo, www.svgrepo.com, Generator: SVG Repo Mixer Tools -->
<svg fill="#D4AF37" width="800px" height="800px" viewBox="0 0 512 512" version="1.1" xml:space="preserve" xmlns="http://www.w3.org/2000/svg" xmlns:xlink="http://www.w3.org/1999/xlink">

<g id="_x35_03_x2C__Computing_x2C__data_x2C__infrastructure_x2C__science_x2C__structure">

<g>

<path d="M194.93,145.544h122.169l-61.084-61.085L194.93,145.544z M315.518,333.354    H196.484l59.53,59.504L315.518,333.354z M375.557,333.354h-50.713l-66.498,66.499c-1.286,1.287-3.377,1.287-4.664,0l-66.5-66.499    h-50.737l119.569,119.543L375.557,333.354z M268.424,198.078c0-1.823,1.474-3.297,3.297-3.297s3.297,1.474,3.297,3.297v22.086    h20.263c1.823,0,3.297,1.475,3.297,3.297s-1.474,3.296-3.297,3.296h-23.56c-1.823,0-3.297-1.474-3.297-3.296V198.078z     M216.72,226.757c-1.795,0-3.269-1.474-3.269-3.296s1.474-3.297,3.269-3.297h20.264v-22.086c0-1.823,1.5-3.297,3.297-3.297    c1.822,0,3.295,1.474,3.295,3.297v25.383c0,1.822-1.474,3.296-3.295,3.296H216.72z M243.576,279.266    c0,1.822-1.474,3.296-3.295,3.296c-1.797,0-3.297-1.474-3.297-3.296v-22.113H216.72c-1.795,0-3.269-1.475-3.269-3.297    c0-1.796,1.474-3.297,3.269-3.297h23.561c1.822,0,3.295,1.501,3.295,3.297V279.266z M295.28,250.559    c1.823,0,3.297,1.501,3.297,3.297c0,1.822-1.474,3.297-3.297,3.297h-20.263v22.113c0,1.822-1.474,3.296-3.297,3.296    s-3.297-1.474-3.297-3.296v-25.41c0-1.796,1.474-3.297,3.297-3.297H295.28z M323.612,233.002l-61.943-61.941h-11.337    l-61.942,61.941v11.338l61.942,61.942h11.337l61.943-61.942V233.002z M265.368,165.432l63.872,63.873    c0.644,0.643,0.965,1.474,0.965,2.33v14.072c0,0.912-0.348,1.716-0.965,2.332l-63.872,63.873    c-0.644,0.643-1.474,0.965-2.332,0.965h-14.071c-0.913,0-1.716-0.376-2.332-0.965l-63.873-63.873    c-0.642-0.644-0.965-1.5-0.965-2.332v-14.072c0-0.91,0.376-1.741,0.965-2.33l63.873-63.873c0.642-0.644,1.5-0.965,2.332-0.965    h14.071C263.947,164.467,264.779,164.815,265.368,165.432z M120.202,485.999c-1.795,0-3.297-1.475-3.297-3.298    c0-1.822,1.502-3.296,3.297-3.296h252.835c1.822,0,3.297,1.474,3.297,3.296c0,1.823-1.475,3.298-3.297,3.298H120.202z     M286.142,470.131c-1.823,0-3.298-1.475-3.298-3.27c0-1.823,1.475-3.297,3.298-3.297h133.989c1.821,0,3.295,1.474,3.295,3.297    c0,1.795-1.474,3.27-3.295,3.27H286.142z M85.545,471.364c-1.823,0-3.297-1.475-3.297-3.298c0-1.795,1.474-3.27,3.297-3.27    h107.615c1.821,0,3.297,1.475,3.297,3.27c0,1.823-1.476,3.298-3.297,3.298H85.545z M79.219,260.234    c5.04,0,9.623,2.064,12.947,5.361c2.76,2.76,4.636,6.379,5.199,10.426h41.814l-37.364-37.363l38.838-38.811H97.232    c-0.67,3.725-2.494,7.076-5.066,9.648l-0.214,0.188c-3.297,3.217-7.8,5.174-12.733,5.174c-5.066,0-9.623-2.037-12.946-5.361    c-3.35-3.323-5.387-7.906-5.387-12.946c0-5.065,2.037-9.622,5.361-12.945c3.35-3.351,7.907-5.388,12.973-5.388    c5.04,0,9.623,2.037,12.947,5.36c2.572,2.573,4.396,5.924,5.066,9.677h49.988l41.115-41.117h135.356l41.492,41.492l49.586-0.35    c0.671-3.752,2.492-7.102,5.066-9.675c3.35-3.351,7.933-5.388,12.973-5.388c5.038,0,9.649,2.037,12.945,5.36    c3.323,3.324,5.36,7.907,5.36,12.973s-2.037,9.649-5.36,12.946l-0.215,0.188c-3.297,3.217-7.8,5.174-12.73,5.174    c-5.04,0-9.623-2.037-12.946-5.361c-2.601-2.572-4.396-5.924-5.093-9.648l-43.045,0.321l38.488,38.489l-37.364,37.363h41.921    c0.671-3.725,2.492-7.076,5.066-9.649c3.35-3.323,7.933-5.387,12.973-5.387c5.038,0,9.649,2.063,12.945,5.36    c3.323,3.324,5.36,7.907,5.36,12.973c0,5.039-2.037,9.623-5.36,12.946c-3.324,3.323-7.907,5.388-12.945,5.388    c-5.066,0-9.649-2.064-12.973-5.36c-2.574-2.601-4.396-5.925-5.066-9.677h-48.514L322.11,326.76H189.918l-44.146-44.145H97.097    c-0.777,3.432-2.52,6.514-4.931,8.899l-0.214,0.188c-3.297,3.216-7.8,5.199-12.733,5.199c-5.066,0-9.623-2.063-12.946-5.387    c-3.35-3.323-5.387-7.907-5.387-12.946s2.037-9.623,5.361-12.946C69.596,262.271,74.153,260.234,79.219,260.234z M344.652,417.328    c3.002-3.001-1.715-7.612-4.717-4.609l-4.584,4.718c-3.029,3.028,1.607,7.691,4.717,4.609L344.652,417.328z M363.04,398.459    c3.001-2.975-1.716-7.611-4.719-4.583l-4.583,4.717c-3.029,3.002,1.609,7.667,4.719,4.583L363.04,398.459z M381.426,379.59    c2.977-2.976-1.716-7.586-4.717-4.584l-4.583,4.719c-3.028,3.001,1.607,7.691,4.69,4.582L381.426,379.59z M399.814,360.747    c2.974-3.003-1.717-7.612-4.719-4.61l-4.609,4.717c-3.003,3.029,1.635,7.693,4.717,4.61L399.814,360.747z M418.2,341.877    c3.003-3.002-1.716-7.611-4.717-4.61l-4.611,4.718c-3.001,3.029,1.636,7.693,4.719,4.611L418.2,341.877z M433.988,325.662    c3-3.003-1.69-7.612-4.69-4.611l-2.012,2.064c-3.028,3.028,1.609,7.692,4.717,4.61L433.988,325.662z M316.963,436.305    c-3.027,3.029,1.609,7.693,4.719,4.611l4.584-4.718c3.002-3.002-1.717-7.612-4.719-4.61L316.963,436.305z M172.067,412.719    c-3.138-3.136-7.693,1.608-4.719,4.609l4.61,4.718c3.138,3.136,7.693-1.608,4.719-4.609L172.067,412.719z M153.679,393.876    c-3.136-3.163-7.693,1.581-4.69,4.583l4.583,4.717c3.136,3.137,7.719-1.607,4.717-4.583L153.679,393.876z M135.292,375.006    c-3.136-3.135-7.693,1.608-4.69,4.584l4.583,4.717c3.136,3.162,7.719-1.581,4.717-4.582L135.292,375.006z M116.933,356.137    c-3.164-3.136-7.721,1.607-4.719,4.61l4.583,4.717c3.136,3.137,7.719-1.608,4.719-4.61L116.933,356.137z M98.518,337.267    c-3.136-3.136-7.693,1.608-4.69,4.61l4.583,4.719c3.136,3.135,7.719-1.609,4.717-4.611L98.518,337.267z M82.73,321.051    c-3.136-3.135-7.719,1.608-4.716,4.611l2.009,2.063c3.136,3.136,7.693-1.608,4.719-4.61L82.73,321.051z M190.346,440.916    c3.136,3.136,7.693-1.608,4.717-4.611l-4.61-4.717c-3.136-3.137-7.693,1.608-4.717,4.61L190.346,440.916z M258.346,77.49    l68.08,68.054h49.131L256.014,26.002L136.445,145.544h49.156l68.081-68.054C254.968,76.204,257.06,76.204,258.346,77.49z" style="fill-rule:evenodd;clip-rule:evenodd;"/>

</g>

</g>

<g id="Layer_1"/>

</svg>
