<svg width="100" height="100" viewBox="0 0 100 100" fill="none" xmlns="http://www.w3.org/2000/svg">
<path d="M94.8644 67.6692C94.8644 70.0577 94.3216 72.1747 93.2359 74.0204C92.2588 75.7574 90.956 77.2231 89.3275 78.4173C87.699 79.6115 85.9077 80.5344 83.9535 81.1858C82.1078 81.7286 80.3708 82 78.7423 82C76.2452 82 73.6939 81.4572 71.0883 80.3715C68.5913 79.1773 66.3114 77.4945 64.2486 75.3232C62.1859 73.1518 60.5031 70.5462 59.2003 67.5064C57.8975 64.4665 57.2461 61.1009 57.2461 57.4097C57.2461 51.0042 58.4403 45.5216 60.8288 40.9618C63.3258 36.402 66.2571 32.6022 69.6227 29.5623C73.0968 26.4139 76.6252 23.9712 80.2079 22.2341C83.8992 20.3885 86.939 19.0857 89.3275 18.3257V23.5369C87.1562 24.8397 84.822 26.2511 82.325 27.771C79.9365 29.2909 77.7109 31.0823 75.6481 33.145C73.6939 35.2078 72.0654 37.542 70.7626 40.1476C69.4598 42.7532 68.8084 45.6845 68.8084 48.9415C68.8084 50.57 68.9713 51.8728 69.297 52.8499C69.6227 53.827 70.0026 54.5869 70.4369 55.1298C70.9797 55.6726 71.4683 56.0526 71.9026 56.2697C72.4454 56.4869 72.8797 56.5954 73.2054 56.5954C74.3996 56.5954 75.8652 56.2697 77.6023 55.6183C79.3394 54.8584 80.9679 54.4784 82.4878 54.4784C83.8992 54.4784 85.3105 54.8041 86.7219 55.4555C88.2418 55.9983 89.5989 56.8668 90.7931 58.0611C91.9874 59.1467 92.9645 60.5038 93.7244 62.1323C94.4844 63.7608 94.8644 65.6064 94.8644 67.6692ZM44.0756 67.3435C44.0756 69.732 43.5328 71.849 42.4471 73.6947C41.47 75.5403 40.1672 77.0602 38.5387 78.2545C36.9102 79.3401 35.1188 80.2087 33.1646 80.8601C31.319 81.4029 29.5277 81.6743 27.7906 81.6743C25.2936 81.6743 22.7965 81.1315 20.2995 80.0458C17.8025 78.8516 15.5226 77.2231 13.4598 75.1603C11.397 72.989 9.71426 70.3834 8.41147 67.3435C7.21723 64.3036 6.62012 60.9381 6.62012 57.2468C6.62012 50.8414 7.81435 45.3588 10.2028 40.799C12.6998 36.1306 15.6311 32.2765 18.9967 29.2366C22.4708 26.0882 25.9993 23.6455 29.5819 21.9084C33.1646 20.0628 36.1502 18.76 38.5387 18V23.374C36.3674 24.6768 34.0332 26.0882 31.5361 27.6081C29.1477 29.1281 26.9221 30.9194 24.8593 32.9822C22.9051 35.045 21.2223 37.3791 19.811 39.9847C18.5082 42.4818 17.8568 45.4131 17.8568 48.7786C17.8568 51.8185 18.4539 53.827 19.6481 54.8041C20.9509 55.7812 21.928 56.2697 22.5794 56.2697C23.6651 56.2697 25.0764 55.944 26.8135 55.2926C28.5506 54.6412 30.1791 54.3155 31.699 54.3155C33.1104 54.3155 34.5217 54.6412 35.9331 55.2926C37.453 55.8355 38.8101 56.704 40.0043 57.8982C41.1986 58.9839 42.1757 60.341 42.9356 61.9695C43.6956 63.4894 44.0756 65.2807 44.0756 67.3435Z" fill="#516CF7"/>
</svg>
