<?xml version="1.0" encoding="UTF-8" standalone="no"?>
<svg
   width="185"
   height="185"
   viewBox="0 0 185 185"
   fill="none"
   version="1.1"
   id="svg13"
   sodipodi:docname="logo.svg"
   inkscape:export-filename="logo.png"
   inkscape:export-xdpi="96"
   inkscape:export-ydpi="96"
   inkscape:version="1.2 (dc2aedaf03, 2022-05-15)"
   xmlns:inkscape="http://www.inkscape.org/namespaces/inkscape"
   xmlns:sodipodi="http://sodipodi.sourceforge.net/DTD/sodipodi-0.dtd"
   xmlns="http://www.w3.org/2000/svg"
   xmlns:svg="http://www.w3.org/2000/svg">
  <sodipodi:namedview
     id="namedview15"
     pagecolor="#ffffff"
     bordercolor="#000000"
     borderopacity="0.25"
     inkscape:showpageshadow="2"
     inkscape:pageopacity="0.0"
     inkscape:pagecheckerboard="0"
     inkscape:deskcolor="#d1d1d1"
     showgrid="false"
     inkscape:zoom="5.5513514"
     inkscape:cx="89.167478"
     inkscape:cy="92.5"
     inkscape:window-width="2560"
     inkscape:window-height="1351"
     inkscape:window-x="1431"
     inkscape:window-y="517"
     inkscape:window-maximized="1"
     inkscape:current-layer="svg13" />
  <path
     d="M0 92.5C0 41.4137 41.4137 0 92.5 0H135C162.614 0 185 22.3858 185 50V92.5C185 143.586 143.586 185 92.5 185V185C41.4137 185 0 143.586 0 92.5V92.5Z"
     fill="url(#paint0_linear_13_13)"
     id="path2" />
  <path
     d="m 111.7269,134.9544 c 0,0 -0.12131,0.10116 -0.36394,0.30335 l -0.33344,0.10684 c -0.22226,0.0712 -0.44451,0.14246 -0.66677,0.21369 -0.22226,0.0712 -0.35089,0.0503 -0.38604,-0.063 l -0.10502,-0.33845 c -0.11125,0.0356 -0.23984,0.0147 -0.3858,-0.0617 -0.0702,-0.22644 -0.32599,-0.36166 -0.76774,-0.40681 -0.42369,0.0126 -0.97651,0.003 -1.65797,-0.0275 -1.06399,-0.27876 -2.48094,-0.41528 -4.24972,-0.40594 -1.71356,-0.0101 -3.729819,-0.10911 -6.048539,-0.29691 -4.61964,-0.31917 -10.346715,-0.56416 -17.180013,-0.73275 -0.958935,0.0597 -1.824392,0.0259 -2.596807,-0.0987 -0.753659,-0.0683 -1.638592,-0.0642 -2.653612,0.0126 -0.807559,-0.23777 -1.699186,-0.35593 -2.675693,-0.35285 -0.920794,-0.0148 -1.933538,-0.0318 -3.039041,-0.0498 -0.737646,-0.0126 -1.6203,-0.10179 -2.649522,-0.26856 -0.955938,-0.12799 -2.0147,-0.19258 -3.17473,-0.19293 -0.807559,-0.23779 -1.707786,-0.38363 -2.702237,-0.43838 -0.938367,-0.0713 -1.987065,-0.2001 -3.144097,-0.38814 l -2.786398,-0.4114 c -0.624663,-0.0475 -1.221344,-0.19789 -1.788483,-0.45048 -0.567139,-0.25259 -1.080843,-0.42961 -1.539555,-0.53024 -0.29195,-0.1554 -0.585085,-0.31041 -0.876661,-0.4646 -0.275563,-0.0984 -0.55854,-0.22489 -0.851301,-0.3787 l -0.77123,-0.1249 -0.157772,-0.50826 c -0.111428,0.0357 -0.24042,0.0148 -0.386987,-0.0626 l -0.105052,-0.33844 c -0.03514,-0.11316 -0.274378,-0.0988 -0.718888,0.0437 l -0.105052,-0.33844 -0.05271,-0.16983 -0.105052,-0.33843 -0.07889,-0.25413 -0.105052,-0.33845 -0.157772,-0.50825 -0.05271,-0.16983 -0.157397,-0.50706 c -0.07029,-0.22643 0.006,-0.37535 0.227657,-0.44639 0.222847,-0.0715 0.315515,-0.16336 0.280745,-0.27536 -0.07029,-0.22643 -0.06692,-0.41291 0.0093,-0.56183 0.07628,-0.14892 0.07927,-0.3366 0.0093,-0.56183 l 1.377248,-1.46632 c 0.221663,-0.0711 0.352937,-0.14357 0.389892,-0.21765 0.03815,-0.0745 0.217247,-0.28679 0.536133,-0.63661 0.221663,-0.0711 0.435538,-0.17137 0.63963,-0.29901 0.205276,-0.12802 0.41834,-0.22677 0.641189,-0.29818 -0.07029,-0.22643 0.116611,-0.40947 0.561117,-0.55193 l 0.334273,-0.10709 c -0.03515,-0.11329 0.05752,-0.20516 0.280371,-0.27658 l 0.333088,-0.10672 c 0.555935,-0.17815 0.889021,-0.28491 1.000446,-0.32061 0.05571,-0.0178 0.159256,-0.17552 0.312191,-0.47216 l 0.666174,-0.21349 0.333088,-0.10672 3.750488,-1.20192 2.083868,-0.66782 c 0.737272,0.0114 1.494301,-0.10684 2.271899,-0.35598 0.83331,-0.26705 1.601217,-0.4509 2.303719,-0.55156 1.459159,-0.21998 2.807986,-0.49731 4.047667,-0.83235 1.295393,-0.35291 2.645405,-0.63061 4.049225,-0.83153 5.25267,-1.18675 10.61149,-2.1281 16.076457,-2.82405 2.681269,-0.61164 5.380599,-1.16551 8.097129,-1.66397 2.71665,-0.4985 5.450749,-0.94035 8.202419,-1.3256 2.68188,-0.61052 5.43644,-1.18339 8.26403,-1.71745 2.84529,-0.47749 5.60882,-1.02147 8.29058,-1.63194 2.79257,-0.64731 5.52095,-1.3045 8.18514,-1.97159 2.71941,-0.6861 5.55195,-1.49983 8.49686,-2.44358 2.61147,-0.836914 5.08533,-1.723732 7.42221,-2.658027 2.33649,-0.9355 4.3135,-1.848486 5.93091,-2.738924 0.93029,-0.545765 1.76816,-1.093692 2.51385,-1.643858 0.80154,-0.566741 1.45674,-1.211063 1.96575,-1.933007 0.7896,-0.998587 1.50237,-2.343338 2.13758,-4.036662 l -0.34172,-1.100837 c 0.22226,-0.07123 0.32435,-0.135727 0.30678,-0.192334 -0.0175,-0.0566 0.0295,-0.102131 0.1405,-0.13772 l 0.16677,-0.05345 -0.15776,-0.508264 -0.31554,-1.016527 -0.34172,-1.100838 -0.31554,-1.016527 -0.42023,-1.353764 c -0.0352,-0.11322 -0.19007,-0.2185 -0.46504,-0.317097 -0.27497,-0.09859 -0.44736,-0.260525 -0.51727,-0.485751 -0.1054,-0.339646 -0.33027,-0.670156 -0.67516,-0.993979 l -0.31554,-1.016527 c -0.36846,-0.0064 -0.60672,-0.08497 -0.71503,-0.23698 -0.10788,-0.150803 -0.30806,-0.303843 -0.6006,-0.459048 -0.14019,-0.451656 -0.47648,-0.747776 -1.00848,-0.887156 -0.0352,-0.11322 -0.13448,-0.236316 -0.29801,-0.369302 -0.16378,-0.134229 -0.28069,-0.313937 -0.35098,-0.540368 -0.43838,-0.23162 -0.84054,-0.444389 -1.20575,-0.637218 -0.30975,-0.210607 -0.70161,-0.488911 -1.17514,-0.833747 -0.32744,-0.267176 -0.7383,-0.508408 -1.23239,-0.722574 -0.47651,-0.157557 -0.97935,-0.399906 -1.50859,-0.726887 -1.68104,-0.889058 -3.3899,-1.76907 -5.12649,-2.640193 -1.7191,-0.814754 -3.61503,-1.510603 -5.68798,-2.087747 -2.01448,-0.782199 -4.13278,-1.406783 -6.35491,-1.87415 -2.14906,-0.428538 -4.35364,-0.839418 -6.6139,-1.232323 -2.03792,-0.46429 -4.19577,-0.921132 -6.47345,-1.370561 -2.20453,-0.410759 -4.44572,-0.840895 -6.72351,-1.290288 -2.00286,-0.351316 -4.09782,-0.70423 -6.28495,-1.058465 -2.11392,-0.31572 -4.134419,-0.723485 -6.061269,-1.22337 -2.22511,-0.28009 -4.28355,-0.61359 -6.17533,-1.0005 -1.818539,-0.348277 -3.738176,-0.726261 -5.75856,-1.134063 -1.891782,-0.38691 -3.736718,-0.81982 -5.534848,-1.29885 -1.725,-0.440359 -3.422382,-0.889569 -5.09179,-1.347742 -3.821267,-0.699633 -7.163702,-1.428635 -10.025374,-2.187496 -0.696134,-0.273495 -1.45771,-0.463911 -2.28595,-0.57099 -0.771304,-0.125191 -1.505655,-0.324466 -2.20179,-0.597961 -0.736273,-0.01238 -1.471566,-0.118081 -2.20588,-0.317237 -0.659918,-0.161021 -1.505655,-0.324466 -2.534877,-0.491216 -2.7164,-0.681336 -5.230596,-1.30326 -7.543772,-1.865392 -2.31203,-0.562632 -4.430844,-1.187185 -6.354073,-1.874416 -2.260611,-0.392791 -4.115906,-0.760407 -5.56585,-1.102728 -1.412913,-0.416161 -2.678185,-0.755556 -3.798188,-1.017427 -0.696134,-0.273494 -1.181316,-0.459394 -1.455545,-0.557698 -0.292947,-0.154411 -0.640423,-0.291349 -1.043609,-0.410432 l -0.439441,-0.231679 c -0.959085,0.05921 -1.029222,-0.166748 -0.210261,-0.677363 l 1.000446,-0.320614 0.167136,-0.05356 c 0.110235,-0.03532 0.230412,-0.04285 0.35937,-0.02208 0.128921,0.02066 0.303658,-0.0042 0.526505,-0.07563 0.146455,0.07715 1.279334,0.0866 3.398559,0.02811 1.140647,0.131043 2.660363,0.202709 4.557963,0.215381 1.88003,-0.04394 4.137,-0.05333 6.772022,-0.02883 2.300787,0.131755 4.850706,0.276764 7.648532,0.435286 2.816584,0.21475 5.769651,0.478722 8.860464,0.791777 0.959122,-0.05908 1.833103,0.0023 2.623127,0.183521 0.844589,0.163946 1.774282,0.207392 2.789116,0.13046 l 2.341931,0.459957 c 0.590612,-0.06519 1.023346,-0.04867 1.298286,0.0494 0.330296,0.08033 0.808421,0.144417 1.434101,0.192198 3.406601,0.149747 6.944535,0.723004 10.613884,1.719615 2.190037,0.167115 4.204701,0.359577 6.043879,0.577025 1.856747,0.274057 3.767487,0.623775 5.732277,1.049393 1.89178,0.386911 3.82883,0.821419 5.811239,1.303367 2.05545,0.520777 4.04661,1.030908 5.97334,1.530831 2.03804,0.464252 3.98227,1.020541 5.83309,1.668874 1.90628,0.630555 3.85783,1.308707 5.85475,2.0343 1.73951,0.684002 3.52453,1.415527 5.35466,2.194568 1.88576,0.761345 3.79934,1.513642 5.74071,2.257171 1.68099,0.888939 3.41759,1.76006 5.20979,2.613366 1.86519,0.892015 3.65743,1.745441 5.37649,2.560076 2.01448,0.782201 3.83441,1.626617 5.45994,2.533333 1.69853,0.945426 3.46142,1.901218 5.28868,2.867498 2.01432,0.782118 3.8239,1.69143 5.42895,2.729056 1.60504,1.037628 3.18963,2.206286 4.7534,3.504772 0.0352,0.113219 0.18994,0.218538 0.46492,0.317134 0.2746,0.09739 0.4471,0.259284 0.51739,0.485714 0.0699,0.225226 0.18681,0.404934 0.3506,0.539162 0.18147,0.190798 0.30686,0.398246 0.37714,0.624676 0.51444,0.08277 0.84175,0.349987 0.98194,0.801645 0.32768,0.268418 0.57908,0.684443 0.75404,1.248109 0.54995,0.197193 0.93116,0.539827 1.14452,1.030274 l 0.75405,1.248111 0.0527,0.169823 0.10503,0.33844 0.15776,0.508265 0.49948,1.6091 c 0.24527,0.790098 0.25798,1.716956 0.0383,2.780538 -0.14654,1.102373 -0.41312,2.211435 -0.79948,3.328427 -0.75458,1.111842 -1.75093,2.330295 -2.9883,3.657769 -0.56133,0.553326 -1.19777,1.159854 -1.9082,1.823197 -0.65533,0.644361 -1.27252,1.21426 -1.8518,1.709773 -0.81874,0.511331 -1.58236,1.003687 -2.28991,1.479402 -0.65245,0.45671 -1.48876,0.91145 -2.5093,1.36297 -0.8191,0.51014 -1.56349,0.96587 -2.23313,1.36718 -0.61405,0.38351 -1.34815,0.7737 -2.2024,1.17061 -1.65228,0.77847 -3.34115,1.53688 -5.06648,2.27651 -1.67012,0.72062 -3.31054,1.34035 -4.92193,1.85675 -1.68768,0.66401 -3.30923,1.24592 -4.86502,1.7445 -1.5002,0.48077 -3.05598,0.97935 -4.66737,1.49575 -1.64652,0.40318 -3.19165,0.83744 -4.63638,1.30043 -1.4446,0.46296 -3.00779,0.83944 -4.68945,1.12941 -3.09076,0.86735 -6.19946,1.67688 -9.32574,2.42981 -3.07042,0.73635 -6.11336,1.46257 -9.12819,2.18111 -2.79294,0.6461 -5.667159,1.22687 -8.623889,1.73875 -2.90124,0.49543 -5.700626,1.02044 -8.399466,1.57547 -2.383324,0.39168 -4.646624,0.77535 -6.791088,1.15139 -2.142903,0.37688 -4.249946,0.77271 -6.319939,1.18713 1.180972,-0.12951 2.081197,0.0163 2.701052,0.43876 1.857349,0.27346 3.528805,0.54426 5.018298,0.81246 1.561218,0.30613 3.111932,0.67919 4.652581,1.1164 2.792719,0.53253 5.409702,1.09092 7.850582,1.67398 2.49718,0.56499 4.71784,1.12593 6.662329,1.68265 2.25988,0.39211 4.10504,0.82574 5.53474,1.2985 1.50274,0.51158 2.80381,0.96333 3.90331,1.35651 0.32732,0.26721 0.64603,0.50672 0.95576,0.71732 0.3656,0.19404 0.58303,0.40245 0.65332,0.62888 l 0.1316,0.42396 0.0523,0.16861 z m -48.927085,-13.55661 -0.105052,-0.33843 z m -0.105052,-0.33843 -0.05271,-0.16982 z"
     fill="#000000"
     fill-opacity="0.86"
     id="path4"
     style="stroke-width:1.25287" />
  <defs
     id="defs11">
    <linearGradient
       id="paint0_linear_13_13"
       x1="0"
       y1="92"
       x2="185"
       y2="92"
       gradientUnits="userSpaceOnUse">
      <stop
         stop-color="#FFDB6E"
         id="stop6"
         offset="0"
         style="stop-color:#309400;stop-opacity:1;" />
      <stop
         offset="1"
         stop-color="#FFBC5E"
         id="stop8"
         style="stop-color:#5ecfff;stop-opacity:1;" />
    </linearGradient>
  </defs>
</svg>
