<?xml version="1.0" encoding="UTF-8" standalone="no"?>
<svg
   width="185"
   height="185"
   viewBox="0 0 185 185"
   fill="none"
   version="1.1"
   id="svg13"
   sodipodi:docname="logo.svg"
   inkscape:export-filename="logo.png"
   inkscape:export-xdpi="96"
   inkscape:export-ydpi="96"
   inkscape:version="1.2 (dc2aedaf03, 2022-05-15)"
   xmlns:inkscape="http://www.inkscape.org/namespaces/inkscape"
   xmlns:sodipodi="http://sodipodi.sourceforge.net/DTD/sodipodi-0.dtd"
   xmlns:xlink="http://www.w3.org/1999/xlink"
   xmlns="http://www.w3.org/2000/svg"
   xmlns:svg="http://www.w3.org/2000/svg">
  <sodipodi:namedview
     id="namedview15"
     pagecolor="#ffffff"
     bordercolor="#000000"
     borderopacity="0.25"
     inkscape:showpageshadow="2"
     inkscape:pageopacity="0.0"
     inkscape:pagecheckerboard="0"
     inkscape:deskcolor="#d1d1d1"
     showgrid="false"
     inkscape:zoom="3.9253982"
     inkscape:cx="132.72539"
     inkscape:cy="62.541425"
     inkscape:window-width="2560"
     inkscape:window-height="1351"
     inkscape:window-x="1431"
     inkscape:window-y="517"
     inkscape:window-maximized="1"
     inkscape:current-layer="svg13" />
  <path
     d="M0 92.5C0 41.4137 41.4137 0 92.5 0H135C162.614 0 185 22.3858 185 50V92.5C185 143.586 143.586 185 92.5 185V185C41.4137 185 0 143.586 0 92.5V92.5Z"
     fill="url(#paint0_linear_13_13)"
     id="path2"
     style="fill-opacity:1;fill:url(#linearGradient4131)" />
  <defs
     id="defs11">
    <linearGradient
       inkscape:collect="always"
       id="linearGradient4129">
      <stop
         style="stop-color:#1e854b;stop-opacity:1;"
         offset="0.48329046"
         id="stop4125" />
      <stop
         style="stop-color:#227499;stop-opacity:1;"
         offset="1"
         id="stop4127" />
    </linearGradient>
    <linearGradient
       id="paint0_linear_13_13"
       x1="0"
       y1="92"
       x2="185"
       y2="92"
       gradientUnits="userSpaceOnUse">
      <stop
         stop-color="#FFDB6E"
         id="stop6"
         offset="0"
         style="stop-color:#229b57;stop-opacity:1;" />
      <stop
         offset="1"
         stop-color="#FFBC5E"
         id="stop8"
         style="stop-color:#5ecfff;stop-opacity:1;" />
    </linearGradient>
    <linearGradient
       inkscape:collect="always"
       xlink:href="#linearGradient4129"
       id="linearGradient4131"
       x1="0"
       y1="92.5"
       x2="185"
       y2="92.5"
       gradientUnits="userSpaceOnUse" />
  </defs>
  <text
     xml:space="preserve"
     style="font-style:normal;font-variant:normal;font-weight:normal;font-stretch:normal;font-size:120px;font-family:Perpetua;-inkscape-font-specification:Perpetua;display:none;fill:#ffffff;fill-opacity:1"
     x="21.399103"
     y="130.68738"
     id="text4073"><tspan
       sodipodi:role="line"
       id="tspan4071"
       x="21.399103"
       y="130.68738"
       style="font-style:normal;font-variant:normal;font-weight:bold;font-stretch:normal;font-size:120px;font-family:Bahnschrift;-inkscape-font-specification:'Bahnschrift Bold'">DB</tspan></text>
  <g
     aria-label="DB"
     id="text4073-1"
     style="font-size:120px;font-family:Perpetua;-inkscape-font-specification:Perpetua;fill:#ffffff">
    <path
       d="m 38.956812,114.8907 h 20.449219 q 7.910156,0 12.246093,-3.80859 4.335938,-3.8086 4.335938,-10.78125 V 75.222733 q 0,-6.972657 -4.335938,-10.78125 -4.335937,-3.808594 -12.246093,-3.808594 H 38.956812 v -15.46875 h 20.097656 q 10.664063,0 18.164063,3.574219 7.558593,3.574218 11.484375,10.429687 3.925781,6.855469 3.925781,16.523438 v 24.140625 q 0,9.199222 -3.808594,16.054692 -3.75,6.85546 -11.308594,10.66406 -7.558593,3.80859 -18.515625,3.80859 H 38.956812 Z M 30.870874,45.164139 H 46.925562 V 130.35945 H 30.870874 Z"
       style="font-weight:bold;font-family:Bahnschrift;-inkscape-font-specification:'Bahnschrift Bold'"
       id="path4901" />
    <path
       d="m 115.48025,114.8907 h 27.1875 q 5.50781,0 8.49609,-2.63672 3.04688,-2.69531 3.04688,-7.5 v -0.17578 q 0,-3.22265 -1.34766,-5.507811 -1.34765,-2.285156 -3.98437,-3.457031 -2.57813,-1.230469 -6.21094,-1.230469 h -27.1875 v -15.46875 h 27.1875 q 4.98047,0 7.67578,-2.519531 2.75391,-2.519532 2.75391,-7.089844 v 0 q 0,-4.101563 -2.75391,-6.386719 -2.69531,-2.285156 -7.67578,-2.285156 h -27.1875 v -15.46875 h 27.71484 q 8.26172,0 14.1211,2.753906 5.85937,2.695313 8.90625,7.910156 3.04687,5.15625 3.04687,12.421875 v 0 q 0,4.980469 -1.99219,8.847657 -1.93359,3.808593 -5.68359,6.269531 -3.75,2.460937 -9.02344,3.339844 5.625,0.761718 9.60938,3.457031 4.04297,2.636719 6.09375,6.914062 2.10937,4.277349 2.10937,9.902349 v 0.17578 q 0,7.32422 -3.10547,12.53906 -3.04687,5.21484 -8.96484,7.96875 -5.85937,2.69531 -14.12109,2.69531 H 115.48025 Z M 108.449,45.164139 h 16.05469 V 130.35945 H 108.449 Z"
       style="font-weight:bold;font-family:Bahnschrift;-inkscape-font-specification:'Bahnschrift Bold'"
       id="path4903" />
  </g>
</svg>
